<?xml version="1.0" encoding="UTF-8" standalone="no"?>
<svg width="38px" height="53px" viewBox="0 0 38 53" version="1.1" xmlns="http://www.w3.org/2000/svg" xmlns:xlink="http://www.w3.org/1999/xlink">
    <!-- Generator: Sketch 3.8 (29681) - http://www.bohemiancoding.com/sketch -->
    <title>swash</title>
    <desc>Created with Sketch.</desc>
    <defs></defs>
    <g id="Page-1" stroke="none" stroke-width="1" fill="none" fill-rule="evenodd">
        <g id="swash" transform="translate(-1.000000, -1.000000)" fill="#FFFFFF">
            <g id="Group">
                <g id="Clipped" transform="translate(1.000000, 34.000000)">
                    <path d="M4.5792273,5 L0,3.11905196 C0,3.11905196 7.78534656,1.26314614 10.408335,0.364409132 C16.131819,-1.59723046 4.5792273,5 4.5792273,5" id="Shape"></path>
                </g>
                <g id="Clipped">
                    <path d="M26.878,45.71 C25.989,46.663 25.641,48.011 25.921,49.204 C26.17,50.423 27.098,51.349 28.169,51.906 C30.333,53.052 33.131,52.582 34.732,50.917 C34.885,50.729 35.178,50.436 35.324,50.215 C35.484,49.985 35.652,49.767 35.788,49.497 C36.094,48.993 36.288,48.437 36.447,47.88 C36.719,46.752 36.719,45.561 36.376,44.466 C36.064,43.363 35.426,42.383 34.609,41.594 L34.458,41.444 L34.42,41.406 L34.411,41.397 C34.404,41.39 34.442,41.424 34.42,41.405 L34.398,41.386 L34.305,41.306 L33.936,40.995 C33.713,40.826 33.489,40.657 33.236,40.493 C32.742,40.169 32.222,39.888 31.682,39.652 C30.597,39.194 29.438,38.915 28.27,38.859 C27.682,38.832 27.112,38.851 26.515,38.916 L24.571,39.133 L16.808,40.052 C15.52,40.163 14.137,40.365 12.7,40.208 C11.304,40.081 10.074,39.827 8.759,39.618 C7.447,39.383 6.143,39.113 4.864,38.743 C3.58,38.379 2.327,37.96 1.095,37.365 L1.346,36.594 C1.225,36.561 1.265,36.57 1.289,36.556 L1.362,36.526 L1.52,36.463 L1.843,36.333 L2.496,36.086 C2.934,35.938 3.368,35.768 3.806,35.626 C4.68,35.325 5.558,35.064 6.432,34.785 C8.19,34.279 9.947,33.796 11.708,33.335 C15.219,32.377 18.677,31.217 21.937,29.701 C23.563,28.942 25.139,28.09 26.596,27.101 C28.047,26.112 29.387,24.979 30.429,23.664 C30.946,23.007 31.396,22.31 31.718,21.569 C31.879,21.193 32.019,20.837 32.127,20.423 C32.269,19.953 32.344,19.599 32.428,19.181 C32.754,17.514 32.738,15.785 32.406,14.116 C31.778,10.764 29.825,7.654 27.052,5.557 C25.672,4.5 24.102,3.682 22.429,3.151 L22.116,3.049 C22.09,3.037 21.914,3 21.822,2.975 L21.148,2.81 C20.719,2.742 20.339,2.672 19.909,2.644 C19.055,2.576 18.191,2.625 17.341,2.765 C15.655,3.078 14.006,3.766 12.653,4.857 C11.283,5.929 10.218,7.386 9.615,9.04 C8.984,10.669 9.102,12.502 9.931,14.068 C10.738,15.632 12.227,16.843 13.957,17.383 L13.872,17.692 C12.037,17.254 10.326,16.092 9.325,14.412 C8.309,12.762 8.055,10.586 8.674,8.725 C8.946,7.79 9.389,6.913 9.902,6.082 C10.459,5.283 11.069,4.501 11.824,3.871 C13.283,2.555 15.118,1.665 17.049,1.253 C18.018,1.058 19.011,0.967 20.003,1.01 C20.495,1.024 21.034,1.101 21.519,1.168 L22.198,1.308 C22.33,1.338 22.383,1.341 22.579,1.393 L22.931,1.492 C24.804,2.017 26.596,2.868 28.194,4.007 C31.402,6.265 33.8,9.737 34.662,13.647 C35.083,15.597 35.133,17.638 34.78,19.608 C34.692,20.098 34.572,20.65 34.452,21.067 C34.332,21.551 34.147,22.064 33.948,22.538 C33.544,23.501 32.993,24.378 32.379,25.181 C31.141,26.787 29.63,28.083 28.047,29.198 C26.457,30.311 24.779,31.245 23.068,32.075 C19.638,33.729 16.071,34.978 12.462,36.02 C10.66,36.555 8.824,36.96 6.967,37.239 C6.033,37.354 5.098,37.458 4.153,37.493 C3.682,37.52 3.205,37.509 2.73,37.511 L2.012,37.477 L1.648,37.442 L1.132,37.378 L1.383,36.607 C2.617,36.864 3.909,37.046 5.178,37.209 C6.454,37.363 7.729,37.491 9.006,37.58 C10.282,37.668 11.639,37.751 12.845,37.812 C14.015,37.835 15.238,37.712 16.539,37.558 L24.333,36.782 L26.281,36.602 C26.982,36.538 27.719,36.525 28.432,36.588 C29.868,36.708 31.271,37.098 32.567,37.7 C33.213,38.008 33.831,38.37 34.414,38.782 C34.702,38.983 34.991,39.214 35.278,39.454 L35.646,39.786 L35.736,39.869 L35.803,39.931 L35.85,39.981 L36.039,40.181 C37.065,41.237 37.798,42.577 38.127,44.006 C38.483,45.432 38.398,46.94 37.979,48.32 C37.746,49.003 37.459,49.672 37.058,50.267 C36.878,50.571 36.639,50.863 36.405,51.152 C36.159,51.453 35.972,51.608 35.69,51.903 C34.609,52.882 33.22,53.495 31.796,53.609 C30.377,53.708 28.935,53.378 27.758,52.618 C27.154,52.22 26.652,51.797 26.22,51.214 C25.804,50.647 25.524,49.982 25.436,49.292 C25.217,47.908 25.821,46.503 26.811,45.646 L26.878,45.71 L26.878,45.71 Z" id="Shape" transform="translate(19.722574, 27.312828) rotate(-1.000000) translate(-19.722574, -27.312828) "></path>
                </g>
                <g id="Clipped" transform="translate(25.000000, 44.000000)">
                    <path d="M8.43,4.456 C8.43,6.658 6.645,8.443 4.444,8.443 C2.243,8.443 0.458,6.658 0.458,4.456 C0.458,2.254 2.243,0.47 4.444,0.47 C6.645,0.47 8.43,2.254 8.43,4.456" id="Shape"></path>
                </g>
            </g>
        </g>
    </g>
</svg>