<svg xmlns="http://www.w3.org/2000/svg" width="37" height="37" viewBox="0 0 37 37" version="1.1"><g id="Page-1" stroke="none" stroke-width="1" fill="none" fill-rule="evenodd"><g id="facebook-icon" fill="#FFFFFF"><path d="M0 0L0 36.02 36.02 36.02 36.02 0 0 0 0 0ZM34.02 34.02L2 34.02 2 2 34.02 2 34.02 34.02 34.02 34.02ZM15.67 26.52L18.96 26.52 18.96 17.68 21.57 17.68 21.77 15.13 18.96 15.13 18.96 13.14C18.96 12.46 19.58 12.22 20.26 12.22 20.94 12.22 21.68 12.43 21.68 12.43L22.12 9.82C22.12 9.82 21.18 9.51 18.96 9.51 17.6 9.51 16.81 10.02 16.23 10.79 15.69 11.51 15.67 12.67 15.67 13.42L15.67 15.13 13.91 15.13 13.91 17.68 15.67 17.68 15.67 26.52 15.67 26.52Z" id="Shape"/></g></g></svg>