<svg width="37px" height="37px" viewBox="0 0 37 37" version="1.1" xmlns="http://www.w3.org/2000/svg" xmlns:xlink="http://www.w3.org/1999/xlink">
    <defs></defs>
    <g id="Page-1" stroke="none" stroke-width="1" fill="none" fill-rule="evenodd">
        <g id="Artboard" fill="#FFFFFF">
            <path d="M0,0 L0,36.021 L36.016,36.021 L36.016,0 L0,0 L0,0 Z M34.016,34.021 L2,34.021 L2,2 L34.016,2 L34.016,34.021 L34.016,34.021 Z" id="Shape"></path>
            <path d="M15.667,26.517 L18.963,26.517 L18.963,17.676 L21.572,17.676 L21.767,15.131 L18.963,15.131 L18.963,13.144 C18.963,12.46 19.575,12.215 20.259,12.215 C20.943,12.215 21.676,12.427 21.676,12.427 L22.115,9.821 C22.115,9.821 21.181,9.505 18.963,9.505 C17.602,9.505 16.81,10.023 16.234,10.786 C15.686,11.506 15.667,12.668 15.667,13.422 L15.667,15.131 L13.909,15.131 L13.909,17.676 L15.667,17.676 L15.667,26.517 L15.667,26.517 Z" id="Shape"></path>
        </g>
    </g>
</svg>