<?xml version="1.0" encoding="utf-8"?>
<!-- Generator: Adobe Illustrator 16.2.1, SVG Export Plug-In . SVG Version: 6.00 Build 0)  -->
<!DOCTYPE svg PUBLIC "-//W3C//DTD SVG 1.1//EN" "http://www.w3.org/Graphics/SVG/1.1/DTD/svg11.dtd">
<svg version="1.1" id="Layer_1" xmlns="http://www.w3.org/2000/svg" xmlns:xlink="http://www.w3.org/1999/xlink" x="0px" y="0px"
	 width="318.35px" height="443.802px" viewBox="0 0 318.35 443.802" enable-background="new 0 0 318.35 443.802"
	 xml:space="preserve">
<path fill="#231F20" d="M1.5,409.951h15.675v17.928H33.85v14.423H1.5V409.951z M18.175,409.951H33.85v16.927H18.175V409.951z
	 M284.5,409.951h15.551v16.927H284.5V409.951z M284.5,427.879h16.551v-17.928h15.798v32.351H284.5V427.879z M18.175,34.85h17.27
	v375.102H283.5v16.928H34.85v-17.928H18.175V34.85z M36.445,34.85H283.5v374.102H36.445V34.85z M284.5,34.85h15.551v374.102H284.5
	V34.85z M18.175,16.626h17.27V33.85h-17.27V16.626z M36.445,16.626H283.5V33.85H36.445V16.626z M284.5,16.626h15.551V33.85H284.5
	V16.626z M3.095,1.5h32.35v14.126h-18.27v18.224H3.095V1.5z M284.5,1.5h32.349v32.35h-15.798V15.626H284.5V1.5z M283.5,0.5v15.126
	H36.445V0.5H2.095V34.85h15.08v374.102H0.5v34.351h34.35v-15.423H283.5v15.423h34.349v-34.351h-16.798V34.85h16.798V0.5H283.5z"/>
<g>
	<defs>
		<rect id="SVGID_1_" width="318.35" height="443.802"/>
	</defs>
	<clipPath id="SVGID_2_">
		<use xlink:href="#SVGID_1_"  overflow="visible"/>
	</clipPath>
	<path clip-path="url(#SVGID_2_)" fill="none" stroke="#231F20" stroke-miterlimit="10" d="M317.85,34.85V0.5H283.5v15.127H36.445
		V0.5H2.095v34.35h15.08v374.103H0.5v34.35h34.35v-15.424H283.5v15.424h34.35v-34.35h-16.799V34.85H317.85z M284.5,1.5h32.35v32.35
		h-15.799V15.627H284.5V1.5z M284.5,16.627h15.551V33.85H284.5V16.627z M283.5,33.85H36.445V16.627H283.5V33.85z M283.5,408.952
		H36.445V34.849H283.5V408.952z M35.445,33.85h-17.27V16.627h17.27V33.85z M3.095,33.85V1.5h32.35v14.127h-18.27V33.85H3.095z
		 M33.85,442.302H1.5v-32.35h15.675v17.926H33.85V442.302z M33.85,426.878H18.175v-16.926H33.85V426.878z M34.85,426.878v-17.926
		H18.175V34.85h17.27v375.103H283.5v16.926H34.85z M284.5,409.952h15.551v16.926H284.5V409.952z M316.85,409.952v32.35H284.5
		v-14.424h16.551v-17.926H316.85z M300.051,408.952H284.5V34.849h15.551V408.952z"/>
</g>
</svg>
