<?xml version="1.0" encoding="UTF-8" standalone="no"?>
<svg width="1000px" height="380px" viewBox="0 0 1000 380" version="1.1" xmlns="http://www.w3.org/2000/svg" xmlns:xlink="http://www.w3.org/1999/xlink">
    <!-- Generator: Sketch 3.8 (29681) - http://www.bohemiancoding.com/sketch -->
    <title>180 - iPhone 6 Plus</title>
    <desc>Created with Sketch.</desc>
    <defs></defs>
    <g id="Page-1" stroke="none" stroke-width="1" fill="none" fill-rule="evenodd">
        <g id="180---iPhone-6-Plus" stroke-width="2" stroke="#F5E6CE">
            <g id="frame-corner" transform="translate(2.000000, 2.000000)">
                <polyline id="Shape" points="16.496 42.687 16.496 0 0 0 0 16.207 65.984 16.207"></polyline>
                <polyline id="Shape" points="8.104 63.813 8.104 7.524 96.371 7.524"></polyline>
            </g>
            <g id="frame-corner-copy-3" transform="translate(949.500000, 346.000000) scale(-1, -1) translate(-949.500000, -346.000000) translate(901.000000, 314.000000)">
                <polyline id="Shape" points="16.496 42.687 16.496 0 0 0 0 16.207 65.984 16.207"></polyline>
                <polyline id="Shape" points="8.104 63.813 8.104 7.524 96.371 7.524"></polyline>
            </g>
            <g id="frame-corner-copy-2" transform="translate(50.500000, 346.000000) scale(1, -1) translate(-50.500000, -346.000000) translate(2.000000, 314.000000)">
                <polyline id="Shape" points="16.496 42.687 16.496 0 0 0 0 16.207 65.984 16.207"></polyline>
                <polyline id="Shape" points="8.104 63.813 8.104 7.524 96.371 7.524"></polyline>
            </g>
            <g id="frame-corner-copy" transform="translate(949.500000, 34.000000) scale(-1, 1) translate(-949.500000, -34.000000) translate(901.000000, 2.000000)">
                <polyline id="Shape" points="16.496 42.687 16.496 0 0 0 0 16.207 65.984 16.207"></polyline>
                <polyline id="Shape" points="8.104 63.813 8.104 7.524 96.371 7.524"></polyline>
            </g>
            <path d="M10,88.5 L10,288.5" id="Line" stroke-linecap="square"></path>
            <path d="M125,9 L875.609375,9" id="Line-Copy-2" stroke-linecap="square"></path>
            <path d="M125,370 L875.609375,370" id="Line-Copy-3" stroke-linecap="square"></path>
            <path d="M990,89 L990,289" id="Line-Copy" stroke-linecap="square"></path>
        </g>
    </g>
</svg>