<?xml version="1.0" encoding="UTF-8" standalone="no"?>
<svg width="194px" height="194px" viewBox="0 0 194 194" version="1.1" xmlns="http://www.w3.org/2000/svg" xmlns:xlink="http://www.w3.org/1999/xlink">
    <!-- Generator: Sketch 3.8 (29681) - http://www.bohemiancoding.com/sketch -->
    <title>180 - iPhone 6 Plus</title>
    <desc>Created with Sketch.</desc>
    <defs></defs>
    <g id="Page-1" stroke="none" stroke-width="1" fill="none" fill-rule="evenodd">
        <g id="180---iPhone-6-Plus" stroke-width="2" stroke="#F5E6CE">
            <g id="frame-corner" transform="translate(1.000000, 0.000000)">
                <polyline id="Shape" points="16.496 42.4843325 16.496 0 0 0 0 16.1300531 65.984 16.1300531"></polyline>
                <polyline id="Shape" points="8.104 63.5100314 8.104 7.48827788 96.371 7.48827788"></polyline>
            </g>
            <g id="frame-corner-copy-3" transform="translate(144.500000, 161.848072) scale(-1, -1) translate(-144.500000, -161.848072) translate(96.000000, 130.000000)">
                <polyline id="Shape" points="16.496 42.4843325 16.496 0 0 0 0 16.1300531 65.984 16.1300531"></polyline>
                <polyline id="Shape" points="8.104 63.5100314 8.104 7.48827788 96.371 7.48827788"></polyline>
            </g>
            <g id="frame-corner-copy-2" transform="translate(49.500000, 161.848072) scale(1, -1) translate(-49.500000, -161.848072) translate(1.000000, 130.000000)">
                <polyline id="Shape" points="16.496 42.4843325 16.496 0 0 0 0 16.1300531 65.984 16.1300531"></polyline>
                <polyline id="Shape" points="8.104 63.5100314 8.104 7.48827788 96.371 7.48827788"></polyline>
            </g>
            <g id="frame-corner-copy" transform="translate(144.500000, 31.848072) scale(-1, 1) translate(-144.500000, -31.848072) translate(96.000000, 0.000000)">
                <polyline id="Shape" points="16.496 42.4843325 16.496 0 0 0 0 16.1300531 65.984 16.1300531"></polyline>
                <polyline id="Shape" points="8.104 63.5100314 8.104 7.48827788 96.371 7.48827788"></polyline>
            </g>
        </g>
    </g>
</svg>