<?xml version="1.0" encoding="UTF-8" standalone="no"?>
<svg width="1000px" height="190px" viewBox="0 0 1000 190" version="1.1" xmlns="http://www.w3.org/2000/svg" xmlns:xlink="http://www.w3.org/1999/xlink">
    <!-- Generator: Sketch 3.8 (29681) - http://www.bohemiancoding.com/sketch -->
    <title>180 - iPhone 6 Plus</title>
    <desc>Created with Sketch.</desc>
    <defs></defs>
    <g id="Page-1" stroke="none" stroke-width="1" fill="none" fill-rule="evenodd">
        <g id="180---iPhone-6-Plus" stroke="#F5E6CE">
            <g id="frame" transform="translate(2.000000, 2.000000)">
                <g id="Group">
                    <g id="frame-corner" stroke-width="2">
                        <polyline id="Shape" points="16.496 42.687 16.496 0 0 0 0 16.207 65.984 16.207"></polyline>
                        <polyline id="Shape" points="8.104 63.813 8.104 7.524 96.371 7.524"></polyline>
                    </g>
                    <g id="frame-corner-copy-3" transform="translate(947.500000, 344.000000) scale(-1, -1) translate(-947.500000, -344.000000) translate(899.000000, 312.000000)" stroke-width="2">
                        <polyline id="Shape" points="16.496 42.687 16.496 0 0 0 0 16.207 65.984 16.207"></polyline>
                        <polyline id="Shape" points="8.104 63.813 8.104 7.524 96.371 7.524"></polyline>
                    </g>
                    <g id="frame-corner-copy-2" transform="translate(48.500000, 344.000000) scale(1, -1) translate(-48.500000, -344.000000) translate(0.000000, 312.000000)" stroke-width="2">
                        <polyline id="Shape" points="16.496 42.687 16.496 0 0 0 0 16.207 65.984 16.207"></polyline>
                        <polyline id="Shape" points="8.104 63.813 8.104 7.524 96.371 7.524"></polyline>
                    </g>
                    <g id="frame-corner-copy" transform="translate(947.500000, 32.000000) scale(-1, 1) translate(-947.500000, -32.000000) translate(899.000000, 0.000000)" stroke-width="2">
                        <polyline id="Shape" points="16.496 42.687 16.496 0 0 0 0 16.207 65.984 16.207"></polyline>
                        <polyline id="Shape" points="8.104 63.813 8.104 7.524 96.371 7.524"></polyline>
                    </g>
                    <path d="M123,7 L873.609375,7" id="Line-Copy-2" stroke-width="2" stroke-linecap="square"></path>
                    <path d="M123,368 L873.609375,368" id="Line-Copy-3" stroke-width="2" stroke-linecap="square"></path>
                </g>
            </g>
        </g>
    </g>
</svg>