<?xml version="1.0" encoding="utf-8"?>
<!-- Generator: Adobe Illustrator 19.2.1, SVG Export Plug-In . SVG Version: 6.00 Build 0)  -->
<svg version="1.1" id="Layer_1" xmlns="http://www.w3.org/2000/svg" xmlns:xlink="http://www.w3.org/1999/xlink" x="0px" y="0px"
	 viewBox="0 0 200 81" style="enable-background:new 0 0 200 81;" xml:space="preserve">
<style type="text/css">
	.st0{fill:none;}
	.st1{fill:#FFFFFF;}
</style>
<title>Artboard</title>
<desc>Created with Sketch.</desc>
<g id="Page-1">
	<g id="Artboard">
		<g id="logo">
			<g id="Group">
				<path id="Shape" class="st0" d="M109.3,30.8h-1.6v7.7h1.6c1.2,0,2-0.3,2.5-0.8c0.5-0.6,0.7-1.6,0.7-3c0-1.5-0.2-2.5-0.7-3
					C111.4,31.1,110.5,30.8,109.3,30.8z"/>
				<polygon id="Shape_1_" class="st0" points="94.2,32.3 94.2,32.2 93.9,32.2 92.3,42.7 92.2,42.9 95.9,42.9 				"/>
				<polygon id="Shape_2_" class="st0" points="141.1,32.3 141.1,32.2 140.8,32.2 139.1,42.7 139.1,42.9 142.8,42.9 				"/>
				<path id="Shape_3_" class="st0" d="M84.9,60.7c-0.3,0.4-0.5,1.1-0.5,2.1v11.6c0,0.9,0.2,1.6,0.5,2.1c0.4,0.4,0.9,0.7,1.8,0.7
					c0.8,0,1.4-0.2,1.8-0.7c0.3-0.4,0.5-1.1,0.5-2.1V62.7c0-0.9-0.2-1.6-0.5-2.1c-0.3-0.5-0.9-0.7-1.8-0.7
					C85.9,60,85.3,60.2,84.9,60.7z"/>
				<polygon id="Shape_4_" class="st0" points="192.4,32.2 192.1,32.2 190.4,42.7 190.4,42.9 194,42.9 192.4,32.3 				"/>
				<path id="Shape_5_" class="st0" d="M156.2,30.8h-1.6v7.7h1.6c1.2,0,2-0.3,2.5-0.8c0.5-0.6,0.7-1.6,0.7-3c0-1.5-0.2-2.5-0.7-3
					C158.2,31.1,157.4,30.8,156.2,30.8z"/>
				<path id="Shape_6_" class="st0" d="M64.8,4.2l0.3,8.1l8.8-5L66.2,13l7.3,1.4l-8.1-0.4l6.4,7.6l0,0c0,0,0.1-0.1,0.3-0.3
					c0.2-0.2,0.5-0.5,0.9-0.8c0.7-0.8,1.7-1.9,2.3-3.6c0.3-0.8,0.6-1.8,0.7-2.8c0.1-0.5,0.1-1,0.1-1.6c0-0.2,0-0.6,0-0.8
					c0-0.3-0.1-0.5-0.1-0.8c-0.2-1.1-0.5-2.2-1-3.2c-0.5-1-1.1-2-1.9-2.9c-0.8-0.9-1.7-1.7-2.7-2.3c-1-0.6-2.1-1.1-3.1-1.4
					c-1.1-0.3-2.2-0.4-3.2-0.4c-1,0-2,0.2-2.9,0.4c-1.8,0.5-3.1,1.3-3.9,1.9c-0.3,0.2-0.5,0.4-0.7,0.6l7.2,8.5
					C63.9,12.2,64.8,4.2,64.8,4.2z"/>
				<circle id="Oval" class="st1" cx="46.3" cy="55" r="1.4"/>
				<circle id="Oval_1_" class="st1" cx="45.8" cy="62.4" r="1.4"/>
				<circle id="Oval_2_" class="st1" cx="45.1" cy="70.2" r="1.4"/>
				<path id="Shape_7_" class="st1" d="M41.6,44.9l14.5,6V26.6l-14,8.7l0.2-4.3l22.6-17l7.4,7.8l0.2,0.2c0,0,0.1-0.1,0.3-0.3
					c0.2-0.2,0.6-0.5,1-0.9c0.8-0.8,1.9-2,2.7-3.8c0.4-0.9,0.7-1.9,0.9-3c0.1-0.6,0.1-1.1,0.2-1.7c0-0.3,0-0.6,0-0.9
					c0-0.3,0-0.6-0.1-0.9c-0.1-1.2-0.5-2.4-1-3.6C75.9,6,75.1,4.9,74.2,4c-0.9-0.9-1.9-1.7-3-2.4C70,1,68.8,0.6,67.7,0.3
					C66.8,0.1,65.9,0,65.1,0h0c-0.3,0-0.6,0-0.8,0c-1.1,0.1-2.1,0.3-3,0.5C59.4,1.1,58,2,57.1,2.7c-0.4,0.3-0.8,0.6-1,0.8
					c-0.2,0.2-0.3,0.3-0.3,0.3l0,0l-0.5,0.4l8.4,8.8L36.1,28.8L8.1,6.9l22.7-1L1,2.7L0,9.9v0l34.9,20.5l0.3,4.3l-14.1-7.3v22.4
					l14.7-6.1l2.3,34.5l-9.9,2.4h10.7h0.4h10.7L40,78.3L41.6,44.9L41.6,44.9z M56.7,3.7c0.2-0.2,0.4-0.4,0.7-0.6
					c0.8-0.6,2.2-1.4,3.9-1.9c0.9-0.2,1.9-0.4,2.9-0.4c1,0,2.1,0.1,3.2,0.4c1.1,0.3,2.1,0.7,3.1,1.4c1,0.6,1.9,1.4,2.7,2.3
					c0.8,0.9,1.4,1.9,1.9,2.9c0.5,1,0.8,2.1,1,3.2c0,0.3,0.1,0.5,0.1,0.8c0,0.2,0,0.6,0,0.8c0,0.5,0,1.1-0.1,1.6
					c-0.1,1-0.4,1.9-0.7,2.8c-0.7,1.7-1.6,2.8-2.3,3.6c-0.4,0.4-0.7,0.6-0.9,0.8c-0.2,0.2-0.3,0.3-0.3,0.3l0,0l-6.4-7.6l8.1,0.4
					L66.2,13l7.7-5.8l-8.8,5l-0.3-8.1l-0.8,8L56.7,3.7L56.7,3.7z"/>
				<path id="Shape_8_" class="st1" d="M115.7,38.7c0.5-0.9,0.8-2.3,0.8-4.1c0-2.5-0.6-4.3-1.7-5.4c-1.1-1.1-2.9-1.7-5.3-1.7h-5.7
					v11.4l-1.2,1.1c0,0,0,0.1,0,0.1c0,0,0,0.1,0,0.1l1.2,1.1v10.2h3.9v-10h0.1c0.4,0,0.8,0,1.2,0s0.7,0,1-0.1l0.1,0l0,0.1l2.9,10h4
					l-3.5-11l0.1,0C114.5,40.3,115.2,39.6,115.7,38.7z M111.8,37.6c-0.5,0.6-1.3,0.8-2.5,0.8h-1.6v-7.7h1.6c1.2,0,2,0.3,2.5,0.8
					c0.5,0.6,0.7,1.5,0.7,3C112.6,36.1,112.3,37.1,111.8,37.6z"/>
				<path id="Shape_9_" class="st1" d="M123.6,31.3c0.4-0.4,0.8-0.6,1.4-0.6c0.9,0,1.5,0.3,1.9,1c0.4,0.7,0.6,1.8,0.6,3.5h3.7v-1.4
					c0-1.9-0.5-3.5-1.6-4.7c-1.1-1.2-2.6-1.8-4.5-1.8c-1.9,0-3.4,0.6-4.5,1.7c-1,1.1-1.6,2.6-1.6,4.4v5.6l-1.2,1.2c0,0,0,0.1,0,0.1
					c0,0,0,0.1,0,0.1l1.2,1.2v4.5c0,1.9,0.5,3.4,1.5,4.5c1,1.1,2.3,1.6,4,1.6c0.9,0,1.7-0.2,2.3-0.5c0.6-0.3,1.2-0.9,1.9-1.6
					l0.1-0.2l0.8,1.9h1.8V39.6h-6.6v3.1h2.7v2.5c0,1.2-0.2,2.1-0.6,2.7c-0.4,0.5-1,0.8-1.9,0.8c-0.7,0-1.3-0.2-1.6-0.7
					c-0.3-0.5-0.5-1.1-0.5-2V33.4C123.1,32.4,123.3,31.7,123.6,31.3z"/>
				<path id="Shape_10_" class="st1" d="M162.6,38.7c0.5-0.9,0.8-2.3,0.8-4.1c0-2.5-0.6-4.3-1.7-5.4s-2.9-1.7-5.3-1.7h-5.7V39
					l-1.1,1.1c0,0,0,0.1,0,0.1c0,0,0,0.1,0,0.1l1.1,1.1v10.3h3.9v-10h0.1c0.4,0,0.8,0,1.1,0c0.4,0,0.7,0,1-0.1l0.1,0l0,0.1l2.9,10h4
					l-3.5-11l0.1,0C161.4,40.3,162,39.6,162.6,38.7L162.6,38.7z M158.7,37.6c-0.5,0.6-1.3,0.8-2.5,0.8h-1.6v-7.7h1.6
					c1.2,0,2,0.3,2.5,0.8c0.5,0.6,0.7,1.5,0.7,3C159.4,36.1,159.2,37.1,158.7,37.6z"/>
				<path id="Shape_11_" class="st1" d="M198.2,40.2C198.2,40.1,198.2,40.1,198.2,40.2c0-0.1,0-0.2,0-0.2l-1.3-0.9l0,0l-2.1-11.5h-5
					l-2.1,11.5l-1.4,0.9c0,0-0.1,0-0.1,0.1c0,0,0,0.1,0,0.1l0.9,1.4l-1.9,10.1h3.8l0.7-5.4h4.8l0.7,5.4h3.8l-1.9-10.1
					C197.3,41.5,198.2,40.2,198.2,40.2z M190.4,42.9l0-0.1l1.7-10.5h0.3l0,0.1l1.7,10.6L190.4,42.9L190.4,42.9z"/>
				<path id="Shape_12_" class="st1" d="M79.1,27.6l-3,14.2h-0.3l-3-14.2h-5.3v11.3l-1.2,1.2c0,0,0,0.1,0,0.1s0,0.1,0,0.1l1.2,1.2
					v10.2H71v-19h0.3l0,0.1l3.8,18.9h1.8l3.8-19H81v19h3.4V41.4l1.1-1.1c0,0,0-0.1,0-0.1s0-0.1,0-0.1L84.4,39V27.6
					C84.4,27.6,79.1,27.6,79.1,27.6z"/>
				<path id="Shape_13_" class="st1" d="M167,27.6v11.4l-1.1,1.2c0,0,0,0.1,0,0.1c0,0,0,0.1,0,0.1l1.1,1.2v10.2h3.9V41.5l1.2-1.2
					c0,0,0-0.1,0-0.1c0,0,0-0.1,0-0.1l-1.2-1.2V27.6H167z"/>
				<path id="Shape_14_" class="st1" d="M185.6,31v-3.4h-12V31h4.1v8l-1.1,1.1c0,0,0,0.1,0,0.1s0,0.1,0,0.1l1.1,1.1v10.2h3.9V41.4
					l1.2-1.2c0.1-0.1,0.1-0.1,0-0.2l-1.2-1.2V31C181.6,31,185.6,31,185.6,31z"/>
				<path id="Shape_15_" class="st1" d="M134,51.7h3.8l0.7-5.4h4.8l0.7,5.4h3.8L146,41.5l0.9-1.4c0-0.1,0-0.1,0-0.2l-1.4-0.9l0,0
					l-2.1-11.5h-5l-2.1,11.5L135,40c0,0-0.1,0-0.1,0.1c0,0,0,0.1,0,0.1l0.9,1.4l0,0L134,51.7L134,51.7z M139.1,42.7l1.7-10.5h0.3
					l0,0.1l1.7,10.6h-3.6L139.1,42.7z"/>
				<path id="Shape_16_" class="st1" d="M87.1,51.7h3.8l0.7-5.4h4.8l0.7,5.4h3.8l-1.9-10.1l0.9-1.4c0,0,0-0.1,0-0.1
					c0,0,0-0.1-0.1-0.1l-1.4-0.9l0,0l-2.1-11.5h-5l-2.1,11.5L88.1,40c-0.1,0-0.1,0.1,0,0.2l0.9,1.4l0,0L87.1,51.7z M92.3,42.7
					l1.7-10.5h0.3l0,0.1l1.7,10.6h-3.6C92.2,42.9,92.3,42.7,92.3,42.7z"/>
				<path id="Shape_17_" class="st1" d="M72.5,77.1c-0.7,0-1.3-0.3-1.8-1c-0.4-0.6-0.7-1.4-0.8-2.5l-3.4,0.5
					c0.1,1.7,0.7,3.1,1.6,4.2c1,1.2,2.4,1.8,4.1,1.8c1.8,0,3.3-0.5,4.4-1.5c1.1-1,1.6-2.4,1.6-4.2c0-0.8-0.1-1.6-0.4-2.2
					c-0.3-0.7-0.6-1.3-1-1.9c-0.4-0.6-0.9-1.1-1.4-1.5c-0.1-0.1-0.2-0.2-0.3-0.2l-0.1-0.1l-0.1-1.3c0-0.1-0.1-0.1-0.1-0.1l-1.3,0.1
					l-0.1-0.1c-1.1-1-1.9-1.8-2.5-2.4c-0.6-0.7-0.9-1.4-0.9-2.2c0-2,1.2-2.4,2.2-2.4c0.6,0,1.1,0.2,1.5,0.6c0.4,0.4,0.7,1,0.7,1.9
					l3.4-0.4c-0.2-1.5-0.7-2.8-1.6-3.7c-0.9-1-2.1-1.5-3.6-1.5c-1.9,0-3.3,0.5-4.4,1.4c-1,1-1.5,2.3-1.5,4.1c0,0.8,0.1,1.6,0.4,2.3
					c0.2,0.7,0.6,1.3,1,1.9c0.4,0.6,0.9,1.1,1.3,1.5c0.3,0.3,0.8,0.7,1.3,1.2l0.1,0.1l0,1.3c0,0.1,0.1,0.1,0.2,0.1l1.4,0l0.1,0.1
					c0.6,0.5,1.1,1,1.4,1.5c0.6,0.7,0.9,1.6,0.9,2.6c0,0.7-0.2,1.3-0.7,1.7C73.9,76.9,73.3,77.1,72.5,77.1L72.5,77.1z"/>
				<path id="Shape_18_" class="st1" d="M96.9,58.5c-1,1.1-1.5,2.4-1.5,4.1v5l-1,1c0,0,0,0.1,0,0.1s0,0.1,0,0.1l1,1v4.6
					c0,1.7,0.5,3,1.5,4.1c1,1.1,2.4,1.6,4.4,1.6c1.8,0,3.2-0.5,4.2-1.6c1-1.1,1.5-2.4,1.5-4.1V72h-3.6v2.6c0,0.8-0.2,1.4-0.5,1.9
					c-0.3,0.4-0.9,0.6-1.6,0.6c-0.8,0-1.4-0.2-1.8-0.7c-0.3-0.4-0.5-1.1-0.5-2.1v-4.5l1-1c0,0,0-0.1,0-0.1s0-0.1,0-0.1l-1-1v-4.9
					c0-0.9,0.2-1.6,0.5-2.1c0.4-0.4,0.9-0.7,1.8-0.7c0.6,0,1.1,0.3,1.5,0.8c0.4,0.5,0.6,1.2,0.6,2.2v1.6h3.6V63
					c0-1.8-0.5-3.2-1.5-4.4c-1-1.1-2.4-1.7-4.2-1.7C99.3,56.9,97.9,57.5,96.9,58.5z"/>
				<path id="Shape_19_" class="st1" d="M117.5,67.7l-1,1c-0.1,0.1-0.1,0.2,0,0.2l1,1v9.9h10.6v-3H121v-7.1h5.1v-3.1H121v-6.3h6.6
					v-3h-10.2L117.5,67.7L117.5,67.7L117.5,67.7z"/>
				<path id="Shape_20_" class="st1" d="M128.7,60.3h3.8v7.4l-1,1c-0.1,0.1-0.1,0.2,0,0.2l1,1v10h3.6v-10l1-1c0,0,0-0.1,0-0.1
					s0-0.1,0-0.1l-1-1v-7.4h3.8v-3h-11.2L128.7,60.3L128.7,60.3z"/>
				<path id="Shape_21_" class="st1" d="M82.3,58.5c-1,1.1-1.5,2.4-1.5,4.1v5l-1,1c0,0,0,0.1,0,0.1s0,0.1,0,0.1l1,1v4.6
					c0,1.7,0.5,3,1.5,4.1c1,1.1,2.4,1.6,4.4,1.6s3.4-0.5,4.4-1.6c1-1.1,1.5-2.4,1.5-4.1v-4.6l1-1c0,0,0-0.1,0-0.1s0-0.1,0-0.1l-1-1
					v-5c0-1.7-0.5-3-1.5-4.1c-1-1.1-2.4-1.6-4.4-1.6S83.3,57.5,82.3,58.5z M89,62.7v11.6c0,0.9-0.2,1.6-0.5,2.1
					c-0.3,0.4-0.9,0.7-1.8,0.7c-0.8,0-1.4-0.2-1.8-0.7c-0.3-0.4-0.5-1.1-0.5-2.1V62.7c0-0.9,0.2-1.6,0.5-2.1
					c0.4-0.4,0.9-0.7,1.8-0.7c0.8,0,1.4,0.2,1.8,0.7C88.8,61.1,89,61.8,89,62.7z"/>
				<path id="Shape_22_" class="st1" d="M113.6,79.8v-10l1-1c0,0,0-0.1,0-0.1s0-0.1,0-0.1l-1-1V57.2h-3.6v10.4l-1,1
					c0,0-0.1,0.1-0.1,0.1s0,0.1,0.1,0.1l1,1v9.9L113.6,79.8C113.6,79.8,113.6,79.8,113.6,79.8z"/>
				<path id="Shape_23_" class="st1" d="M146.8,66l-2.8-8.7h-3.6l3.6,10.3l-0.5,1.2c0,0,0,0.1,0,0.1c0,0,0,0.1,0.1,0.1l1.1,0.5
					l0.4,1v9.4h3.6v-9.4l0.4-1.1l1.1-0.5c0,0,0.1,0,0.1-0.1c0,0,0-0.1,0-0.1l-0.5-1.2l0-0.1l3.6-10.1h-3.6l-2.6,8.7L146.8,66
					L146.8,66L146.8,66z"/>
			</g>
		</g>
	</g>
</g>
<path class="st1" d="M93,21.5V9.8h5.3v1.8h-3.4v3h2.5v1.8h-2.5v5.2H93z"/>
<path class="st1" d="M101,12.6c0-0.9,0.2-1.6,0.7-2.2c0.5-0.6,1.2-0.8,2.2-0.8c0.9,0,1.7,0.3,2.2,0.8c0.5,0.6,0.7,1.3,0.7,2.2v6.1
	c0,0.9-0.2,1.6-0.7,2.2c-0.5,0.6-1.2,0.8-2.2,0.8c-0.9,0-1.7-0.3-2.2-0.8c-0.5-0.6-0.7-1.3-0.7-2.2V12.6z M102.9,18.6
	c0,0.5,0.1,0.8,0.2,1c0.2,0.2,0.4,0.3,0.8,0.3c0.4,0,0.6-0.1,0.8-0.3c0.1-0.2,0.2-0.5,0.2-1v-6c0-0.5-0.1-0.8-0.2-1
	c-0.1-0.2-0.4-0.3-0.8-0.3c-0.4,0-0.6,0.1-0.8,0.3c-0.2,0.2-0.2,0.5-0.2,1V18.6z"/>
<path class="st1" d="M111.8,21.5h-1.9V9.8h2.6c1.1,0,1.9,0.3,2.4,0.8c0.5,0.5,0.8,1.4,0.8,2.7c0,0.9-0.1,1.5-0.4,2
	c-0.2,0.5-0.6,0.8-1,1l1.6,5.3h-1.9l-1.3-4.9c-0.1,0-0.3,0-0.4,0c-0.2,0-0.4,0-0.5,0V21.5z M111.8,15h0.7c0.5,0,0.9-0.1,1.1-0.4
	c0.2-0.3,0.3-0.7,0.3-1.4c0-0.7-0.1-1.2-0.3-1.4c-0.2-0.3-0.6-0.4-1.1-0.4h-0.7V15z"/>
<path class="st1" d="M119.9,11.5h-1.8V9.8h5.5v1.8h-1.8v10h-1.9V11.5z"/>
<path class="st1" d="M134,9.8h1.6l1.3,7.5h0l1.1-7.5h1.8l-1.9,11.8h-1.6l-1.4-7.8h0l-1.3,7.8h-1.6l-2.1-11.8h1.8l1.2,7.5h0L134,9.8z
	"/>
<path class="st1" d="M142.2,12.6c0-0.9,0.2-1.6,0.7-2.2c0.5-0.6,1.2-0.8,2.2-0.8s1.7,0.3,2.2,0.8c0.5,0.6,0.7,1.3,0.7,2.2v6.1
	c0,0.9-0.2,1.6-0.7,2.2c-0.5,0.6-1.2,0.8-2.2,0.8s-1.7-0.3-2.2-0.8c-0.5-0.6-0.7-1.3-0.7-2.2V12.6z M144.1,18.6c0,0.5,0.1,0.8,0.2,1
	c0.2,0.2,0.4,0.3,0.8,0.3c0.4,0,0.6-0.1,0.8-0.3c0.1-0.2,0.2-0.5,0.2-1v-6c0-0.5-0.1-0.8-0.2-1c-0.1-0.2-0.4-0.3-0.8-0.3
	c-0.4,0-0.6,0.1-0.8,0.3c-0.2,0.2-0.2,0.5-0.2,1V18.6z"/>
<path class="st1" d="M153,21.5h-1.9V9.8h2.6c1.1,0,1.9,0.3,2.4,0.8c0.5,0.5,0.8,1.4,0.8,2.7c0,0.9-0.1,1.5-0.4,2
	c-0.2,0.5-0.6,0.8-1,1l1.6,5.3h-1.9l-1.3-4.9c-0.1,0-0.3,0-0.4,0c-0.2,0-0.4,0-0.5,0V21.5z M153,15h0.7c0.5,0,0.9-0.1,1.1-0.4
	c0.2-0.3,0.3-0.7,0.3-1.4c0-0.7-0.1-1.2-0.3-1.4c-0.2-0.3-0.6-0.4-1.1-0.4H153V15z"/>
<path class="st1" d="M161.1,11.5h-1.8V9.8h5.5v1.8H163v10h-1.9V11.5z"/>
<path class="st1" d="M167.2,21.5V9.8h1.9v4.8h2V9.8h1.9v11.8h-1.9v-5.2h-2v5.2H167.2z"/>
</svg>
