<?xml version="1.0" encoding="UTF-8" standalone="no"?>
<!-- Generator: Adobe Illustrator 19.2.1, SVG Export Plug-In . SVG Version: 6.00 Build 0)  -->
<svg id="Layer_1" style="enable-background:new 0 0 200 81" xmlns="http://www.w3.org/2000/svg" xml:space="preserve" viewBox="0 0 200 81" version="1.1" y="0px" x="0px" xmlns:xlink="http://www.w3.org/1999/xlink">
<style type="text/css">
	.st0{fill:none;}
	.st1{fill:#FFFFFF;}
</style>
<title>Artboard</title>
<desc>Created with Sketch.</desc>
<g id="Page-1">
	<g id="Artboard">
		<g id="logo">
			<g id="Group">
				<path id="Shape" d="m109.3 30.8h-1.6v7.7h1.6c1.2 0 2-0.3 2.5-0.8 0.5-0.6 0.7-1.6 0.7-3 0-1.5-0.2-2.5-0.7-3-0.4-0.6-1.3-0.9-2.5-0.9z" class="st0"/>
				<polygon id="Shape_1_" points="94.2 32.3 94.2 32.2 93.9 32.2 92.3 42.7 92.2 42.9 95.9 42.9" class="st0"/>
				<polygon id="Shape_2_" points="141.1 32.3 141.1 32.2 140.8 32.2 139.1 42.7 139.1 42.9 142.8 42.9" class="st0"/>
				<path id="Shape_3_" d="m84.9 60.7c-0.3 0.4-0.5 1.1-0.5 2.1v11.6c0 0.9 0.2 1.6 0.5 2.1 0.4 0.4 0.9 0.7 1.8 0.7 0.8 0 1.4-0.2 1.8-0.7 0.3-0.4 0.5-1.1 0.5-2.1v-11.7c0-0.9-0.2-1.6-0.5-2.1s-0.9-0.7-1.8-0.7c-0.8 0.1-1.4 0.3-1.8 0.8z" class="st0"/>
				<polygon id="Shape_4_" points="192.4 32.2 192.1 32.2 190.4 42.7 190.4 42.9 194 42.9 192.4 32.3" class="st0"/>
				<path id="Shape_5_" d="m156.2 30.8h-1.6v7.7h1.6c1.2 0 2-0.3 2.5-0.8 0.5-0.6 0.7-1.6 0.7-3 0-1.5-0.2-2.5-0.7-3-0.5-0.6-1.3-0.9-2.5-0.9z" class="st0"/>
				<path id="Shape_6_" d="m64.8 4.2l0.3 8.1 8.8-5-7.7 5.7 7.3 1.4-8.1-0.4 6.4 7.6 0.3-0.3c0.2-0.2 0.5-0.5 0.9-0.8 0.7-0.8 1.7-1.9 2.3-3.6 0.3-0.8 0.6-1.8 0.7-2.8 0.1-0.5 0.1-1 0.1-1.6v-0.8c0-0.3-0.1-0.5-0.1-0.8-0.2-1.1-0.5-2.2-1-3.2s-1.1-2-1.9-2.9-1.7-1.7-2.7-2.3-2.1-1.1-3.1-1.4c-1.1-0.3-2.2-0.4-3.2-0.4s-2 0.2-2.9 0.4c-1.8 0.5-3.1 1.3-3.9 1.9-0.3 0.2-0.5 0.4-0.7 0.6l7.2 8.5c0.1 0.1 1-7.9 1-7.9z" class="st0"/>
				<circle id="Oval" cy="55" cx="46.3" r="1.4" class="st1"/>
				<circle id="Oval_1_" cy="62.4" cx="45.8" r="1.4" class="st1"/>
				<circle id="Oval_2_" cy="70.2" cx="45.1" r="1.4" class="st1"/>
				<path id="Shape_7_" d="m41.6 44.9l14.5 6v-24.3l-14 8.7 0.2-4.3 22.6-17 7.4 7.8 0.2 0.2 0.3-0.3c0.2-0.2 0.6-0.5 1-0.9 0.8-0.8 1.9-2 2.7-3.8 0.4-0.9 0.7-1.9 0.9-3 0.1-0.6 0.1-1.1 0.2-1.7v-0.9c0-0.3 0-0.6-0.1-0.9-0.1-1.2-0.5-2.4-1-3.6-0.6-0.9-1.4-2-2.3-2.9s-1.9-1.7-3-2.4c-1.2-0.6-2.4-1-3.5-1.3-0.9-0.2-1.8-0.3-2.6-0.3h-0.8c-1.1 0.1-2.1 0.3-3 0.5-1.9 0.6-3.3 1.5-4.2 2.2-0.4 0.3-0.8 0.6-1 0.8l-0.3 0.3-0.5 0.4 8.4 8.8-27.6 15.8-28-21.9 22.7-1-29.8-3.2-1 7.2 34.9 20.5 0.3 4.3-14.1-7.3v22.4l14.7-6.1 2.3 34.5-9.9 2.4h21.8l-10-2.3 1.6-33.4zm15.1-41.2c0.2-0.2 0.4-0.4 0.7-0.6 0.8-0.6 2.2-1.4 3.9-1.9 0.9-0.2 1.9-0.4 2.9-0.4s2.1 0.1 3.2 0.4 2.1 0.7 3.1 1.4c1 0.6 1.9 1.4 2.7 2.3s1.4 1.9 1.9 2.9 0.8 2.1 1 3.2c0 0.3 0.1 0.5 0.1 0.8v0.8c0 0.5 0 1.1-0.1 1.6-0.1 1-0.4 1.9-0.7 2.8-0.7 1.7-1.6 2.8-2.3 3.6-0.4 0.4-0.7 0.6-0.9 0.8l-0.3 0.3-6.4-7.6 8.1 0.4-7.4-1.5 7.7-5.8-8.8 5-0.3-8.1-0.8 8-7.3-8.4z" class="st1"/>
				<path id="Shape_8_" d="m115.7 38.7c0.5-0.9 0.8-2.3 0.8-4.1 0-2.5-0.6-4.3-1.7-5.4s-2.9-1.7-5.3-1.7h-5.7v11.4l-1.2 1.1v0.1 0.1l1.2 1.1v10.2h3.9v-10h0.1 1.2s0.7 0 1-0.1h0.1v0.1l2.9 10h4l-3.5-11h0.1c0.9-0.2 1.6-0.9 2.1-1.8zm-3.9-1.1c-0.5 0.6-1.3 0.8-2.5 0.8h-1.6v-7.7h1.6c1.2 0 2 0.3 2.5 0.8 0.5 0.6 0.7 1.5 0.7 3 0.1 1.6-0.2 2.6-0.7 3.1z" class="st1"/>
				<path id="Shape_9_" d="m123.6 31.3c0.4-0.4 0.8-0.6 1.4-0.6 0.9 0 1.5 0.3 1.9 1s0.6 1.8 0.6 3.5h3.7v-1.4c0-1.9-0.5-3.5-1.6-4.7s-2.6-1.8-4.5-1.8-3.4 0.6-4.5 1.7c-1 1.1-1.6 2.6-1.6 4.4v5.6l-1.2 1.2v0.1 0.1l1.2 1.2v4.5c0 1.9 0.5 3.4 1.5 4.5s2.3 1.6 4 1.6c0.9 0 1.7-0.2 2.3-0.5s1.2-0.9 1.9-1.6l0.1-0.2 0.8 1.9h1.8v-12.2h-6.6v3.1h2.7v2.5c0 1.2-0.2 2.1-0.6 2.7-0.4 0.5-1 0.8-1.9 0.8-0.7 0-1.3-0.2-1.6-0.7s-0.5-1.1-0.5-2v-12.6c0.2-1 0.4-1.7 0.7-2.1z" class="st1"/>
				<path id="Shape_10_" d="m162.6 38.7c0.5-0.9 0.8-2.3 0.8-4.1 0-2.5-0.6-4.3-1.7-5.4s-2.9-1.7-5.3-1.7h-5.7v11.5l-1.1 1.1v0.1 0.1l1.1 1.1v10.3h3.9v-10h0.1 1.1c0.4 0 0.7 0 1-0.1h0.1v0.1l2.9 10h4l-3.5-11h0.1c1-0.4 1.6-1.1 2.2-2zm-3.9-1.1c-0.5 0.6-1.3 0.8-2.5 0.8h-1.6v-7.7h1.6c1.2 0 2 0.3 2.5 0.8 0.5 0.6 0.7 1.5 0.7 3 0 1.6-0.2 2.6-0.7 3.1z" class="st1"/>
				<path id="Shape_11_" d="m198.2 40.2v0-0.2l-1.3-0.9-2.1-11.5h-5l-2.1 11.5-1.4 0.9s-0.1 0-0.1 0.1v0.1l0.9 1.4-1.9 10.1h3.8l0.7-5.4h4.8l0.7 5.4h3.8l-1.9-10.1c0.2-0.1 1.1-1.4 1.1-1.4zm-7.8 2.7v-0.1l1.7-10.5h0.3v0.1l1.7 10.6-3.7-0.1z" class="st1"/>
				<path id="Shape_12_" d="m79.1 27.6l-3 14.2h-0.3l-3-14.2h-5.3v11.3l-1.2 1.2v0.1s0 0.1 0 0.1l1.2 1.2v10.2h3.5v-19h0.3v0.1l3.8 18.9h1.8l3.8-19h0.3v19h3.4v-10.3l1.1-1.1v-0.1s0-0.1 0-0.1l-1.1-1.1v-11.4h-5.3z" class="st1"/>
				<path id="Shape_13_" d="m167 27.6v11.4l-1.1 1.2v0.1 0.1l1.1 1.2v10.2h3.9v-10.3l1.2-1.2v-0.1-0.1l-1.2-1.2v-11.3h-3.9z" class="st1"/>
				<path id="Shape_14_" d="m185.6 31v-3.4h-12v3.4h4.1v8l-1.1 1.1v0.1s0 0.1 0 0.1l1.1 1.1v10.2h3.9v-10.2l1.2-1.2c0.1-0.1 0.1-0.1 0-0.2l-1.2-1.2v-7.8h4z" class="st1"/>
				<path id="Shape_15_" d="m134 51.7h3.8l0.7-5.4h4.8l0.7 5.4h3.8l-1.8-10.2 0.9-1.4v-0.2l-1.4-0.9-2.1-11.5h-5l-2.1 11.5-1.3 1s-0.1 0-0.1 0.1v0.1l0.9 1.4-1.8 10.1zm5.1-9l1.7-10.5h0.3v0.1l1.7 10.6h-3.6l-0.1-0.2z" class="st1"/>
				<path id="Shape_16_" d="m87.1 51.7h3.8l0.7-5.4h4.8l0.7 5.4h3.8l-1.9-10.1 0.9-1.4v-0.1s0-0.1-0.1-0.1l-1.4-0.9-2.1-11.5h-5l-2.1 11.5-1.1 0.9c-0.1 0-0.1 0.1 0 0.2l0.9 1.4-1.9 10.1zm5.2-9l1.7-10.5h0.3v0.1l1.7 10.6h-3.6c-0.2 0-0.1-0.2-0.1-0.2z" class="st1"/>
				<path id="Shape_17_" d="m72.5 77.1c-0.7 0-1.3-0.3-1.8-1-0.4-0.6-0.7-1.4-0.8-2.5l-3.4 0.5c0.1 1.7 0.7 3.1 1.6 4.2 1 1.2 2.4 1.8 4.1 1.8 1.8 0 3.3-0.5 4.4-1.5s1.6-2.4 1.6-4.2c0-0.8-0.1-1.6-0.4-2.2-0.3-0.7-0.6-1.3-1-1.9s-0.9-1.1-1.4-1.5c-0.1-0.1-0.2-0.2-0.3-0.2l-0.1-0.1-0.1-1.3c0-0.1-0.1-0.1-0.1-0.1l-1.3 0.1-0.1-0.1c-1.1-1-1.9-1.8-2.5-2.4-0.6-0.7-0.9-1.4-0.9-2.2 0-2 1.2-2.4 2.2-2.4 0.6 0 1.1 0.2 1.5 0.6s0.7 1 0.7 1.9l3.4-0.4c-0.2-1.5-0.7-2.8-1.6-3.7-0.9-1-2.1-1.5-3.6-1.5-1.9 0-3.3 0.5-4.4 1.4-1 1-1.5 2.3-1.5 4.1 0 0.8 0.1 1.6 0.4 2.3 0.2 0.7 0.6 1.3 1 1.9s0.9 1.1 1.3 1.5c0.3 0.3 0.8 0.7 1.3 1.2l0.1 0.1v1.3c0 0.1 0.1 0.1 0.2 0.1h1.4l0.1 0.1c0.6 0.5 1.1 1 1.4 1.5 0.6 0.7 0.9 1.6 0.9 2.6 0 0.7-0.2 1.3-0.7 1.7-0.2 0.1-0.8 0.3-1.6 0.3z" class="st1"/>
				<path id="Shape_18_" d="m96.9 58.5c-1 1.1-1.5 2.4-1.5 4.1v5l-1 1v0.1s0 0.1 0 0.1l1 1v4.6c0 1.7 0.5 3 1.5 4.1s2.4 1.6 4.4 1.6c1.8 0 3.2-0.5 4.2-1.6s1.5-2.4 1.5-4.1v-2.4h-3.6v2.6c0 0.8-0.2 1.4-0.5 1.9-0.3 0.4-0.9 0.6-1.6 0.6-0.8 0-1.4-0.2-1.8-0.7-0.3-0.4-0.5-1.1-0.5-2.1v-4.5l1-1v-0.1s0-0.1 0-0.1l-1-1v-4.9c0-0.9 0.2-1.6 0.5-2.1 0.4-0.4 0.9-0.7 1.8-0.7 0.6 0 1.1 0.3 1.5 0.8s0.6 1.2 0.6 2.2v1.6h3.6v-1.5c0-1.8-0.5-3.2-1.5-4.4-1-1.1-2.4-1.7-4.2-1.7-2 0-3.4 0.6-4.4 1.6z" class="st1"/>
				<path id="Shape_19_" d="m117.5 67.7l-1 1c-0.1 0.1-0.1 0.2 0 0.2l1 1v9.9h10.6v-3h-7.1v-7.1h5.1v-3.1h-5.1v-6.3h6.6v-3h-10.2l0.1 10.4z" class="st1"/>
				<path id="Shape_20_" d="m128.7 60.3h3.8v7.4l-1 1c-0.1 0.1-0.1 0.2 0 0.2l1 1v10h3.6v-10l1-1v-0.1s0-0.1 0-0.1l-1-1v-7.4h3.8v-3h-11.2v3z" class="st1"/>
				<path id="Shape_21_" d="m82.3 58.5c-1 1.1-1.5 2.4-1.5 4.1v5l-1 1v0.1s0 0.1 0 0.1l1 1v4.6c0 1.7 0.5 3 1.5 4.1s2.4 1.6 4.4 1.6 3.4-0.5 4.4-1.6c1-1.1 1.5-2.4 1.5-4.1v-4.6l1-1v-0.1s0-0.1 0-0.1l-1-1v-5c0-1.7-0.5-3-1.5-4.1s-2.4-1.6-4.4-1.6-3.4 0.6-4.4 1.6zm6.7 4.2v11.6c0 0.9-0.2 1.6-0.5 2.1-0.3 0.4-0.9 0.7-1.8 0.7-0.8 0-1.4-0.2-1.8-0.7-0.3-0.4-0.5-1.1-0.5-2.1v-11.6c0-0.9 0.2-1.6 0.5-2.1 0.4-0.4 0.9-0.7 1.8-0.7 0.8 0 1.4 0.2 1.8 0.7 0.3 0.5 0.5 1.2 0.5 2.1z" class="st1"/>
				<path id="Shape_22_" d="m113.6 79.8v-10l1-1v-0.1s0-0.1 0-0.1l-1-1v-10.4h-3.6v10.4l-1 1-0.1 0.1s0 0.1 0.1 0.1l1 1v9.9l3.6 0.1z" class="st1"/>
				<path id="Shape_23_" d="m146.8 66l-2.8-8.7h-3.6l3.6 10.3-0.5 1.2v0.1s0 0.1 0.1 0.1l1.1 0.5 0.4 1v9.4h3.6v-9.4l0.4-1.1 1.1-0.5s0.1 0 0.1-0.1v-0.1l-0.5-1.2v-0.1l3.6-10.1h-3.6l-2.6 8.7h-0.4z" class="st1"/>
			</g>
		</g>
	</g>
</g>
<path class="st1" d="m93 21.5v-11.7h5.3v1.8h-3.4v3h2.5v1.8h-2.5v5.2h-1.9z"/>
<path class="st1" d="m101 12.6c0-0.9 0.2-1.6 0.7-2.2s1.2-0.8 2.2-0.8c0.9 0 1.7 0.3 2.2 0.8 0.5 0.6 0.7 1.3 0.7 2.2v6.1c0 0.9-0.2 1.6-0.7 2.2s-1.2 0.8-2.2 0.8c-0.9 0-1.7-0.3-2.2-0.8-0.5-0.6-0.7-1.3-0.7-2.2v-6.1zm1.9 6c0 0.5 0.1 0.8 0.2 1 0.2 0.2 0.4 0.3 0.8 0.3s0.6-0.1 0.8-0.3c0.1-0.2 0.2-0.5 0.2-1v-6c0-0.5-0.1-0.8-0.2-1s-0.4-0.3-0.8-0.3-0.6 0.1-0.8 0.3-0.2 0.5-0.2 1v6z"/>
<path class="st1" d="m111.8 21.5h-1.9v-11.7h2.6c1.1 0 1.9 0.3 2.4 0.8s0.8 1.4 0.8 2.7c0 0.9-0.1 1.5-0.4 2-0.2 0.5-0.6 0.8-1 1l1.6 5.3h-1.9l-1.3-4.9h-0.4-0.5v4.8zm0-6.5h0.7c0.5 0 0.9-0.1 1.1-0.4s0.3-0.7 0.3-1.4-0.1-1.2-0.3-1.4c-0.2-0.3-0.6-0.4-1.1-0.4h-0.7v3.6z"/>
<path class="st1" d="m119.9 11.5h-1.8v-1.7h5.5v1.8h-1.8v10h-1.9v-10.1z"/>
<path class="st1" d="m134 9.8h1.6l1.3 7.5 1.1-7.5h1.8l-1.9 11.8h-1.6l-1.4-7.8-1.3 7.8h-1.6l-2.1-11.8h1.8l1.2 7.5 1.1-7.5z"/>
<path class="st1" d="m142.2 12.6c0-0.9 0.2-1.6 0.7-2.2s1.2-0.8 2.2-0.8 1.7 0.3 2.2 0.8c0.5 0.6 0.7 1.3 0.7 2.2v6.1c0 0.9-0.2 1.6-0.7 2.2s-1.2 0.8-2.2 0.8-1.7-0.3-2.2-0.8c-0.5-0.6-0.7-1.3-0.7-2.2v-6.1zm1.9 6c0 0.5 0.1 0.8 0.2 1 0.2 0.2 0.4 0.3 0.8 0.3s0.6-0.1 0.8-0.3c0.1-0.2 0.2-0.5 0.2-1v-6c0-0.5-0.1-0.8-0.2-1s-0.4-0.3-0.8-0.3-0.6 0.1-0.8 0.3-0.2 0.5-0.2 1v6z"/>
<path class="st1" d="m153 21.5h-1.9v-11.7h2.6c1.1 0 1.9 0.3 2.4 0.8s0.8 1.4 0.8 2.7c0 0.9-0.1 1.5-0.4 2-0.2 0.5-0.6 0.8-1 1l1.6 5.3h-1.9l-1.3-4.9h-0.4-0.5v4.8zm0-6.5h0.7c0.5 0 0.9-0.1 1.1-0.4s0.3-0.7 0.3-1.4-0.1-1.2-0.3-1.4c-0.2-0.3-0.6-0.4-1.1-0.4h-0.7v3.6z"/>
<path class="st1" d="m161.1 11.5h-1.8v-1.7h5.5v1.8h-1.8v10h-1.9v-10.1z"/>
<path class="st1" d="m167.2 21.5v-11.7h1.9v4.8h2v-4.8h1.9v11.8h-1.9v-5.2h-2v5.2h-1.9z"/>
</svg>
