<?xml version="1.0" encoding="UTF-8" standalone="no"?>
<svg xmlns="http://www.w3.org/2000/svg" height="81px" width="200px" version="1.1" xmlns:xlink="http://www.w3.org/1999/xlink" viewBox="0 0 200 81"><!-- Generator: Sketch 3.8 (29681) - http://www.bohemiancoding.com/sketch -->
 <title>Artboard</title>
 <desc>Created with Sketch.</desc>
 <g id="Page-1" fill-rule="evenodd" fill="none">
  <g id="Artboard">
   <g id="logo">
    <g id="Group">
     <path id="Shape" d="m109.35 30.773h-1.6v7.715h1.6c1.17 0 2.01-0.286 2.5-0.85 0.47-0.559 0.72-1.571 0.72-3.008 0-1.479-0.24-2.469-0.72-3.025-0.49-0.552-1.33-0.832-2.5-0.832z"/>
     <polygon id="Shape" points="94.207 32.288 94.191 32.188 93.921 32.188 92.255 42.73 92.233 42.867 95.879 42.867"/>
     <polygon id="Shape" points="141.09 32.288 141.07 32.188 140.8 32.188 139.14 42.73 139.12 42.867 142.76 42.867"/>
     <path id="Shape" d="m84.935 60.652c-0.348 0.441-0.517 1.113-0.517 2.056v11.625c0 0.943 0.169 1.615 0.517 2.056 0.355 0.449 0.95 0.677 1.77 0.677 0.842 0 1.443-0.229 1.787-0.679 0.336-0.44 0.5-1.112 0.5-2.054v-11.625c0-0.941-0.164-1.612-0.5-2.054-0.344-0.45-0.945-0.679-1.787-0.679-0.82 0-1.415 0.229-1.77 0.677z"/>
     <polygon id="Shape" points="192.35 32.188 192.08 32.188 190.41 42.73 190.39 42.867 194.04 42.867 192.36 32.288"/>
     <path id="Shape" d="m156.23 30.773h-1.6v7.715h1.6c1.18 0 2.02-0.286 2.5-0.85 0.48-0.559 0.72-1.571 0.72-3.008 0-1.479-0.24-2.469-0.72-3.025-0.48-0.552-1.32-0.832-2.5-0.832z"/>
     <path id="Shape" d="m64.763 4.197l0.32 8.092 8.815-5.005-7.652 5.755 7.339 1.391-8.09-0.376 6.448 7.626-0.023-0.028s0.117-0.101 0.338-0.289c0.229-0.194 0.517-0.455 0.883-0.84 0.725-0.752 1.679-1.943 2.35-3.594 0.333-0.823 0.586-1.757 0.706-2.764 0.064-0.503 0.081-1.025 0.079-1.557-0.013-0.241-0.015-0.567-0.046-0.815-0.021-0.262-0.054-0.53-0.099-0.804-0.172-1.088-0.509-2.186-1.014-3.219-0.505-1.031-1.109-2.041-1.875-2.934-0.768-0.889-1.669-1.669-2.657-2.286-0.987-0.62-2.056-1.079-3.135-1.368-1.08-0.293-2.162-0.416-3.201-0.404-1.025 0.005-2.006 0.153-2.876 0.394-1.751 0.475-3.071 1.276-3.915 1.908-0.302 0.227-0.542 0.433-0.731 0.605l7.219 8.538 0.817-8.026z"/>
     <circle id="Oval" cy="55.002" cx="46.297" r="1.395" fill="#fff"/>
     <circle id="Oval" cy="62.431" cx="45.751" r="1.395" fill="#fff"/>
     <circle id="Oval" cy="70.181" cx="45.121" r="1.395" fill="#fff"/>
     <path id="Shape" fill="#fff" d="m41.562 44.932l14.491 5.952v-24.239l-14.046 8.74 0.199-4.266 22.565-16.972 7.423 7.842 0.184 0.224s0.121-0.096 0.35-0.275c0.221-0.172 0.579-0.47 0.974-0.855 0.801-0.768 1.879-1.999 2.685-3.77 0.399-0.882 0.719-1.895 0.895-2.996 0.092-0.55 0.135-1.122 0.156-1.706-0.004-0.318 0.008-0.557-0.014-0.877-0.012-0.308-0.038-0.613-0.075-0.913-0.143-1.21-0.467-2.447-0.988-3.625-0.508-1.187-1.292-2.261-2.178-3.212-0.899-0.943-1.934-1.749-3.046-2.369-1.112-0.622-2.295-1.063-3.471-1.321-0.88-0.196-1.759-0.287-2.602-0.294h-0.012c-0.279-0.002-0.554 0.005-0.823 0.021-1.104 0.052-2.117 0.276-3.032 0.541-1.834 0.544-3.192 1.42-4.06 2.096-0.444 0.332-0.767 0.625-0.983 0.827-0.22 0.2-0.328 0.312-0.328 0.312l0.009 0.009-0.461 0.414 8.363 8.834-27.667 15.708-27.984-21.822 22.721-1.027-29.781-3.209-1.026 7.186v0.004l34.879 20.496 0.294 4.333-14.121-7.319v22.421l14.734-6.052 2.338 34.538-9.927 2.354h10.655 0.428 10.654l-9.927-2.354 1.555-33.379zm15.165-41.247c0.189-0.172 0.429-0.378 0.731-0.605 0.844-0.632 2.164-1.433 3.915-1.908 0.87-0.241 1.851-0.389 2.876-0.394 1.039-0.012 2.121 0.111 3.201 0.404 1.079 0.289 2.148 0.748 3.135 1.368 0.988 0.617 1.889 1.397 2.657 2.286 0.766 0.893 1.37 1.903 1.875 2.934 0.505 1.033 0.842 2.131 1.014 3.219 0.045 0.274 0.078 0.542 0.099 0.804 0.031 0.248 0.033 0.574 0.046 0.815 0.002 0.532-0.015 1.054-0.079 1.557-0.12 1.007-0.373 1.941-0.706 2.764-0.671 1.651-1.625 2.842-2.35 3.594-0.366 0.385-0.654 0.646-0.883 0.84-0.221 0.188-0.338 0.289-0.338 0.289l0.023 0.028-6.448-7.626 8.09 0.376-7.339-1.391 7.652-5.755-8.815 5.005-0.32-8.092-0.817 8.026-7.219-8.538z"/>
     <path id="Shape" fill="#fff" d="m115.7 38.681c0.53-0.943 0.8-2.306 0.8-4.051 0-2.491-0.57-4.31-1.69-5.405-1.13-1.095-2.9-1.651-5.26-1.651h-5.74v11.359l-1.15 1.149c-0.02 0.025-0.04 0.058-0.04 0.093 0 0.036 0.02 0.069 0.04 0.093l1.15 1.149v10.239h3.94v-9.971h0.11c0.36 0 0.75-0.011 1.16-0.033s0.74-0.044 0.99-0.067l0.1-0.009 0.03 0.094 2.93 9.986h4l-3.52-10.961 0.09-0.043c0.83-0.369 1.52-1.032 2.06-1.971zm-3.85-1.043c-0.49 0.564-1.33 0.85-2.5 0.85h-1.6v-7.715h1.6c1.17 0 2.01 0.28 2.5 0.832 0.48 0.556 0.72 1.546 0.72 3.025-0.01 1.437-0.25 2.449-0.72 3.008z"/>
     <path id="Shape" fill="#fff" d="m123.62 31.287c0.36-0.431 0.84-0.649 1.44-0.649 0.89 0 1.54 0.349 1.94 1.037 0.37 0.661 0.56 1.821 0.57 3.544h3.73v-1.431c0-1.892-0.54-3.475-1.6-4.705-1.06-1.225-2.59-1.845-4.54-1.845-1.94 0-3.44 0.576-4.46 1.712-1.03 1.139-1.56 2.62-1.56 4.4v5.578l-1.15 1.154c-0.02 0.025-0.04 0.058-0.04 0.093 0 0.036 0.02 0.069 0.04 0.093l1.15 1.155v4.458c0 1.869 0.51 3.373 1.51 4.467 0.99 1.092 2.33 1.646 3.97 1.646 0.92 0 1.68-0.16 2.27-0.475 0.59-0.316 1.21-0.867 1.85-1.638l0.12-0.15 0.82 1.926h1.83v-12.091h-6.61v3.064h2.67v2.476c0 1.231-0.19 2.126-0.55 2.66-0.37 0.549-0.99 0.827-1.86 0.827-0.74 0-1.28-0.244-1.6-0.727-0.32-0.467-0.48-1.124-0.48-1.953v-12.495c0.01-0.99 0.19-1.707 0.54-2.131z"/>
     <path id="Shape" fill="#fff" d="m162.58 38.681c0.54-0.943 0.81-2.306 0.81-4.051 0-2.491-0.57-4.31-1.7-5.405s-2.9-1.651-5.26-1.651h-5.74v11.399l-1.11 1.109c-0.02 0.025-0.04 0.058-0.04 0.093 0 0.036 0.02 0.069 0.04 0.093l1.11 1.109v10.279h3.94v-9.971h0.12c0.36 0 0.75-0.011 1.15-0.033 0.41-0.022 0.74-0.044 0.99-0.067l0.1-0.009 0.03 0.094 2.94 9.986h3.99l-3.52-10.961 0.1-0.043c0.82-0.369 1.51-1.032 2.05-1.971zm-3.85-1.043c-0.48 0.564-1.32 0.85-2.5 0.85h-1.6v-7.715h1.6c1.18 0 2.02 0.28 2.5 0.832 0.48 0.556 0.72 1.546 0.72 3.025 0 1.437-0.24 2.449-0.72 3.008z"/>
     <path id="Shape" fill="#fff" d="m198.18 40.178c0.02-0.029 0.03-0.064 0.02-0.099 0-0.034-0.02-0.064-0.05-0.084l-1.32-0.896-0.01-0.049-2.11-11.476h-4.99l-2.11 11.48-1.39 0.941c-0.03 0.02-0.05 0.05-0.05 0.084-0.01 0.035 0 0.07 0.02 0.099l0.95 1.4-1.86 10.079h3.8l0.74-5.39h4.79l0.74 5.39h3.8l-1.87-10.145 0.9-1.334zm-7.79 2.689l0.02-0.137 1.67-10.542h0.27l0.02 0.1 1.67 10.579h-3.65z"/>
     <path id="Shape" fill="#fff" d="m79.083 27.575l-2.964 14.214h-0.261l-2.964-14.214h-5.275v11.334l-1.173 1.174c-0.025 0.024-0.039 0.058-0.039 0.093s0.014 0.068 0.039 0.093l1.173 1.173v10.215h3.4v-18.998h0.284l0.019 0.096 3.753 18.902h1.827l3.772-18.998h0.284v18.998h3.4v-10.301l1.087-1.087c0.025-0.025 0.038-0.058 0.038-0.093s-0.013-0.069-0.038-0.093l-1.087-1.087v-11.421h-5.275z"/>
     <path id="Shape" fill="#fff" d="m167.02 27.575v11.352l-1.15 1.156c-0.03 0.024-0.04 0.057-0.04 0.093 0 0.035 0.01 0.068 0.04 0.093l1.15 1.155v10.233h3.94v-10.2l1.19-1.188c0.02-0.025 0.04-0.058 0.04-0.093 0-0.036-0.02-0.069-0.04-0.093l-1.19-1.189v-11.319h-3.94z"/>
     <path id="Shape" fill="#fff" d="m185.62 30.975v-3.401h-12.03v3.401h4.05v7.959l-1.15 1.148c-0.03 0.025-0.04 0.058-0.04 0.093s0.01 0.068 0.04 0.093l1.15 1.149v10.238h3.93v-10.221l1.17-1.166c0.05-0.051 0.05-0.135 0-0.186l-1.17-1.166v-7.941h4.05z"/>
     <path id="Shape" fill="#fff" d="m134.01 51.657h3.79l0.74-5.39h4.79l0.74 5.39h3.8l-1.86-10.112 0.93-1.367c0.04-0.06 0.02-0.142-0.04-0.183l-1.35-0.918-0.01-0.049-2.1-11.454h-5l-2.11 11.503-1.35 0.918c-0.03 0.02-0.05 0.05-0.06 0.084-0.01 0.035 0 0.07 0.02 0.099l0.93 1.367-0.01 0.049-1.85 10.063zm5.13-8.927l1.66-10.542h0.28l0.01 0.1 1.67 10.579h-3.64l0.02-0.137z"/>
     <path id="Shape" fill="#fff" d="m87.125 51.657h3.796l0.741-5.39h4.788l0.741 5.39h3.799l-1.865-10.112 0.925-1.367c0.03-0.029 0.03-0.064 0.03-0.099-0.01-0.034-0.03-0.064-0.06-0.084l-1.351-0.918-0.009-0.049-2.11-11.454h-4.99l-2.119 11.503-1.349 0.918c-0.06 0.041-0.076 0.123-0.035 0.183l0.93 1.367-0.009 0.049-1.853 10.063zm5.13-8.927l1.666-10.542h0.27l0.016 0.1 1.672 10.579h-3.646l0.022-0.137z"/>
     <path id="Shape" fill="#fff" d="m72.539 77.065c-0.72 0-1.312-0.327-1.76-0.971-0.406-0.582-0.662-1.411-0.763-2.466l-3.376 0.487c0.109 1.673 0.662 3.098 1.644 4.238 1.005 1.168 2.372 1.761 4.064 1.761 1.827 0 3.307-0.507 4.398-1.507 1.087-0.995 1.638-2.401 1.638-4.179 0-0.799-0.13-1.552-0.385-2.237-0.258-0.689-0.607-1.33-1.038-1.906-0.437-0.581-0.895-1.102-1.361-1.549-0.083-0.079-0.172-0.162-0.263-0.246l-0.056-0.052-0.086-1.268c-0.005-0.078-0.071-0.14-0.149-0.14l-1.285 0.087-0.059-0.052c-1.102-0.958-1.933-1.77-2.469-2.411-0.567-0.678-0.854-1.429-0.854-2.234 0-2.021 1.175-2.445 2.16-2.445 0.578 0 1.092 0.216 1.53 0.642 0.405 0.395 0.653 1.026 0.739 1.879l3.365-0.371c-0.187-1.537-0.729-2.793-1.612-3.734-0.911-0.973-2.136-1.465-3.641-1.465-1.869 0-3.337 0.484-4.365 1.441-1.024 0.954-1.543 2.328-1.543 4.085 0 0.822 0.124 1.592 0.37 2.288 0.247 0.699 0.579 1.329 0.989 1.87 0.415 0.55 0.857 1.05 1.313 1.486 0.346 0.33 0.776 0.72 1.279 1.16l0.063 0.054 0.041 1.288c0.003 0.081 0.068 0.144 0.15 0.144l1.42-0.045 0.057 0.052c0.6 0.546 1.083 1.043 1.438 1.479 0.587 0.72 0.884 1.578 0.884 2.55 0 0.732-0.23 1.304-0.684 1.7-0.447 0.389-1.05 0.587-1.793 0.587z"/>
     <path id="Shape" fill="#fff" d="m96.898 58.517c-0.989 1.06-1.49 2.437-1.49 4.095v5.045l-0.986 0.987c-0.028 0.028-0.044 0.066-0.044 0.106s0.016 0.076 0.044 0.104l0.986 0.987v4.586c0 1.658 0.501 3.036 1.49 4.095 0.984 1.056 2.45 1.591 4.352 1.591 1.82 0 3.23-0.535 4.2-1.589 0.97-1.06 1.46-2.438 1.46-4.097v-2.446h-3.56v2.573c0 0.822-0.16 1.449-0.47 1.862-0.32 0.429-0.87 0.646-1.63 0.646-0.82 0-1.413-0.227-1.767-0.675-0.35-0.441-0.519-1.114-0.519-2.056v-4.49l0.988-0.988c0.028-0.028 0.044-0.064 0.044-0.104s-0.016-0.078-0.044-0.106l-0.988-0.988v-4.948c0-0.941 0.169-1.614 0.519-2.056 0.354-0.449 0.947-0.676 1.767-0.676 0.61 0 1.12 0.26 1.52 0.772 0.38 0.498 0.58 1.232 0.58 2.182v1.588h3.56v-1.493c0-1.766-0.49-3.242-1.47-4.387-0.96-1.136-2.37-1.712-4.19-1.712-1.902 0.001-3.367 0.536-4.352 1.592z"/>
     <path id="Shape" fill="#fff" d="m117.48 67.653l-1 0.991c-0.05 0.059-0.05 0.153 0 0.211l1 0.991v9.95h10.6v-3.049h-7.05v-7.115h5.09v-3.05h-5.09v-6.289h6.61v-3.05h-10.17v10.41h0.01z"/>
     <path id="Shape" fill="#fff" d="m128.7 60.293h3.82v7.391l-0.96 0.959c-0.06 0.06-0.06 0.154 0 0.213l0.96 0.959v9.981h3.55v-9.975l0.97-0.966c0.03-0.028 0.04-0.066 0.04-0.106s-0.01-0.077-0.04-0.106l-0.97-0.966v-7.384h3.81v-3.05h-11.18v3.05z"/>
     <path id="Shape" fill="#fff" d="m82.35 58.517c-0.989 1.06-1.49 2.438-1.49 4.096v5.045l-0.986 0.985c-0.028 0.029-0.044 0.066-0.044 0.106s0.016 0.078 0.044 0.106l0.986 0.985v4.587c0 1.658 0.501 3.036 1.49 4.096 0.984 1.055 2.45 1.591 4.355 1.591s3.37-0.536 4.355-1.591c0.989-1.061 1.49-2.438 1.49-4.096v-4.587l0.986-0.985c0.028-0.028 0.044-0.066 0.044-0.106s-0.016-0.077-0.044-0.106l-0.986-0.985v-5.045c0-1.658-0.501-3.035-1.49-4.096-0.985-1.056-2.45-1.591-4.355-1.591s-3.37 0.535-4.355 1.591zm6.642 4.191v11.625c0 0.941-0.164 1.613-0.5 2.054-0.344 0.45-0.945 0.679-1.787 0.679-0.82 0-1.415-0.228-1.77-0.677-0.348-0.44-0.517-1.112-0.517-2.056v-11.625c0-0.942 0.169-1.614 0.517-2.056 0.355-0.448 0.95-0.677 1.77-0.677 0.842 0 1.443 0.229 1.787 0.679 0.336 0.441 0.5 1.112 0.5 2.054z"/>
     <path id="Shape" fill="#fff" d="m113.64 79.796v-9.974l0.97-0.967c0.03-0.028 0.04-0.066 0.04-0.106s-0.01-0.077-0.04-0.106l-0.97-0.967v-10.432h-3.56v10.394l-1 1.006c-0.03 0.029-0.05 0.066-0.05 0.106s0.02 0.078 0.05 0.106l1 1.007v9.934h3.56v-0.001z"/>
     <path id="Shape" fill="#fff" d="m146.81 65.979l-2.76-8.736h-3.59l3.65 10.288-0.54 1.156c-0.02 0.036-0.02 0.077-0.01 0.114 0.02 0.038 0.04 0.067 0.08 0.085l1.14 0.538 0.36 1.001v9.372h3.56v-9.372l0.39-1.097 1.15-0.535c0.04-0.017 0.06-0.047 0.08-0.084 0.01-0.037 0.01-0.078-0.01-0.114l-0.54-1.177 0.02-0.074 3.59-10.102h-3.59l-2.63 8.736h-0.35v0.001z"/>
    </g>
   </g>
  </g>
 </g>
</svg>
