<?xml version="1.0" encoding="utf-8"?>
<!-- Generator: Adobe Illustrator 16.2.1, SVG Export Plug-In . SVG Version: 6.00 Build 0)  -->
<!DOCTYPE svg PUBLIC "-//W3C//DTD SVG 1.1 Tiny//EN" "http://www.w3.org/Graphics/SVG/1.1/DTD/svg11-tiny.dtd">
<svg version="1.1" baseProfile="tiny" id="Layer_1" xmlns="http://www.w3.org/2000/svg" xmlns:xlink="http://www.w3.org/1999/xlink"
	 x="0px" y="0px" width="177.254px" height="36.021px" viewBox="0 0 177.254 36.021" xml:space="preserve">
<g>
	<path fill="none" d="M73.157,34.021h32.016V2H73.157V34.021z M82.571,20.318c0.213,0.041,0.432,0.062,0.657,0.062
		c0.32,0,0.628-0.041,0.922-0.123c-1.6-0.32-2.805-1.733-2.805-3.428v-0.043c0.472,0.261,1.011,0.419,1.584,0.437
		c-0.938-0.627-1.555-1.698-1.555-2.909c0-0.641,0.172-1.241,0.473-1.76c1.725,2.117,4.3,3.507,7.205,3.653
		c-0.061-0.256-0.09-0.521-0.09-0.796c0-1.929,1.564-3.496,3.493-3.496c1.007,0,1.915,0.425,2.552,1.104
		c0.798-0.156,1.545-0.446,2.22-0.847c-0.26,0.816-0.814,1.501-1.536,1.934c0.706-0.085,1.381-0.273,2.007-0.551
		c-0.467,0.701-1.061,1.316-1.744,1.81c0.008,0.149,0.011,0.3,0.011,0.452c0,4.621-3.516,9.947-9.945,9.947
		c-1.974,0-3.811-0.579-5.358-1.57c0.273,0.032,0.552,0.047,0.834,0.047c1.637,0,3.145-0.558,4.341-1.495
		C84.307,22.718,83.016,21.706,82.571,20.318z"/>
	<path fill="none" d="M2,34.021h32.016V2H2V34.021z M13.909,15.131h1.758v-1.709c0-0.754,0.019-1.916,0.567-2.636
		c0.576-0.763,1.368-1.281,2.729-1.281c2.218,0,3.152,0.316,3.152,0.316l-0.439,2.606c0,0-0.733-0.212-1.417-0.212
		s-1.296,0.245-1.296,0.929v1.987h2.804l-0.195,2.545h-2.609v8.841h-3.296v-8.841h-1.758V15.131z"/>
	<path fill="none" d="M143.238,34.021h32.016V2h-32.016V34.021z M164.012,14.264c2.068,0,3.745,1.678,3.745,3.747
		c0,2.069-1.677,3.747-3.745,3.747c-2.072,0-3.748-1.678-3.748-3.747C160.264,15.942,161.939,14.264,164.012,14.264z
		 M154.493,14.264c2.071,0,3.748,1.678,3.748,3.747c0,2.069-1.677,3.747-3.748,3.747c-2.068,0-3.744-1.678-3.744-3.747
		C150.749,15.942,152.425,14.264,154.493,14.264z"/>
	<path fill="#FFFFFF" d="M71.157,0v36.021h36.016V0H71.157z M105.173,34.021H73.157V2h32.016V34.021z"/>
	<path fill="#FFFFFF" d="M0,0v36.021h36.016V0H0z M34.016,34.021H2V2h32.016V34.021z"/>
	<path fill="#FFFFFF" d="M141.238,0v36.021h36.016V0H141.238z M175.254,34.021h-32.016V2h32.016V34.021z"/>
	<path fill="#FFFFFF" d="M80.662,24.193c1.547,0.991,3.384,1.57,5.358,1.57c6.43,0,9.945-5.326,9.945-9.947
		c0-0.152-0.003-0.303-0.011-0.452c0.684-0.494,1.277-1.109,1.744-1.81c-0.626,0.278-1.301,0.466-2.007,0.551
		c0.722-0.433,1.276-1.118,1.536-1.934c-0.675,0.401-1.422,0.691-2.22,0.847c-0.637-0.679-1.545-1.104-2.552-1.104
		c-1.929,0-3.493,1.567-3.493,3.496c0,0.275,0.029,0.54,0.09,0.796c-2.905-0.146-5.48-1.536-7.205-3.653
		c-0.301,0.519-0.473,1.119-0.473,1.76c0,1.211,0.617,2.282,1.555,2.909c-0.573-0.018-1.112-0.176-1.584-0.437v0.043
		c0,1.695,1.205,3.108,2.805,3.428c-0.294,0.082-0.602,0.123-0.922,0.123c-0.225,0-0.444-0.021-0.657-0.062
		c0.444,1.388,1.735,2.399,3.265,2.427c-1.196,0.938-2.704,1.495-4.341,1.495C81.213,24.24,80.935,24.226,80.662,24.193z"/>
	<path fill="#FFFFFF" d="M15.667,26.517h3.296v-8.841h2.609l0.195-2.545h-2.804v-1.987c0-0.684,0.612-0.929,1.296-0.929
		s1.417,0.212,1.417,0.212l0.439-2.606c0,0-0.934-0.316-3.152-0.316c-1.361,0-2.153,0.518-2.729,1.281
		c-0.548,0.72-0.567,1.882-0.567,2.636v1.709h-1.758v2.545h1.758V26.517z"/>
	<path fill="#FFFFFF" d="M164.012,21.758c2.068,0,3.745-1.678,3.745-3.747c0-2.069-1.677-3.747-3.745-3.747
		c-2.072,0-3.748,1.678-3.748,3.747C160.264,20.08,161.939,21.758,164.012,21.758z"/>
	<circle fill="#FFFFFF" cx="154.493" cy="18.011" r="3.747"/>
</g>
</svg>
