<svg width="37px" height="37px" viewBox="0 0 37 37" version="1.1" xmlns="http://www.w3.org/2000/svg" xmlns:xlink="http://www.w3.org/1999/xlink">
    <g id="Page-1" stroke="none" stroke-width="1" fill="none" fill-rule="evenodd">
        <g id="Artboard" fill="#FFFFFF">
            <path d="M-1.42108547e-14,0 L-1.42108547e-14,36.021 L36.016,36.021 L36.016,0 L-1.42108547e-14,0 L-1.42108547e-14,0 Z M34.016,34.021 L2,34.021 L2,2 L34.016,2 L34.016,34.021 L34.016,34.021 Z" id="Shape"></path>
            <path d="M9.505,24.193 C11.052,25.184 12.889,25.763 14.863,25.763 C21.293,25.763 24.808,20.437 24.808,15.816 C24.808,15.664 24.805,15.513 24.797,15.364 C25.481,14.87 26.074,14.255 26.541,13.554 C25.915,13.832 25.24,14.02 24.534,14.105 C25.256,13.672 25.81,12.987 26.07,12.171 C25.395,12.572 24.648,12.862 23.85,13.018 C23.213,12.339 22.305,11.914 21.298,11.914 C19.369,11.914 17.805,13.481 17.805,15.41 C17.805,15.685 17.834,15.95 17.895,16.206 C14.99,16.06 12.415,14.67 10.69,12.553 C10.389,13.072 10.217,13.672 10.217,14.313 C10.217,15.524 10.834,16.595 11.772,17.222 C11.199,17.204 10.66,17.046 10.188,16.785 L10.188,16.828 C10.188,18.523 11.393,19.936 12.993,20.256 C12.699,20.338 12.391,20.379 12.071,20.379 C11.846,20.379 11.627,20.358 11.414,20.317 C11.858,21.705 13.149,22.716 14.679,22.744 C13.483,23.682 11.975,24.239 10.338,24.239 C10.056,24.24 9.778,24.226 9.505,24.193 L9.505,24.193 Z" id="Shape"></path>
        </g>
    </g>
</svg>