<?xml version="1.0" encoding="utf-8"?>
<!-- Generator: Adobe Illustrator 16.2.1, SVG Export Plug-In . SVG Version: 6.00 Build 0)  -->
<!DOCTYPE svg PUBLIC "-//W3C//DTD SVG 1.1//EN" "http://www.w3.org/Graphics/SVG/1.1/DTD/svg11.dtd">
<svg version="1.1" id="Layer_1" xmlns="http://www.w3.org/2000/svg" xmlns:xlink="http://www.w3.org/1999/xlink" x="0px" y="0px"
	 width="339.009px" height="265.961px" viewBox="0 0 339.009 265.961" enable-background="new 0 0 339.009 265.961"
	 xml:space="preserve">
<g>
	<defs>
		<rect id="SVGID_1_" width="339.009" height="265.961"/>
	</defs>
	<clipPath id="SVGID_2_">
		<use xlink:href="#SVGID_1_"  overflow="visible"/>
	</clipPath>
	<g clip-path="url(#SVGID_2_)">
		<defs>
			<rect id="SVGID_3_" width="339.009" height="265.961"/>
		</defs>
		<clipPath id="SVGID_4_">
			<use xlink:href="#SVGID_3_"  overflow="visible"/>
		</clipPath>
		<path clip-path="url(#SVGID_4_)" d="M201.967,235.005c-0.034,0.04,0.179-0.204,0.071-0.084l-0.018,0.02l-0.021,0.025
			L201.967,235.005z"/>
		<path clip-path="url(#SVGID_4_)" d="M281.941,228.843c-0.123-0.245-0.031-0.06-0.058-0.11l0.002,0.005l0.003,0.007
			L281.941,228.843z"/>
		<path clip-path="url(#SVGID_4_)" d="M209.094,226.39l-0.03,0.038c-0.035,0.053-0.071,0.104-0.106,0.156L209.094,226.39z"/>
		<path clip-path="url(#SVGID_4_)" d="M138.255,249.122c-0.214-0.17-0.418-0.35-0.628-0.523c-0.218-0.021-0.426-0.046-0.646-0.064
			c0.38,0.172,0.718,0.326,0.957,0.435C138.077,249.035,138.171,249.081,138.255,249.122"/>
		<path clip-path="url(#SVGID_4_)" fill="#FFFFFF" d="M277.182,89.166l-0.35,0.252c-0.109,0.089-0.305,0.248-0.511,0.434
			c-0.397,0.358-0.781,0.781-1.13,1.242c-0.705,0.922-1.237,2.01-1.532,3.227c-0.121,0.616-0.22,1.259-0.243,1.949l-0.005,0.064
			c0,0.011,0-0.004-0.001-0.016l0.003,0.087l0.013,0.379c0.013,0.229,0.01,0.565,0.035,0.711c0.068,0.306,0.039,0.511,0.146,0.934
			c0.29,1.516,0.906,3.179,1.862,4.786c0.443,0.774,0.962,1.549,1.536,2.284l2.906-17.096c-0.997,0.122-1.967,0.346-2.574,0.669
			C277.286,89.105,277.237,89.139,277.182,89.166"/>
		<path clip-path="url(#SVGID_4_)" fill="#FFFFFF" d="M248.012,192.598c-6.17,1.067-35.06,13.704-35.06,13.704
			c-6.792,2.224-12.565,3.014-17.237,3.014c-19.104,0-16.095-19.428-8.945-21.053c4.86-1.104,6.521,3.849,6.521,3.849
			c2.135-1.661,0.712-10.796-7.356-10.618c-11.743,0.259-11.271,11.568-11.271,11.568c-0.002,22.067,21.469,19.441,21.469,19.441
			c5.95-0.521,10.621-1.012,20.457-4.972C224.657,204.283,248.012,192.598,248.012,192.598"/>
		<g opacity="0" clip-path="url(#SVGID_4_)">
			<g>
				<defs>
					<rect id="SVGID_5_" y="75.579" width="15.467" height="33.13"/>
				</defs>
				<clipPath id="SVGID_6_">
					<use xlink:href="#SVGID_5_"  overflow="visible"/>
				</clipPath>
				<path clip-path="url(#SVGID_6_)" fill="#FFFFFF" d="M14.058,98.988c-0.521,0.874-1.533,2.878-1.997,3.806
					c-0.157,0.314-0.441,0.535-0.782,0.616l-5.926,1.414c0,0,2.369-5.015,4.572-10.029l2.441-0.857l-0.932-2.655
					c0.93-2.22,1.69-4.179,2.016-5.353c1.186-4.272-1.172-11.257-7.119-10.254c-3.479,0.587-4.746,4.915-4.746,4.915v-2.908
					L0,78.061l0.666,9.07l1.335-0.756c0-3.56,2.18-5.251,4.226-5.251c3.026,0,3.156,2.496,3.026,4.539
					c-0.045,0.702-0.937,3.193-2.124,6.224L4.567,92.79l1.03,2.919c-2.104,5.142-4.394,10.392-4.724,10.895
					c-0.622,0.949-0.267,2.105-0.267,2.105l12.601-2.916l2.26-6.723C15.467,99.07,14.285,98.607,14.058,98.988"/>
			</g>
		</g>
		<g opacity="0" clip-path="url(#SVGID_4_)">
			<g>
				<defs>
					<rect id="SVGID_7_" x="14.577" y="70.36" width="17.759" height="35.146"/>
				</defs>
				<clipPath id="SVGID_8_">
					<use xlink:href="#SVGID_7_"  overflow="visible"/>
				</clipPath>
				<path clip-path="url(#SVGID_8_)" fill="#FFFFFF" d="M16.759,74.07l-2.182,8.656l1.661-0.788c0.712-4.11,7.653-6.359,7.653-6.359
					s-0.975,5.52-1.982,11.401l-2.546,1.708l1.8,2.682c-0.792,4.708-1.448,8.796-1.448,9.407c0,1.542-3.299,2.238-3.299,2.238
					l-0.949,2.491l11.687-2.669l-0.89-1.602c-1.899,0-2.433-0.89-2.433-0.89s0.67-4.98,1.475-10.484l2.116-1.695l-1.571-1.962
					c0.778-5.117,1.571-9.843,1.955-10.625c0.83-1.692,3.737-2.581,3.737-2.581l0.793-2.638
					C32.336,70.36,17.403,73.917,16.759,74.07"/>
			</g>
		</g>
		<g opacity="0" clip-path="url(#SVGID_4_)">
			<g>
				<defs>
					<rect id="SVGID_9_" x="36.983" y="68.552" width="8.931" height="16.759"/>
				</defs>
				<clipPath id="SVGID_10_">
					<use xlink:href="#SVGID_9_"  overflow="visible"/>
				</clipPath>
				<path clip-path="url(#SVGID_10_)" fill="#FFFFFF" d="M36.983,69.111l3.296-0.56v5.399c0,0,0.949-1.263,2.135-1.263
					c1.187,0,2.56,0.61,2.56,3.992v4.122c0,0,0.11,0.683,0.525,0.683l0.415,0.801l-2.877,1.127l-0.059-1.068
					c0,0,0.415-0.445,0.415-0.949v-5.784c0,0-0.082-1.179-1.038-1.068c-0.736,0.086-2.047,0.03-2.047,3.975v3.737
					c0,0,0.119,0.83,0.712,0.83l0.356,0.772l-3.441,1.453l0.119-1.246c0,0,0.712-0.267,0.712-0.949V70.359
					c0,0-0.588-0.714-1.142-0.24L36.983,69.111z"/>
			</g>
		</g>
		<g opacity="0" clip-path="url(#SVGID_4_)">
			<g>
				<defs>
					<rect id="SVGID_11_" x="33.155" y="69.685" width="4.011" height="17.072"/>
				</defs>
				<clipPath id="SVGID_12_">
					<use xlink:href="#SVGID_11_"  overflow="visible"/>
				</clipPath>
				<path clip-path="url(#SVGID_12_)" fill="#FFFFFF" d="M34.799,69.685l-1.636,0.452l-0.008,14.657c0,0,0.169,1.958,1.415,1.964
					c1.246,0.005,2.589-1.798,2.589-1.798l0.008-1.631c0,0-1.188,1.284-1.728,1.445c-0.224,0.068-0.533-0.061-0.53-0.773
					C34.912,83.289,34.799,69.685,34.799,69.685"/>
			</g>
		</g>
		<g opacity="0" clip-path="url(#SVGID_4_)">
			<g>
				<defs>
					<rect id="SVGID_13_" x="31.759" y="75.376" width="4.71" height="3.562"/>
				</defs>
				<clipPath id="SVGID_14_">
					<use xlink:href="#SVGID_13_"  overflow="visible"/>
				</clipPath>
				<polygon clip-path="url(#SVGID_14_)" fill="#FFFFFF" points="31.766,77.32 31.759,78.938 36.461,76.994 36.469,75.375 				"/>
			</g>
		</g>
		<path clip-path="url(#SVGID_4_)" fill="#FFFFFF" d="M131.487,241.039c-0.179-0.048-0.341-0.095-0.525-0.143
			c-5.123-1.322-12.182-2.584-19.277-2.066c-1.768,0.104-3.525,0.377-5.237,0.697c-1.702,0.385-3.363,0.823-4.909,1.429
			c-0.776,0.295-1.534,0.59-2.244,0.958c-0.358,0.173-0.713,0.344-1.063,0.512c-0.336,0.197-0.668,0.391-0.995,0.582
			c-0.664,0.364-1.279,0.768-1.85,1.194c-0.588,0.4-1.139,0.806-1.628,1.249c-1.033,0.816-1.846,1.707-2.593,2.462
			c-0.692,0.806-1.276,1.524-1.741,2.123c-0.853,1.256-1.34,1.974-1.34,1.974s0.535-0.68,1.471-1.868
			c0.505-0.562,1.133-1.232,1.868-1.977c0.79-0.692,1.645-1.506,2.71-2.23c0.505-0.397,1.069-0.755,1.667-1.102
			c0.58-0.374,1.202-0.721,1.868-1.027c0.328-0.161,0.66-0.325,0.996-0.491c0.348-0.139,0.701-0.278,1.058-0.419
			c0.703-0.306,1.452-0.537,2.213-0.767c1.517-0.475,3.136-0.778,4.78-1.033c1.658-0.188,3.345-0.332,5.04-0.31
			c6.792-0.017,13.467,1.667,18.27,3.278c2.409,0.81,4.374,1.598,5.722,2.187c0.22,0.101,0.399,0.182,0.587,0.268
			c0.221,0.018,0.428,0.043,0.646,0.062C134.973,244.917,133.129,243.064,131.487,241.039"/>
		<path clip-path="url(#SVGID_4_)" fill="#FFFFFF" d="M144.782,251.61c-1.202-0.759-2.345-1.604-3.458-2.488
			c-0.084-0.041-0.178-0.086-0.317-0.154c-0.238-0.107-0.577-0.261-0.957-0.434c-4.643-0.385-9.817-0.417-14.947,0.34
			c-2.042,0.271-4.058,0.733-6.017,1.245c-1.947,0.575-3.837,1.223-5.588,2.037c-0.874,0.41-1.738,0.796-2.533,1.279
			c-0.814,0.444-1.595,0.901-2.312,1.419c-0.739,0.479-1.435,0.977-2.064,1.517c-0.648,0.516-1.27,1.013-1.804,1.565
			c-1.139,1.025-2.031,2.107-2.839,3.044c-0.755,0.979-1.37,1.865-1.874,2.589c-0.898,1.521-1.411,2.392-1.411,2.392
			s0.571-0.83,1.57-2.28c0.551-0.686,1.221-1.519,2.031-2.429c0.861-0.867,1.807-1.863,2.988-2.786
			c0.555-0.5,1.197-0.941,1.859-1.396c0.645-0.481,1.352-0.914,2.099-1.327c0.723-0.45,1.508-0.837,2.32-1.209
			c0.793-0.41,1.652-0.722,2.515-1.057c1.73-0.661,3.584-1.153,5.477-1.572c1.91-0.358,3.858-0.665,5.83-0.786
			c7.889-0.605,15.792,0.715,21.525,2.117c0.574,0.141,1.11,0.282,1.641,0.423l-0.719-0.323L144.782,251.61z"/>
		<path clip-path="url(#SVGID_4_)" fill="#FFFFFF" d="M122.875,232.618c-1.102-0.355-2.283-0.769-3.567-1.098
			c-1.268-0.382-2.636-0.666-4.043-0.978c-1.415-0.269-2.885-0.521-4.383-0.699c-1.505-0.141-3.024-0.336-4.559-0.334l-2.289-0.055
			c-0.76,0.035-1.517,0.07-2.268,0.104c-1.502,0.02-2.965,0.253-4.379,0.425c-1.42,0.128-2.758,0.482-4.034,0.736
			c-0.635,0.145-1.26,0.247-1.85,0.412c-0.585,0.178-1.151,0.35-1.695,0.514c-1.08,0.346-2.089,0.593-2.943,0.934
			c-0.852,0.343-1.596,0.641-2.208,0.887c-1.22,0.49-1.917,0.771-1.917,0.771s0.717-0.227,1.972-0.621
			c0.626-0.196,1.385-0.436,2.257-0.709c0.87-0.273,1.893-0.44,2.983-0.699c0.546-0.12,1.116-0.246,1.705-0.376
			c0.592-0.117,1.216-0.171,1.85-0.264c1.273-0.152,2.6-0.399,3.999-0.415c1.392-0.062,2.824-0.179,4.284-0.084
			c0.728,0.021,1.461,0.045,2.198,0.066l2.203,0.226c1.472,0.109,2.92,0.414,4.347,0.658c1.42,0.281,2.805,0.631,4.132,0.99
			c1.319,0.401,2.594,0.771,3.772,1.227c1.192,0.405,2.284,0.888,3.3,1.302c1.002,0.455,1.922,0.856,2.721,1.264
			c0.802,0.393,1.502,0.751,2.079,1.056c0.567,0.294,1.226,0.623,1.546,0.768c0.087,0.038,0.134,0.059,0.199,0.086
			c-1.082-1.638-2.027-3.359-2.852-5.142C124.659,233.262,123.805,232.956,122.875,232.618"/>
		<path clip-path="url(#SVGID_4_)" fill="#FFFFFF" d="M122.254,225.971c-0.784-0.269-1.689-0.58-2.718-0.933
			c-3.324-1.176-7.743-2.794-12.101-4.559c-4.358-1.762-8.659-3.679-11.709-5.43c-1.524-0.872-2.733-1.71-3.463-2.423
			c-0.376-0.345-0.607-0.679-0.743-0.911c-0.116-0.248-0.178-0.381-0.178-0.381l-0.03,0.008c0,0,0.05,0.141,0.144,0.404
			c0.114,0.251,0.322,0.619,0.67,1.007c0.676,0.8,1.822,1.769,3.278,2.8c2.913,2.066,7.052,4.409,11.257,6.6
			c7.732,4.031,15.687,7.572,16.927,8.122c-0.245-0.665-0.506-1.323-0.715-2C122.64,227.515,122.439,226.745,122.254,225.971"/>
		<path clip-path="url(#SVGID_4_)" fill="#FFFFFF" d="M121.299,219.886c-1.841-1.405-4.01-3.157-6.146-4.995
			c-1.259-1.09-2.482-2.219-3.576-3.327c-0.525-0.569-1.065-1.103-1.526-1.642c-0.445-0.55-0.937-1.033-1.271-1.552
			c-0.339-0.514-0.735-0.951-0.936-1.409c-0.217-0.45-0.477-0.826-0.585-1.169c-0.213-0.7-0.335-1.102-0.335-1.102
			s0.06,0.42,0.166,1.154c0.054,0.373,0.258,0.778,0.428,1.273c0.153,0.51,0.488,0.988,0.773,1.567
			c0.281,0.585,0.707,1.126,1.095,1.753c0.396,0.623,0.902,1.202,1.38,1.845c1.004,1.24,2.133,2.512,3.302,3.744
			c2.342,2.462,4.89,4.7,6.808,6.367c0.174,0.146,0.336,0.282,0.499,0.419C121.308,221.839,121.288,220.861,121.299,219.886"/>
		<path clip-path="url(#SVGID_4_)" fill="#FFFFFF" d="M119.132,211.457c-0.475-0.758-0.85-1.572-1.138-2.361
			c-0.287-0.792-0.434-1.566-0.515-2.242c-0.025-0.338-0.018-0.65-0.027-0.929c-0.023-0.279,0.04-0.517,0.056-0.717
			c0.05-0.4,0.079-0.628,0.079-0.628s-0.059,0.223-0.161,0.613c-0.043,0.196-0.138,0.433-0.153,0.716
			c-0.028,0.282-0.078,0.601-0.098,0.952c-0.01,0.703,0.036,1.53,0.225,2.399c0.191,0.865,0.473,1.779,0.867,2.645
			c0.664,1.552,1.604,2.939,2.468,4.01c0.141-0.595,0.301-1.176,0.505-1.722C120.511,213.424,119.749,212.497,119.132,211.457"/>
		<path clip-path="url(#SVGID_4_)" fill="#FFFFFF" d="M285.215,87.697c-0.101-0.052-1.521-1.599-4.764-1.232
			c-0.796,0.069-1.689,0.268-2.615,0.579c-0.459,0.167-0.929,0.349-1.375,0.594l-0.336,0.177l-0.042,0.022
			c-0.089,0.05,0.074-0.044,0.036-0.02l-0.111,0.07l-0.225,0.142c-0.145,0.095-0.16,0.132-0.254,0.19
			c-0.074,0.048-0.198,0.16-0.297,0.236c-1.718,1.425-3.257,3.983-3.476,7.044l-0.027,0.584l-0.008,0.147l-0.004,0.074
			c-0.002-0.02-0.002,0.151-0.006-0.027l0.013,0.365c0.012,0.498,0.028,1.003,0.086,1.333c0.06,0.735,0.273,1.671,0.502,2.521
			c0.52,1.735,1.351,3.51,2.49,5.161c0.559,0.833,1.215,1.621,1.937,2.331c0.689,0.694,1.589,1.384,2.277,1.762
			c1.243,0.636,1.89,0.859,3.068,1.185c1.096,0.275,2.261,0.476,3.481,0.57c4.893,0.404,10.401-0.376,16.029-1.746
			c0.689-0.181,1.385-0.364,2.084-0.547c0.708-0.219,1.483-0.42,2.127-0.664c1.334-0.447,2.745-1.014,4.108-1.637
			c2.745-1.253,5.447-2.812,8.057-4.616c2.613-1.795,5.12-3.88,7.378-6.245c1.134-1.177,2.202-2.433,3.121-3.777
			c0.496-0.71,0.992-1.435,1.379-2.138c0.424-0.698,0.835-1.418,1.205-2.188c3.072-6.04,4.672-13.088,4.772-20.352
			c0.055-7.266-1.277-14.759-4.025-21.856c-2.765-7.067-6.929-13.833-12.677-19.061c-1.398-1.323-2.962-2.543-4.508-3.62
			c-0.853-0.555-1.722-1.166-2.566-1.679c-0.852-0.496-1.668-1.022-2.549-1.501c-3.5-1.963-7.203-3.635-11.041-5.034
			c-7.655-2.86-15.841-4.661-24.192-5.514c-8.354-0.844-16.89-0.774-25.318,0.285c-4.211,0.54-8.401,1.327-12.468,2.5
			c-2.037,0.572-4.037,1.253-5.976,2.049c-1.887,0.771-3.943,1.759-5.885,2.645c-15.529,7.461-30.508,16.409-45.021,25.432
			c-7.242,4.564-14.426,9.091-21.524,13.563c-7.082,4.509-14.078,8.964-20.96,13.345c-13.821,8.676-27.296,16.935-40.669,23.759
			c-6.696,3.379-13.358,6.456-20.192,8.54c-0.841,0.292-1.722,0.468-2.581,0.693l-1.291,0.32c-0.499,0.127-0.874,0.161-1.316,0.246
			c-1.783,0.279-3.625,0.329-5.385,0.144c-3.552-0.351-6.932-1.716-9.672-3.805c-2.752-2.095-4.848-4.861-6.024-8.01
			c-1.165-3.131-1.281-6.544-0.477-9.622c0.807-3.082,2.519-5.817,4.676-7.873c2.217-2.123,5.101-3.441,8.039-3.604
			c2.931-0.172,5.782,0.776,7.96,2.429c2.209,1.647,3.718,3.96,4.44,6.457c0.716,2.621,0.069,5.409-1.091,7.393
			c-1.16,2.131-2.987,3.927-5.322,4.699c-2.304,0.798-4.826,0.449-6.74-0.642c-1.964-1.087-3.244-2.875-3.861-4.811
			c-0.309-0.959-0.36-2.106-0.168-3.056c0.091-0.486,0.231-0.949,0.41-1.382l0.069-0.16l0.129-0.271l0.116-0.212l0.228-0.418
			c0.864-1.517,2.141-2.659,3.648-3.134c1.487-0.485,2.949-0.243,3.948,0.279c1.018,0.525,1.625,1.285,1.964,1.909
			c0.662,1.3,0.422,2.042,0.474,2.021l-1.362,0.415c0,0-0.095-0.08-0.283-0.238c-0.169-0.151-0.442-0.349-0.787-0.51
			c-0.678-0.351-1.7-0.461-2.543-0.001c-0.422,0.2-0.976,0.627-1.358,1.286l-0.227,0.417l-0.115,0.213
			c0.109-0.215,0.022-0.042,0.043-0.081l-0.014,0.032l-0.028,0.064c-0.071,0.173-0.124,0.354-0.159,0.54
			c-0.059,0.391-0.069,0.706,0.049,1.166c0.238,0.879,0.899,1.877,1.869,2.523c0.973,0.662,2.311,0.985,3.662,0.638
			c1.345-0.313,2.717-1.353,3.698-2.826c0.117-0.147,0.261-0.415,0.395-0.633c0.106-0.167,0.218-0.38,0.311-0.577
			c0.193-0.404,0.35-0.83,0.465-1.272c0.24-0.877,0.262-1.847,0.081-2.753c-0.41-1.945-1.605-3.876-3.343-5.24
			c-1.745-1.361-4.059-2.137-6.434-2.017c-2.37,0.11-4.774,1.182-6.636,2.936c-1.925,1.812-3.408,4.164-4.135,6.841
			c-0.714,2.669-0.633,5.628,0.362,8.362c0.981,2.708,2.867,5.264,5.298,7.122c2.431,1.878,5.45,3.129,8.657,3.466
			c1.613,0.176,3.222,0.145,4.855-0.095c0.407-0.075,0.896-0.129,1.238-0.223l1.244-0.3c0.828-0.212,1.671-0.371,2.494-0.652
			c6.643-1.988,13.286-4.939,19.897-8.353c13.242-6.829,26.652-15.124,40.414-23.846c6.857-4.411,13.828-8.895,20.884-13.434
			c7.046-4.568,14.177-9.19,21.366-13.85c14.484-9.179,29.172-18.537,44.872-26.458c1.997-0.958,3.843-1.9,5.962-2.822
			c2.066-0.896,4.174-1.659,6.309-2.305c4.262-1.321,8.611-2.226,12.98-2.875c8.742-1.315,17.585-1.431,26.274-0.644
			c8.685,0.808,17.251,2.583,25.349,5.54c4.034,1.51,7.943,3.314,11.65,5.435c0.933,0.52,1.854,1.118,2.776,1.673
			c0.912,0.568,1.725,1.151,2.589,1.724c1.817,1.285,3.475,2.609,5.028,4.099c6.2,5.942,10.454,13.33,13.209,20.914
			c2.734,7.617,3.924,15.548,3.695,23.224c-0.169,7.672-1.911,15.165-5.272,21.649c-0.398,0.813-0.859,1.612-1.348,2.4
			c-0.466,0.821-0.969,1.516-1.453,2.23c-1.017,1.519-2.161,2.895-3.365,4.176c-2.391,2.585-5.037,4.772-7.729,6.766
			c-2.7,1.987-5.513,3.7-8.4,5.142c-1.446,0.734-2.876,1.386-4.41,1.973c-0.772,0.321-1.46,0.526-2.18,0.783
			c-0.806,0.266-1.487,0.46-2.23,0.685c-5.847,1.657-11.615,2.789-17.33,2.517c-1.426-0.062-2.849-0.249-4.251-0.551
			c-1.315-0.267-3.056-0.899-4.022-1.381c-1.518-0.753-2.558-1.571-3.604-2.509c-1.013-0.926-1.896-1.919-2.657-2.961
			c-1.56-2.062-2.612-4.332-3.344-6.603c-0.332-1.175-0.607-2.243-0.741-3.504c-0.091-0.663-0.107-1.147-0.127-1.625l-0.019-0.365
			l0.009-0.531l0.027-0.852c0.369-4.573,2.587-8.32,5.399-10.645c0.192-0.151,0.344-0.284,0.568-0.441
			c0.205-0.145,0.476-0.328,0.635-0.418l0.23-0.131l0.115-0.065l0.152-0.082l0.073-0.036l0.593-0.282
			c0.795-0.328,1.566-0.581,2.323-0.716c1.507-0.3,2.912-0.26,4.146-0.038c1.238,0.227,2.291,0.701,3.125,1.216
			c0.825,0.55,1.409,1.174,1.78,1.721c0.39,0.587,0.614,1.093,0.641,1.333c0.066,0.275,0.099,0.415,0.099,0.415L285.215,87.697z"/>
		<path clip-path="url(#SVGID_4_)" fill="#FFFFFF" d="M185.011,85.58v18.43l-3.076,3.076l3.076,3.075v16.233
			c0,0,0.356,2.847-1.067,2.847l-0.658,2.999l12.629-2.89l1.199-2.956l-2.137-1.661V106.46l1.425,0.238l6.288,16.809
			c0,0-0.118,2.162-1.306,2.162l-0.467,2.536l14.841-3.396l-0.848-2.332c0,0-2.492,0.119-3.797-3.203
			c-1.306-3.322-4.627-16.61-4.627-16.61l-5.695-0.119c0,0,10.144-2.64,10.144-19.013c0-3.704-2.462-9.076-12.793-7.446
			l-15.671,3.585l-0.951,2.989C181.52,82.661,185.011,81.901,185.011,85.58 M194.918,84.943c2.492-1.068,6.051-1.424,6.051,3.305
			c0,7.386-6.051,10.399-6.051,10.399V84.943z"/>
		<path clip-path="url(#SVGID_4_)" fill="#FFFFFF" d="M242.436,72.587l5.161-1.913v18.231l-3.283,3.283l3.283,3.283v15.735
			c0,0,0.721,3.42-3.284,3.42l-0.662,3.802l19.368-4.431l-1.186-2.835c0,0-4.271,0-4.271-3.115c0-1.249-0.101-8.392-0.206-16.445
			l2.932-2.931l-3.008-3.008c-0.088-7.061-0.163-13.903-0.163-17.347l4.716-1.139c4.984-0.978,9.7,6.122,9.7,6.122l1.602-1.513
			l-5.653-11.564l-31.604,7.231l-2.072,12.52h2.49C237.452,75.702,242.436,72.587,242.436,72.587"/>
		<path clip-path="url(#SVGID_4_)" fill="#FFFFFF" d="M220.101,76.681v19.437l-3.105,3.105l3.105,3.106v13.06
			c0,0-0.268,5.665-1.913,5.665l-0.576,3.332l16.982-3.885l-0.968-2.353c0,0-3.025-0.178-3.025-5.073
			c0-1.849,0.013-7.87,0.028-14.642l2.727-2.727l-2.714-2.714c0.023-9.584,0.048-18.892,0.048-18.892s-0.178-2.402,1.958-2.402
			l-1.126-3.248l-14.727,3.369l-0.521,3.26C216.274,75.079,220.101,74.634,220.101,76.681"/>
		<path clip-path="url(#SVGID_4_)" fill="#FFFFFF" d="M1.963,188.801l2.329,4.034c2.825-8.327,8.644-14.812,8.644-14.812
			l-1.148-0.73c-1.542,0.475-1.779-2.136-1.779-2.136v-23.224l2.857-2.902l-2.857-2.812v-10.926l11.034,25.627l11.271-33.339v14.662
			l-2.516,2.518l2.516,2.516v10.322c0,4.034-1.54,4.018-1.54,4.018l0.235,2.049c6.407-3.56,14-2.744,14-2.744
			s-0.119-1.187-1.186-1.661c-1.068-0.475-1.068-2.729-1.068-2.729v-12.48l2.79-2.834l-2.79-2.746v-21.685
			c0-2.729,2.254-3.084,2.254-3.084l-0.066-2.584L31.655,114.2l-9.663,24.262c0,0-6.299-15.223-7.119-17.408
			c-0.178-0.474,0.567-0.909,0.567-0.909l-0.78-2.082l-13.075,2.991l0.593,2.017c2.017,0,1.542,3.085,1.542,3.085v22.442
			l-3.139,3.14l3.139,3.14v20.042C3.721,185.359,1.963,188.801,1.963,188.801"/>
		<path clip-path="url(#SVGID_4_)" fill="#FFFFFF" d="M54.734,160.229c-0.834-0.547-0.6-2.724-0.6-2.724l2.596-15.278l6.956-1.576
			l3.153,13.295c0,3.737-1.977,4.004-1.977,4.004l0.392,2.118l14.764-3.378l-1.185-2.477c-1.246,0-1.157-1.603-1.157-1.603
			l-3.844-16.523l2.183-3.942l-3.558-1.97l-4.302-18.497c0-2.758,0.64-3.114,0.64-3.114v-2.06l-14.661,3.354l-0.336,2.117
			c1.869,0,1.691,2.491,1.691,2.491l-3.598,21.395l-3.354,2.613l2.397,3.076L48.4,156.614c0,1.343-0.291,2.342-0.656,3.076
			c0.56,0.017,1.126,0.037,1.677,0.048C51.197,159.823,52.969,159.998,54.734,160.229 M59.79,124.225l2.91,12.271l-5.195,1.177
			L59.79,124.225z"/>
		<path clip-path="url(#SVGID_4_)" fill="#FFFFFF" d="M168.078,127.147c0-0.09-0.002-0.186-0.002-0.278
			c0.006-0.778-0.026-1.274-0.032-1.36c-0.001-0.01-0.006-0.083-0.015-0.191c-0.398-7.683-3.539-20.771-18.908-20.771
			c-16.669,0-15.926,13.128-15.926,13.128l0.016-0.007c-0.143,2.36,0.41,4.408,1.052,5.266c1.008,1.635,2.8,2.735,4.861,2.735
			c3.162,0,5.725-2.563,5.725-5.725c0-3.161-2.563-5.724-5.725-5.724c-1.715,0-3.236,0.769-4.285,1.964
			c0.103-0.475,0.236-0.956,0.425-1.44c1.228-3.152,4.745-6.952,14.525-7.164c6.515-0.137,11.333,2.811,14.292,8.774
			c2.249,4.531,2.539,9.189,2.543,9.248c0.007,0.106,0.707,10.642-6.246,18.134c-3.413,3.676-8.1,6.018-13.956,7.033v-10.354
			c0.059-9.858,0.119-21.312,0.119-26.956c0-0.462,0.949-1.586,0.949-1.586l-0.949-1.528l-5.606,1.861v1.179
			c2.885,0.808,5.013,3.428,5.013,6.571c0,3.142-2.128,5.762-5.013,6.57v0.893c0,0,0.979,7.932-6.229,7.932
			s-5.606-14.742-5.606-22.307c0-7.563,4.271-17.612,7.652-17.612c2.759,0,3.827,6.371,3.827,6.371l1.727-0.89V89.062l-2.489,0.57
			c0,1.487-0.907,2.406-0.907,2.406s-2.979-1.219-4.28-1.219c-1.302,0-17.395-0.316-17.395,25.786c0,1.499,0.047,2.908,0.128,4.25
			l-2.607,2.607l3.272,3.271c2.849,16.392,12.633,17.482,16.116,16.951c2.663-0.406,4.886-2.679,5.976-3.998
			c-0.07,3.884-0.118,7.769-0.169,11.653c-0.21,0.002-0.406,0.022-0.618,0.022c-28.958,0-29.988-26.663-30.017-27.798l-0.019-0.712
			l-5.021,0.134c5.98-4.886,8.889-9.678,8.88-14.604c-0.006-3.207-1.038-5.741-3.067-7.531c-4.126-3.642-10.855-2.862-11.212-2.812
			l-16.926,3.871l-1.075,3.559l0.91,0.045c0.305,0.015,2.97,0.223,2.97,2.882l0.007,19.894l-2.944,2.944l2.946,2.946l0.005,13.822
			c-0.006,0.03-0.653,2.988-2.268,2.988h-0.593l-0.985,5.37l21.747-4.977l-2.205-4.821l-0.556,0.112
			c-0.026,0.007-0.666,0.131-1.184-0.292c-0.523-0.427-0.8-1.315-0.8-2.57v-13.146l0.777-0.282
			c1.358,4.296,9.311,25.385,34.515,25.383c2.1-0.001,4.33-0.156,6.675-0.472c-0.072,5.898-0.136,11.796-0.207,17.694
			c-0.805,3.886-2.1,7.649-4.057,10.958c-2.011,3.29-4.818,6.028-8.278,7.524c-3.446,1.521-7.366,1.874-11.205,1.435
			c-3.848-0.441-7.655-1.62-11.173-3.306c-1.785-0.858-3.384-1.802-4.966-2.985c-1.591-1.175-3.151-2.46-4.716-3.771
			c-3.137-2.611-6.322-5.297-9.704-7.778c-6.72-4.998-14.394-9.101-22.691-11.192c-4.134-1.059-8.374-1.67-12.623-1.875
			c-1.065-0.021-2.189-0.084-3.206-0.065l-1.54,0.017l-0.386,0.004l-0.238,0.004l-0.207,0.014l-0.826,0.057
			c-2.21,0.098-4.381,0.533-6.514,1.05c-8.531,2.281-15.878,7.546-21.463,14.029c-2.821,3.24-5.217,6.834-7.139,10.664
			c-1.936,3.82-3.442,7.876-4.29,12.097c-0.893,4.205-1.177,8.562-0.682,12.87c0.076,1.079,0.335,2.141,0.499,3.21
			c0.279,1.052,0.5,2.239,0.846,3.163c0.605,2.05,1.507,4.042,2.512,5.938c4.051,7.639,11.013,13.479,18.922,16.521
			c7.908,3.12,16.758,3.531,24.945,1.324c4.043-1.058,8.055-2.857,11.481-5.396c3.454-2.527,6.365-5.771,8.623-9.423
			c4.52-7.298,6.136-16.503,4.016-25.09c-1.071-4.348-3.321-8.474-6.547-11.736c-3.212-3.27-7.394-5.665-11.982-6.711
			c-4.609-1.03-9.48-0.794-14.079,1.118c-4.583,1.955-8.416,5.774-10.342,10.46c-1.943,4.693-2.034,10.072-0.194,14.893
			c1.87,5.064,6.382,8.896,11.473,10.339c1.286,0.335,2.6,0.586,3.932,0.634c0.666,0.039,1.331,0.046,1.996-0.013
			c0.637-0.017,1.375-0.124,2.112-0.259c0.838-0.133,1.151-0.263,1.697-0.393l0.186-0.05l0.092-0.027
			c0.419-0.122,0.188-0.061,0.313-0.1l0.494-0.19c0.327-0.135,0.661-0.247,0.976-0.409c1.282-0.602,2.445-1.441,3.453-2.412
			c2-1.972,3.261-4.59,3.517-7.236c0.141-1.32-0.012-2.646-0.346-3.862c-0.194-0.606-0.418-1.188-0.741-1.774
			c-0.275-0.615-0.66-0.961-1.037-1.417l-1.378,0.354c-0.825,4.301-2.859,6.606-5.065,8.083c-0.572,0.338-1.131,0.645-1.728,0.882
			c-0.143,0.072-0.305,0.102-0.454,0.16l-0.191,0.066l-0.184,0.05c-0.452,0.112-1.114,0.324-1.3,0.309
			c-0.275,0.039-0.55,0.102-0.942,0.109c-0.359,0.042-0.72,0.036-1.081,0.016c-0.723-0.012-1.435-0.158-2.14-0.322
			c-2.804-0.777-5.185-2.836-6.272-5.486c-1.2-2.812-1.304-6.228-0.188-9.168c1.078-2.972,3.293-5.547,6.201-6.991
			c2.921-1.409,6.608-1.976,10.05-1.424c3.479,0.529,6.854,2.121,9.578,4.529c2.734,2.399,4.811,5.592,5.961,9.152
			c1.17,3.623,1.599,7.531,1.174,11.383c-0.425,3.851-1.634,7.637-3.525,11.071c-3.841,6.851-10.471,12.116-18.241,14.062
			c-3.813,1.062-7.849,1.501-11.82,1.284c-3.978-0.237-7.904-1.15-11.579-2.65c-7.321-3.073-13.509-8.72-16.942-15.756
			c-0.859-1.758-1.596-3.558-2.085-5.471c-0.335-1.018-0.419-1.874-0.646-2.811c-0.108-0.966-0.313-1.914-0.343-2.89
			c-0.308-3.875,0.083-7.805,1.033-11.604c1.88-7.604,5.742-14.73,10.913-20.61c2.565-2.962,5.521-5.568,8.742-7.729
			c3.197-2.201,6.736-3.841,10.409-4.888c1.85-0.459,3.723-0.858,5.621-0.953l0.71-0.056l0.178-0.015
			c-0.029-0.002,0.102-0.002,0.146-0.004l0.385-0.008l1.54-0.031c1.035-0.027,1.964,0.026,2.953,0.034
			c3.955,0.153,7.893,0.684,11.725,1.626c7.691,1.866,14.828,5.568,21.318,10.294c3.267,2.346,6.387,4.936,9.595,7.538
			c1.614,1.291,3.253,2.585,4.994,3.812c1.732,1.244,3.707,2.361,5.646,3.233c3.924,1.775,8.098,2.978,12.424,3.385
			c4.304,0.4,8.845-0.075,12.909-1.972c0.667-0.306,3.485-1.497,4.336-2.104c1.233-0.632,2.432-1.339,3.551-2.162
			c2.249-1.628,4.223-3.641,5.807-5.921c1.588-2.279,2.415-4.612,3.138-7.283c0.772-2.848,0.829-5.783,0.872-8.479
			c0.036-1.396,0.01-2.712,0.018-4.072v-4.049v-6.401c5.574-1.567,11.513-4.468,15.509-9.828c5.32-6.138,6.08-13.712,6.14-16.989
			H168.078z M97.48,121.054v-14.326c0,0,5.428-2.403,5.428,4.182S97.48,121.054,97.48,121.054"/>
		<path clip-path="url(#SVGID_4_)" fill="#FFFFFF" d="M159.164,112.085c-1.551-1.356-3.373-2.237-5.455-2.698l-3.946,23.384
			c0,3.648-2.135,4.805-2.135,4.805v2.992l9.837-2.25l-0.939-1.81c-1.335,0-1.029-2.847-1.029-2.847L159.164,112.085z"/>
		<path clip-path="url(#SVGID_4_)" fill="#FFFFFF" d="M180.196,130.369c-1.246,0-1.157-1.602-1.157-1.602l-3.871-16.64l2.055-3.711
			l-3.349-1.854l-4.356-18.727c0-2.759,0.641-3.115,0.641-3.115v-2.06l-14.661,3.354l-0.266,2.68c1.869,0,1.74,1.365,1.74,1.365
			l-2.308,13.68c2.134,0.505,3.961,1.301,5.528,2.304l0.962-5.662l1.888,7.959c5.065,5.117,6.193,12.74,6.408,16.905l0.014,0.169
			c0.007,0.075,0.043,0.616,0.036,1.466l0.003,1.69h-0.07c-0.126,1.853-0.479,4.468-1.385,7.327l13.335-3.05L180.196,130.369z"/>
		<path clip-path="url(#SVGID_4_)" fill="#FFFFFF" d="M238.832,180.857l-3.844-16.523l2.183-3.943l-3.559-1.969l-4.302-18.497
			c0-2.759,0.641-3.115,0.641-3.115v-2.059l-14.66,3.354l-0.336,2.116c1.868,0,1.69,2.492,1.69,2.492l-3.599,21.394l-3.354,2.614
			l2.397,3.076l-0.489,2.907c1.841,1.492,3.597,3.566,4.814,6.43l1.472-8.66l6.956-1.576l3.153,13.294
			c0,3.738-1.978,4.005-1.978,4.005l0.393,2.117l14.764-3.377l-1.187-2.478C238.743,182.459,238.832,180.857,238.832,180.857
			 M218.661,165.919l2.284-13.447l2.911,12.27L218.661,165.919z"/>
		<path clip-path="url(#SVGID_4_)" fill="#FFFFFF" d="M197.143,169.714c0,0,9.497-3.887,9.497-15.75
			c0-11.865-14.272-10.827-14.272-10.827l-14.981,3.567l-2.901,0.691l2.375,2.534c3.561,0,3.322,1.067,3.322,1.067v20.504
			l-3.374,3.375l3.374,3.374v2.527c5.577-1.898,9.967-0.475,9.967-0.475v-3.07c2.99-1.828,4.405-2.042,6.32-2.269
			c2.454-0.089,15.075,1.246,16.346,12.487c0.817,7.226-2.426,13.391-8.303,19.471c1.291,0,5.272-1.164,5.272-1.164
			c6.028-6.43,7.539-8.417,7.539-17.998C217.323,168.986,197.143,169.714,197.143,169.714 M190.029,166.797v-14.771
			c0,0,8.882-4.506,8.882,2.739S190.029,166.797,190.029,166.797"/>
		<path clip-path="url(#SVGID_4_)" fill="#FFFFFF" d="M309.168,138.15c-4.64,0.58-7.711,3.191-7.711,8.262
			c0,5.068,2.687,6.382,5.142,6.382c2.454,0,4.376-1.652,4.376-4.392c0-2.737-0.996-2.761-0.996-2.761l-0.648,0.227
			c0,1.932-0.652,3.666-2.686,3.666s-3.521-1.675-3.659-3.349c-0.1-1.204,0.231-6.519,6.16-6.519
			c5.928,0,11.624,3.546,11.624,17.789s-19.775,18.378-34.719,17.773c-0.558-0.021-1.114-0.037-1.671-0.049v-22.111l2.894-2.828
			l-2.894-2.826v-20.541c0-1.856,2.263-2.309,2.263-2.309v-2.293l-16.436,3.825l1.252,2.505c2.536-2.479,3.396,2.21,3.396,2.21
			v18.905l-3.549,3.469l3.549,3.469v16.134c0,1.48-0.801,2.301-1.632,2.758c-9.643,0.778-17.106,2.46-17.106,2.46v-18.222
			l3.091-3.02l-3.091-3.021V133.24c0-1.856,2.262-2.309,2.262-2.309v-2.293l-16.435,3.825l1.252,2.504
			c2.536-2.478,3.396,2.211,3.396,2.211v19.403l-3.073,3.005l3.073,3.004v16.562c0,3.078-3.458,3.32-3.458,3.32l1.791,2.595
			c0,0,21.867-7.968,39.369-7.061c20.96,1.086,42.17-3.531,42.17-21.154S311.159,137.901,309.168,138.15"/>
		<path clip-path="url(#SVGID_4_)" fill="#FFFFFF" d="M275.289,80.719c1.423-0.425,2.764-0.507,3.953-0.448
			c0.714,0.057,1.371,0.178,1.995,0.331l1.385-8.151l2.317,9.772c0.094,0.071,0.177,0.14,0.275,0.219
			c0.79,0.501,1.082,0.869,1.449,1.278c0.658,0.782,1.05,1.491,1.332,2.117c0.566,1.215,0.637,2.19,0.59,2.096l-2.016,1.164
			l3.101,13.074c0,3.738-1.977,4.005-1.977,4.005l0.392,2.118l14.764-3.378l-1.186-2.478c-1.245,0-1.156-1.601-1.156-1.601
			l-3.88-16.678l2.304-4.16l-3.755-2.079l-4.19-18.016c0-2.759,0.641-3.114,0.641-3.114v-2.06l-14.661,3.354l-0.336,2.117
			c1.869,0,1.691,2.491,1.691,2.491L275.289,80.719z"/>
		<path clip-path="url(#SVGID_4_)" fill="#FFFFFF" d="M265.743,33.251c-1.602-2.673-3.984-4.587-6.45-5.667
			c-1.229-0.507-2.531-0.882-3.719-1.003c-1.27-0.119-2.441-0.025-3.522,0.262c-2.17,0.554-3.792,1.764-4.887,2.929
			c-1.101,1.181-1.683,2.35-1.987,3.159c-0.32,0.809-0.43,1.266-0.43,1.266l1.261,0.277c0,0,0.064-0.403,0.287-1.138
			c0.221-0.731,0.683-1.79,1.61-2.907c0.926-1.106,2.394-2.224,4.359-2.789c0.969-0.286,2.092-0.418,3.2-0.294
			c1.188,0.131,2.319,0.475,3.51,0.965c1.156,0.528,2.294,1.224,3.335,2.118c1.023,0.913,1.918,2.03,2.638,3.288
			c1.454,2.508,2.068,5.677,1.453,8.767c-0.572,3.104-2.132,6.128-4.377,8.532c-1.138,1.199-2.471,2.21-3.887,3.09
			c-1.457,0.818-2.997,1.501-4.611,1.967c-1.619,0.428-3.273,0.772-4.949,0.824c-0.842,0.091-1.646,0.007-2.463,0.024
			c-0.83-0.099-1.796-0.104-2.508-0.28c-3.25-0.514-6.327-1.729-8.94-3.418c-2.611-1.693-4.787-3.845-6.278-6.237
			c-1.501-2.395-2.292-4.962-2.719-7.365c-0.258-2.438-0.236-4.699,0.11-6.681c0.206-0.982,0.298-1.933,0.555-2.75
			c0.249-0.818,0.478-1.569,0.685-2.247c0.414-1.357,1.019-2.499,1.297-3.241c0.223-0.522,0.367-0.862,0.439-1.03l-4.55,1.96
			c-0.122,0.351-0.243,0.73-0.36,1.157c-0.209,0.793-0.441,1.67-0.693,2.626c-0.251,0.954-0.319,2.006-0.499,3.116
			c-0.293,2.229-0.229,4.807,0.191,7.565c0.586,2.737,1.64,5.619,3.402,8.292c1.767,2.665,4.269,5,7.196,6.786
			c2.935,1.782,6.321,3.009,9.881,3.473c0.976,0.18,1.753,0.142,2.643,0.224c0.912-0.032,1.851,0.025,2.742-0.095
			c1.807-0.108,3.589-0.525,5.326-1.037c1.732-0.553,3.383-1.337,4.935-2.269c1.514-0.995,2.928-2.133,4.126-3.467
			c2.37-2.685,3.943-5.966,4.47-9.324C268.139,39.308,267.373,35.887,265.743,33.251"/>
		<path clip-path="url(#SVGID_4_)" fill="#FFFFFF" d="M246.966,32.583c1.129,0.132,1.937,1.153,1.806,2.282
			c-0.132,1.129-1.153,1.937-2.281,1.805c-1.13-0.131-1.938-1.153-1.807-2.281C244.815,33.26,245.837,32.451,246.966,32.583"/>
		<path clip-path="url(#SVGID_4_)" fill="#FFFFFF" d="M271.107,36.382c0.445,0.052,0.764,0.455,0.712,0.9
			c-0.052,0.446-0.455,0.764-0.9,0.713c-0.444-0.052-0.764-0.455-0.712-0.901C270.26,36.649,270.662,36.33,271.107,36.382"/>
		<path clip-path="url(#SVGID_4_)" fill="#FFFFFF" d="M256.944,42.835c0.84,0.098,1.44,0.858,1.343,1.697
			c-0.098,0.84-0.858,1.441-1.697,1.343c-0.84-0.097-1.44-0.857-1.343-1.697S256.104,42.737,256.944,42.835"/>
		<path clip-path="url(#SVGID_4_)" fill="#FFFFFF" d="M226.175,26.342c0,0-0.415,1.271-1.142,3.496
			c-0.336,1.107-0.442,2.368-0.753,3.865c-0.054,0.76-0.047,1.582-0.081,2.444c-0.084,0.869,0.059,1.762,0.189,2.698
			c0.06,0.469,0.121,0.947,0.184,1.435c0.117,0.475,0.278,0.95,0.418,1.44c0.145,0.489,0.29,0.986,0.439,1.491
			c0.198,0.486,0.449,0.96,0.677,1.453c0.242,0.486,0.449,1,0.725,1.484c0.313,0.464,0.629,0.934,0.949,1.408
			c0.579,0.998,1.436,1.82,2.22,2.724c0.781,0.912,1.805,1.614,2.713,2.456c1.032,0.688,2.046,1.451,3.161,2.061
			c1.143,0.563,2.243,1.245,3.478,1.653l1.813,0.704l1.884,0.517c2.51,0.72,5.126,0.958,7.693,1.062
			c1.271-0.073,2.586-0.074,3.792-0.234c1.309-0.167,2.472-0.459,3.617-0.821c2.311-0.759,4.399-1.942,6.123-3.373
			c1.733-1.424,3.116-3.068,4.176-4.721c1.09-1.645,1.716-3.358,2.229-4.872c0.428-1.545,0.659-2.931,0.746-4.082
			c0.025-0.577,0.05-1.092,0.07-1.541c-0.022-0.448-0.042-0.829-0.057-1.139c-0.034-0.619-0.052-0.949-0.052-0.949l0.419-0.051
			c0,0,0.027,0.337,0.082,0.968c0.023,0.316,0.055,0.706,0.091,1.164c-0.008,0.46-0.018,0.989-0.027,1.581
			c-0.054,1.184-0.25,2.616-0.647,4.226c-0.481,1.578-1.081,3.373-2.165,5.117c-1.054,1.751-2.446,3.511-4.225,5.06
			c-1.768,1.555-3.935,2.87-6.366,3.747c-1.23,0.431-2.54,0.785-3.79,0.979c-1.344,0.218-2.652,0.251-4.004,0.366
			c-2.688-0.028-5.44-0.202-8.103-0.881l-1.999-0.489l-1.938-0.687c-1.316-0.398-2.512-1.081-3.744-1.649
			c-1.208-0.618-2.32-1.399-3.448-2.113c-1.013-0.873-2.133-1.609-3.019-2.575c-0.89-0.959-1.843-1.839-2.522-2.918
			c-0.368-0.516-0.732-1.027-1.092-1.532c-0.322-0.528-0.575-1.091-0.86-1.625c-0.269-0.543-0.561-1.068-0.798-1.606
			c-0.187-0.561-0.368-1.113-0.547-1.655c-0.173-0.545-0.365-1.077-0.51-1.608c-0.09-0.545-0.176-1.079-0.261-1.602
			c-0.178-1.049-0.355-2.055-0.299-3.021c0.005-0.965-0.022-1.882,0.018-2.744c0.274-1.706,0.429-3.296,0.742-4.434
			c0.662-2.245,1.04-3.528,1.04-3.528L226.175,26.342z"/>
		<path clip-path="url(#SVGID_4_)" fill="#FFFFFF" d="M259.689,53.074c0,0,0.134-0.099,0.385-0.284
			c0.217-0.179,0.554-0.442,0.932-0.845c0.753-0.782,1.712-2.101,2.146-3.951c0.228-0.902,0.3-1.97,0.114-2.997
			c-0.176-1.053-0.679-2.104-1.416-3.01c-0.757-0.891-1.775-1.621-2.95-2.006c-1.175-0.399-2.477-0.473-3.637-0.041
			c-1.166,0.416-2.163,1.29-2.733,2.376c-0.562,1.084-0.755,2.382-0.365,3.464c0.375,1.095,1.247,1.956,2.247,2.323
			c1.006,0.392,2.084,0.31,2.851-0.213c0.78-0.499,1.211-1.316,1.303-2.056c0.115-0.745-0.173-1.379-0.521-1.772
			c-0.354-0.402-0.757-0.578-1.024-0.659c-0.276-0.078-0.43-0.084-0.43-0.084l0.033-0.4c0,0,0.182,0.003,0.51,0.09
			c0.32,0.091,0.803,0.292,1.232,0.765c0.425,0.454,0.786,1.235,0.663,2.118c-0.092,0.859-0.578,1.824-1.483,2.425
			c-0.893,0.633-2.196,0.747-3.329,0.315c-1.155-0.403-2.182-1.374-2.64-2.643c-0.476-1.28-0.272-2.751,0.343-3.988
			c0.628-1.247,1.747-2.265,3.083-2.767c1.343-0.523,2.851-0.456,4.151-0.032c1.33,0.411,2.495,1.216,3.369,2.212
			c0.854,1.011,1.445,2.201,1.67,3.403c0.237,1.223,0.163,2.361-0.068,3.398c-0.451,2.073-1.503,3.574-2.334,4.467
			c-0.413,0.454-0.794,0.766-1.057,0.986c-0.248,0.189-0.38,0.29-0.38,0.29L259.689,53.074z"/>
		<path clip-path="url(#SVGID_4_)" fill="#FFFFFF" d="M125.998,85.087c0,0,0.516-0.359,1.484-1.033
			c0.973-0.665,2.374-1.681,4.206-2.901c1.836-1.217,4.064-2.694,6.621-4.389c2.571-1.67,5.445-3.599,8.635-5.612
			c6.349-4.08,13.822-8.73,21.843-13.69c8.048-4.916,16.636-10.151,25.29-15.276c8.627-5.171,17.328-10.216,25.474-14.967
			c4.096-2.342,8.054-4.606,11.808-6.753c0.946-0.53,1.879-1.053,2.798-1.568c0.963-0.536,1.989-1.079,2.939-1.406
			c1.983-0.752,3.907-1.286,5.779-1.748c3.743-0.891,7.232-1.377,10.345-1.562c3.114-0.17,5.848,0.018,8.063,0.385
			c2.219,0.362,3.912,0.947,4.987,1.504c0.539,0.271,0.938,0.506,1.193,0.687c0.257,0.175,0.391,0.265,0.391,0.265l-0.199,0.305
			c0,0-0.529-0.329-1.615-0.719c-1.085-0.384-2.737-0.793-4.89-0.953c-2.151-0.177-4.787-0.064-7.777,0.291
			c-2.992,0.34-6.347,0.996-9.892,2.047c-1.766,0.53-3.596,1.175-5.388,1.935c-0.963,0.371-1.752,0.824-2.617,1.317
			c-0.905,0.524-1.823,1.056-2.754,1.596c-3.721,2.191-7.644,4.503-11.701,6.894c-8.121,4.781-16.784,9.882-25.446,14.982
			c-8.676,5.079-17.352,10.158-25.486,14.919c-8.153,4.729-15.762,9.144-22.284,12.927c-6.534,3.766-11.977,6.905-15.762,9.144
			c-3.792,2.235-5.959,3.512-5.959,3.512L125.998,85.087z"/>
		<path clip-path="url(#SVGID_4_)" fill="#FFFFFF" d="M112.867,49.374c0.214-0.079,0.169-0.26,0.242-0.394
			c0.041-0.139,0.105-0.293,0.182-0.456c0.138-0.328,0.304-0.624,0.479-0.908c0.362-0.566,0.788-1.105,1.303-1.551
			c1.008-0.918,2.29-1.55,3.661-1.822c2.791-0.577,5.717,0.556,7.732,2.556c2.054,1.989,3.095,5.043,2.626,7.95
			c-0.509,2.838-2.115,5.406-4.433,7.031c-2.292,1.652-5.24,2.322-7.968,1.837c-1.339-0.204-2.72-0.771-3.769-1.341
			c-1.252-0.679-2.247-1.503-3.188-2.44c-0.908-0.958-1.657-2.043-2.269-3.189c-0.587-1.163-0.995-2.396-1.273-3.651
			c-0.508-2.524-0.326-5.148,0.494-7.55c0.813-2.336,2.128-4.614,3.849-6.417c1.72-1.83,3.832-3.286,6.154-4.246
			c2.319-0.967,4.854-1.439,7.383-1.328c2.538,0.107,5.023,0.805,7.288,1.913c2.275,1.1,4.342,2.649,6.064,4.523l0.319,0.355
			c0.167,0.195,0.207,0.26,0.317,0.397l0.56,0.723c0.359,0.569,0.747,1.149,1.005,1.734c0.592,1.162,0.988,2.401,1.276,3.649
			c0.573,2.506,0.641,5.066,0.415,7.572c-0.205,2.51-0.842,4.976-1.939,7.226l-0.025,0.056l-1.07-0.815
			c3.65-2.13,7.077-4.591,10.536-7.004l10.368-7.253l20.67-14.598l10.365-7.254l5.229-3.558l2.615-1.779l1.307-0.889l0.654-0.445
			l0.562-0.428l1.255-0.965l0.991-0.973c0.349-0.298,0.634-0.693,0.938-1.061c0.304-0.369,0.618-0.733,0.844-1.148
			c1.088-1.552,1.79-3.328,2.04-5.138c0.213-1.809-0.102-3.664-1.15-5.176c-1.032-1.52-2.857-2.575-4.98-2.964
			c2.083-0.449,4.587,0.058,6.329,1.762c1.773,1.653,2.615,4.189,2.521,6.567c-0.036,2.413-0.96,4.687-2.203,6.628
			c-0.292,0.509-0.665,0.948-1.031,1.392c-0.369,0.443-0.711,0.901-1.161,1.299l-1.286,1.22l-1.258,0.96
			c-0.241,0.179-0.348,0.275-0.7,0.523l-0.656,0.442l-1.311,0.884l-2.623,1.768l-5.246,3.536l-10.587,6.933l-21.233,13.776
			l-10.584,6.936c-3.525,2.316-7.083,4.584-10.416,7.183l-1.449,1.129l0.379-1.945l0.011-0.057c0.408-2.364,0.897-4.654,1.142-6.984
			c0.254-2.322,0.227-4.677-0.246-6.922c-0.237-1.119-0.566-2.218-1.062-3.229c-0.221-0.535-0.519-0.962-0.775-1.44l-0.529-0.737
			l-0.238-0.324l-0.278-0.333c-1.502-1.758-3.336-3.244-5.396-4.334c-2.055-1.103-4.329-1.803-6.641-1.973
			c-2.312-0.157-4.698,0.146-6.861,1.062c-2.168,0.888-4.146,2.239-5.759,3.941c-1.636,1.712-2.83,3.732-3.535,6.005
			c-0.721,2.214-0.725,4.608-0.161,6.823c0.323,1.1,0.776,2.15,1.359,3.119c0.612,0.951,1.324,1.826,2.151,2.573
			c0.835,0.715,1.794,1.366,2.715,1.783c1.126,0.499,2.052,0.779,3.13,0.879c2.09,0.194,4.19-0.459,5.798-1.703
			c1.598-1.25,2.743-3.1,3.054-5.048c0.336-1.908-0.285-3.929-1.536-5.496c-0.629-0.791-1.456-1.426-2.359-1.866
			c-0.976-0.492-1.924-0.711-2.978-0.644c-1.032,0.05-2.066,0.432-2.926,1.06c-0.443,0.304-0.82,0.693-1.161,1.114
			c-0.168,0.217-0.323,0.436-0.446,0.657c-0.069,0.104-0.137,0.223-0.198,0.371c-0.037,0.148-0.194,0.25-0.092,0.453L112.867,49.374
			z"/>
		<path clip-path="url(#SVGID_4_)" fill="#FFFFFF" d="M277.867,226.563c1.838,1.35,3.393,0.772,4.077,0.091
			c0.106-0.078,0.264-0.176,0.331-0.239c0.031-0.05,0.062-0.099,0.099-0.134c0.073-0.085,0.217-0.229,0.304-0.352
			c0.213-0.242,0.362-0.525,0.513-0.8c0.278-0.561,0.449-1.184,0.417-1.808c-0.005-0.313-0.089-0.616-0.179-0.917l-0.088-0.222
			l-0.01-0.027l-0.005-0.016c0.024,0.051-0.064-0.13,0.055,0.107l-0.05-0.095l-0.101-0.192c-0.134-0.259-0.281-0.545-0.351-0.609
			c-0.331-0.517-0.951-1.185-1.584-1.589c-1.294-0.882-2.974-1.271-4.547-0.914l-0.584,0.158l-0.285,0.108l-0.144,0.052
			l-0.072,0.025c0.045-0.023-0.125,0.061,0.095-0.051l-0.023,0.013l-0.049,0.024c-0.504,0.252-1.099,0.542-1.354,0.73
			c-0.688,0.395-1.475,1.041-2.062,1.721c-0.628,0.681-1.147,1.472-1.535,2.327c-0.402,0.849-0.699,1.761-0.83,2.706
			c-0.152,0.939-0.172,1.913-0.021,2.867c0.121,0.955,0.408,1.919,0.825,2.786c0.526,1.129,0.952,1.854,1.583,2.71
			c0.31,0.418,0.619,0.841,0.991,1.209c0.345,0.394,0.711,0.771,1.117,1.104c1.567,1.399,3.448,2.479,5.487,3.14
			c2.038,0.677,4.244,0.846,6.393,0.577c1.073-0.146,2.138-0.384,3.17-0.739c0.491-0.208,1.053-0.382,1.484-0.623l1.534-0.8
			c1.876-1.125,3.673-2.448,5.192-4.094c1.483-1.658,2.77-3.497,3.74-5.505c0.939-2.02,1.604-4.16,1.977-6.357
			c0.312-2.206,0.313-4.445,0.026-6.652c-0.335-2.204-1.015-4.336-1.916-6.372l-0.021-0.044l-0.028-0.09
			c-0.62-1.869-1.78-3.761-3.092-5.389c-0.708-0.787-1.366-1.622-2.174-2.316c-0.393-0.357-0.767-0.734-1.173-1.077l-1.264-0.973
			c-1.696-1.285-3.556-2.354-5.487-3.271c-0.934-0.522-1.977-0.82-2.964-1.232c-0.986-0.422-2.021-0.717-3.06-0.996
			c-2.046-0.664-4.185-0.992-6.299-1.401c-1.062-0.174-2.146-0.236-3.219-0.361c-1.076-0.092-2.142-0.267-3.229-0.255l-3.245-0.083
			c-0.515-0.009-1.143-0.037-1.562-0.031l-1.641,0.109c-2.188,0.148-4.412,0.216-6.455,0.694l-3.125,0.564l-3.087,0.899
			c-2.088,0.504-4.033,1.438-6.032,2.202c-1.007,0.365-1.924,0.941-2.891,1.401c-0.941,0.513-1.94,0.915-2.833,1.516
			c-1.828,1.126-3.673,2.22-5.375,3.535c-1.775,1.208-3.379,2.647-5.036,4.01c-1.573,1.465-3.157,2.916-4.616,4.496
			c-1.484,1.552-2.892,3.179-4.223,4.858c-1.323,1.663-2.632,3.437-3.695,5.164l-0.058,0.094l-0.075,0.095l-3.931,4.958
			l-1.965,2.479l-0.491,0.62l-0.245,0.311l-0.062,0.076l-0.167,0.193l-0.136,0.144l-1.084,1.151c-2.97,3.126-6.257,6.04-9.804,8.556
			c-7.084,5.071-15.552,8.453-24.352,9.308l-1.647,0.16l-1.654,0.055l-1.654,0.048l-1.652-0.056l-0.826-0.029l-0.413-0.014
			l-0.207-0.009l-0.103-0.005l-0.052-0.002l-0.161-0.014l-1.57-0.192c-1.052-0.136-2.064-0.21-3.223-0.509
			c-2.295-0.437-4.414-1.143-6.509-1.927l-3.067-1.378l-2.919-1.67c-3.791-2.394-7.152-5.457-9.886-9.007
			c-2.727-3.557-4.805-7.604-6.128-11.884c-1.312-4.281-1.85-8.809-1.519-13.26l0.015-0.418l0.008-0.209l0.015-0.21l0.014-0.098
			l0.113-0.783l0.232-1.573c0.296-1.143,0.5-2.366,0.927-3.409c0.687-2.188,1.811-4.206,3.047-6.107
			c1.295-1.876,2.838-3.561,4.55-5.044c1.763-1.414,3.632-2.722,5.71-3.613c2.05-0.929,4.212-1.626,6.432-1.946
			c2.23-0.399,4.417-0.384,6.724-0.174c4.477,0.5,8.781,2.971,11.45,6.587c2.715,3.595,3.869,8.316,3.021,12.69
			c-0.956,4.558-4.888,8.108-9.398,8.629c-1.105,0.101-2.265,0.128-3.37-0.131c-1.156-0.268-2.202-0.798-3.084-1.558
			c-1.783-1.481-2.801-3.84-2.644-6.174l1.42,0.104c-0.155,1.879,0.605,3.839,2.08,5.062c0.714,0.622,1.607,1.063,2.505,1.27
			c0.952,0.221,1.933,0.204,2.918,0.093c1.946-0.295,3.802-1.17,5.211-2.536c1.442-1.317,2.375-3.194,2.716-5.026
			c0.619-3.945-0.578-8.075-3.057-11.116c-2.475-3.075-6.153-5.029-10.094-5.27c-3.875-0.222-7.961,0.577-11.418,2.406
			c-1.772,0.856-3.333,2.074-4.813,3.337c-1.424,1.338-2.691,2.831-3.734,4.469c-0.985,1.666-1.882,3.401-2.383,5.271
			c-0.344,0.928-0.42,1.813-0.649,2.711l-0.171,1.562l-0.082,0.787l-0.005,0.646c-0.225,3.971,0.369,7.952,1.57,11.711
			c2.383,7.534,7.475,14.17,14.147,18.417c3.288,2.142,7.145,3.62,10.857,4.4c0.88,0.262,1.978,0.354,3.016,0.492l1.569,0.198
			l1.398,0.059l1.508,0.072l1.508-0.027l1.508-0.028l1.502-0.129c8.025-0.667,15.776-3.672,22.498-8.267
			c3.382-2.297,6.493-4.936,9.396-7.861l1.108-1.128l0.138-0.142c0.104-0.117-0.103,0.119-0.07,0.081l0.032-0.039l0.062-0.076
			l0.252-0.304l0.505-0.61l2.017-2.437l4.032-4.874l-0.132,0.188c1.279-1.981,2.628-3.712,4.067-5.454
			c1.431-1.729,2.933-3.393,4.514-4.979c1.554-1.613,3.236-3.094,4.907-4.583c1.76-1.388,3.458-2.85,5.338-4.079
			c1.805-1.333,3.757-2.444,5.69-3.579c0.945-0.604,2.002-1.014,2.997-1.528c1.021-0.463,1.991-1.038,3.055-1.405
			c2.112-0.765,4.165-1.691,6.365-2.183l3.251-0.872l3.362-0.541c2.26-0.456,4.434-0.472,6.627-0.578l1.644-0.076
			c0.675-0.002,1.145,0.043,1.727,0.062l3.332,0.151c1.11,0.012,2.215,0.212,3.32,0.33c1.104,0.149,2.215,0.237,3.312,0.438
			c2.185,0.461,4.391,0.814,6.521,1.53c1.077,0.304,2.149,0.623,3.181,1.075c1.031,0.441,2.11,0.765,3.094,1.325
			c2.02,0.982,3.971,2.132,5.758,3.514l1.331,1.049c0.428,0.369,0.825,0.775,1.239,1.161c0.848,0.75,1.552,1.651,2.297,2.503
			c1.395,1.812,2.6,3.7,3.365,6.004l-0.05-0.133c0.969,2.182,1.691,4.472,2.047,6.838c0.307,2.369,0.301,4.771-0.038,7.136
			c-0.399,2.355-1.115,4.647-2.127,6.81c-1.042,2.149-2.422,4.121-4.016,5.894c-1.587,1.778-3.499,3.268-5.555,4.539l-1.519,0.829
			c-0.571,0.328-1.121,0.496-1.684,0.755c-1.128,0.455-2.307,0.783-3.51,1.008c-2.411,0.445-4.914,0.319-7.318-0.243
			c-2.406-0.565-4.711-1.639-6.718-3.149c-0.516-0.363-0.991-0.775-1.447-1.212c-0.48-0.412-0.898-0.886-1.316-1.362
			c-0.833-0.924-1.653-2.158-2.168-3.084c-0.677-1.163-1.168-2.398-1.466-3.712c-0.322-1.302-0.425-2.664-0.333-4.014
			c0.074-1.353,0.361-2.701,0.857-3.974c0.474-1.281,1.147-2.499,1.999-3.586c0.856-1.115,1.79-2.05,3.033-2.916
			c0.676-0.497,1.126-0.702,1.635-1l0.047-0.026l0.169-0.084l0.128-0.058l0.256-0.111l0.517-0.221
			c0.349-0.132,0.711-0.234,1.068-0.348c2.907-0.798,6.151-0.309,8.71,1.339c1.3,0.854,2.347,1.848,3.276,3.259
			c0.273,0.402,0.385,0.633,0.521,0.883l0.104,0.189l0.051,0.096l0.093,0.192l0.03,0.072l0.241,0.579
			c0.278,0.788,0.481,1.614,0.525,2.457c0.108,1.678-0.265,3.391-1.123,4.837c-0.438,0.714-0.963,1.381-1.603,1.92
			c-0.325,0.279-0.633,0.502-1.024,0.754c-0.202,0.125-0.412,0.237-0.619,0.347c-0.179,0.086-0.283,0.115-0.428,0.175
			c-1.656,0.743-3.625,0.669-5.099-0.13c-1.474-0.766-2.518-2.264-2.563-3.656L277.867,226.563z"/>
	</g>
</g>
</svg>
