<svg xmlns="http://www.w3.org/2000/svg" width="339" height="266" viewBox="0 0 339 266"><style>.a{clip-path:url(#SVGID_4_);}.b{clip-path:url(#SVGID_4_);fill:#FFF;}.c{clip-path:url(#SVGID_4_);opacity:0;}</style><defs><rect width="339" height="266"/></defs><clipPath><use xlink:href="#SVGID_1_"/></clipPath><g clip-path="url(#SVGID_2_)"><defs><rect width="339" height="266"/></defs><clipPath><use xlink:href="#SVGID_3_"/></clipPath><path d="M202 235c0 0 0.2-0.2 0.1-0.1l0 0 0 0L202 235z" class="a"/><path d="M281.9 228.8c-0.1-0.2 0-0.1-0.1-0.1l0 0 0 0L281.9 228.8z" class="a"/><path d="M209.1 226.4l0 0c0 0.1-0.1 0.1-0.1 0.2L209.1 226.4z" class="a"/><path d="M138.3 249.1c-0.2-0.2-0.4-0.3-0.6-0.5 -0.2 0-0.4 0-0.6-0.1 0.4 0.2 0.7 0.3 1 0.4C138.1 249 138.2 249.1 138.3 249.1" class="a"/><path d="M277.2 89.2l-0.3 0.3c-0.1 0.1-0.3 0.2-0.5 0.4 -0.4 0.4-0.8 0.8-1.1 1.2 -0.7 0.9-1.2 2-1.5 3.2 -0.1 0.6-0.2 1.3-0.2 1.9l0 0.1c0 0 0 0 0 0l0 0.1 0 0.4c0 0.2 0 0.6 0 0.7 0.1 0.3 0 0.5 0.1 0.9 0.3 1.5 0.9 3.2 1.9 4.8 0.4 0.8 1 1.5 1.5 2.3l2.9-17.1c-1 0.1-2 0.3-2.6 0.7C277.3 89.1 277.2 89.1 277.2 89.2" class="b"/><path d="M248 192.6c-6.2 1.1-35.1 13.7-35.1 13.7 -6.8 2.2-12.6 3-17.2 3 -19.1 0-16.1-19.4-8.9-21.1 4.9-1.1 6.5 3.8 6.5 3.8 2.1-1.7 0.7-10.8-7.4-10.6 -11.7 0.3-11.3 11.6-11.3 11.6 0 22.1 21.5 19.4 21.5 19.4 6-0.5 10.6-1 20.5-5C224.7 204.3 248 192.6 248 192.6" class="b"/><g class="c"><defs><rect y="75.6" width="15.5" height="33.1"/></defs><clipPath><use xlink:href="#SVGID_5_"/></clipPath><path d="M14.1 99c-0.5 0.9-1.5 2.9-2 3.8 -0.2 0.3-0.4 0.5-0.8 0.6l-5.9 1.4c0 0 2.4-5 4.6-10l2.4-0.9 -0.9-2.7c0.9-2.2 1.7-4.2 2-5.4 1.2-4.3-1.2-11.3-7.1-10.3 -3.5 0.6-4.7 4.9-4.7 4.9v-2.9L0 78.1l0.7 9.1 1.3-0.8c0-3.6 2.2-5.3 4.2-5.3 3 0 3.2 2.5 3 4.5 0 0.7-0.9 3.2-2.1 6.2L4.6 92.8l1 2.9c-2.1 5.1-4.4 10.4-4.7 10.9 -0.6 0.9-0.3 2.1-0.3 2.1l12.6-2.9 2.3-6.7C15.5 99.1 14.3 98.6 14.1 99" style="clip-path:url(#SVGID_6_);fill:#FFF"/></g><g class="c"><defs><rect x="14.6" y="70.4" width="17.8" height="35.1"/></defs><clipPath><use xlink:href="#SVGID_7_"/></clipPath><path d="M16.8 74.1l-2.2 8.7 1.7-0.8c0.7-4.1 7.7-6.4 7.7-6.4s-1 5.5-2 11.4l-2.5 1.7 1.8 2.7c-0.8 4.7-1.4 8.8-1.4 9.4 0 1.5-3.3 2.2-3.3 2.2l-0.9 2.5 11.7-2.7 -0.9-1.6c-1.9 0-2.4-0.9-2.4-0.9s0.7-5 1.5-10.5l2.1-1.7 -1.6-2c0.8-5.1 1.6-9.8 2-10.6 0.8-1.7 3.7-2.6 3.7-2.6l0.8-2.6C32.3 70.4 17.4 73.9 16.8 74.1" style="clip-path:url(#SVGID_8_);fill:#FFF"/></g><g class="c"><defs><rect x="37" y="68.6" width="8.9" height="16.8"/></defs><clipPath><use xlink:href="#SVGID_9_"/></clipPath><path d="M37 69.1l3.3-0.6v5.4c0 0 0.9-1.3 2.1-1.3 1.2 0 2.6 0.6 2.6 4v4.1c0 0 0.1 0.7 0.5 0.7l0.4 0.8 -2.9 1.1 -0.1-1.1c0 0 0.4-0.4 0.4-0.9v-5.8c0 0-0.1-1.2-1-1.1 -0.7 0.1-2 0-2 4v3.7c0 0 0.1 0.8 0.7 0.8l0.4 0.8 -3.4 1.5 0.1-1.2c0 0 0.7-0.3 0.7-0.9V70.4c0 0-0.6-0.7-1.1-0.2L37 69.1z" style="clip-path:url(#SVGID_10_);fill:#FFF"/></g><g class="c"><defs><rect x="33.2" y="69.7" width="4" height="17.1"/></defs><clipPath><use xlink:href="#SVGID_11_"/></clipPath><path d="M34.8 69.7l-1.6 0.5 0 14.7c0 0 0.2 2 1.4 2 1.2 0 2.6-1.8 2.6-1.8l0-1.6c0 0-1.2 1.3-1.7 1.4 -0.2 0.1-0.5-0.1-0.5-0.8C34.9 83.3 34.8 69.7 34.8 69.7" style="clip-path:url(#SVGID_12_);fill:#FFF"/></g><g class="c"><defs><rect x="31.8" y="75.4" width="4.7" height="3.6"/></defs><clipPath><use xlink:href="#SVGID_13_"/></clipPath><polygon points="31.8 77.3 31.8 78.9 36.5 77 36.5 75.4 " style="clip-path:url(#SVGID_14_);fill:#FFF"/></g><path d="M131.5 241c-0.2 0-0.3-0.1-0.5-0.1 -5.1-1.3-12.2-2.6-19.3-2.1 -1.8 0.1-3.5 0.4-5.2 0.7 -1.7 0.4-3.4 0.8-4.9 1.4 -0.8 0.3-1.5 0.6-2.2 1 -0.4 0.2-0.7 0.3-1.1 0.5 -0.3 0.2-0.7 0.4-1 0.6 -0.7 0.4-1.3 0.8-1.8 1.2 -0.6 0.4-1.1 0.8-1.6 1.2 -1 0.8-1.8 1.7-2.6 2.5 -0.7 0.8-1.3 1.5-1.7 2.1 -0.9 1.3-1.3 2-1.3 2s0.5-0.7 1.5-1.9c0.5-0.6 1.1-1.2 1.9-2 0.8-0.7 1.6-1.5 2.7-2.2 0.5-0.4 1.1-0.8 1.7-1.1 0.6-0.4 1.2-0.7 1.9-1 0.3-0.2 0.7-0.3 1-0.5 0.3-0.1 0.7-0.3 1.1-0.4 0.7-0.3 1.5-0.5 2.2-0.8 1.5-0.5 3.1-0.8 4.8-1 1.7-0.2 3.3-0.3 5-0.3 6.8 0 13.5 1.7 18.3 3.3 2.4 0.8 4.4 1.6 5.7 2.2 0.2 0.1 0.4 0.2 0.6 0.3 0.2 0 0.4 0 0.6 0.1C135 244.9 133.1 243.1 131.5 241" class="b"/><path d="M144.8 251.6c-1.2-0.8-2.3-1.6-3.5-2.5 -0.1 0-0.2-0.1-0.3-0.2 -0.2-0.1-0.6-0.3-1-0.4 -4.6-0.4-9.8-0.4-14.9 0.3 -2 0.3-4.1 0.7-6 1.2 -1.9 0.6-3.8 1.2-5.6 2 -0.9 0.4-1.7 0.8-2.5 1.3 -0.8 0.4-1.6 0.9-2.3 1.4 -0.7 0.5-1.4 1-2.1 1.5 -0.6 0.5-1.3 1-1.8 1.6 -1.1 1-2 2.1-2.8 3 -0.8 1-1.4 1.9-1.9 2.6 -0.9 1.5-1.4 2.4-1.4 2.4s0.6-0.8 1.6-2.3c0.6-0.7 1.2-1.5 2-2.4 0.9-0.9 1.8-1.9 3-2.8 0.6-0.5 1.2-0.9 1.9-1.4 0.6-0.5 1.4-0.9 2.1-1.3 0.7-0.4 1.5-0.8 2.3-1.2 0.8-0.4 1.7-0.7 2.5-1.1 1.7-0.7 3.6-1.2 5.5-1.6 1.9-0.4 3.9-0.7 5.8-0.8 7.9-0.6 15.8 0.7 21.5 2.1 0.6 0.1 1.1 0.3 1.6 0.4l-0.7-0.3L144.8 251.6z" class="b"/><path d="M122.9 232.6c-1.1-0.4-2.3-0.8-3.6-1.1 -1.3-0.4-2.6-0.7-4-1 -1.4-0.3-2.9-0.5-4.4-0.7 -1.5-0.1-3-0.3-4.6-0.3l-2.3-0.1c-0.8 0-1.5 0.1-2.3 0.1 -1.5 0-3 0.3-4.4 0.4 -1.4 0.1-2.8 0.5-4 0.7 -0.6 0.1-1.3 0.2-1.8 0.4 -0.6 0.2-1.2 0.4-1.7 0.5 -1.1 0.3-2.1 0.6-2.9 0.9 -0.9 0.3-1.6 0.6-2.2 0.9 -1.2 0.5-1.9 0.8-1.9 0.8s0.7-0.2 2-0.6c0.6-0.2 1.4-0.4 2.3-0.7 0.9-0.3 1.9-0.4 3-0.7 0.5-0.1 1.1-0.2 1.7-0.4 0.6-0.1 1.2-0.2 1.9-0.3 1.3-0.2 2.6-0.4 4-0.4 1.4-0.1 2.8-0.2 4.3-0.1 0.7 0 1.5 0 2.2 0.1l2.2 0.2c1.5 0.1 2.9 0.4 4.3 0.7 1.4 0.3 2.8 0.6 4.1 1 1.3 0.4 2.6 0.8 3.8 1.2 1.2 0.4 2.3 0.9 3.3 1.3 1 0.5 1.9 0.9 2.7 1.3 0.8 0.4 1.5 0.8 2.1 1.1 0.6 0.3 1.2 0.6 1.5 0.8 0.1 0 0.1 0.1 0.2 0.1 -1.1-1.6-2-3.4-2.9-5.1C124.7 233.3 123.8 233 122.9 232.6" class="b"/><path d="M122.3 226c-0.8-0.3-1.7-0.6-2.7-0.9 -3.3-1.2-7.7-2.8-12.1-4.6 -4.4-1.8-8.7-3.7-11.7-5.4 -1.5-0.9-2.7-1.7-3.5-2.4 -0.4-0.3-0.6-0.7-0.7-0.9 -0.1-0.2-0.2-0.4-0.2-0.4l0 0c0 0 0.1 0.1 0.1 0.4 0.1 0.3 0.3 0.6 0.7 1 0.7 0.8 1.8 1.8 3.3 2.8 2.9 2.1 7.1 4.4 11.3 6.6 7.7 4 15.7 7.6 16.9 8.1 -0.2-0.7-0.5-1.3-0.7-2C122.6 227.5 122.4 226.7 122.3 226" class="b"/><path d="M121.3 219.9c-1.8-1.4-4-3.2-6.1-5 -1.3-1.1-2.5-2.2-3.6-3.3 -0.5-0.6-1.1-1.1-1.5-1.6 -0.4-0.5-0.9-1-1.3-1.6 -0.3-0.5-0.7-1-0.9-1.4 -0.2-0.4-0.5-0.8-0.6-1.2 -0.2-0.7-0.3-1.1-0.3-1.1s0.1 0.4 0.2 1.2c0.1 0.4 0.3 0.8 0.4 1.3 0.2 0.5 0.5 1 0.8 1.6 0.3 0.6 0.7 1.1 1.1 1.8 0.4 0.6 0.9 1.2 1.4 1.8 1 1.2 2.1 2.5 3.3 3.7 2.3 2.5 4.9 4.7 6.8 6.4 0.2 0.1 0.3 0.3 0.5 0.4C121.3 221.8 121.3 220.9 121.3 219.9" class="b"/><path d="M119.1 211.5c-0.5-0.8-0.8-1.6-1.1-2.4 -0.3-0.8-0.4-1.6-0.5-2.2 0-0.3 0-0.6 0-0.9 0-0.3 0-0.5 0.1-0.7 0.1-0.4 0.1-0.6 0.1-0.6s-0.1 0.2-0.2 0.6c0 0.2-0.1 0.4-0.2 0.7 0 0.3-0.1 0.6-0.1 1 0 0.7 0 1.5 0.2 2.4 0.2 0.9 0.5 1.8 0.9 2.6 0.7 1.6 1.6 2.9 2.5 4 0.1-0.6 0.3-1.2 0.5-1.7C120.5 213.4 119.7 212.5 119.1 211.5" class="b"/><path d="M285.2 87.7c-0.1-0.1-1.5-1.6-4.8-1.2 -0.8 0.1-1.7 0.3-2.6 0.6 -0.5 0.2-0.9 0.3-1.4 0.6l-0.3 0.2 0 0c-0.1 0.1 0.1 0 0 0l-0.1 0.1 -0.2 0.1c-0.1 0.1-0.2 0.1-0.3 0.2 -0.1 0-0.2 0.2-0.3 0.2 -1.7 1.4-3.3 4-3.5 7l0 0.6 0 0.1 0 0.1c0 0 0 0.2 0 0l0 0.4c0 0.5 0 1 0.1 1.3 0.1 0.7 0.3 1.7 0.5 2.5 0.5 1.7 1.4 3.5 2.5 5.2 0.6 0.8 1.2 1.6 1.9 2.3 0.7 0.7 1.6 1.4 2.3 1.8 1.2 0.6 1.9 0.9 3.1 1.2 1.1 0.3 2.3 0.5 3.5 0.6 4.9 0.4 10.4-0.4 16-1.7 0.7-0.2 1.4-0.4 2.1-0.5 0.7-0.2 1.5-0.4 2.1-0.7 1.3-0.4 2.7-1 4.1-1.6 2.7-1.3 5.4-2.8 8.1-4.6 2.6-1.8 5.1-3.9 7.4-6.2 1.1-1.2 2.2-2.4 3.1-3.8 0.5-0.7 1-1.4 1.4-2.1 0.4-0.7 0.8-1.4 1.2-2.2 3.1-6 4.7-13.1 4.8-20.4 0.1-7.3-1.3-14.8-4-21.9 -2.8-7.1-6.9-13.8-12.7-19.1 -1.4-1.3-3-2.5-4.5-3.6 -0.9-0.6-1.7-1.2-2.6-1.7 -0.9-0.5-1.7-1-2.5-1.5 -3.5-2-7.2-3.6-11-5 -7.7-2.9-15.8-4.7-24.2-5.5 -8.4-0.8-16.9-0.8-25.3 0.3 -4.2 0.5-8.4 1.3-12.5 2.5 -2 0.6-4 1.3-6 2 -1.9 0.8-3.9 1.8-5.9 2.6 -15.5 7.5-30.5 16.4-45 25.4 -7.2 4.6-14.4 9.1-21.5 13.6 -7.1 4.5-14.1 9-21 13.3 -13.8 8.7-27.3 16.9-40.7 23.8 -6.7 3.4-13.4 6.5-20.2 8.5 -0.8 0.3-1.7 0.5-2.6 0.7l-1.3 0.3c-0.5 0.1-0.9 0.2-1.3 0.2 -1.8 0.3-3.6 0.3-5.4 0.1 -3.6-0.4-6.9-1.7-9.7-3.8 -2.8-2.1-4.8-4.9-6-8 -1.2-3.1-1.3-6.5-0.5-9.6 0.8-3.1 2.5-5.8 4.7-7.9 2.2-2.1 5.1-3.4 8-3.6 2.9-0.2 5.8 0.8 8 2.4 2.2 1.6 3.7 4 4.4 6.5 0.7 2.6 0.1 5.4-1.1 7.4 -1.2 2.1-3 3.9-5.3 4.7 -2.3 0.8-4.8 0.4-6.7-0.6 -2-1.1-3.2-2.9-3.9-4.8 -0.3-1-0.4-2.1-0.2-3.1 0.1-0.5 0.2-0.9 0.4-1.4l0.1-0.2 0.1-0.3 0.1-0.2 0.2-0.4c0.9-1.5 2.1-2.7 3.6-3.1 1.5-0.5 2.9-0.2 3.9 0.3 1 0.5 1.6 1.3 2 1.9 0.7 1.3 0.4 2 0.5 2l-1.4 0.4c0 0-0.1-0.1-0.3-0.2 -0.2-0.2-0.4-0.3-0.8-0.5 -0.7-0.4-1.7-0.5-2.5 0 -0.4 0.2-1 0.6-1.4 1.3l-0.2 0.4 -0.1 0.2c0.1-0.2 0 0 0-0.1l0 0 0 0.1c-0.1 0.2-0.1 0.4-0.2 0.5 -0.1 0.4-0.1 0.7 0 1.2 0.2 0.9 0.9 1.9 1.9 2.5 1 0.7 2.3 1 3.7 0.6 1.3-0.3 2.7-1.4 3.7-2.8 0.1-0.1 0.3-0.4 0.4-0.6 0.1-0.2 0.2-0.4 0.3-0.6 0.2-0.4 0.4-0.8 0.5-1.3 0.2-0.9 0.3-1.8 0.1-2.8 -0.4-1.9-1.6-3.9-3.3-5.2 -1.7-1.4-4.1-2.1-6.4-2 -2.4 0.1-4.8 1.2-6.6 2.9 -1.9 1.8-3.4 4.2-4.1 6.8 -0.7 2.7-0.6 5.6 0.4 8.4 1 2.7 2.9 5.3 5.3 7.1 2.4 1.9 5.5 3.1 8.7 3.5 1.6 0.2 3.2 0.1 4.9-0.1 0.4-0.1 0.9-0.1 1.2-0.2l1.2-0.3c0.8-0.2 1.7-0.4 2.5-0.7 6.6-2 13.3-4.9 19.9-8.4 13.2-6.8 26.7-15.1 40.4-23.8 6.9-4.4 13.8-8.9 20.9-13.4 7-4.6 14.2-9.2 21.4-13.8 14.5-9.2 29.2-18.5 44.9-26.5 2-1 3.8-1.9 6-2.8 2.1-0.9 4.2-1.7 6.3-2.3 4.3-1.3 8.6-2.2 13-2.9 8.7-1.3 17.6-1.4 26.3-0.6 8.7 0.8 17.3 2.6 25.3 5.5 4 1.5 7.9 3.3 11.7 5.4 0.9 0.5 1.9 1.1 2.8 1.7 0.9 0.6 1.7 1.2 2.6 1.7 1.8 1.3 3.5 2.6 5 4.1 6.2 5.9 10.5 13.3 13.2 20.9 2.7 7.6 3.9 15.5 3.7 23.2 -0.2 7.7-1.9 15.2-5.3 21.6 -0.4 0.8-0.9 1.6-1.3 2.4 -0.5 0.8-1 1.5-1.5 2.2 -1 1.5-2.2 2.9-3.4 4.2 -2.4 2.6-5 4.8-7.7 6.8 -2.7 2-5.5 3.7-8.4 5.1 -1.4 0.7-2.9 1.4-4.4 2 -0.8 0.3-1.5 0.5-2.2 0.8 -0.8 0.3-1.5 0.5-2.2 0.7 -5.8 1.7-11.6 2.8-17.3 2.5 -1.4-0.1-2.8-0.2-4.3-0.6 -1.3-0.3-3.1-0.9-4-1.4 -1.5-0.8-2.6-1.6-3.6-2.5 -1-0.9-1.9-1.9-2.7-3 -1.6-2.1-2.6-4.3-3.3-6.6 -0.3-1.2-0.6-2.2-0.7-3.5 -0.1-0.7-0.1-1.1-0.1-1.6l0-0.4 0-0.5 0-0.9c0.4-4.6 2.6-8.3 5.4-10.6 0.2-0.2 0.3-0.3 0.6-0.4 0.2-0.1 0.5-0.3 0.6-0.4l0.2-0.1 0.1-0.1 0.2-0.1 0.1 0 0.6-0.3c0.8-0.3 1.6-0.6 2.3-0.7 1.5-0.3 2.9-0.3 4.1 0 1.2 0.2 2.3 0.7 3.1 1.2 0.8 0.6 1.4 1.2 1.8 1.7 0.4 0.6 0.6 1.1 0.6 1.3 0.1 0.3 0.1 0.4 0.1 0.4L285.2 87.7z" class="b"/><path d="M185 85.6v18.4l-3.1 3.1 3.1 3.1v16.2c0 0 0.4 2.8-1.1 2.8l-0.7 3 12.6-2.9 1.2-3 -2.1-1.7V106.5l1.4 0.2 6.3 16.8c0 0-0.1 2.2-1.3 2.2l-0.5 2.5 14.8-3.4 -0.8-2.3c0 0-2.5 0.1-3.8-3.2 -1.3-3.3-4.6-16.6-4.6-16.6l-5.7-0.1c0 0 10.1-2.6 10.1-19 0-3.7-2.5-9.1-12.8-7.4l-15.7 3.6 -1 3C181.5 82.7 185 81.9 185 85.6M194.9 84.9c2.5-1.1 6.1-1.4 6.1 3.3 0 7.4-6.1 10.4-6.1 10.4V84.9z" class="b"/><path d="M242.4 72.6l5.2-1.9v18.2l-3.3 3.3 3.3 3.3v15.7c0 0 0.7 3.4-3.3 3.4l-0.7 3.8 19.4-4.4 -1.2-2.8c0 0-4.3 0-4.3-3.1 0-1.2-0.1-8.4-0.2-16.4l2.9-2.9 -3-3c-0.1-7.1-0.2-13.9-0.2-17.3l4.7-1.1c5-1 9.7 6.1 9.7 6.1l1.6-1.5 -5.7-11.6 -31.6 7.2 -2.1 12.5h2.5C237.5 75.7 242.4 72.6 242.4 72.6" class="b"/><path d="M220.1 76.7v19.4l-3.1 3.1 3.1 3.1v13.1c0 0-0.3 5.7-1.9 5.7l-0.6 3.3 17-3.9 -1-2.4c0 0-3-0.2-3-5.1 0-1.8 0-7.9 0-14.6l2.7-2.7 -2.7-2.7c0-9.6 0-18.9 0-18.9s-0.2-2.4 2-2.4l-1.1-3.2 -14.7 3.4 -0.5 3.3C216.3 75.1 220.1 74.6 220.1 76.7" class="b"/><path d="M2 188.8l2.3 4c2.8-8.3 8.6-14.8 8.6-14.8l-1.1-0.7c-1.5 0.5-1.8-2.1-1.8-2.1v-23.2l2.9-2.9 -2.9-2.8v-10.9l11 25.6 11.3-33.3v14.7l-2.5 2.5 2.5 2.5v10.3c0 4-1.5 4-1.5 4l0.2 2c6.4-3.6 14-2.7 14-2.7s-0.1-1.2-1.2-1.7c-1.1-0.5-1.1-2.7-1.1-2.7v-12.5l2.8-2.8 -2.8-2.7v-21.7c0-2.7 2.3-3.1 2.3-3.1l-0.1-2.6L31.7 114.2l-9.7 24.3c0 0-6.3-15.2-7.1-17.4 -0.2-0.5 0.6-0.9 0.6-0.9l-0.8-2.1 -13.1 3 0.6 2c2 0 1.5 3.1 1.5 3.1v22.4l-3.1 3.1 3.1 3.1v20C3.7 185.4 2 188.8 2 188.8" class="b"/><path d="M54.7 160.2c-0.8-0.5-0.6-2.7-0.6-2.7l2.6-15.3 7-1.6 3.2 13.3c0 3.7-2 4-2 4l0.4 2.1 14.8-3.4 -1.2-2.5c-1.2 0-1.2-1.6-1.2-1.6l-3.8-16.5 2.2-3.9 -3.6-2 -4.3-18.5c0-2.8 0.6-3.1 0.6-3.1v-2.1l-14.7 3.4 -0.3 2.1c1.9 0 1.7 2.5 1.7 2.5l-3.6 21.4 -3.4 2.6 2.4 3.1L48.4 156.6c0 1.3-0.3 2.3-0.7 3.1 0.6 0 1.1 0 1.7 0C51.2 159.8 53 160 54.7 160.2M59.8 124.2l2.9 12.3 -5.2 1.2L59.8 124.2z" class="b"/><path d="M168.1 127.1c0-0.1 0-0.2 0-0.3 0-0.8 0-1.3 0-1.4 0 0 0-0.1 0-0.2 -0.4-7.7-3.5-20.8-18.9-20.8 -16.7 0-15.9 13.1-15.9 13.1l0 0c-0.1 2.4 0.4 4.4 1.1 5.3 1 1.6 2.8 2.7 4.9 2.7 3.2 0 5.7-2.6 5.7-5.7 0-3.2-2.6-5.7-5.7-5.7 -1.7 0-3.2 0.8-4.3 2 0.1-0.5 0.2-1 0.4-1.4 1.2-3.2 4.7-7 14.5-7.2 6.5-0.1 11.3 2.8 14.3 8.8 2.2 4.5 2.5 9.2 2.5 9.2 0 0.1 0.7 10.6-6.2 18.1 -3.4 3.7-8.1 6-14 7v-10.4c0.1-9.9 0.1-21.3 0.1-27 0-0.5 0.9-1.6 0.9-1.6l-0.9-1.5 -5.6 1.9v1.2c2.9 0.8 5 3.4 5 6.6 0 3.1-2.1 5.8-5 6.6v0.9c0 0 1 7.9-6.2 7.9s-5.6-14.7-5.6-22.3c0-7.6 4.3-17.6 7.7-17.6 2.8 0 3.8 6.4 3.8 6.4l1.7-0.9V89.1l-2.5 0.6c0 1.5-0.9 2.4-0.9 2.4s-3-1.2-4.3-1.2c-1.3 0-17.4-0.3-17.4 25.8 0 1.5 0 2.9 0.1 4.3l-2.6 2.6 3.3 3.3c2.8 16.4 12.6 17.5 16.1 17 2.7-0.4 4.9-2.7 6-4 -0.1 3.9-0.1 7.8-0.2 11.7 -0.2 0-0.4 0-0.6 0 -29 0-30-26.7-30-27.8l0-0.7 -5 0.1c6-4.9 8.9-9.7 8.9-14.6 0-3.2-1-5.7-3.1-7.5 -4.1-3.6-10.9-2.9-11.2-2.8l-16.9 3.9 -1.1 3.6 0.9 0c0.3 0 3 0.2 3 2.9l0 19.9 -2.9 2.9 2.9 2.9 0 13.8c0 0-0.7 3-2.3 3h-0.6l-1 5.4 21.7-5 -2.2-4.8 -0.6 0.1c0 0-0.7 0.1-1.2-0.3 -0.5-0.4-0.8-1.3-0.8-2.6v-13.1l0.8-0.3c1.4 4.3 9.3 25.4 34.5 25.4 2.1 0 4.3-0.2 6.7-0.5 -0.1 5.9-0.1 11.8-0.2 17.7 -0.8 3.9-2.1 7.6-4.1 11 -2 3.3-4.8 6-8.3 7.5 -3.4 1.5-7.4 1.9-11.2 1.4 -3.8-0.4-7.7-1.6-11.2-3.3 -1.8-0.9-3.4-1.8-5-3 -1.6-1.2-3.2-2.5-4.7-3.8 -3.1-2.6-6.3-5.3-9.7-7.8 -6.7-5-14.4-9.1-22.7-11.2 -4.1-1.1-8.4-1.7-12.6-1.9 -1.1 0-2.2-0.1-3.2-0.1l-1.5 0 -0.4 0 -0.2 0 -0.2 0 -0.8 0.1c-2.2 0.1-4.4 0.5-6.5 1.1 -8.5 2.3-15.9 7.5-21.5 14 -2.8 3.2-5.2 6.8-7.1 10.7 -1.9 3.8-3.4 7.9-4.3 12.1 -0.9 4.2-1.2 8.6-0.7 12.9 0.1 1.1 0.3 2.1 0.5 3.2 0.3 1.1 0.5 2.2 0.8 3.2 0.6 2.1 1.5 4 2.5 5.9 4.1 7.6 11 13.5 18.9 16.5 7.9 3.1 16.8 3.5 24.9 1.3 4-1.1 8.1-2.9 11.5-5.4 3.5-2.5 6.4-5.8 8.6-9.4 4.5-7.3 6.1-16.5 4-25.1 -1.1-4.3-3.3-8.5-6.5-11.7 -3.2-3.3-7.4-5.7-12-6.7 -4.6-1-9.5-0.8-14.1 1.1 -4.6 2-8.4 5.8-10.3 10.5 -1.9 4.7-2 10.1-0.2 14.9 1.9 5.1 6.4 8.9 11.5 10.3 1.3 0.3 2.6 0.6 3.9 0.6 0.7 0 1.3 0 2 0 0.6 0 1.4-0.1 2.1-0.3 0.8-0.1 1.2-0.3 1.7-0.4l0.2 0 0.1 0c0.4-0.1 0.2-0.1 0.3-0.1l0.5-0.2c0.3-0.1 0.7-0.2 1-0.4 1.3-0.6 2.4-1.4 3.5-2.4 2-2 3.3-4.6 3.5-7.2 0.1-1.3 0-2.6-0.3-3.9 -0.2-0.6-0.4-1.2-0.7-1.8 -0.3-0.6-0.7-1-1-1.4l-1.4 0.4c-0.8 4.3-2.9 6.6-5.1 8.1 -0.6 0.3-1.1 0.6-1.7 0.9 -0.1 0.1-0.3 0.1-0.5 0.2l-0.2 0.1 -0.2 0.1c-0.5 0.1-1.1 0.3-1.3 0.3 -0.3 0-0.5 0.1-0.9 0.1 -0.4 0-0.7 0-1.1 0 -0.7 0-1.4-0.2-2.1-0.3 -2.8-0.8-5.2-2.8-6.3-5.5 -1.2-2.8-1.3-6.2-0.2-9.2 1.1-3 3.3-5.5 6.2-7 2.9-1.4 6.6-2 10.1-1.4 3.5 0.5 6.9 2.1 9.6 4.5 2.7 2.4 4.8 5.6 6 9.2 1.2 3.6 1.6 7.5 1.2 11.4 -0.4 3.9-1.6 7.6-3.5 11.1 -3.8 6.9-10.5 12.1-18.2 14.1 -3.8 1.1-7.8 1.5-11.8 1.3 -4-0.2-7.9-1.1-11.6-2.6 -7.3-3.1-13.5-8.7-16.9-15.8 -0.9-1.8-1.6-3.6-2.1-5.5 -0.3-1-0.4-1.9-0.6-2.8 -0.1-1-0.3-1.9-0.3-2.9 -0.3-3.9 0.1-7.8 1-11.6 1.9-7.6 5.7-14.7 10.9-20.6 2.6-3 5.5-5.6 8.7-7.7 3.2-2.2 6.7-3.8 10.4-4.9 1.9-0.5 3.7-0.9 5.6-1l0.7-0.1 0.2 0c0 0 0.1 0 0.1 0l0.4 0 1.5 0c1 0 2 0 3 0 4 0.2 7.9 0.7 11.7 1.6 7.7 1.9 14.8 5.6 21.3 10.3 3.3 2.3 6.4 4.9 9.6 7.5 1.6 1.3 3.3 2.6 5 3.8 1.7 1.2 3.7 2.4 5.6 3.2 3.9 1.8 8.1 3 12.4 3.4 4.3 0.4 8.8-0.1 12.9-2 0.7-0.3 3.5-1.5 4.3-2.1 1.2-0.6 2.4-1.3 3.6-2.2 2.2-1.6 4.2-3.6 5.8-5.9 1.6-2.3 2.4-4.6 3.1-7.3 0.8-2.8 0.8-5.8 0.9-8.5 0-1.4 0-2.7 0-4.1v-4 -6.4c5.6-1.6 11.5-4.5 15.5-9.8 5.3-6.1 6.1-13.7 6.1-17H168.1zM97.5 121.1v-14.3c0 0 5.4-2.4 5.4 4.2S97.5 121.1 97.5 121.1" class="b"/><path d="M159.2 112.1c-1.6-1.4-3.4-2.2-5.5-2.7l-3.9 23.4c0 3.6-2.1 4.8-2.1 4.8v3l9.8-2.2 -0.9-1.8c-1.3 0-1-2.8-1-2.8L159.2 112.1z" class="b"/><path d="M180.2 130.4c-1.2 0-1.2-1.6-1.2-1.6l-3.9-16.6 2.1-3.7 -3.3-1.9 -4.4-18.7c0-2.8 0.6-3.1 0.6-3.1v-2.1l-14.7 3.4 -0.3 2.7c1.9 0 1.7 1.4 1.7 1.4l-2.3 13.7c2.1 0.5 4 1.3 5.5 2.3l1-5.7 1.9 8c5.1 5.1 6.2 12.7 6.4 16.9l0 0.2c0 0.1 0 0.6 0 1.5l0 1.7h-0.1c-0.1 1.9-0.5 4.5-1.4 7.3l13.3-3L180.2 130.4z" class="b"/><path d="M238.8 180.9l-3.8-16.5 2.2-3.9 -3.6-2 -4.3-18.5c0-2.8 0.6-3.1 0.6-3.1v-2.1l-14.7 3.4 -0.3 2.1c1.9 0 1.7 2.5 1.7 2.5l-3.6 21.4 -3.4 2.6 2.4 3.1 -0.5 2.9c1.8 1.5 3.6 3.6 4.8 6.4l1.5-8.7 7-1.6 3.2 13.3c0 3.7-2 4-2 4l0.4 2.1 14.8-3.4 -1.2-2.5C238.7 182.5 238.8 180.9 238.8 180.9M218.7 165.9l2.3-13.4 2.9 12.3L218.7 165.9z" class="b"/><path d="M197.1 169.7c0 0 9.5-3.9 9.5-15.7 0-11.9-14.3-10.8-14.3-10.8l-15 3.6 -2.9 0.7 2.4 2.5c3.6 0 3.3 1.1 3.3 1.1v20.5l-3.4 3.4 3.4 3.4v2.5c5.6-1.9 10-0.5 10-0.5v-3.1c3-1.8 4.4-2 6.3-2.3 2.5-0.1 15.1 1.2 16.3 12.5 0.8 7.2-2.4 13.4-8.3 19.5 1.3 0 5.3-1.2 5.3-1.2 6-6.4 7.5-8.4 7.5-18C217.3 169 197.1 169.7 197.1 169.7M190 166.8v-14.8c0 0 8.9-4.5 8.9 2.7S190 166.8 190 166.8" class="b"/><path d="M309.2 138.2c-4.6 0.6-7.7 3.2-7.7 8.3 0 5.1 2.7 6.4 5.1 6.4 2.5 0 4.4-1.7 4.4-4.4 0-2.7-1-2.8-1-2.8l-0.6 0.2c0 1.9-0.7 3.7-2.7 3.7s-3.5-1.7-3.7-3.3c-0.1-1.2 0.2-6.5 6.2-6.5 5.9 0 11.6 3.5 11.6 17.8s-19.8 18.4-34.7 17.8c-0.6 0-1.1 0-1.7 0v-22.1l2.9-2.8 -2.9-2.8v-20.5c0-1.9 2.3-2.3 2.3-2.3v-2.3l-16.4 3.8 1.3 2.5c2.5-2.5 3.4 2.2 3.4 2.2v18.9l-3.5 3.5 3.5 3.5v16.1c0 1.5-0.8 2.3-1.6 2.8 -9.6 0.8-17.1 2.5-17.1 2.5v-18.2l3.1-3 -3.1-3V133.2c0-1.9 2.3-2.3 2.3-2.3v-2.3l-16.4 3.8 1.3 2.5c2.5-2.5 3.4 2.2 3.4 2.2v19.4l-3.1 3 3.1 3v16.6c0 3.1-3.5 3.3-3.5 3.3l1.8 2.6c0 0 21.9-8 39.4-7.1 21 1.1 42.2-3.5 42.2-21.2S311.2 137.9 309.2 138.2" class="b"/><path d="M275.3 80.7c1.4-0.4 2.8-0.5 4-0.4 0.7 0.1 1.4 0.2 2 0.3l1.4-8.2 2.3 9.8c0.1 0.1 0.2 0.1 0.3 0.2 0.8 0.5 1.1 0.9 1.4 1.3 0.7 0.8 1.1 1.5 1.3 2.1 0.6 1.2 0.6 2.2 0.6 2.1l-2 1.2 3.1 13.1c0 3.7-2 4-2 4l0.4 2.1 14.8-3.4 -1.2-2.5c-1.2 0-1.2-1.6-1.2-1.6l-3.9-16.7 2.3-4.2 -3.8-2.1 -4.2-18c0-2.8 0.6-3.1 0.6-3.1v-2.1l-14.7 3.4 -0.3 2.1c1.9 0 1.7 2.5 1.7 2.5L275.3 80.7z" class="b"/><path d="M265.7 33.3c-1.6-2.7-4-4.6-6.4-5.7 -1.2-0.5-2.5-0.9-3.7-1 -1.3-0.1-2.4 0-3.5 0.3 -2.2 0.6-3.8 1.8-4.9 2.9 -1.1 1.2-1.7 2.4-2 3.2 -0.3 0.8-0.4 1.3-0.4 1.3l1.3 0.3c0 0 0.1-0.4 0.3-1.1 0.2-0.7 0.7-1.8 1.6-2.9 0.9-1.1 2.4-2.2 4.4-2.8 1-0.3 2.1-0.4 3.2-0.3 1.2 0.1 2.3 0.5 3.5 1 1.2 0.5 2.3 1.2 3.3 2.1 1 0.9 1.9 2 2.6 3.3 1.5 2.5 2.1 5.7 1.5 8.8 -0.6 3.1-2.1 6.1-4.4 8.5 -1.1 1.2-2.5 2.2-3.9 3.1 -1.5 0.8-3 1.5-4.6 2 -1.6 0.4-3.3 0.8-4.9 0.8 -0.8 0.1-1.6 0-2.5 0 -0.8-0.1-1.8-0.1-2.5-0.3 -3.2-0.5-6.3-1.7-8.9-3.4 -2.6-1.7-4.8-3.8-6.3-6.2 -1.5-2.4-2.3-5-2.7-7.4 -0.3-2.4-0.2-4.7 0.1-6.7 0.2-1 0.3-1.9 0.6-2.7 0.2-0.8 0.5-1.6 0.7-2.2 0.4-1.4 1-2.5 1.3-3.2 0.2-0.5 0.4-0.9 0.4-1l-4.5 2c-0.1 0.4-0.2 0.7-0.4 1.2 -0.2 0.8-0.4 1.7-0.7 2.6 -0.3 1-0.3 2-0.5 3.1 -0.3 2.2-0.2 4.8 0.2 7.6 0.6 2.7 1.6 5.6 3.4 8.3 1.8 2.7 4.3 5 7.2 6.8 2.9 1.8 6.3 3 9.9 3.5 1 0.2 1.8 0.1 2.6 0.2 0.9 0 1.9 0 2.7-0.1 1.8-0.1 3.6-0.5 5.3-1 1.7-0.6 3.4-1.3 4.9-2.3 1.5-1 2.9-2.1 4.1-3.5 2.4-2.7 3.9-6 4.5-9.3C268.1 39.3 267.4 35.9 265.7 33.3" class="b"/><path d="M247 32.6c1.1 0.1 1.9 1.2 1.8 2.3 -0.1 1.1-1.2 1.9-2.3 1.8 -1.1-0.1-1.9-1.2-1.8-2.3C244.8 33.3 245.8 32.5 247 32.6" class="b"/><path d="M271.1 36.4c0.4 0.1 0.8 0.5 0.7 0.9 -0.1 0.4-0.5 0.8-0.9 0.7 -0.4-0.1-0.8-0.5-0.7-0.9C270.3 36.6 270.7 36.3 271.1 36.4" class="b"/><path d="M256.9 42.8c0.8 0.1 1.4 0.9 1.3 1.7 -0.1 0.8-0.9 1.4-1.7 1.3 -0.8-0.1-1.4-0.9-1.3-1.7S256.1 42.7 256.9 42.8" class="b"/><path d="M226.2 26.3c0 0-0.4 1.3-1.1 3.5 -0.3 1.1-0.4 2.4-0.8 3.9 -0.1 0.8 0 1.6-0.1 2.4 -0.1 0.9 0.1 1.8 0.2 2.7 0.1 0.5 0.1 0.9 0.2 1.4 0.1 0.5 0.3 1 0.4 1.4 0.1 0.5 0.3 1 0.4 1.5 0.2 0.5 0.4 1 0.7 1.5 0.2 0.5 0.4 1 0.7 1.5 0.3 0.5 0.6 0.9 0.9 1.4 0.6 1 1.4 1.8 2.2 2.7 0.8 0.9 1.8 1.6 2.7 2.5 1 0.7 2 1.5 3.2 2.1 1.1 0.6 2.2 1.2 3.5 1.7l1.8 0.7 1.9 0.5c2.5 0.7 5.1 1 7.7 1.1 1.3-0.1 2.6-0.1 3.8-0.2 1.3-0.2 2.5-0.5 3.6-0.8 2.3-0.8 4.4-1.9 6.1-3.4 1.7-1.4 3.1-3.1 4.2-4.7 1.1-1.6 1.7-3.4 2.2-4.9 0.4-1.5 0.7-2.9 0.7-4.1 0-0.6 0.1-1.1 0.1-1.5 0-0.4 0-0.8-0.1-1.1 0-0.6-0.1-0.9-0.1-0.9l0.4-0.1c0 0 0 0.3 0.1 1 0 0.3 0.1 0.7 0.1 1.2 0 0.5 0 1 0 1.6 -0.1 1.2-0.2 2.6-0.6 4.2 -0.5 1.6-1.1 3.4-2.2 5.1 -1.1 1.8-2.4 3.5-4.2 5.1 -1.8 1.6-3.9 2.9-6.4 3.7 -1.2 0.4-2.5 0.8-3.8 1 -1.3 0.2-2.7 0.3-4 0.4 -2.7 0-5.4-0.2-8.1-0.9l-2-0.5 -1.9-0.7c-1.3-0.4-2.5-1.1-3.7-1.6 -1.2-0.6-2.3-1.4-3.4-2.1 -1-0.9-2.1-1.6-3-2.6 -0.9-1-1.8-1.8-2.5-2.9 -0.4-0.5-0.7-1-1.1-1.5 -0.3-0.5-0.6-1.1-0.9-1.6 -0.3-0.5-0.6-1.1-0.8-1.6 -0.2-0.6-0.4-1.1-0.5-1.7 -0.2-0.5-0.4-1.1-0.5-1.6 -0.1-0.5-0.2-1.1-0.3-1.6 -0.2-1-0.4-2.1-0.3-3 0-1 0-1.9 0-2.7 0.3-1.7 0.4-3.3 0.7-4.4 0.7-2.2 1-3.5 1-3.5L226.2 26.3z" class="b"/><path d="M259.7 53.1c0 0 0.1-0.1 0.4-0.3 0.2-0.2 0.6-0.4 0.9-0.8 0.8-0.8 1.7-2.1 2.1-4 0.2-0.9 0.3-2 0.1-3 -0.2-1.1-0.7-2.1-1.4-3 -0.8-0.9-1.8-1.6-2.9-2 -1.2-0.4-2.5-0.5-3.6 0 -1.2 0.4-2.2 1.3-2.7 2.4 -0.6 1.1-0.8 2.4-0.4 3.5 0.4 1.1 1.2 2 2.2 2.3 1 0.4 2.1 0.3 2.9-0.2 0.8-0.5 1.2-1.3 1.3-2.1 0.1-0.7-0.2-1.4-0.5-1.8 -0.4-0.4-0.8-0.6-1-0.7 -0.3-0.1-0.4-0.1-0.4-0.1l0-0.4c0 0 0.2 0 0.5 0.1 0.3 0.1 0.8 0.3 1.2 0.8 0.4 0.5 0.8 1.2 0.7 2.1 -0.1 0.9-0.6 1.8-1.5 2.4 -0.9 0.6-2.2 0.7-3.3 0.3 -1.2-0.4-2.2-1.4-2.6-2.6 -0.5-1.3-0.3-2.8 0.3-4 0.6-1.2 1.7-2.3 3.1-2.8 1.3-0.5 2.9-0.5 4.2 0 1.3 0.4 2.5 1.2 3.4 2.2 0.9 1 1.4 2.2 1.7 3.4 0.2 1.2 0.2 2.4-0.1 3.4 -0.5 2.1-1.5 3.6-2.3 4.5 -0.4 0.5-0.8 0.8-1.1 1 -0.2 0.2-0.4 0.3-0.4 0.3L259.7 53.1z" class="b"/><path d="M126 85.1c0 0 0.5-0.4 1.5-1 1-0.7 2.4-1.7 4.2-2.9 1.8-1.2 4.1-2.7 6.6-4.4 2.6-1.7 5.4-3.6 8.6-5.6 6.3-4.1 13.8-8.7 21.8-13.7 8-4.9 16.6-10.2 25.3-15.3 8.6-5.2 17.3-10.2 25.5-15 4.1-2.3 8.1-4.6 11.8-6.8 0.9-0.5 1.9-1.1 2.8-1.6 1-0.5 2-1.1 2.9-1.4 2-0.8 3.9-1.3 5.8-1.7 3.7-0.9 7.2-1.4 10.3-1.6 3.1-0.2 5.8 0 8.1 0.4 2.2 0.4 3.9 0.9 5 1.5 0.5 0.3 0.9 0.5 1.2 0.7 0.3 0.2 0.4 0.3 0.4 0.3l-0.2 0.3c0 0-0.5-0.3-1.6-0.7 -1.1-0.4-2.7-0.8-4.9-1 -2.2-0.2-4.8-0.1-7.8 0.3 -3 0.3-6.3 1-9.9 2 -1.8 0.5-3.6 1.2-5.4 1.9 -1 0.4-1.8 0.8-2.6 1.3 -0.9 0.5-1.8 1.1-2.8 1.6 -3.7 2.2-7.6 4.5-11.7 6.9 -8.1 4.8-16.8 9.9-25.4 15 -8.7 5.1-17.4 10.2-25.5 14.9 -8.2 4.7-15.8 9.1-22.3 12.9 -6.5 3.8-12 6.9-15.8 9.1 -3.8 2.2-6 3.5-6 3.5L126 85.1z" class="b"/><path d="M112.9 49.4c0.2-0.1 0.2-0.3 0.2-0.4 0-0.1 0.1-0.3 0.2-0.5 0.1-0.3 0.3-0.6 0.5-0.9 0.4-0.6 0.8-1.1 1.3-1.6 1-0.9 2.3-1.5 3.7-1.8 2.8-0.6 5.7 0.6 7.7 2.6 2.1 2 3.1 5 2.6 8 -0.5 2.8-2.1 5.4-4.4 7 -2.3 1.7-5.2 2.3-8 1.8 -1.3-0.2-2.7-0.8-3.8-1.3 -1.3-0.7-2.2-1.5-3.2-2.4 -0.9-1-1.7-2-2.3-3.2 -0.6-1.2-1-2.4-1.3-3.7 -0.5-2.5-0.3-5.1 0.5-7.5 0.8-2.3 2.1-4.6 3.8-6.4 1.7-1.8 3.8-3.3 6.2-4.2 2.3-1 4.9-1.4 7.4-1.3 2.5 0.1 5 0.8 7.3 1.9 2.3 1.1 4.3 2.6 6.1 4.5l0.3 0.4c0.2 0.2 0.2 0.3 0.3 0.4l0.6 0.7c0.4 0.6 0.7 1.1 1 1.7 0.6 1.2 1 2.4 1.3 3.6 0.6 2.5 0.6 5.1 0.4 7.6 -0.2 2.5-0.8 5-1.9 7.2l0 0.1 -1.1-0.8c3.7-2.1 7.1-4.6 10.5-7l10.4-7.3 20.7-14.6 10.4-7.3 5.2-3.6 2.6-1.8 1.3-0.9 0.7-0.4 0.6-0.4 1.3-1 1-1c0.3-0.3 0.6-0.7 0.9-1.1 0.3-0.4 0.6-0.7 0.8-1.1 1.1-1.6 1.8-3.3 2-5.1 0.2-1.8-0.1-3.7-1.1-5.2 -1-1.5-2.9-2.6-5-3 2.1-0.4 4.6 0.1 6.3 1.8 1.8 1.7 2.6 4.2 2.5 6.6 0 2.4-1 4.7-2.2 6.6 -0.3 0.5-0.7 0.9-1 1.4 -0.4 0.4-0.7 0.9-1.2 1.3l-1.3 1.2 -1.3 1c-0.2 0.2-0.3 0.3-0.7 0.5l-0.7 0.4 -1.3 0.9 -2.6 1.8 -5.2 3.5 -10.6 6.9 -21.2 13.8 -10.6 6.9c-3.5 2.3-7.1 4.6-10.4 7.2l-1.4 1.1 0.4-1.9 0-0.1c0.4-2.4 0.9-4.7 1.1-7 0.3-2.3 0.2-4.7-0.2-6.9 -0.2-1.1-0.6-2.2-1.1-3.2 -0.2-0.5-0.5-1-0.8-1.4l-0.5-0.7 -0.2-0.3 -0.3-0.3c-1.5-1.8-3.3-3.2-5.4-4.3 -2.1-1.1-4.3-1.8-6.6-2 -2.3-0.2-4.7 0.1-6.9 1.1 -2.2 0.9-4.1 2.2-5.8 3.9 -1.6 1.7-2.8 3.7-3.5 6 -0.7 2.2-0.7 4.6-0.2 6.8 0.3 1.1 0.8 2.2 1.4 3.1 0.6 1 1.3 1.8 2.2 2.6 0.8 0.7 1.8 1.4 2.7 1.8 1.1 0.5 2.1 0.8 3.1 0.9 2.1 0.2 4.2-0.5 5.8-1.7 1.6-1.2 2.7-3.1 3.1-5 0.3-1.9-0.3-3.9-1.5-5.5 -0.6-0.8-1.5-1.4-2.4-1.9 -1-0.5-1.9-0.7-3-0.6 -1 0.1-2.1 0.4-2.9 1.1 -0.4 0.3-0.8 0.7-1.2 1.1 -0.2 0.2-0.3 0.4-0.4 0.7 -0.1 0.1-0.1 0.2-0.2 0.4 0 0.1-0.2 0.3-0.1 0.5L112.9 49.4z" class="b"/><path d="M277.9 226.6c1.8 1.4 3.4 0.8 4.1 0.1 0.1-0.1 0.3-0.2 0.3-0.2 0 0 0.1-0.1 0.1-0.1 0.1-0.1 0.2-0.2 0.3-0.4 0.2-0.2 0.4-0.5 0.5-0.8 0.3-0.6 0.4-1.2 0.4-1.8 0-0.3-0.1-0.6-0.2-0.9l-0.1-0.2 0 0 0 0c0 0.1-0.1-0.1 0.1 0.1l0-0.1 -0.1-0.2c-0.1-0.3-0.3-0.5-0.4-0.6 -0.3-0.5-1-1.2-1.6-1.6 -1.3-0.9-3-1.3-4.5-0.9l-0.6 0.2 -0.3 0.1 -0.1 0.1 -0.1 0c0 0-0.1 0.1 0.1-0.1l0 0 0 0c-0.5 0.3-1.1 0.5-1.4 0.7 -0.7 0.4-1.5 1-2.1 1.7 -0.6 0.7-1.1 1.5-1.5 2.3 -0.4 0.8-0.7 1.8-0.8 2.7 -0.2 0.9-0.2 1.9 0 2.9 0.1 1 0.4 1.9 0.8 2.8 0.5 1.1 1 1.9 1.6 2.7 0.3 0.4 0.6 0.8 1 1.2 0.3 0.4 0.7 0.8 1.1 1.1 1.6 1.4 3.4 2.5 5.5 3.1 2 0.7 4.2 0.8 6.4 0.6 1.1-0.1 2.1-0.4 3.2-0.7 0.5-0.2 1.1-0.4 1.5-0.6l1.5-0.8c1.9-1.1 3.7-2.4 5.2-4.1 1.5-1.7 2.8-3.5 3.7-5.5 0.9-2 1.6-4.2 2-6.4 0.3-2.2 0.3-4.4 0-6.7 -0.3-2.2-1-4.3-1.9-6.4l0 0 0-0.1c-0.6-1.9-1.8-3.8-3.1-5.4 -0.7-0.8-1.4-1.6-2.2-2.3 -0.4-0.4-0.8-0.7-1.2-1.1l-1.3-1c-1.7-1.3-3.6-2.4-5.5-3.3 -0.9-0.5-2-0.8-3-1.2 -1-0.4-2-0.7-3.1-1 -2-0.7-4.2-1-6.3-1.4 -1.1-0.2-2.1-0.2-3.2-0.4 -1.1-0.1-2.1-0.3-3.2-0.3l-3.2-0.1c-0.5 0-1.1 0-1.6 0l-1.6 0.1c-2.2 0.1-4.4 0.2-6.5 0.7l-3.1 0.6 -3.1 0.9c-2.1 0.5-4 1.4-6 2.2 -1 0.4-1.9 0.9-2.9 1.4 -0.9 0.5-1.9 0.9-2.8 1.5 -1.8 1.1-3.7 2.2-5.4 3.5 -1.8 1.2-3.4 2.6-5 4 -1.6 1.5-3.2 2.9-4.6 4.5 -1.5 1.6-2.9 3.2-4.2 4.9 -1.3 1.7-2.6 3.4-3.7 5.2l-0.1 0.1 -0.1 0.1 -3.9 5 -2 2.5 -0.5 0.6 -0.2 0.3 -0.1 0.1 -0.2 0.2 -0.1 0.1 -1.1 1.2c-3 3.1-6.3 6-9.8 8.6 -7.1 5.1-15.6 8.5-24.4 9.3l-1.6 0.2 -1.7 0.1 -1.7 0 -1.7-0.1 -0.8 0 -0.4 0 -0.2 0 -0.1 0 -0.1 0 -0.2 0 -1.6-0.2c-1.1-0.1-2.1-0.2-3.2-0.5 -2.3-0.4-4.4-1.1-6.5-1.9l-3.1-1.4 -2.9-1.7c-3.8-2.4-7.2-5.5-9.9-9 -2.7-3.6-4.8-7.6-6.1-11.9 -1.3-4.3-1.8-8.8-1.5-13.3l0-0.4 0-0.2 0-0.2 0-0.1 0.1-0.8 0.2-1.6c0.3-1.1 0.5-2.4 0.9-3.4 0.7-2.2 1.8-4.2 3-6.1 1.3-1.9 2.8-3.6 4.6-5 1.8-1.4 3.6-2.7 5.7-3.6 2.1-0.9 4.2-1.6 6.4-1.9 2.2-0.4 4.4-0.4 6.7-0.2 4.5 0.5 8.8 3 11.5 6.6 2.7 3.6 3.9 8.3 3 12.7 -1 4.6-4.9 8.1-9.4 8.6 -1.1 0.1-2.3 0.1-3.4-0.1 -1.2-0.3-2.2-0.8-3.1-1.6 -1.8-1.5-2.8-3.8-2.6-6.2l1.4 0.1c-0.2 1.9 0.6 3.8 2.1 5.1 0.7 0.6 1.6 1.1 2.5 1.3 1 0.2 1.9 0.2 2.9 0.1 1.9-0.3 3.8-1.2 5.2-2.5 1.4-1.3 2.4-3.2 2.7-5 0.6-3.9-0.6-8.1-3.1-11.1 -2.5-3.1-6.2-5-10.1-5.3 -3.9-0.2-8 0.6-11.4 2.4 -1.8 0.9-3.3 2.1-4.8 3.3 -1.4 1.3-2.7 2.8-3.7 4.5 -1 1.7-1.9 3.4-2.4 5.3 -0.3 0.9-0.4 1.8-0.6 2.7l-0.2 1.6 -0.1 0.8 0 0.6c-0.2 4 0.4 8 1.6 11.7 2.4 7.5 7.5 14.2 14.1 18.4 3.3 2.1 7.1 3.6 10.9 4.4 0.9 0.3 2 0.4 3 0.5l1.6 0.2 1.4 0.1 1.5 0.1 1.5 0 1.5 0 1.5-0.1c8-0.7 15.8-3.7 22.5-8.3 3.4-2.3 6.5-4.9 9.4-7.9l1.1-1.1 0.1-0.1c0.1-0.1-0.1 0.1-0.1 0.1l0 0 0.1-0.1 0.3-0.3 0.5-0.6 2-2.4 4-4.9 -0.1 0.2c1.3-2 2.6-3.7 4.1-5.5 1.4-1.7 2.9-3.4 4.5-5 1.6-1.6 3.2-3.1 4.9-4.6 1.8-1.4 3.5-2.8 5.3-4.1 1.8-1.3 3.8-2.4 5.7-3.6 0.9-0.6 2-1 3-1.5 1-0.5 2-1 3.1-1.4 2.1-0.8 4.2-1.7 6.4-2.2l3.3-0.9 3.4-0.5c2.3-0.5 4.4-0.5 6.6-0.6l1.6-0.1c0.7 0 1.1 0 1.7 0.1l3.3 0.2c1.1 0 2.2 0.2 3.3 0.3 1.1 0.1 2.2 0.2 3.3 0.4 2.2 0.5 4.4 0.8 6.5 1.5 1.1 0.3 2.1 0.6 3.2 1.1 1 0.4 2.1 0.8 3.1 1.3 2 1 4 2.1 5.8 3.5l1.3 1c0.4 0.4 0.8 0.8 1.2 1.2 0.8 0.8 1.6 1.7 2.3 2.5 1.4 1.8 2.6 3.7 3.4 6l0-0.1c1 2.2 1.7 4.5 2 6.8 0.3 2.4 0.3 4.8 0 7.1 -0.4 2.4-1.1 4.6-2.1 6.8 -1 2.1-2.4 4.1-4 5.9 -1.6 1.8-3.5 3.3-5.6 4.5l-1.5 0.8c-0.6 0.3-1.1 0.5-1.7 0.8 -1.1 0.5-2.3 0.8-3.5 1 -2.4 0.4-4.9 0.3-7.3-0.2 -2.4-0.6-4.7-1.6-6.7-3.1 -0.5-0.4-1-0.8-1.4-1.2 -0.5-0.4-0.9-0.9-1.3-1.4 -0.8-0.9-1.7-2.2-2.2-3.1 -0.7-1.2-1.2-2.4-1.5-3.7 -0.3-1.3-0.4-2.7-0.3-4 0.1-1.4 0.4-2.7 0.9-4 0.5-1.3 1.1-2.5 2-3.6 0.9-1.1 1.8-2 3-2.9 0.7-0.5 1.1-0.7 1.6-1l0 0 0.2-0.1 0.1-0.1 0.3-0.1 0.5-0.2c0.3-0.1 0.7-0.2 1.1-0.3 2.9-0.8 6.2-0.3 8.7 1.3 1.3 0.9 2.3 1.8 3.3 3.3 0.3 0.4 0.4 0.6 0.5 0.9l0.1 0.2 0.1 0.1 0.1 0.2 0 0.1 0.2 0.6c0.3 0.8 0.5 1.6 0.5 2.5 0.1 1.7-0.3 3.4-1.1 4.8 -0.4 0.7-1 1.4-1.6 1.9 -0.3 0.3-0.6 0.5-1 0.8 -0.2 0.1-0.4 0.2-0.6 0.3 -0.2 0.1-0.3 0.1-0.4 0.2 -1.7 0.7-3.6 0.7-5.1-0.1 -1.5-0.8-2.5-2.3-2.6-3.7L277.9 226.6z" class="b"/></g></svg>