<?xml version="1.0" encoding="UTF-8" standalone="no"?>
<svg width="340px" height="266px" viewBox="0 0 340 266" version="1.1" xmlns="http://www.w3.org/2000/svg" xmlns:xlink="http://www.w3.org/1999/xlink">
    <!-- Generator: Sketch 3.8 (29681) - http://www.bohemiancoding.com/sketch -->
    <title>Artboard</title>
    <desc>Created with Sketch.</desc>
    <defs>
        <rect id="path-1" x="0" y="0" width="339.009" height="265.961"></rect>
        <rect id="path-3" x="0" y="0" width="339.009" height="265.961"></rect>
        <rect id="path-5" x="0" y="0" width="339.009" height="265.961"></rect>
        <rect id="path-7" x="0" y="0" width="339.009" height="265.961"></rect>
        <rect id="path-9" x="0" y="0" width="339.009" height="265.961"></rect>
        <rect id="path-11" x="0" y="0" width="339.009" height="265.961"></rect>
        <rect id="path-13" x="0" y="0" width="339.009" height="265.961"></rect>
        <rect id="path-15" x="0" y="0" width="339.009" height="265.961"></rect>
        <rect id="path-17" x="0" y="0.579" width="15.467" height="33.13"></rect>
        <rect id="path-19" x="0" y="0" width="339.009" height="265.961"></rect>
        <rect id="path-21" x="0.577" y="0.36" width="17.759" height="35.146"></rect>
        <rect id="path-23" x="0" y="0" width="339.009" height="265.961"></rect>
        <rect id="path-25" x="0.983" y="0.552" width="8.931" height="16.759"></rect>
        <rect id="path-27" x="0" y="0" width="339.009" height="265.961"></rect>
        <rect id="path-29" x="0.155" y="0.685" width="4.011" height="17.072"></rect>
        <rect id="path-31" x="0" y="0" width="339.009" height="265.961"></rect>
        <rect id="path-33" x="0.759" y="0.376" width="4.71" height="3.562"></rect>
        <rect id="path-35" x="0" y="0" width="339.009" height="265.961"></rect>
        <rect id="path-37" x="0" y="0" width="339.009" height="265.961"></rect>
        <rect id="path-39" x="0" y="0" width="339.009" height="265.961"></rect>
        <rect id="path-41" x="0" y="0" width="339.009" height="265.961"></rect>
        <rect id="path-43" x="0" y="0" width="339.009" height="265.961"></rect>
        <rect id="path-45" x="0" y="0" width="339.009" height="265.961"></rect>
        <rect id="path-47" x="0" y="0" width="339.009" height="265.961"></rect>
        <rect id="path-49" x="0" y="0" width="339.009" height="265.961"></rect>
        <rect id="path-51" x="0" y="0" width="339.009" height="265.961"></rect>
        <rect id="path-53" x="0" y="0" width="339.009" height="265.961"></rect>
        <rect id="path-55" x="0" y="0" width="339.009" height="265.961"></rect>
        <rect id="path-57" x="0" y="0" width="339.009" height="265.961"></rect>
        <rect id="path-59" x="0" y="0" width="339.009" height="265.961"></rect>
        <rect id="path-61" x="0" y="0" width="339.009" height="265.961"></rect>
        <rect id="path-63" x="0" y="0" width="339.009" height="265.961"></rect>
        <rect id="path-65" x="0" y="0" width="339.009" height="265.961"></rect>
        <rect id="path-67" x="0" y="0" width="339.009" height="265.961"></rect>
        <rect id="path-69" x="0" y="0" width="339.009" height="265.961"></rect>
        <rect id="path-71" x="0" y="0" width="339.009" height="265.961"></rect>
        <rect id="path-73" x="0" y="0" width="339.009" height="265.961"></rect>
        <rect id="path-75" x="0" y="0" width="339.009" height="265.961"></rect>
        <rect id="path-77" x="0" y="0" width="339.009" height="265.961"></rect>
        <rect id="path-79" x="0" y="0" width="339.009" height="265.961"></rect>
        <rect id="path-81" x="0" y="0" width="339.009" height="265.961"></rect>
        <rect id="path-83" x="0" y="0" width="339.009" height="265.961"></rect>
        <rect id="path-85" x="0" y="0" width="339.009" height="265.961"></rect>
        <rect id="path-87" x="0" y="0" width="339.009" height="265.961"></rect>
        <rect id="path-89" x="0" y="0" width="339.009" height="265.961"></rect>
    </defs>
    <g id="Page-1" stroke="none" stroke-width="1" fill="none" fill-rule="evenodd">
        <g id="Artboard">
            <g id="wordmark">
                <g id="Clipped">
                    <mask id="mask-2" fill="white">
                        <use xlink:href="#path-1"></use>
                    </mask>
                    <g id="SVGID_1_"></g>
                    <g id="Group" mask="url(#mask-2)">
                        <g id="Clipped">
                            <mask id="mask-4" fill="white">
                                <use xlink:href="#path-3"></use>
                            </mask>
                            <g id="SVGID_3_"></g>
                            <path id="Shape" fill="#000000" mask="url(#mask-4)"></path>
                        </g>
                        <g id="Clipped">
                            <mask id="mask-6" fill="white">
                                <use xlink:href="#path-5"></use>
                            </mask>
                            <g id="SVGID_3_"></g>
                            <path id="Shape" fill="#000000" mask="url(#mask-6)"></path>
                        </g>
                        <g id="Clipped">
                            <mask id="mask-8" fill="white">
                                <use xlink:href="#path-7"></use>
                            </mask>
                            <g id="SVGID_3_"></g>
                            <path id="Shape" fill="#000000" mask="url(#mask-8)"></path>
                        </g>
                        <g id="Clipped">
                            <mask id="mask-10" fill="white">
                                <use xlink:href="#path-9"></use>
                            </mask>
                            <g id="SVGID_3_"></g>
                            <path d="M138.255,249.122 C138.041,248.952 137.837,248.772 137.627,248.599 C137.409,248.578 137.201,248.553 136.981,248.535 C137.361,248.707 137.699,248.861 137.938,248.97 C138.077,249.035 138.171,249.081 138.255,249.122" id="Shape" fill="#000000" mask="url(#mask-10)"></path>
                        </g>
                        <g id="Clipped">
                            <mask id="mask-12" fill="white">
                                <use xlink:href="#path-11"></use>
                            </mask>
                            <g id="SVGID_3_"></g>
                            <path d="M277.182,89.166 L276.832,89.418 C276.723,89.507 276.527,89.666 276.321,89.852 C275.924,90.21 275.54,90.633 275.191,91.094 C274.486,92.016 273.954,93.104 273.659,94.321 C273.538,94.937 273.439,95.58 273.416,96.27 L273.411,96.334 C273.411,96.345 273.411,96.33 273.41,96.318 L273.413,96.405 L273.426,96.784 C273.439,97.013 273.436,97.349 273.461,97.495 C273.529,97.801 273.5,98.006 273.607,98.429 C273.897,99.945 274.513,101.608 275.469,103.215 C275.912,103.989 276.431,104.764 277.005,105.499 L279.911,88.403 C278.914,88.525 277.944,88.749 277.337,89.072 C277.286,89.105 277.237,89.139 277.182,89.166" id="Shape" fill="#FFFFFF" mask="url(#mask-12)"></path>
                        </g>
                        <g id="Clipped">
                            <mask id="mask-14" fill="white">
                                <use xlink:href="#path-13"></use>
                            </mask>
                            <g id="SVGID_3_"></g>
                            <path d="M248.012,192.598 C241.842,193.665 212.952,206.302 212.952,206.302 C206.16,208.526 200.387,209.316 195.715,209.316 C176.611,209.316 179.62,189.888 186.77,188.263 C191.63,187.159 193.291,192.112 193.291,192.112 C195.426,190.451 194.003,181.316 185.935,181.494 C174.192,181.753 174.664,193.062 174.664,193.062 C174.662,215.129 196.133,212.503 196.133,212.503 C202.083,211.982 206.754,211.491 216.59,207.531 C224.657,204.283 248.012,192.598 248.012,192.598" id="Shape" fill="#FFFFFF" mask="url(#mask-14)"></path>
                        </g>
                        <g id="Clipped">
                            <mask id="mask-16" fill="white">
                                <use xlink:href="#path-15"></use>
                            </mask>
                            <g id="SVGID_3_"></g>
                            <g id="Group" opacity="0" mask="url(#mask-16)">
                                <g transform="translate(0.000000, 75.000000)">
                                    <g>
                                        <g id="Clipped">
                                            <mask id="mask-18" fill="white">
                                                <use xlink:href="#path-17"></use>
                                            </mask>
                                            <g id="SVGID_5_"></g>
                                            <path d="M14.058,23.988 C13.537,24.862 12.525,26.866 12.061,27.794 C11.904,28.108 11.62,28.329 11.279,28.41 L5.353,29.824 C5.353,29.824 7.722,24.809 9.925,19.795 L12.366,18.938 L11.434,16.283 C12.364,14.063 13.124,12.104 13.45,10.93 C14.636,6.658 12.278,-0.327 6.331,0.676 C2.852,1.263 1.585,5.591 1.585,5.591 L1.585,2.683 L0,3.061 L0.666,12.131 L2.001,11.375 C2.001,7.815 4.181,6.124 6.227,6.124 C9.253,6.124 9.383,8.62 9.253,10.663 C9.208,11.365 8.316,13.856 7.129,16.887 L4.567,17.79 L5.597,20.709 C3.493,25.851 1.203,31.101 0.873,31.604 C0.251,32.553 0.606,33.709 0.606,33.709 L13.207,30.793 L15.467,24.07 C15.467,24.07 14.285,23.607 14.058,23.988" id="Shape" fill="#FFFFFF" mask="url(#mask-18)"></path>
                                        </g>
                                    </g>
                                </g>
                            </g>
                        </g>
                        <g id="Clipped">
                            <mask id="mask-20" fill="white">
                                <use xlink:href="#path-19"></use>
                            </mask>
                            <g id="SVGID_3_"></g>
                            <g id="Group" opacity="0" mask="url(#mask-20)">
                                <g transform="translate(14.000000, 70.000000)">
                                    <g>
                                        <g id="Clipped">
                                            <mask id="mask-22" fill="white">
                                                <use xlink:href="#path-21"></use>
                                            </mask>
                                            <g id="SVGID_7_"></g>
                                            <path d="M2.759,4.07 L0.577,12.726 L2.238,11.938 C2.95,7.828 9.891,5.579 9.891,5.579 C9.891,5.579 8.916,11.099 7.909,16.98 L5.363,18.688 L7.163,21.37 C6.371,26.078 5.715,30.166 5.715,30.777 C5.715,32.319 2.416,33.015 2.416,33.015 L1.467,35.506 L13.154,32.837 L12.264,31.235 C10.365,31.235 9.831,30.345 9.831,30.345 C9.831,30.345 10.501,25.365 11.306,19.861 L13.422,18.166 L11.851,16.204 C12.629,11.087 13.422,6.361 13.806,5.579 C14.636,3.887 17.543,2.998 17.543,2.998 L18.336,0.36 C18.336,0.36 3.403,3.917 2.759,4.07" id="Shape" fill="#FFFFFF" mask="url(#mask-22)"></path>
                                        </g>
                                    </g>
                                </g>
                            </g>
                        </g>
                        <g id="Clipped">
                            <mask id="mask-24" fill="white">
                                <use xlink:href="#path-23"></use>
                            </mask>
                            <g id="SVGID_3_"></g>
                            <g id="Group" opacity="0" mask="url(#mask-24)">
                                <g transform="translate(36.000000, 68.000000)">
                                    <g>
                                        <g id="Clipped">
                                            <mask id="mask-26" fill="white">
                                                <use xlink:href="#path-25"></use>
                                            </mask>
                                            <g id="SVGID_9_"></g>
                                            <path d="M0.983,1.111 L4.279,0.551 L4.279,5.95 C4.279,5.95 5.228,4.687 6.414,4.687 C7.601,4.687 8.974,5.297 8.974,8.679 L8.974,12.801 C8.974,12.801 9.084,13.484 9.499,13.484 L9.914,14.285 L7.037,15.412 L6.978,14.344 C6.978,14.344 7.393,13.899 7.393,13.395 L7.393,7.611 C7.393,7.611 7.311,6.432 6.355,6.543 C5.619,6.629 4.308,6.573 4.308,10.518 L4.308,14.255 C4.308,14.255 4.427,15.085 5.02,15.085 L5.376,15.857 L1.935,17.31 L2.054,16.064 C2.054,16.064 2.766,15.797 2.766,15.115 L2.766,2.359 C2.766,2.359 2.178,1.645 1.624,2.119 L0.983,1.111 L0.983,1.111 Z" id="Shape" fill="#FFFFFF" mask="url(#mask-26)"></path>
                                        </g>
                                    </g>
                                </g>
                            </g>
                        </g>
                        <g id="Clipped">
                            <mask id="mask-28" fill="white">
                                <use xlink:href="#path-27"></use>
                            </mask>
                            <g id="SVGID_3_"></g>
                            <g id="Group" opacity="0" mask="url(#mask-28)">
                                <g transform="translate(33.000000, 69.000000)">
                                    <g>
                                        <g id="Clipped">
                                            <mask id="mask-30" fill="white">
                                                <use xlink:href="#path-29"></use>
                                            </mask>
                                            <g id="SVGID_11_"></g>
                                            <path d="M1.799,0.685 L0.163,1.137 L0.155,15.794 C0.155,15.794 0.324,17.752 1.57,17.758 C2.816,17.763 4.159,15.96 4.159,15.96 L4.167,14.329 C4.167,14.329 2.979,15.613 2.439,15.774 C2.215,15.842 1.906,15.713 1.909,15.001 C1.912,14.289 1.799,0.685 1.799,0.685" id="Shape" fill="#FFFFFF" mask="url(#mask-30)"></path>
                                        </g>
                                    </g>
                                </g>
                            </g>
                        </g>
                        <g id="Clipped">
                            <mask id="mask-32" fill="white">
                                <use xlink:href="#path-31"></use>
                            </mask>
                            <g id="SVGID_3_"></g>
                            <g id="Group" opacity="0" mask="url(#mask-32)">
                                <g transform="translate(31.000000, 75.000000)">
                                    <g>
                                        <g id="Clipped">
                                            <mask id="mask-34" fill="white">
                                                <use xlink:href="#path-33"></use>
                                            </mask>
                                            <g id="SVGID_13_"></g>
                                            <polygon id="Shape" fill="#FFFFFF" mask="url(#mask-34)" points="0.766 2.32 0.759 3.938 5.461 1.994 5.469 0.375"></polygon>
                                        </g>
                                    </g>
                                </g>
                            </g>
                        </g>
                        <g id="Clipped">
                            <mask id="mask-36" fill="white">
                                <use xlink:href="#path-35"></use>
                            </mask>
                            <g id="SVGID_3_"></g>
                            <path d="M131.487,241.039 C131.308,240.991 131.146,240.944 130.962,240.896 C125.839,239.574 118.78,238.312 111.685,238.83 C109.917,238.934 108.16,239.207 106.448,239.527 C104.746,239.912 103.085,240.35 101.539,240.956 C100.763,241.251 100.005,241.546 99.295,241.914 C98.937,242.087 98.582,242.258 98.232,242.426 C97.896,242.623 97.564,242.817 97.237,243.008 C96.573,243.372 95.958,243.776 95.387,244.202 C94.799,244.602 94.248,245.008 93.759,245.451 C92.726,246.267 91.913,247.158 91.166,247.913 C90.474,248.719 89.89,249.437 89.425,250.036 C88.572,251.292 88.085,252.01 88.085,252.01 C88.085,252.01 88.62,251.33 89.556,250.142 C90.061,249.58 90.689,248.91 91.424,248.165 C92.214,247.473 93.069,246.659 94.134,245.935 C94.639,245.538 95.203,245.18 95.801,244.833 C96.381,244.459 97.003,244.112 97.669,243.806 C97.997,243.645 98.329,243.481 98.665,243.315 C99.013,243.176 99.366,243.037 99.723,242.896 C100.426,242.59 101.175,242.359 101.936,242.129 C103.453,241.654 105.072,241.351 106.716,241.096 C108.374,240.908 110.061,240.764 111.756,240.786 C118.548,240.769 125.223,242.453 130.026,244.064 C132.435,244.874 134.4,245.662 135.748,246.251 C135.968,246.352 136.147,246.433 136.335,246.519 C136.556,246.537 136.763,246.562 136.981,246.581 C134.973,244.917 133.129,243.064 131.487,241.039" id="Shape" fill="#FFFFFF" mask="url(#mask-36)"></path>
                        </g>
                        <g id="Clipped">
                            <mask id="mask-38" fill="white">
                                <use xlink:href="#path-37"></use>
                            </mask>
                            <g id="SVGID_3_"></g>
                            <path d="M144.782,251.61 C143.58,250.851 142.437,250.006 141.324,249.122 C141.24,249.081 141.146,249.036 141.007,248.968 C140.769,248.861 140.43,248.707 140.05,248.534 C135.407,248.149 130.233,248.117 125.103,248.874 C123.061,249.145 121.045,249.607 119.086,250.119 C117.139,250.694 115.249,251.342 113.498,252.156 C112.624,252.566 111.76,252.952 110.965,253.435 C110.151,253.879 109.37,254.336 108.653,254.854 C107.914,255.333 107.218,255.831 106.589,256.371 C105.941,256.887 105.319,257.384 104.785,257.936 C103.646,258.961 102.754,260.043 101.946,260.98 C101.191,261.959 100.576,262.845 100.072,263.569 C99.174,265.09 98.661,265.961 98.661,265.961 C98.661,265.961 99.232,265.131 100.231,263.681 C100.782,262.995 101.452,262.162 102.262,261.252 C103.123,260.385 104.069,259.389 105.25,258.466 C105.805,257.966 106.447,257.525 107.109,257.07 C107.754,256.589 108.461,256.156 109.208,255.743 C109.931,255.293 110.716,254.906 111.528,254.534 C112.321,254.124 113.18,253.812 114.043,253.477 C115.773,252.816 117.627,252.324 119.52,251.905 C121.43,251.547 123.378,251.24 125.35,251.119 C133.239,250.514 141.142,251.834 146.875,253.236 C147.449,253.377 147.985,253.518 148.516,253.659 L147.797,253.336 L144.782,251.61 L144.782,251.61 Z" id="Shape" fill="#FFFFFF" mask="url(#mask-38)"></path>
                        </g>
                        <g id="Clipped">
                            <mask id="mask-40" fill="white">
                                <use xlink:href="#path-39"></use>
                            </mask>
                            <g id="SVGID_3_"></g>
                            <path d="M122.875,232.618 C121.773,232.263 120.592,231.849 119.308,231.52 C118.04,231.138 116.672,230.854 115.265,230.542 C113.85,230.273 112.38,230.021 110.882,229.843 C109.377,229.702 107.858,229.507 106.323,229.509 L104.034,229.454 C103.274,229.489 102.517,229.524 101.766,229.558 C100.264,229.578 98.801,229.811 97.387,229.983 C95.967,230.111 94.629,230.465 93.353,230.719 C92.718,230.864 92.093,230.966 91.503,231.131 C90.918,231.309 90.352,231.481 89.808,231.645 C88.728,231.991 87.719,232.238 86.865,232.579 C86.013,232.922 85.269,233.22 84.657,233.466 C83.437,233.956 82.74,234.237 82.74,234.237 C82.74,234.237 83.457,234.01 84.712,233.616 C85.338,233.42 86.097,233.18 86.969,232.907 C87.839,232.634 88.862,232.467 89.952,232.208 C90.498,232.088 91.068,231.962 91.657,231.832 C92.249,231.715 92.873,231.661 93.507,231.568 C94.78,231.416 96.107,231.169 97.506,231.153 C98.898,231.091 100.33,230.974 101.79,231.069 C102.518,231.09 103.251,231.114 103.988,231.135 L106.191,231.361 C107.663,231.47 109.111,231.775 110.538,232.019 C111.958,232.3 113.343,232.65 114.67,233.009 C115.989,233.41 117.264,233.78 118.442,234.236 C119.634,234.641 120.726,235.124 121.742,235.538 C122.744,235.993 123.664,236.394 124.463,236.802 C125.265,237.195 125.965,237.553 126.542,237.858 C127.109,238.152 127.768,238.481 128.088,238.626 C128.175,238.664 128.222,238.685 128.287,238.712 C127.205,237.074 126.26,235.353 125.435,233.57 C124.659,233.262 123.805,232.956 122.875,232.618" id="Shape" fill="#FFFFFF" mask="url(#mask-40)"></path>
                        </g>
                        <g id="Clipped">
                            <mask id="mask-42" fill="white">
                                <use xlink:href="#path-41"></use>
                            </mask>
                            <g id="SVGID_3_"></g>
                            <path d="M122.254,225.971 C121.47,225.702 120.565,225.391 119.536,225.038 C116.212,223.862 111.793,222.244 107.435,220.479 C103.077,218.717 98.776,216.8 95.726,215.049 C94.202,214.177 92.993,213.339 92.263,212.626 C91.887,212.281 91.656,211.947 91.52,211.715 C91.404,211.467 91.342,211.334 91.342,211.334 L91.312,211.342 C91.312,211.342 91.362,211.483 91.456,211.746 C91.57,211.997 91.778,212.365 92.126,212.753 C92.802,213.553 93.948,214.522 95.404,215.553 C98.317,217.619 102.456,219.962 106.661,222.153 C114.393,226.184 122.348,229.725 123.588,230.275 C123.343,229.61 123.082,228.952 122.873,228.275 C122.64,227.515 122.439,226.745 122.254,225.971" id="Shape" fill="#FFFFFF" mask="url(#mask-42)"></path>
                        </g>
                        <g id="Clipped">
                            <mask id="mask-44" fill="white">
                                <use xlink:href="#path-43"></use>
                            </mask>
                            <g id="SVGID_3_"></g>
                            <path d="M121.299,219.886 C119.458,218.481 117.289,216.729 115.153,214.891 C113.894,213.801 112.671,212.672 111.577,211.564 C111.052,210.995 110.512,210.461 110.051,209.922 C109.606,209.372 109.114,208.889 108.78,208.37 C108.441,207.856 108.045,207.419 107.844,206.961 C107.627,206.511 107.367,206.135 107.259,205.792 C107.046,205.092 106.924,204.69 106.924,204.69 C106.924,204.69 106.984,205.11 107.09,205.844 C107.144,206.217 107.348,206.622 107.518,207.117 C107.671,207.627 108.006,208.105 108.291,208.684 C108.572,209.269 108.998,209.81 109.386,210.437 C109.782,211.06 110.288,211.639 110.766,212.282 C111.77,213.522 112.899,214.794 114.068,216.026 C116.41,218.488 118.958,220.726 120.876,222.393 C121.05,222.539 121.212,222.675 121.375,222.812 C121.308,221.839 121.288,220.861 121.299,219.886" id="Shape" fill="#FFFFFF" mask="url(#mask-44)"></path>
                        </g>
                        <g id="Clipped">
                            <mask id="mask-46" fill="white">
                                <use xlink:href="#path-45"></use>
                            </mask>
                            <g id="SVGID_3_"></g>
                            <path d="M119.132,211.457 C118.657,210.699 118.282,209.885 117.994,209.096 C117.707,208.304 117.56,207.53 117.479,206.854 C117.454,206.516 117.461,206.204 117.452,205.925 C117.429,205.646 117.492,205.408 117.508,205.208 C117.558,204.808 117.587,204.58 117.587,204.58 C117.587,204.58 117.528,204.803 117.426,205.193 C117.383,205.389 117.288,205.626 117.273,205.909 C117.245,206.191 117.195,206.51 117.175,206.861 C117.165,207.564 117.211,208.391 117.4,209.26 C117.591,210.125 117.873,211.039 118.267,211.905 C118.931,213.457 119.871,214.844 120.735,215.915 C120.876,215.32 121.036,214.739 121.24,214.193 C120.511,213.424 119.749,212.497 119.132,211.457" id="Shape" fill="#FFFFFF" mask="url(#mask-46)"></path>
                        </g>
                        <g id="Clipped">
                            <mask id="mask-48" fill="white">
                                <use xlink:href="#path-47"></use>
                            </mask>
                            <g id="SVGID_3_"></g>
                            <path d="M285.215,87.697 C285.114,87.645 283.694,86.098 280.451,86.465 C279.655,86.534 278.762,86.733 277.836,87.044 C277.377,87.211 276.907,87.393 276.461,87.638 L276.125,87.815 L276.083,87.837 C275.994,87.887 276.157,87.793 276.119,87.817 L276.008,87.887 L275.783,88.029 C275.638,88.124 275.623,88.161 275.529,88.219 C275.455,88.267 275.331,88.379 275.232,88.455 C273.514,89.88 271.975,92.438 271.756,95.499 L271.729,96.083 L271.721,96.23 L271.717,96.304 C271.715,96.284 271.715,96.455 271.711,96.277 L271.724,96.642 C271.736,97.14 271.752,97.645 271.81,97.975 C271.87,98.71 272.083,99.646 272.312,100.496 C272.832,102.231 273.663,104.006 274.802,105.657 C275.361,106.49 276.017,107.278 276.739,107.988 C277.428,108.682 278.328,109.372 279.016,109.75 C280.259,110.386 280.906,110.609 282.084,110.935 C283.18,111.21 284.345,111.411 285.565,111.505 C290.458,111.909 295.966,111.129 301.594,109.759 C302.283,109.578 302.979,109.395 303.678,109.212 C304.386,108.993 305.161,108.792 305.805,108.548 C307.139,108.101 308.55,107.534 309.913,106.911 C312.658,105.658 315.36,104.099 317.97,102.295 C320.583,100.5 323.09,98.415 325.348,96.05 C326.482,94.873 327.55,93.617 328.469,92.273 C328.965,91.563 329.461,90.838 329.848,90.135 C330.272,89.437 330.683,88.717 331.053,87.947 C334.125,81.907 335.725,74.859 335.825,67.595 C335.88,60.329 334.548,52.836 331.8,45.739 C329.035,38.672 324.871,31.906 319.123,26.678 C317.725,25.355 316.161,24.135 314.615,23.058 C313.762,22.503 312.893,21.892 312.049,21.379 C311.197,20.883 310.381,20.357 309.5,19.878 C306,17.915 302.297,16.243 298.459,14.844 C290.804,11.984 282.618,10.183 274.267,9.33 C265.913,8.486 257.377,8.556 248.949,9.615 C244.738,10.155 240.548,10.942 236.481,12.115 C234.444,12.687 232.444,13.368 230.505,14.164 C228.618,14.935 226.562,15.923 224.62,16.809 C209.091,24.27 194.112,33.218 179.599,42.241 C172.357,46.805 165.173,51.332 158.075,55.804 C150.993,60.313 143.997,64.768 137.115,69.149 C123.294,77.825 109.819,86.084 96.446,92.908 C89.75,96.287 83.088,99.364 76.254,101.448 C75.413,101.74 74.532,101.916 73.673,102.141 L72.382,102.461 C71.883,102.588 71.508,102.622 71.066,102.707 C69.283,102.986 67.441,103.036 65.681,102.851 C62.129,102.5 58.749,101.135 56.009,99.046 C53.257,96.951 51.161,94.185 49.985,91.036 C48.82,87.905 48.704,84.492 49.508,81.414 C50.315,78.332 52.027,75.597 54.184,73.541 C56.401,71.418 59.285,70.1 62.223,69.937 C65.154,69.765 68.005,70.713 70.183,72.366 C72.392,74.013 73.901,76.326 74.623,78.823 C75.339,81.444 74.692,84.232 73.532,86.216 C72.372,88.347 70.545,90.143 68.21,90.915 C65.906,91.713 63.384,91.364 61.47,90.273 C59.506,89.186 58.226,87.398 57.609,85.462 C57.3,84.503 57.249,83.356 57.441,82.406 C57.532,81.92 57.672,81.457 57.851,81.024 L57.92,80.864 L58.049,80.593 L58.165,80.381 L58.393,79.963 C59.257,78.446 60.534,77.304 62.041,76.829 C63.528,76.344 64.99,76.586 65.989,77.108 C67.007,77.633 67.614,78.393 67.953,79.017 C68.615,80.317 68.375,81.059 68.427,81.038 L67.065,81.453 C67.065,81.453 66.97,81.373 66.782,81.215 C66.613,81.064 66.34,80.866 65.995,80.705 C65.317,80.354 64.295,80.244 63.452,80.704 C63.03,80.904 62.476,81.331 62.094,81.99 L61.867,82.407 L61.752,82.62 C61.861,82.405 61.774,82.578 61.795,82.539 L61.781,82.571 L61.753,82.635 C61.682,82.808 61.629,82.989 61.594,83.175 C61.535,83.566 61.525,83.881 61.643,84.341 C61.881,85.22 62.542,86.218 63.512,86.864 C64.485,87.526 65.823,87.849 67.174,87.502 C68.519,87.189 69.891,86.149 70.872,84.676 C70.989,84.529 71.133,84.261 71.267,84.043 C71.373,83.876 71.485,83.663 71.578,83.466 C71.771,83.062 71.928,82.636 72.043,82.194 C72.283,81.317 72.305,80.347 72.124,79.441 C71.714,77.496 70.519,75.565 68.781,74.201 C67.036,72.84 64.722,72.064 62.347,72.184 C59.977,72.294 57.573,73.366 55.711,75.12 C53.786,76.932 52.303,79.284 51.576,81.961 C50.862,84.63 50.943,87.589 51.938,90.323 C52.919,93.031 54.805,95.587 57.236,97.445 C59.667,99.323 62.686,100.574 65.893,100.911 C67.506,101.087 69.115,101.056 70.748,100.816 C71.155,100.741 71.644,100.687 71.986,100.593 L73.23,100.293 C74.058,100.081 74.901,99.922 75.724,99.641 C82.367,97.653 89.01,94.702 95.621,91.288 C108.863,84.459 122.273,76.164 136.035,67.442 C142.892,63.031 149.863,58.547 156.919,54.008 C163.965,49.44 171.096,44.818 178.285,40.158 C192.769,30.979 207.457,21.621 223.157,13.7 C225.154,12.742 227,11.8 229.119,10.878 C231.185,9.982 233.293,9.219 235.428,8.573 C239.69,7.252 244.039,6.347 248.408,5.698 C257.15,4.383 265.993,4.267 274.682,5.054 C283.367,5.862 291.933,7.637 300.031,10.594 C304.065,12.104 307.974,13.908 311.681,16.029 C312.614,16.549 313.535,17.147 314.457,17.702 C315.369,18.27 316.182,18.853 317.046,19.426 C318.863,20.711 320.521,22.035 322.074,23.525 C328.274,29.467 332.528,36.855 335.283,44.439 C338.017,52.056 339.207,59.987 338.978,67.663 C338.809,75.335 337.067,82.828 333.706,89.312 C333.308,90.125 332.847,90.924 332.358,91.712 C331.892,92.533 331.389,93.228 330.905,93.942 C329.888,95.461 328.744,96.837 327.54,98.118 C325.149,100.703 322.503,102.89 319.811,104.884 C317.111,106.871 314.298,108.584 311.411,110.026 C309.965,110.76 308.535,111.412 307.001,111.999 C306.229,112.32 305.541,112.525 304.821,112.782 C304.015,113.048 303.334,113.242 302.591,113.467 C296.744,115.124 290.976,116.256 285.261,115.984 C283.835,115.922 282.412,115.735 281.01,115.433 C279.695,115.166 277.954,114.534 276.988,114.052 C275.47,113.299 274.43,112.481 273.384,111.543 C272.371,110.617 271.488,109.624 270.727,108.582 C269.167,106.52 268.115,104.25 267.383,101.979 C267.051,100.804 266.776,99.736 266.642,98.475 C266.551,97.812 266.535,97.328 266.515,96.85 L266.496,96.485 L266.505,95.954 L266.532,95.102 C266.901,90.529 269.119,86.782 271.931,84.457 C272.123,84.306 272.275,84.173 272.499,84.016 C272.704,83.871 272.975,83.688 273.134,83.598 L273.364,83.467 L273.479,83.402 L273.631,83.32 L273.704,83.284 L274.297,83.002 C275.092,82.674 275.863,82.421 276.62,82.286 C278.127,81.986 279.532,82.026 280.766,82.248 C282.004,82.475 283.057,82.949 283.891,83.464 C284.716,84.014 285.3,84.638 285.671,85.185 C286.061,85.772 286.285,86.278 286.312,86.518 C286.378,86.793 286.411,86.933 286.411,86.933 L285.215,87.697 L285.215,87.697 Z" id="Shape" fill="#FFFFFF" mask="url(#mask-48)"></path>
                        </g>
                        <g id="Clipped">
                            <mask id="mask-50" fill="white">
                                <use xlink:href="#path-49"></use>
                            </mask>
                            <g id="SVGID_3_"></g>
                            <path d="M185.011,85.58 L185.011,104.01 L181.935,107.086 L185.011,110.161 L185.011,126.394 C185.011,126.394 185.367,129.241 183.944,129.241 L183.286,132.24 L195.915,129.35 L197.114,126.394 L194.977,124.733 L194.977,106.46 L196.402,106.698 L202.69,123.507 C202.69,123.507 202.572,125.669 201.384,125.669 L200.917,128.205 L215.758,124.809 L214.91,122.477 C214.91,122.477 212.418,122.596 211.113,119.274 C209.807,115.952 206.486,102.664 206.486,102.664 L200.791,102.545 C200.791,102.545 210.935,99.905 210.935,83.532 C210.935,79.828 208.473,74.456 198.142,76.086 L182.471,79.671 L181.52,82.66 C181.52,82.661 185.011,81.901 185.011,85.58 L185.011,85.58 Z M194.918,84.943 C197.41,83.875 200.969,83.519 200.969,88.248 C200.969,95.634 194.918,98.647 194.918,98.647 L194.918,84.943 L194.918,84.943 Z" id="Shape" fill="#FFFFFF" mask="url(#mask-50)"></path>
                        </g>
                        <g id="Clipped">
                            <mask id="mask-52" fill="white">
                                <use xlink:href="#path-51"></use>
                            </mask>
                            <g id="SVGID_3_"></g>
                            <path d="M242.436,72.587 L247.597,70.674 L247.597,88.905 L244.314,92.188 L247.597,95.471 L247.597,111.206 C247.597,111.206 248.318,114.626 244.313,114.626 L243.651,118.428 L263.019,113.997 L261.833,111.162 C261.833,111.162 257.562,111.162 257.562,108.047 C257.562,106.798 257.461,99.655 257.356,91.602 L260.288,88.671 L257.28,85.663 C257.192,78.602 257.117,71.76 257.117,68.316 L261.833,67.177 C266.817,66.199 271.533,73.299 271.533,73.299 L273.135,71.786 L267.482,60.222 L235.878,67.453 L233.806,79.973 L236.296,79.973 C237.452,75.702 242.436,72.587 242.436,72.587" id="Shape" fill="#FFFFFF" mask="url(#mask-52)"></path>
                        </g>
                        <g id="Clipped">
                            <mask id="mask-54" fill="white">
                                <use xlink:href="#path-53"></use>
                            </mask>
                            <g id="SVGID_3_"></g>
                            <path d="M220.101,76.681 L220.101,96.118 L216.996,99.223 L220.101,102.329 L220.101,115.389 C220.101,115.389 219.833,121.054 218.188,121.054 L217.612,124.386 L234.594,120.501 L233.626,118.148 C233.626,118.148 230.601,117.97 230.601,113.075 C230.601,111.226 230.614,105.205 230.629,98.433 L233.356,95.706 L230.642,92.992 C230.665,83.408 230.69,74.1 230.69,74.1 C230.69,74.1 230.512,71.698 232.648,71.698 L231.522,68.45 L216.795,71.819 L216.274,75.079 C216.274,75.079 220.101,74.634 220.101,76.681" id="Shape" fill="#FFFFFF" mask="url(#mask-54)"></path>
                        </g>
                        <g id="Clipped">
                            <mask id="mask-56" fill="white">
                                <use xlink:href="#path-55"></use>
                            </mask>
                            <g id="SVGID_3_"></g>
                            <path d="M1.963,188.801 L4.292,192.835 C7.117,184.508 12.936,178.023 12.936,178.023 L11.788,177.293 C10.246,177.768 10.009,175.157 10.009,175.157 L10.009,151.933 L12.866,149.031 L10.009,146.219 L10.009,135.293 L21.043,160.92 L32.314,127.581 L32.314,142.243 L29.798,144.761 L32.314,147.277 L32.314,157.599 C32.314,161.633 30.774,161.617 30.774,161.617 L31.009,163.666 C37.416,160.106 45.009,160.922 45.009,160.922 C45.009,160.922 44.89,159.735 43.823,159.261 C42.755,158.786 42.755,156.532 42.755,156.532 L42.755,144.052 L45.545,141.218 L42.755,138.472 L42.755,116.787 C42.755,114.058 45.009,113.703 45.009,113.703 L44.943,111.119 L31.655,114.2 L21.992,138.462 C21.992,138.462 15.693,123.239 14.873,121.054 C14.695,120.58 15.44,120.145 15.44,120.145 L14.66,118.063 L1.585,121.054 L2.178,123.071 C4.195,123.071 3.72,126.156 3.72,126.156 L3.72,148.598 L0.581,151.738 L3.72,154.878 L3.72,174.92 C3.721,185.359 1.963,188.801 1.963,188.801" id="Shape" fill="#FFFFFF" mask="url(#mask-56)"></path>
                        </g>
                        <g id="Clipped">
                            <mask id="mask-58" fill="white">
                                <use xlink:href="#path-57"></use>
                            </mask>
                            <g id="SVGID_3_"></g>
                            <path d="M54.734,160.229 C53.9,159.682 54.134,157.505 54.134,157.505 L56.73,142.227 L63.686,140.651 L66.839,153.946 C66.839,157.683 64.862,157.95 64.862,157.95 L65.254,160.068 L80.018,156.69 L78.833,154.213 C77.587,154.213 77.676,152.61 77.676,152.61 L73.832,136.087 L76.015,132.145 L72.457,130.175 L68.155,111.678 C68.155,108.92 68.795,108.564 68.795,108.564 L68.795,106.504 L54.134,109.858 L53.798,111.975 C55.667,111.975 55.489,114.466 55.489,114.466 L51.891,135.861 L48.537,138.474 L50.934,141.55 L48.4,156.614 C48.4,157.957 48.109,158.956 47.744,159.69 C48.304,159.707 48.87,159.727 49.421,159.738 C51.197,159.823 52.969,159.998 54.734,160.229 L54.734,160.229 Z M59.79,124.225 L62.7,136.496 L57.505,137.673 L59.79,124.225 L59.79,124.225 Z" id="Shape" fill="#FFFFFF" mask="url(#mask-58)"></path>
                        </g>
                        <g id="Clipped">
                            <mask id="mask-60" fill="white">
                                <use xlink:href="#path-59"></use>
                            </mask>
                            <g id="SVGID_3_"></g>
                            <path d="M168.078,127.147 C168.078,127.057 168.076,126.961 168.076,126.869 C168.082,126.091 168.05,125.595 168.044,125.509 C168.043,125.499 168.038,125.426 168.029,125.318 C167.631,117.635 164.49,104.547 149.121,104.547 C132.452,104.547 133.195,117.675 133.195,117.675 L133.211,117.668 C133.068,120.028 133.621,122.076 134.263,122.934 C135.271,124.569 137.063,125.669 139.124,125.669 C142.286,125.669 144.849,123.106 144.849,119.944 C144.849,116.783 142.286,114.22 139.124,114.22 C137.409,114.22 135.888,114.989 134.839,116.184 C134.942,115.709 135.075,115.228 135.264,114.744 C136.492,111.592 140.009,107.792 149.789,107.58 C156.304,107.443 161.122,110.391 164.081,116.354 C166.33,120.885 166.62,125.543 166.624,125.602 C166.631,125.708 167.331,136.244 160.378,143.736 C156.965,147.412 152.278,149.754 146.422,150.769 L146.422,140.415 C146.481,130.557 146.541,119.103 146.541,113.459 C146.541,112.997 147.49,111.873 147.49,111.873 L146.541,110.345 L140.935,112.206 L140.935,113.385 C143.82,114.193 145.948,116.813 145.948,119.956 C145.948,123.098 143.82,125.718 140.935,126.526 L140.935,127.419 C140.935,127.419 141.914,135.351 134.706,135.351 C127.498,135.351 129.1,120.609 129.1,113.044 C129.1,105.481 133.371,95.432 136.752,95.432 C139.511,95.432 140.579,101.803 140.579,101.803 L142.306,100.913 L142.306,89.062 L139.817,89.632 C139.817,91.119 138.91,92.038 138.91,92.038 C138.91,92.038 135.931,90.819 134.63,90.819 C133.328,90.819 117.235,90.503 117.235,116.605 C117.235,118.104 117.282,119.513 117.363,120.855 L114.756,123.462 L118.028,126.733 C120.877,143.125 130.661,144.215 134.144,143.684 C136.807,143.278 139.03,141.005 140.12,139.686 C140.05,143.57 140.002,147.455 139.951,151.339 C139.741,151.341 139.545,151.361 139.333,151.361 C110.375,151.361 109.345,124.698 109.316,123.563 L109.297,122.851 L104.276,122.985 C110.256,118.099 113.165,113.307 113.156,108.381 C113.15,105.174 112.118,102.64 110.089,100.85 C105.963,97.208 99.234,97.988 98.877,98.038 L81.951,101.909 L80.876,105.468 L81.786,105.513 C82.091,105.528 84.756,105.736 84.756,108.395 L84.763,128.289 L81.819,131.233 L84.765,134.179 L84.77,148.001 C84.764,148.031 84.117,150.989 82.502,150.989 L81.909,150.989 L80.924,156.359 L102.671,151.382 L100.466,146.561 L99.91,146.673 C99.884,146.68 99.244,146.804 98.726,146.381 C98.203,145.954 97.926,145.066 97.926,143.811 L97.926,130.665 L98.703,130.383 C100.061,134.679 108.014,155.768 133.218,155.766 C135.318,155.765 137.548,155.61 139.893,155.294 C139.821,161.192 139.757,167.09 139.686,172.988 C138.881,176.874 137.586,180.637 135.629,183.946 C133.618,187.236 130.811,189.974 127.351,191.47 C123.905,192.991 119.985,193.344 116.146,192.905 C112.298,192.464 108.491,191.285 104.973,189.599 C103.188,188.741 101.589,187.797 100.007,186.614 C98.416,185.439 96.856,184.154 95.291,182.843 C92.154,180.232 88.969,177.546 85.587,175.065 C78.867,170.067 71.193,165.964 62.896,163.873 C58.762,162.814 54.522,162.203 50.273,161.998 C49.208,161.977 48.084,161.914 47.067,161.933 L45.527,161.95 L45.141,161.954 L44.903,161.958 L44.696,161.972 L43.87,162.029 C41.66,162.127 39.489,162.562 37.356,163.079 C28.825,165.36 21.478,170.625 15.893,177.108 C13.072,180.348 10.676,183.942 8.754,187.772 C6.818,191.592 5.312,195.648 4.464,199.869 C3.571,204.074 3.287,208.431 3.782,212.739 C3.858,213.818 4.117,214.88 4.281,215.949 C4.56,217.001 4.781,218.188 5.127,219.112 C5.732,221.162 6.634,223.154 7.639,225.05 C11.69,232.689 18.652,238.529 26.561,241.571 C34.469,244.691 43.319,245.102 51.506,242.895 C55.549,241.837 59.561,240.038 62.987,237.499 C66.441,234.972 69.352,231.728 71.61,228.076 C76.13,220.778 77.746,211.573 75.626,202.986 C74.555,198.638 72.305,194.512 69.079,191.25 C65.867,187.98 61.685,185.585 57.097,184.539 C52.488,183.509 47.617,183.745 43.018,185.657 C38.435,187.612 34.602,191.431 32.676,196.117 C30.733,200.81 30.642,206.189 32.482,211.01 C34.352,216.074 38.864,219.906 43.955,221.349 C45.241,221.684 46.555,221.935 47.887,221.983 C48.553,222.022 49.218,222.029 49.883,221.97 C50.52,221.953 51.258,221.846 51.995,221.711 C52.833,221.578 53.146,221.448 53.692,221.318 L53.878,221.268 L53.97,221.241 C54.389,221.119 54.158,221.18 54.283,221.141 L54.777,220.951 C55.104,220.816 55.438,220.704 55.753,220.542 C57.035,219.94 58.198,219.101 59.206,218.13 C61.206,216.158 62.467,213.54 62.723,210.894 C62.864,209.574 62.711,208.248 62.377,207.032 C62.183,206.426 61.959,205.844 61.636,205.258 C61.361,204.643 60.976,204.297 60.599,203.841 L59.221,204.195 C58.396,208.496 56.362,210.801 54.156,212.278 C53.584,212.616 53.025,212.923 52.428,213.16 C52.285,213.232 52.123,213.262 51.974,213.32 L51.783,213.386 L51.599,213.436 C51.147,213.548 50.485,213.76 50.299,213.745 C50.024,213.784 49.749,213.847 49.357,213.854 C48.998,213.896 48.637,213.89 48.276,213.87 C47.553,213.858 46.841,213.712 46.136,213.548 C43.332,212.771 40.951,210.712 39.864,208.062 C38.664,205.25 38.56,201.834 39.676,198.894 C40.754,195.922 42.969,193.347 45.877,191.903 C48.798,190.494 52.485,189.927 55.927,190.479 C59.406,191.008 62.781,192.6 65.505,195.008 C68.239,197.407 70.316,200.6 71.466,204.16 C72.636,207.783 73.065,211.691 72.64,215.543 C72.215,219.394 71.006,223.18 69.115,226.614 C65.274,233.465 58.644,238.73 50.874,240.676 C47.061,241.738 43.025,242.177 39.054,241.96 C35.076,241.723 31.15,240.81 27.475,239.31 C20.154,236.237 13.966,230.59 10.533,223.554 C9.674,221.796 8.937,219.996 8.448,218.083 C8.113,217.065 8.029,216.209 7.802,215.272 C7.694,214.306 7.489,213.358 7.459,212.382 C7.151,208.507 7.542,204.577 8.492,200.778 C10.372,193.174 14.234,186.048 19.405,180.168 C21.97,177.206 24.926,174.6 28.147,172.439 C31.344,170.238 34.883,168.598 38.556,167.551 C40.406,167.092 42.279,166.693 44.177,166.598 L44.887,166.542 L45.065,166.527 C45.036,166.525 45.167,166.525 45.211,166.523 L45.596,166.515 L47.136,166.484 C48.171,166.457 49.1,166.51 50.089,166.518 C54.044,166.671 57.982,167.202 61.814,168.144 C69.505,170.01 76.642,173.712 83.132,178.438 C86.399,180.784 89.519,183.374 92.727,185.976 C94.341,187.267 95.98,188.561 97.721,189.788 C99.453,191.032 101.428,192.149 103.367,193.021 C107.291,194.796 111.465,195.999 115.791,196.406 C120.095,196.806 124.636,196.331 128.7,194.434 C129.367,194.128 132.185,192.937 133.036,192.33 C134.269,191.698 135.468,190.991 136.587,190.168 C138.836,188.54 140.81,186.527 142.394,184.247 C143.982,181.968 144.809,179.635 145.532,176.964 C146.304,174.116 146.361,171.181 146.404,168.485 C146.44,167.089 146.414,165.773 146.422,164.413 L146.422,160.364 L146.422,153.963 C151.996,152.396 157.935,149.495 161.931,144.135 C167.251,137.997 168.011,130.423 168.071,127.146 L168.078,127.146 L168.078,127.147 Z M97.48,121.054 L97.48,106.728 C97.48,106.728 102.908,104.325 102.908,110.91 C102.908,117.495 97.48,121.054 97.48,121.054 L97.48,121.054 Z" id="Shape" fill="#FFFFFF" mask="url(#mask-60)"></path>
                        </g>
                        <g id="Clipped">
                            <mask id="mask-62" fill="white">
                                <use xlink:href="#path-61"></use>
                            </mask>
                            <g id="SVGID_3_"></g>
                            <path d="M159.164,112.085 C157.613,110.729 155.791,109.848 153.709,109.387 L149.763,132.771 C149.763,136.419 147.628,137.576 147.628,137.576 L147.628,140.568 L157.465,138.318 L156.526,136.508 C155.191,136.508 155.497,133.661 155.497,133.661 L159.164,112.085 L159.164,112.085 Z" id="Shape" fill="#FFFFFF" mask="url(#mask-62)"></path>
                        </g>
                        <g id="Clipped">
                            <mask id="mask-64" fill="white">
                                <use xlink:href="#path-63"></use>
                            </mask>
                            <g id="SVGID_3_"></g>
                            <path d="M180.196,130.369 C178.95,130.369 179.039,128.767 179.039,128.767 L175.168,112.127 L177.223,108.416 L173.874,106.562 L169.518,87.835 C169.518,85.076 170.159,84.72 170.159,84.72 L170.159,82.66 L155.498,86.014 L155.232,88.694 C157.101,88.694 156.972,90.059 156.972,90.059 L154.664,103.739 C156.798,104.244 158.625,105.04 160.192,106.043 L161.154,100.381 L163.042,108.34 C168.107,113.457 169.235,121.08 169.45,125.245 L169.464,125.414 C169.471,125.489 169.507,126.03 169.5,126.88 L169.503,128.57 L169.433,128.57 C169.307,130.423 168.954,133.038 168.048,135.897 L181.383,132.847 L180.196,130.369 L180.196,130.369 Z" id="Shape" fill="#FFFFFF" mask="url(#mask-64)"></path>
                        </g>
                        <g id="Clipped">
                            <mask id="mask-66" fill="white">
                                <use xlink:href="#path-65"></use>
                            </mask>
                            <g id="SVGID_3_"></g>
                            <path d="M238.832,180.857 L234.988,164.334 L237.171,160.391 L233.612,158.422 L229.31,139.925 C229.31,137.166 229.951,136.81 229.951,136.81 L229.951,134.751 L215.291,138.105 L214.955,140.221 C216.823,140.221 216.645,142.713 216.645,142.713 L213.046,164.107 L209.692,166.721 L212.089,169.797 L211.6,172.704 C213.441,174.196 215.197,176.27 216.414,179.134 L217.886,170.474 L224.842,168.898 L227.995,182.192 C227.995,185.93 226.017,186.197 226.017,186.197 L226.41,188.314 L241.174,184.937 L239.987,182.459 C238.743,182.459 238.832,180.857 238.832,180.857 L238.832,180.857 Z M218.661,165.919 L220.945,152.472 L223.856,164.742 L218.661,165.919 L218.661,165.919 Z" id="Shape" fill="#FFFFFF" mask="url(#mask-66)"></path>
                        </g>
                        <g id="Clipped">
                            <mask id="mask-68" fill="white">
                                <use xlink:href="#path-67"></use>
                            </mask>
                            <g id="SVGID_3_"></g>
                            <path d="M197.143,169.714 C197.143,169.714 206.64,165.827 206.64,153.964 C206.64,142.099 192.368,143.137 192.368,143.137 L177.387,146.704 L174.486,147.395 L176.861,149.929 C180.422,149.929 180.183,150.996 180.183,150.996 L180.183,171.5 L176.809,174.875 L180.183,178.249 L180.183,180.776 C185.76,178.878 190.15,180.301 190.15,180.301 L190.15,177.231 C193.14,175.403 194.555,175.189 196.47,174.962 C198.924,174.873 211.545,176.208 212.816,187.449 C213.633,194.675 210.39,200.84 204.513,206.92 C205.804,206.92 209.785,205.756 209.785,205.756 C215.813,199.326 217.324,197.339 217.324,187.758 C217.323,168.986 197.143,169.714 197.143,169.714 M190.029,166.797 L190.029,152.026 C190.029,152.026 198.911,147.52 198.911,154.765 C198.911,162.01 190.029,166.797 190.029,166.797" id="Shape" fill="#FFFFFF" mask="url(#mask-68)"></path>
                        </g>
                        <g id="Clipped">
                            <mask id="mask-70" fill="white">
                                <use xlink:href="#path-69"></use>
                            </mask>
                            <g id="SVGID_3_"></g>
                            <path d="M309.168,138.15 C304.528,138.73 301.457,141.341 301.457,146.412 C301.457,151.48 304.144,152.794 306.599,152.794 C309.053,152.794 310.975,151.142 310.975,148.402 C310.975,145.665 309.979,145.641 309.979,145.641 L309.331,145.868 C309.331,147.8 308.679,149.534 306.645,149.534 C304.611,149.534 303.124,147.859 302.986,146.185 C302.886,144.981 303.217,139.666 309.146,139.666 C315.074,139.666 320.77,143.212 320.77,157.455 C320.77,171.698 300.995,175.833 286.051,175.228 C285.493,175.207 284.937,175.191 284.38,175.179 L284.38,153.068 L287.274,150.24 L284.38,147.414 L284.38,126.873 C284.38,125.017 286.643,124.564 286.643,124.564 L286.643,122.271 L270.207,126.096 L271.459,128.601 C273.995,126.122 274.855,130.811 274.855,130.811 L274.855,149.716 L271.306,153.185 L274.855,156.654 L274.855,172.788 C274.855,174.268 274.054,175.089 273.223,175.546 C263.58,176.324 256.117,178.006 256.117,178.006 L256.117,159.784 L259.208,156.764 L256.117,153.743 L256.117,133.24 C256.117,131.384 258.379,130.931 258.379,130.931 L258.379,128.638 L241.944,132.463 L243.196,134.967 C245.732,132.489 246.592,137.178 246.592,137.178 L246.592,156.581 L243.519,159.586 L246.592,162.59 L246.592,179.152 C246.592,182.23 243.134,182.472 243.134,182.472 L244.925,185.067 C244.925,185.067 266.792,177.099 284.294,178.006 C305.254,179.092 326.464,174.475 326.464,156.852 C326.464,139.229 311.159,137.901 309.168,138.15" id="Shape" fill="#FFFFFF" mask="url(#mask-70)"></path>
                        </g>
                        <g id="Clipped">
                            <mask id="mask-72" fill="white">
                                <use xlink:href="#path-71"></use>
                            </mask>
                            <g id="SVGID_3_"></g>
                            <path d="M275.289,80.719 C276.712,80.294 278.053,80.212 279.242,80.271 C279.956,80.328 280.613,80.449 281.237,80.602 L282.622,72.451 L284.939,82.223 C285.033,82.294 285.116,82.363 285.214,82.442 C286.004,82.943 286.296,83.311 286.663,83.72 C287.321,84.502 287.713,85.211 287.995,85.837 C288.561,87.052 288.632,88.027 288.585,87.933 L286.569,89.097 L289.67,102.171 C289.67,105.909 287.693,106.176 287.693,106.176 L288.085,108.294 L302.849,104.916 L301.663,102.438 C300.418,102.438 300.507,100.837 300.507,100.837 L296.627,84.159 L298.931,79.999 L295.176,77.92 L290.986,59.904 C290.986,57.145 291.627,56.79 291.627,56.79 L291.627,54.73 L276.966,58.084 L276.63,60.201 C278.499,60.201 278.321,62.692 278.321,62.692 L275.289,80.719 L275.289,80.719 Z" id="Shape" fill="#FFFFFF" mask="url(#mask-72)"></path>
                        </g>
                        <g id="Clipped">
                            <mask id="mask-74" fill="white">
                                <use xlink:href="#path-73"></use>
                            </mask>
                            <g id="SVGID_3_"></g>
                            <path d="M265.743,33.251 C264.141,30.578 261.759,28.664 259.293,27.584 C258.064,27.077 256.762,26.702 255.574,26.581 C254.304,26.462 253.133,26.556 252.052,26.843 C249.882,27.397 248.26,28.607 247.165,29.772 C246.064,30.953 245.482,32.122 245.178,32.931 C244.858,33.74 244.748,34.197 244.748,34.197 L246.009,34.474 C246.009,34.474 246.073,34.071 246.296,33.336 C246.517,32.605 246.979,31.546 247.906,30.429 C248.832,29.323 250.3,28.205 252.265,27.64 C253.234,27.354 254.357,27.222 255.465,27.346 C256.653,27.477 257.784,27.821 258.975,28.311 C260.131,28.839 261.269,29.535 262.31,30.429 C263.333,31.342 264.228,32.459 264.948,33.717 C266.402,36.225 267.016,39.394 266.401,42.484 C265.829,45.588 264.269,48.612 262.024,51.016 C260.886,52.215 259.553,53.226 258.137,54.106 C256.68,54.924 255.14,55.607 253.526,56.073 C251.907,56.501 250.253,56.845 248.577,56.897 C247.735,56.988 246.931,56.904 246.114,56.921 C245.284,56.822 244.318,56.817 243.606,56.641 C240.356,56.127 237.279,54.912 234.666,53.223 C232.055,51.53 229.879,49.378 228.388,46.986 C226.887,44.591 226.096,42.024 225.669,39.621 C225.411,37.183 225.433,34.922 225.779,32.94 C225.985,31.958 226.077,31.007 226.334,30.19 C226.583,29.372 226.812,28.621 227.019,27.943 C227.433,26.586 228.038,25.444 228.316,24.702 C228.539,24.18 228.683,23.84 228.755,23.672 L224.205,25.632 C224.083,25.983 223.962,26.362 223.845,26.789 C223.636,27.582 223.404,28.459 223.152,29.415 C222.901,30.369 222.833,31.421 222.653,32.531 C222.36,34.76 222.424,37.338 222.844,40.096 C223.43,42.833 224.484,45.715 226.246,48.388 C228.013,51.053 230.515,53.388 233.442,55.174 C236.377,56.956 239.763,58.183 243.323,58.647 C244.299,58.827 245.076,58.789 245.966,58.871 C246.878,58.839 247.817,58.896 248.708,58.776 C250.515,58.668 252.297,58.251 254.034,57.739 C255.766,57.186 257.417,56.402 258.969,55.47 C260.483,54.475 261.897,53.337 263.095,52.003 C265.465,49.318 267.038,46.037 267.565,42.679 C268.139,39.308 267.373,35.887 265.743,33.251" id="Shape" fill="#FFFFFF" mask="url(#mask-74)"></path>
                        </g>
                        <g id="Clipped">
                            <mask id="mask-76" fill="white">
                                <use xlink:href="#path-75"></use>
                            </mask>
                            <g id="SVGID_3_"></g>
                            <path d="M246.966,32.583 C248.095,32.715 248.903,33.736 248.772,34.865 C248.64,35.994 247.619,36.802 246.491,36.67 C245.361,36.539 244.553,35.517 244.684,34.389 C244.815,33.26 245.837,32.451 246.966,32.583" id="Shape" fill="#FFFFFF" mask="url(#mask-76)"></path>
                        </g>
                        <g id="Clipped">
                            <mask id="mask-78" fill="white">
                                <use xlink:href="#path-77"></use>
                            </mask>
                            <g id="SVGID_3_"></g>
                            <path d="M271.107,36.382 C271.552,36.434 271.871,36.837 271.819,37.282 C271.767,37.728 271.364,38.046 270.919,37.995 C270.475,37.943 270.155,37.54 270.207,37.094 C270.26,36.649 270.662,36.33 271.107,36.382" id="Shape" fill="#FFFFFF" mask="url(#mask-78)"></path>
                        </g>
                        <g id="Clipped">
                            <mask id="mask-80" fill="white">
                                <use xlink:href="#path-79"></use>
                            </mask>
                            <g id="SVGID_3_"></g>
                            <path d="M256.944,42.835 C257.784,42.933 258.384,43.693 258.287,44.532 C258.189,45.372 257.429,45.973 256.59,45.875 C255.75,45.778 255.15,45.018 255.247,44.178 C255.344,43.338 256.104,42.737 256.944,42.835" id="Shape" fill="#FFFFFF" mask="url(#mask-80)"></path>
                        </g>
                        <g id="Clipped">
                            <mask id="mask-82" fill="white">
                                <use xlink:href="#path-81"></use>
                            </mask>
                            <g id="SVGID_3_"></g>
                            <path d="M226.175,26.342 C226.175,26.342 225.76,27.613 225.033,29.838 C224.697,30.945 224.591,32.206 224.28,33.703 C224.226,34.463 224.233,35.285 224.199,36.147 C224.115,37.016 224.258,37.909 224.388,38.845 C224.448,39.314 224.509,39.792 224.572,40.28 C224.689,40.755 224.85,41.23 224.99,41.72 C225.135,42.209 225.28,42.706 225.429,43.211 C225.627,43.697 225.878,44.171 226.106,44.664 C226.348,45.15 226.555,45.664 226.831,46.148 C227.144,46.612 227.46,47.082 227.78,47.556 C228.359,48.554 229.216,49.376 230,50.28 C230.781,51.192 231.805,51.894 232.713,52.736 C233.745,53.424 234.759,54.187 235.874,54.797 C237.017,55.36 238.117,56.042 239.352,56.45 L241.165,57.154 L243.049,57.671 C245.559,58.391 248.175,58.629 250.742,58.733 C252.013,58.66 253.328,58.659 254.534,58.499 C255.843,58.332 257.006,58.04 258.151,57.678 C260.462,56.919 262.55,55.736 264.274,54.305 C266.007,52.881 267.39,51.237 268.45,49.584 C269.54,47.939 270.166,46.226 270.679,44.712 C271.107,43.167 271.338,41.781 271.425,40.63 C271.45,40.053 271.475,39.538 271.495,39.089 C271.473,38.641 271.453,38.26 271.438,37.95 C271.404,37.331 271.386,37.001 271.386,37.001 L271.805,36.95 C271.805,36.95 271.832,37.287 271.887,37.918 C271.91,38.234 271.942,38.624 271.978,39.082 C271.97,39.542 271.96,40.071 271.951,40.663 C271.897,41.847 271.701,43.279 271.304,44.889 C270.823,46.467 270.223,48.262 269.139,50.006 C268.085,51.757 266.693,53.517 264.914,55.066 C263.146,56.621 260.979,57.936 258.548,58.813 C257.318,59.244 256.008,59.598 254.758,59.792 C253.414,60.01 252.106,60.043 250.754,60.158 C248.066,60.13 245.314,59.956 242.651,59.277 L240.652,58.788 L238.714,58.101 C237.398,57.703 236.202,57.02 234.97,56.452 C233.762,55.834 232.65,55.053 231.522,54.339 C230.509,53.466 229.389,52.73 228.503,51.764 C227.613,50.805 226.66,49.925 225.981,48.846 C225.613,48.33 225.249,47.819 224.889,47.314 C224.567,46.786 224.314,46.223 224.029,45.689 C223.76,45.146 223.468,44.621 223.231,44.083 C223.044,43.522 222.863,42.97 222.684,42.428 C222.511,41.883 222.319,41.351 222.174,40.82 C222.084,40.275 221.998,39.741 221.913,39.218 C221.735,38.169 221.558,37.163 221.614,36.197 C221.619,35.232 221.592,34.315 221.632,33.453 C221.906,31.747 222.061,30.157 222.374,29.019 C223.036,26.774 223.414,25.491 223.414,25.491 L226.175,26.342 L226.175,26.342 Z" id="Shape" fill="#FFFFFF" mask="url(#mask-82)"></path>
                        </g>
                        <g id="Clipped">
                            <mask id="mask-84" fill="white">
                                <use xlink:href="#path-83"></use>
                            </mask>
                            <g id="SVGID_3_"></g>
                            <path d="M259.689,53.074 C259.689,53.074 259.823,52.975 260.074,52.79 C260.291,52.611 260.628,52.348 261.006,51.945 C261.759,51.163 262.718,49.844 263.152,47.994 C263.38,47.092 263.452,46.024 263.266,44.997 C263.09,43.944 262.587,42.893 261.85,41.987 C261.093,41.096 260.075,40.366 258.9,39.981 C257.725,39.582 256.423,39.508 255.263,39.94 C254.097,40.356 253.1,41.23 252.53,42.316 C251.968,43.4 251.775,44.698 252.165,45.78 C252.54,46.875 253.412,47.736 254.412,48.103 C255.418,48.495 256.496,48.413 257.263,47.89 C258.043,47.391 258.474,46.574 258.566,45.834 C258.681,45.089 258.393,44.455 258.045,44.062 C257.691,43.66 257.288,43.484 257.021,43.403 C256.745,43.325 256.591,43.319 256.591,43.319 L256.624,42.919 C256.624,42.919 256.806,42.922 257.134,43.009 C257.454,43.1 257.937,43.301 258.366,43.774 C258.791,44.228 259.152,45.009 259.029,45.892 C258.937,46.751 258.451,47.716 257.546,48.317 C256.653,48.95 255.35,49.064 254.217,48.632 C253.062,48.229 252.035,47.258 251.577,45.989 C251.101,44.709 251.305,43.238 251.92,42.001 C252.548,40.754 253.667,39.736 255.003,39.234 C256.346,38.711 257.854,38.778 259.154,39.202 C260.484,39.613 261.649,40.418 262.523,41.414 C263.377,42.425 263.968,43.615 264.193,44.817 C264.43,46.04 264.356,47.178 264.125,48.215 C263.674,50.288 262.622,51.789 261.791,52.682 C261.378,53.136 260.997,53.448 260.734,53.668 C260.486,53.857 260.354,53.958 260.354,53.958 L259.689,53.074 L259.689,53.074 Z" id="Shape" fill="#FFFFFF" mask="url(#mask-84)"></path>
                        </g>
                        <g id="Clipped">
                            <mask id="mask-86" fill="white">
                                <use xlink:href="#path-85"></use>
                            </mask>
                            <g id="SVGID_3_"></g>
                            <path d="M125.998,85.087 C125.998,85.087 126.514,84.728 127.482,84.054 C128.455,83.389 129.856,82.373 131.688,81.153 C133.524,79.936 135.752,78.459 138.309,76.764 C140.88,75.094 143.754,73.165 146.944,71.152 C153.293,67.072 160.766,62.422 168.787,57.462 C176.835,52.546 185.423,47.311 194.077,42.186 C202.704,37.015 211.405,31.97 219.551,27.219 C223.647,24.877 227.605,22.613 231.359,20.466 C232.305,19.936 233.238,19.413 234.157,18.898 C235.12,18.362 236.146,17.819 237.096,17.492 C239.079,16.74 241.003,16.206 242.875,15.744 C246.618,14.853 250.107,14.367 253.22,14.182 C256.334,14.012 259.068,14.2 261.283,14.567 C263.502,14.929 265.195,15.514 266.27,16.071 C266.809,16.342 267.208,16.577 267.463,16.758 C267.72,16.933 267.854,17.023 267.854,17.023 L267.655,17.328 C267.655,17.328 267.126,16.999 266.04,16.609 C264.955,16.225 263.303,15.816 261.15,15.656 C258.999,15.479 256.363,15.592 253.373,15.947 C250.381,16.287 247.026,16.943 243.481,17.994 C241.715,18.524 239.885,19.169 238.093,19.929 C237.13,20.3 236.341,20.753 235.476,21.246 C234.571,21.77 233.653,22.302 232.722,22.842 C229.001,25.033 225.078,27.345 221.021,29.736 C212.9,34.517 204.237,39.618 195.575,44.718 C186.899,49.797 178.223,54.876 170.089,59.637 C161.936,64.366 154.327,68.781 147.805,72.564 C141.271,76.33 135.828,79.469 132.043,81.708 C128.251,83.943 126.084,85.22 126.084,85.22 L125.998,85.087 L125.998,85.087 Z" id="Shape" fill="#FFFFFF" mask="url(#mask-86)"></path>
                        </g>
                        <g id="Clipped">
                            <mask id="mask-88" fill="white">
                                <use xlink:href="#path-87"></use>
                            </mask>
                            <g id="SVGID_3_"></g>
                            <path d="M112.867,49.374 C113.081,49.295 113.036,49.114 113.109,48.98 C113.15,48.841 113.214,48.687 113.291,48.524 C113.429,48.196 113.595,47.9 113.77,47.616 C114.132,47.05 114.558,46.511 115.073,46.065 C116.081,45.147 117.363,44.515 118.734,44.243 C121.525,43.666 124.451,44.799 126.466,46.799 C128.52,48.788 129.561,51.842 129.092,54.749 C128.583,57.587 126.977,60.155 124.659,61.78 C122.367,63.432 119.419,64.102 116.691,63.617 C115.352,63.413 113.971,62.846 112.922,62.276 C111.67,61.597 110.675,60.773 109.734,59.836 C108.826,58.878 108.077,57.793 107.465,56.647 C106.878,55.484 106.47,54.251 106.192,52.996 C105.684,50.472 105.866,47.848 106.686,45.446 C107.499,43.11 108.814,40.832 110.535,39.029 C112.255,37.199 114.367,35.743 116.689,34.783 C119.008,33.816 121.543,33.344 124.072,33.455 C126.61,33.562 129.095,34.26 131.36,35.368 C133.635,36.468 135.702,38.017 137.424,39.891 L137.743,40.246 C137.91,40.441 137.95,40.506 138.06,40.643 L138.62,41.366 C138.979,41.935 139.367,42.515 139.625,43.1 C140.217,44.262 140.613,45.501 140.901,46.749 C141.474,49.255 141.542,51.815 141.316,54.321 C141.111,56.831 140.474,59.297 139.377,61.547 L139.352,61.603 L138.282,60.788 C141.932,58.658 145.359,56.197 148.818,53.784 L159.186,46.531 L179.856,31.933 L190.221,24.679 L195.45,21.121 L198.065,19.342 L199.372,18.453 L200.026,18.008 L200.588,17.58 L201.843,16.615 L202.834,15.642 C203.183,15.344 203.468,14.949 203.772,14.581 C204.076,14.212 204.39,13.848 204.616,13.433 C205.704,11.881 206.406,10.105 206.656,8.295 C206.869,6.486 206.554,4.631 205.506,3.119 C204.474,1.599 202.649,0.544 200.526,0.155 C202.609,-0.294 205.113,0.213 206.855,1.917 C208.628,3.57 209.47,6.106 209.376,8.484 C209.34,10.897 208.416,13.171 207.173,15.112 C206.881,15.621 206.508,16.06 206.142,16.504 C205.773,16.947 205.431,17.405 204.981,17.803 L203.695,19.023 L202.437,19.983 C202.196,20.162 202.089,20.258 201.737,20.506 L201.081,20.948 L199.77,21.832 L197.147,23.6 L191.901,27.136 L181.314,34.069 L160.081,47.845 L149.497,54.781 C145.972,57.097 142.414,59.365 139.081,61.964 L137.632,63.093 L138.011,61.148 L138.022,61.091 C138.43,58.727 138.919,56.437 139.164,54.107 C139.418,51.785 139.391,49.43 138.918,47.185 C138.681,46.066 138.352,44.967 137.856,43.956 C137.635,43.421 137.337,42.994 137.081,42.516 L136.552,41.779 L136.314,41.455 L136.036,41.122 C134.534,39.364 132.7,37.878 130.64,36.788 C128.585,35.685 126.311,34.985 123.999,34.815 C121.687,34.658 119.301,34.961 117.138,35.877 C114.97,36.765 112.992,38.116 111.379,39.818 C109.743,41.53 108.549,43.55 107.844,45.823 C107.123,48.037 107.119,50.431 107.683,52.646 C108.006,53.746 108.459,54.796 109.042,55.765 C109.654,56.716 110.366,57.591 111.193,58.338 C112.028,59.053 112.987,59.704 113.908,60.121 C115.034,60.62 115.96,60.9 117.038,61 C119.128,61.194 121.228,60.541 122.836,59.297 C124.434,58.047 125.579,56.197 125.89,54.249 C126.226,52.341 125.605,50.32 124.354,48.753 C123.725,47.962 122.898,47.327 121.995,46.887 C121.019,46.395 120.071,46.176 119.017,46.243 C117.985,46.293 116.951,46.675 116.091,47.303 C115.648,47.607 115.271,47.996 114.93,48.417 C114.762,48.634 114.607,48.853 114.484,49.074 C114.415,49.178 114.347,49.297 114.286,49.445 C114.249,49.593 114.092,49.695 114.194,49.898 L112.867,49.374 L112.867,49.374 Z" id="Shape" fill="#FFFFFF" mask="url(#mask-88)"></path>
                        </g>
                        <g id="Clipped">
                            <mask id="mask-90" fill="white">
                                <use xlink:href="#path-89"></use>
                            </mask>
                            <g id="SVGID_3_"></g>
                            <path d="M277.867,226.563 C279.705,227.913 281.26,227.335 281.944,226.654 C282.05,226.576 282.208,226.478 282.275,226.415 C282.306,226.365 282.337,226.316 282.374,226.281 C282.447,226.196 282.591,226.052 282.678,225.929 C282.891,225.687 283.04,225.404 283.191,225.129 C283.469,224.568 283.64,223.945 283.608,223.321 C283.603,223.008 283.519,222.705 283.429,222.404 L283.341,222.182 L283.331,222.155 L283.326,222.139 C283.35,222.19 283.262,222.009 283.381,222.246 L283.331,222.151 L283.23,221.959 C283.096,221.7 282.949,221.414 282.879,221.35 C282.548,220.833 281.928,220.165 281.295,219.761 C280.001,218.879 278.321,218.49 276.748,218.847 L276.164,219.005 L275.879,219.113 L275.735,219.165 L275.663,219.19 C275.708,219.167 275.538,219.251 275.758,219.139 L275.735,219.152 L275.686,219.176 C275.182,219.428 274.587,219.718 274.332,219.906 C273.644,220.301 272.857,220.947 272.27,221.627 C271.642,222.308 271.123,223.099 270.735,223.954 C270.333,224.803 270.036,225.715 269.905,226.66 C269.753,227.599 269.733,228.573 269.884,229.527 C270.005,230.482 270.292,231.446 270.709,232.313 C271.235,233.442 271.661,234.167 272.292,235.023 C272.602,235.441 272.911,235.864 273.283,236.232 C273.628,236.626 273.994,237.003 274.4,237.336 C275.967,238.735 277.848,239.815 279.887,240.476 C281.925,241.153 284.131,241.322 286.28,241.053 C287.353,240.907 288.418,240.669 289.45,240.314 C289.941,240.106 290.503,239.932 290.934,239.691 L292.468,238.891 C294.344,237.766 296.141,236.443 297.66,234.797 C299.143,233.139 300.43,231.3 301.4,229.292 C302.339,227.272 303.004,225.132 303.377,222.935 C303.689,220.729 303.69,218.49 303.403,216.283 C303.068,214.079 302.388,211.947 301.487,209.911 L301.466,209.867 L301.438,209.777 C300.818,207.908 299.658,206.016 298.346,204.388 C297.638,203.601 296.98,202.766 296.172,202.072 C295.779,201.715 295.405,201.338 294.999,200.995 L293.735,200.022 C292.039,198.737 290.179,197.668 288.248,196.751 C287.314,196.229 286.271,195.931 285.284,195.519 C284.298,195.097 283.263,194.802 282.224,194.523 C280.178,193.859 278.039,193.531 275.925,193.122 C274.863,192.948 273.779,192.886 272.706,192.761 C271.63,192.669 270.564,192.494 269.477,192.506 L266.232,192.423 C265.717,192.414 265.089,192.386 264.67,192.392 L263.029,192.501 C260.841,192.649 258.617,192.717 256.574,193.195 L253.449,193.759 L250.362,194.658 C248.274,195.162 246.329,196.096 244.33,196.86 C243.323,197.225 242.406,197.801 241.439,198.261 C240.498,198.774 239.499,199.176 238.606,199.777 C236.778,200.903 234.933,201.997 233.231,203.312 C231.456,204.52 229.852,205.959 228.195,207.322 C226.622,208.787 225.038,210.238 223.579,211.818 C222.095,213.37 220.687,214.997 219.356,216.676 C218.033,218.339 216.724,220.113 215.661,221.84 L215.603,221.934 L215.528,222.029 L211.597,226.987 L209.632,229.466 L209.141,230.086 L208.896,230.397 L208.834,230.473 L208.667,230.666 L208.531,230.81 L207.447,231.961 C204.477,235.087 201.19,238.001 197.643,240.517 C190.559,245.588 182.091,248.97 173.291,249.825 L171.644,249.985 L169.99,250.04 L168.336,250.088 L166.684,250.032 L165.858,250.003 L165.445,249.989 L165.238,249.98 L165.135,249.975 L165.083,249.973 L164.922,249.959 L163.352,249.767 C162.3,249.631 161.288,249.557 160.129,249.258 C157.834,248.821 155.715,248.115 153.62,247.331 L150.553,245.953 L147.634,244.283 C143.843,241.889 140.482,238.826 137.748,235.276 C135.021,231.719 132.943,227.672 131.62,223.392 C130.308,219.111 129.77,214.583 130.101,210.132 L130.116,209.714 L130.124,209.505 L130.139,209.295 L130.153,209.197 L130.266,208.414 L130.498,206.841 C130.794,205.698 130.998,204.475 131.425,203.432 C132.112,201.244 133.236,199.226 134.472,197.325 C135.767,195.449 137.31,193.764 139.022,192.281 C140.785,190.867 142.654,189.559 144.732,188.668 C146.782,187.739 148.944,187.042 151.164,186.722 C153.394,186.323 155.581,186.338 157.888,186.548 C162.365,187.048 166.669,189.519 169.338,193.135 C172.053,196.73 173.207,201.451 172.359,205.825 C171.403,210.383 167.471,213.933 162.961,214.454 C161.856,214.555 160.696,214.582 159.591,214.323 C158.435,214.055 157.389,213.525 156.507,212.765 C154.724,211.284 153.706,208.925 153.863,206.591 L155.283,206.695 C155.128,208.574 155.888,210.534 157.363,211.757 C158.077,212.379 158.97,212.82 159.868,213.027 C160.82,213.248 161.801,213.231 162.786,213.12 C164.732,212.825 166.588,211.95 167.997,210.584 C169.439,209.267 170.372,207.39 170.713,205.558 C171.332,201.613 170.135,197.483 167.656,194.442 C165.181,191.367 161.503,189.413 157.562,189.172 C153.687,188.95 149.601,189.749 146.144,191.578 C144.372,192.434 142.811,193.652 141.331,194.915 C139.907,196.253 138.64,197.746 137.597,199.384 C136.612,201.05 135.715,202.785 135.214,204.655 C134.87,205.583 134.794,206.468 134.565,207.366 L134.394,208.928 L134.312,209.715 L134.307,210.361 C134.082,214.332 134.676,218.313 135.877,222.072 C138.26,229.606 143.352,236.242 150.024,240.489 C153.312,242.631 157.169,244.109 160.881,244.889 C161.761,245.151 162.859,245.243 163.897,245.381 L165.466,245.579 L166.864,245.638 L168.372,245.71 L169.88,245.683 L171.388,245.655 L172.89,245.526 C180.915,244.859 188.666,241.854 195.388,237.259 C198.77,234.962 201.881,232.323 204.784,229.398 L205.892,228.27 L206.03,228.128 C206.134,228.011 205.927,228.247 205.96,228.209 L205.992,228.17 L206.054,228.094 L206.306,227.79 L206.811,227.18 L208.828,224.743 L212.86,219.869 L212.728,220.057 C214.007,218.076 215.356,216.345 216.795,214.603 C218.226,212.874 219.728,211.21 221.309,209.624 C222.863,208.011 224.545,206.53 226.216,205.041 C227.976,203.653 229.674,202.191 231.554,200.962 C233.359,199.629 235.311,198.518 237.244,197.383 C238.189,196.779 239.246,196.369 240.241,195.855 C241.262,195.392 242.232,194.817 243.296,194.45 C245.408,193.685 247.461,192.759 249.661,192.267 L252.912,191.395 L256.274,190.854 C258.534,190.398 260.708,190.382 262.901,190.276 L264.545,190.2 C265.22,190.198 265.69,190.243 266.272,190.262 L269.604,190.413 C270.714,190.425 271.819,190.625 272.924,190.743 C274.028,190.892 275.139,190.98 276.236,191.181 C278.421,191.642 280.627,191.995 282.757,192.711 C283.834,193.015 284.906,193.334 285.938,193.786 C286.969,194.227 288.048,194.551 289.032,195.111 C291.052,196.093 293.003,197.243 294.79,198.625 L296.121,199.674 C296.549,200.043 296.946,200.449 297.36,200.835 C298.208,201.585 298.912,202.486 299.657,203.338 C301.052,205.15 302.257,207.038 303.022,209.342 L302.972,209.209 C303.941,211.391 304.663,213.681 305.019,216.047 C305.326,218.416 305.32,220.818 304.981,223.183 C304.582,225.538 303.866,227.83 302.854,229.993 C301.812,232.142 300.432,234.114 298.838,235.887 C297.251,237.665 295.339,239.155 293.283,240.426 L291.764,241.255 C291.193,241.583 290.643,241.751 290.08,242.01 C288.952,242.465 287.773,242.793 286.57,243.018 C284.159,243.463 281.656,243.337 279.252,242.775 C276.846,242.21 274.541,241.136 272.534,239.626 C272.018,239.263 271.543,238.851 271.087,238.414 C270.607,238.002 270.189,237.528 269.771,237.052 C268.938,236.128 268.118,234.894 267.603,233.968 C266.926,232.805 266.435,231.57 266.137,230.256 C265.815,228.954 265.712,227.592 265.804,226.242 C265.878,224.889 266.165,223.541 266.661,222.268 C267.135,220.987 267.808,219.769 268.66,218.682 C269.516,217.567 270.45,216.632 271.693,215.766 C272.369,215.269 272.819,215.064 273.328,214.766 L273.375,214.74 L273.544,214.656 L273.672,214.598 L273.928,214.487 L274.445,214.266 C274.794,214.134 275.156,214.032 275.513,213.918 C278.42,213.12 281.664,213.609 284.223,215.257 C285.523,216.111 286.57,217.105 287.499,218.516 C287.772,218.918 287.884,219.149 288.02,219.399 L288.124,219.588 L288.175,219.684 L288.268,219.876 L288.298,219.948 L288.539,220.527 C288.817,221.315 289.02,222.141 289.064,222.984 C289.172,224.662 288.799,226.375 287.941,227.821 C287.503,228.535 286.978,229.202 286.338,229.741 C286.013,230.02 285.705,230.243 285.314,230.495 C285.112,230.62 284.902,230.732 284.695,230.842 C284.516,230.928 284.412,230.957 284.267,231.017 C282.611,231.76 280.642,231.686 279.168,230.887 C277.694,230.121 276.65,228.623 276.605,227.231 L277.867,226.563 L277.867,226.563 Z" id="Shape" fill="#FFFFFF" mask="url(#mask-90)"></path>
                        </g>
                    </g>
                </g>
            </g>
        </g>
    </g>
</svg>