<?xml version="1.0" encoding="utf-8"?>
<!-- Generator: Adobe Illustrator 19.1.0, SVG Export Plug-In . SVG Version: 6.00 Build 0)  -->
<!DOCTYPE svg PUBLIC "-//W3C//DTD SVG 1.1//EN" "http://www.w3.org/Graphics/SVG/1.1/DTD/svg11.dtd">
<svg version="1.1" id="Layer_1" xmlns="http://www.w3.org/2000/svg" xmlns:xlink="http://www.w3.org/1999/xlink" x="0px" y="0px"
	 viewBox="0 0 489 366" enable-background="new 0 0 489 366" xml:space="preserve">
<metadata><?xpacket begin="﻿" id="W5M0MpCehiHzreSzNTczkc9d"?>
<x:xmpmeta xmlns:x="adobe:ns:meta/" x:xmptk="Adobe XMP Core 5.6-c067 79.157747, 2015/03/30-23:40:42        ">
   <rdf:RDF xmlns:rdf="http://www.w3.org/1999/02/22-rdf-syntax-ns#">
      <rdf:Description rdf:about=""/>
   </rdf:RDF>
</x:xmpmeta>
                                                                                                    
                                                                                                    
                                                                                                    
                                                                                                    
                                                                                                    
                                                                                                    
                                                                                                    
                                                                                                    
                                                                                                    
                                                                                                    
                                                                                                    
                                                                                                    
                                                                                                    
                                                                                                    
                                                                                                    
                                                                                                    
                                                                                                    
                                                                                                    
                                                                                                    
                                                                                                    
                           
<?xpacket end="w"?></metadata>
<g id="XMLID_447_">
	<path fill="#FFFFFF" d="M348.7,257.4c-7.8,1.6-44.3,18.9-44.3,18.9c-8.6,3.1-15.9,4.3-21.9,4.5c-24.4,0.7-21.3-24.2-12.3-26.5
		c6.2-1.6,8.5,4.7,8.5,4.7c2.7-2.2,0.5-13.8-9.8-13.3c-15,0.8-13.9,15.2-13.9,15.2c0.9,28.2,28.2,24,28.2,24
		c7.6-0.9,13.5-1.7,25.9-7.2C319.4,273.2,348.7,257.4,348.7,257.4z"/>
</g>
<path id="XMLID_446_" fill="#FFFFFF" d="M46.2,147c-0.6,1.1-1.8,3.7-2.4,4.9c-0.2,0.4-0.5,0.7-1,0.8l-7.5,2c0,0,2.8-6.5,5.4-13
	l3.1-1.2l-1.3-3.4c1.1-2.9,2-5.4,2.4-6.9c1.3-5.5-1.9-14.3-9.5-12.8c-4.4,0.9-5.9,6.5-5.9,6.5l-0.1-3.7l-2,0.5l1.2,11.6l1.7-1
	c-0.1-4.5,2.6-6.8,5.2-6.9c3.9-0.1,4.1,3.1,4,5.7c0,0.9-1.1,4.1-2.5,8l-3.2,1.3l1.4,3.7c-2.5,6.7-5.2,13.4-5.6,14.1
	c-0.8,1.2-0.3,2.7-0.3,2.7l16-4.2L48,147C48,147,46.5,146.5,46.2,147z"/>
<g id="XMLID_438_">
	<path fill="#FFFFFF" d="M74.3,107.9l4.2-0.8l0.2,6.9c0,0,1.2-1.7,2.7-1.7c1.5,0,3.3,0.7,3.4,5s0.2,5.3,0.2,5.3s0.2,0.9,0.7,0.9
		l0.6,1l-3.6,1.6l-0.1-1.4c0,0,0.5-0.6,0.5-1.2c0-0.6-0.2-7.4-0.2-7.4s-0.2-1.5-1.4-1.3c-0.9,0.1-2.6,0.1-2.5,5.2s0.1,4.8,0.1,4.8
		s0.2,1.1,0.9,1l0.5,1l-4.3,2l0.1-1.6c0,0,0.9-0.4,0.9-1.2c0-0.9-0.5-16.3-0.5-16.3s-0.8-0.9-1.5-0.3L74.3,107.9z"/>
</g>
<path id="XMLID_437_" fill="#FFFFFF" d="M71.5,108.7l-2.1,0.6l0.6,18.7c0,0,0.3,2.5,1.9,2.5s3.2-2.4,3.2-2.4l-0.1-2.1
	c0,0-1.5,1.7-2.1,1.9c-0.3,0.1-0.7-0.1-0.7-1C72.2,126.1,71.5,108.7,71.5,108.7z"/>
<polygon id="XMLID_436_" fill="#FFFFFF" points="68,118.6 68,120.7 73.9,118 73.9,115.9 "/>
<g id="XMLID_431_">
	<path fill="#FFFFFF" d="M201.8,323.9c-0.2-0.1-0.4-0.1-0.7-0.2c-6.6-1.5-15.7-2.8-24.7-1.9c-2.3,0.2-4.5,0.6-6.7,1.1
		c-2.2,0.6-4.3,1.2-6.2,2c-1,0.4-1.9,0.8-2.8,1.3c-0.5,0.2-0.9,0.5-1.3,0.7c-0.4,0.3-0.8,0.5-1.2,0.8c-0.8,0.5-1.6,1-2.3,1.6
		c-0.7,0.5-1.4,1.1-2,1.7c-1.3,1.1-2.3,2.3-3.2,3.2c-0.9,1.1-1.6,2-2.1,2.8c-1,1.6-1.6,2.6-1.6,2.6s0.7-0.9,1.8-2.4
		c0.6-0.7,1.4-1.6,2.3-2.6c1-0.9,2-2,3.4-3c0.6-0.5,1.3-1,2.1-1.5c0.7-0.5,1.5-1,2.3-1.4c0.4-0.2,0.8-0.4,1.3-0.7
		c0.4-0.2,0.9-0.4,1.3-0.6c0.9-0.4,1.8-0.7,2.8-1.1c1.9-0.7,4-1.1,6.1-1.5c2.1-0.3,4.3-0.6,6.4-0.6c8.7-0.3,17.3,1.6,23.5,3.5
		c3.1,0.9,5.7,1.9,7.4,2.6c0.3,0.1,0.5,0.2,0.8,0.3c0.3,0,0.5,0,0.8,0.1C206.4,328.7,203.9,326.4,201.8,323.9z"/>
</g>
<g id="XMLID_426_">
	<path fill="#FFFFFF" d="M219.2,336.8c-1.6-0.9-3.1-2-4.5-3c-0.1,0-0.2-0.1-0.4-0.2c-0.3-0.1-0.7-0.3-1.2-0.5
		c-5.9-0.3-12.6-0.1-19.1,1c-2.6,0.4-5.2,1.1-7.6,1.8c-2.5,0.8-4.9,1.7-7.1,2.8c-1.1,0.6-2.2,1.1-3.2,1.7c-1,0.6-2,1.2-2.9,1.9
		c-0.9,0.6-1.8,1.3-2.6,2c-0.8,0.7-1.6,1.3-2.2,2.1c-1.4,1.4-2.5,2.8-3.5,4c-0.9,1.3-1.7,2.4-2.3,3.4c-1.1,2-1.7,3.1-1.7,3.1
		s0.7-1.1,1.9-3c0.7-0.9,1.5-2,2.5-3.2c1.1-1.1,2.2-2.5,3.7-3.7c0.7-0.7,1.5-1.3,2.3-1.9c0.8-0.6,1.7-1.2,2.6-1.8
		c0.9-0.6,1.9-1.1,2.9-1.6c1-0.6,2.1-1,3.2-1.4c2.2-0.9,4.5-1.6,6.9-2.2c2.4-0.5,4.9-1,7.4-1.2c10.1-1.1,20.2,0.3,27.6,1.9
		c0.7,0.2,1.4,0.3,2.1,0.5l-0.9-0.4L219.2,336.8z"/>
</g>
<g id="XMLID_412_">
	<path fill="#FFFFFF" d="M190.4,313.4c-1.4-0.4-2.9-0.9-4.6-1.3c-1.6-0.4-3.4-0.7-5.2-1.1c-1.8-0.3-3.7-0.6-5.6-0.7
		c-1.9-0.1-3.9-0.3-5.8-0.2l-2.9,0c-1,0.1-1.9,0.1-2.9,0.2c-1.9,0.1-3.8,0.4-5.6,0.7c-1.8,0.2-3.5,0.7-5.1,1.1
		c-0.8,0.2-1.6,0.4-2.3,0.6c-0.7,0.2-1.5,0.5-2.1,0.7c-1.4,0.5-2.6,0.8-3.7,1.3c-1.1,0.5-2,0.9-2.8,1.2c-1.5,0.7-2.4,1.1-2.4,1.1
		s0.9-0.3,2.5-0.9c0.8-0.3,1.8-0.6,2.9-1c1.1-0.4,2.4-0.6,3.8-1c0.7-0.2,1.4-0.4,2.2-0.5c0.8-0.2,1.5-0.3,2.4-0.4
		c1.6-0.2,3.3-0.6,5.1-0.7c1.8-0.1,3.6-0.3,5.5-0.3c0.9,0,1.9,0,2.8,0l2.8,0.2c1.9,0.1,3.7,0.4,5.6,0.7c1.8,0.3,3.6,0.7,5.3,1.1
		c1.7,0.5,3.3,0.9,4.9,1.4c1.5,0.5,3,1,4.3,1.5c1.3,0.5,2.5,1,3.5,1.5c1,0.5,1.9,0.9,2.7,1.3c0.7,0.4,1.6,0.7,2,0.9
		c0.1,0,0.2,0.1,0.3,0.1c-1.4-2.1-2.7-4.2-3.8-6.5C192.7,314.2,191.6,313.8,190.4,313.4z"/>
</g>
<g id="XMLID_403_">
	<path fill="#FFFFFF" d="M189.4,305c-1-0.3-2.2-0.7-3.5-1.1c-4.3-1.4-10-3.3-15.6-5.3c-5.6-2.1-11.2-4.4-15.2-6.5
		c-2-1.1-3.6-2.1-4.5-3c-0.5-0.4-0.8-0.8-1-1.1c-0.2-0.3-0.2-0.5-0.2-0.5l0,0c0,0,0.1,0.2,0.2,0.5c0.2,0.3,0.4,0.8,0.9,1.3
		c0.9,1,2.4,2.2,4.3,3.4c3.8,2.5,9.2,5.4,14.6,8c10,4.8,20.3,9.1,21.9,9.7c-0.3-0.8-0.7-1.7-1-2.5
		C189.9,306.9,189.6,305.9,189.4,305z"/>
</g>
<g id="XMLID_391_">
	<path fill="#FFFFFF" d="M187.9,297.2c-2.4-1.7-5.2-3.9-8-6.1c-1.7-1.3-3.3-2.7-4.7-4.1c-0.7-0.7-1.4-1.4-2-2
		c-0.6-0.7-1.2-1.3-1.7-1.9c-0.5-0.6-1-1.2-1.3-1.8c-0.3-0.6-0.6-1-0.8-1.5c-0.3-0.9-0.5-1.4-0.5-1.4s0.1,0.5,0.3,1.5
		c0.1,0.5,0.4,1,0.6,1.6c0.2,0.6,0.7,1.2,1,2c0.4,0.7,0.9,1.4,1.5,2.2c0.5,0.8,1.2,1.5,1.8,2.3c1.3,1.5,2.8,3.1,4.4,4.7
		c3.1,3.1,6.4,5.8,8.9,7.9c0.2,0.2,0.4,0.3,0.7,0.5C188,299.7,187.9,298.5,187.9,297.2z"/>
</g>
<g id="XMLID_387_">
	<path fill="#FFFFFF" d="M184.8,286.5c-0.6-0.9-1.1-2-1.5-3c-0.4-1-0.6-2-0.7-2.8c0-0.4,0-0.8-0.1-1.2c0-0.4,0-0.7,0-0.9
		c0-0.5,0.1-0.8,0.1-0.8s-0.1,0.3-0.2,0.8c0,0.3-0.2,0.6-0.2,0.9c0,0.4-0.1,0.8-0.1,1.2c0,0.9,0.1,2,0.4,3.1
		c0.3,1.1,0.7,2.3,1.2,3.3c0.9,2,2.2,3.7,3.3,5c0.2-0.8,0.3-1.5,0.6-2.2C186.7,289,185.7,287.9,184.8,286.5z"/>
</g>
<g id="XMLID_365_">
	<path fill="#FFFFFF" d="M392.1,121.9c-0.1-0.1-2-2-6.1-1.4c-1,0.1-2.1,0.4-3.3,0.8c-0.6,0.2-1.2,0.5-1.7,0.8l-0.4,0.2l-0.1,0
		c-0.1,0.1,0.1-0.1,0,0l-0.1,0.1l-0.3,0.2c-0.2,0.1-0.2,0.2-0.3,0.3c-0.1,0.1-0.2,0.2-0.4,0.3c-2.1,1.9-4,5.2-4.2,9.1l0,0.7l0,0.2
		l0,0.1c0,0,0,0.2,0,0l0,0.5c0,0.6,0.1,1.3,0.2,1.7c0.1,0.9,0.4,2.1,0.7,3.2c0.7,2.2,1.9,4.4,3.4,6.5c0.7,1,1.6,2,2.6,2.9
		c0.9,0.9,2.1,1.7,3,2.2c1.6,0.8,2.4,1,4,1.4c1.4,0.3,2.9,0.5,4.5,0.6c6.3,0.3,13.3-0.9,20.4-2.9c0.9-0.3,1.8-0.5,2.6-0.8
		c0.9-0.3,1.9-0.6,2.7-0.9c1.7-0.6,3.5-1.4,5.2-2.3c3.5-1.7,6.8-3.8,10.1-6.2c3.3-2.4,6.4-5.2,9.2-8.3c1.4-1.5,2.7-3.2,3.8-4.9
		c0.6-0.9,1.2-1.9,1.7-2.8c0.5-0.9,1-1.8,1.5-2.8c3.7-7.8,5.5-16.9,5.3-26.2c-0.2-9.3-2.2-18.8-6-27.8c-3.8-8.9-9.4-17.4-16.9-23.9
		c-1.8-1.6-3.9-3.1-5.9-4.4c-1.1-0.7-2.2-1.4-3.3-2c-1.1-0.6-2.2-1.2-3.3-1.8c-4.5-2.4-9.3-4.4-14.3-6c-9.9-3.4-20.4-5.3-31.1-6.1
		c-10.7-0.8-21.6-0.3-32.3,1.4c-5.4,0.9-10.7,2-15.8,3.7c-2.6,0.8-5.1,1.8-7.6,2.9c-2.4,1.1-5,2.4-7.4,3.6
		c-19.5,10.1-38.3,22.2-56.5,34.3c-9.1,6.1-18.1,12.2-27,18.2c-8.9,6-17.6,12-26.3,17.9c-17.3,11.6-34.2,22.7-51,31.9
		c-8.4,4.6-16.8,8.8-25.5,11.7c-1.1,0.4-2.2,0.7-3.3,1l-1.6,0.5c-0.6,0.2-1.1,0.2-1.7,0.4c-2.3,0.4-4.6,0.6-6.9,0.4
		c-4.6-0.3-8.9-1.9-12.5-4.5c-3.6-2.6-6.4-6-8-10c-1.6-4-1.9-8.3-1-12.3c0.9-4,3-7.5,5.7-10.2c2.7-2.8,6.4-4.6,10.1-4.9
		c3.7-0.3,7.4,0.8,10.3,2.8c2.9,2,4.9,4.9,5.9,8.1c1,3.3,0.3,6.9-1.1,9.5c-1.4,2.8-3.7,5.1-6.6,6.2c-2.9,1.1-6.1,0.8-8.6-0.6
		c-2.6-1.3-4.3-3.5-5.1-6c-0.4-1.2-0.5-2.7-0.3-3.9c0.1-0.6,0.3-1.2,0.5-1.8l0.1-0.2l0.2-0.4l0.1-0.3l0.3-0.5c1-2,2.6-3.5,4.5-4.1
		c1.9-0.7,3.8-0.4,5.1,0.2c1.3,0.6,2.1,1.6,2.6,2.4c0.9,1.6,0.6,2.6,0.7,2.6l-1.7,0.6c0,0-0.1-0.1-0.4-0.3c-0.2-0.2-0.6-0.4-1-0.6
		c-0.9-0.4-2.2-0.5-3.2,0.1c-0.5,0.3-1.2,0.8-1.7,1.7l-0.3,0.5l-0.1,0.3c0.1-0.3,0-0.1,0.1-0.1l0,0l0,0.1c-0.1,0.2-0.1,0.5-0.2,0.7
		c-0.1,0.5-0.1,0.9,0.1,1.5c0.3,1.1,1.2,2.4,2.5,3.2c1.3,0.8,3,1.2,4.7,0.7c1.7-0.5,3.4-1.8,4.6-3.8c0.1-0.2,0.3-0.5,0.5-0.8
		c0.1-0.2,0.3-0.5,0.4-0.7c0.2-0.5,0.4-1.1,0.5-1.6c0.3-1.1,0.3-2.4,0-3.5c-0.6-2.5-2.2-4.9-4.5-6.6c-2.3-1.7-5.3-2.6-8.3-2.3
		c-3,0.2-6.1,1.7-8.4,4c-2.4,2.4-4.2,5.5-5,8.9c-0.8,3.4-0.6,7.2,0.8,10.7c1.4,3.4,3.9,6.6,7,8.9c3.2,2.3,7.1,3.8,11.2,4.1
		c2.1,0.2,4.1,0.1,6.2-0.3c0.5-0.1,1.1-0.2,1.6-0.3l1.6-0.4c1.1-0.3,2.1-0.5,3.2-0.9c8.4-2.8,16.8-6.8,25.1-11.5
		c16.7-9.2,33.5-20.4,50.7-32c8.6-5.9,17.3-11.9,26.2-18c8.8-6.1,17.8-12.3,26.8-18.5c18.1-12.3,36.5-24.8,56.3-35.6
		c2.5-1.3,4.8-2.6,7.5-3.8c2.6-1.2,5.3-2.3,8-3.2c5.4-1.9,10.9-3.2,16.5-4.2c11.1-2,22.4-2.5,33.5-1.9c11.1,0.7,22.1,2.6,32.6,6.1
		c5.2,1.8,10.3,3.9,15.1,6.5c1.2,0.6,2.4,1.4,3.6,2c1.2,0.7,2.2,1.4,3.4,2.1c2.4,1.6,4.5,3.2,6.6,5c8.2,7.3,13.9,16.6,17.7,26.2
		c3.8,9.6,5.6,19.7,5.6,29.5c0.1,9.8-1.8,19.4-5.9,27.9c-0.5,1.1-1,2.1-1.6,3.1c-0.6,1.1-1.2,2-1.8,2.9c-1.2,2-2.6,3.8-4.1,5.5
		c-3,3.4-6.2,6.3-9.6,8.9c-3.4,2.6-6.9,4.9-10.5,6.9c-1.8,1-3.6,1.9-5.6,2.7c-1,0.4-1.8,0.7-2.8,1.1c-1,0.4-1.9,0.6-2.8,1
		c-7.4,2.3-14.7,4-22,3.9c-1.8,0-3.6-0.2-5.5-0.5c-1.7-0.3-3.9-1-5.2-1.6c-2-0.9-3.3-1.9-4.7-3.1c-1.3-1.1-2.5-2.4-3.5-3.7
		c-2.1-2.6-3.5-5.4-4.5-8.3c-0.5-1.5-0.9-2.8-1.1-4.4c-0.1-0.8-0.2-1.5-0.2-2.1l0-0.5l0-0.7l0-1.1c0.3-5.9,3-10.7,6.5-13.8
		c0.2-0.2,0.4-0.4,0.7-0.6c0.3-0.2,0.6-0.4,0.8-0.6l0.3-0.2l0.1-0.1l0.2-0.1l0.1,0l0.7-0.4c1-0.5,2-0.8,2.9-1
		c1.9-0.4,3.7-0.4,5.3-0.2c1.6,0.2,3,0.8,4,1.4c1.1,0.7,1.8,1.4,2.3,2.1c0.5,0.7,0.8,1.4,0.9,1.7c0.1,0.3,0.1,0.5,0.1,0.5
		L392.1,121.9z"/>
</g>
<path id="XMLID_357_" fill="#FFFFFF" d="M264.1,123.2c0.1,2.1,0.4,12.5,0.7,23.5l-3.8,4.1l4.1,3.8c0.3,11,0.6,20.7,0.6,20.7
	s0.6,3.6-1.3,3.7l-0.7,3.9l16-4.2l1.4-3.8l-2.8-2l-0.7-23.3l1.8,0.2l8.7,21.2c0,0-0.1,2.8-1.6,2.8L286,177l18.8-4.9l-1.2-2.9
	c0,0-3.2,0.2-5-3.9c-1.8-4.2-6.6-21-6.6-21l-7.3,0.1c0,0,12.9-3.8,12.2-24.7c-0.1-4.7-3.5-11.5-16.6-9l-19.9,5.2l-1.1,3.9
	C259.5,119.6,263.9,118.5,264.1,123.2z M276.7,122c3.1-1.5,7.7-2.1,7.9,4c0.3,9.4-7.3,13.5-7.3,13.5L276.7,122z"/>
<path id="XMLID_354_" fill="#FFFFFF" d="M336.9,104.3l6.5-2.6l0.7,23.3l-4.1,4.3l4.3,4.1l0.6,20.1c0,0,1.1,4.3-4.1,4.5l-0.7,4.9
	l24.6-6.4l-1.6-3.6c0,0-5.5,0.2-5.6-3.8c0-1.6-0.5-10.7-0.9-21l3.6-3.9l-4-3.7c-0.4-9-0.8-17.8-0.9-22.2l6-1.6
	c6.3-1.4,12.6,7.4,12.6,7.4l2-2l-7.7-14.6L328.3,98l-2.2,16.1l3.2-0.1C330.7,108.5,336.9,104.3,336.9,104.3z"/>
<path id="XMLID_350_" fill="#FFFFFF" d="M308.5,110.4c0,1.3,0.4,13.1,0.8,24.8l-3.8,4.1l4.1,3.8c0.3,9.2,0.5,16.7,0.5,16.7
	s-0.1,7.2-2.2,7.3l-0.6,4.3l21.5-5.6l-1.3-3c0,0-3.9-0.1-4.1-6.4c-0.1-2.4-0.3-10.1-0.5-18.7l3.4-3.6l-3.6-3.4
	c-0.3-12.2-0.7-24.1-0.7-24.1s-0.3-3.1,2.4-3.1l-1.6-4.1l-18.7,4.9l-0.5,4.2C303.6,108.5,308.5,107.8,308.5,110.4z"/>
<path id="XMLID_347_" fill="#FFFFFF" d="M34.2,262.2l3.1,5.1c3.3-10.7,10.5-19.3,10.5-19.3l-1.5-0.9c-2,0.7-2.4-2.7-2.4-2.7
	l-0.9-29.7l3.5-3.8l-3.8-3.5l-0.4-14l15.1,32.3l13.1-43c0,0,0.3,9.2,0.6,18.7l-3.1,3.3l3.3,3.1c0.2,6.1,0.3,11.4,0.4,13.2
	c0.2,5.2-1.8,5.2-1.8,5.2l0.4,2.6c8-4.8,17.8-4.1,17.8-4.1s-0.2-1.5-1.6-2.1c-1.4-0.6-1.5-3.4-1.5-3.4s-0.2-7.1-0.5-15.9l3.5-3.7
	l-3.7-3.4c-0.4-12.6-0.8-25.9-0.9-27.7c-0.1-3.5,2.8-4,2.8-4l-0.2-3.3l-16.9,4.5l-11.4,31.4c0,0-8.6-19.2-9.8-22
	c-0.2-0.6,0.7-1.2,0.7-1.2l-1.1-2.6l-16.6,4.3l0.8,2.6c2.6-0.1,2.1,3.9,2.1,3.9s0.4,13.8,0.9,28.7l-3.9,4.1l4.1,3.9
	c0.3,10.6,0.6,20.6,0.8,25.6C36.4,257.7,34.2,262.2,34.2,262.2z"/>
<path id="XMLID_337_" fill="#FFFFFF" d="M100.5,223.6c-1.1-0.7-0.9-3.5-0.9-3.5l2.7-19.6l8.8-2.3l4.5,16.9c0.1,4.8-2.4,5.2-2.4,5.2
	l0.6,2.7l18.7-4.9l-1.6-3.1c-1.6,0-1.5-2-1.5-2l-5.6-21l2.6-5.1l-4.6-2.4l-6.2-23.5c-0.1-3.5,0.7-4,0.7-4l-0.1-2.6l-18.6,4.9
	l-0.3,2.7c2.4-0.1,2.3,3.1,2.3,3.1L96,192.6l-4.2,3.5l3.2,3.8l-2.6,19.3c0.1,1.7-0.3,3-0.7,4c0.7,0,1.4,0,2.1,0
	C96,223.2,98.3,223.4,100.5,223.6z M105.6,177.4l4.2,15.6l-6.6,1.7L105.6,177.4z"/>
<path id="XMLID_326_" fill="#FFFFFF" d="M244,176.9c0-0.1,0-0.2,0-0.4c0-1-0.1-1.6-0.1-1.7c0,0,0-0.1,0-0.2
	c-0.8-9.8-5.3-26.4-25-25.8c-21.3,0.7-19.8,17.4-19.8,17.4l0,0c-0.1,3,0.7,5.6,1.6,6.7c1.4,2,3.7,3.4,6.3,3.3c4-0.1,7.2-3.5,7.1-7.5
	c-0.1-4-3.5-7.2-7.5-7.1c-2.2,0.1-4.1,1.1-5.4,2.7c0.1-0.6,0.3-1.2,0.5-1.9c1.4-4.1,5.8-9.1,18.3-9.7c8.3-0.4,14.6,3.1,18.6,10.6
	c3.1,5.7,3.6,11.6,3.6,11.7c0,0.1,1.3,13.6-7.3,23.4c-4.2,4.8-10.1,8-17.6,9.5l-0.4-13.2c-0.3-12.6-0.7-27.2-0.9-34.4
	c0-0.6,1.2-2.1,1.2-2.1l-1.3-1.9l-7.1,2.6l0,1.5c3.7,0.9,6.5,4.2,6.7,8.2c0.1,4-2.5,7.4-6.1,8.6l0,1.1c0,0,1.6,10.1-7.6,10.4
	c-9.2,0.3-7.7-18.6-8-28.3c-0.3-9.7,4.8-22.7,9.1-22.8c3.5-0.1,5.1,8,5.1,8l2.2-1.2l-0.5-15.1l-3.2,0.8c0.1,1.9-1.1,3.1-1.1,3.1
	s-3.9-1.4-5.5-1.4c-1.7,0.1-22.2,0.3-21.2,33.6c0.1,1.9,0.2,3.7,0.3,5.4l-3.2,3.4l4.3,4.1c4.3,20.8,16.8,21.8,21.3,21
	c3.4-0.6,6.1-3.6,7.5-5.3c0.1,5,0.2,9.9,0.2,14.9c-0.3,0-0.5,0-0.8,0.1c-37,1.1-39.4-32.9-39.4-34.3l-0.1-0.9l-6.4,0.4
	c7.4-6.5,11-12.7,10.8-19c-0.1-4.1-1.6-7.3-4.2-9.5c-5.4-4.5-14-3.2-14.4-3.2l-21.5,5.6l-1.2,4.6l1.2,0c0.4,0,3.8,0.2,3.9,3.6
	l0.8,25.4l-3.6,3.9l3.9,3.6l0.5,17.7c0,0-0.7,3.8-2.8,3.9l-0.8,0l-1,6.9l27.6-7.2l-3-6.1l-0.7,0.2c0,0-0.8,0.2-1.5-0.3
	c-0.7-0.5-1.1-1.6-1.1-3.3l-0.5-16.8l1-0.4c1.9,5.4,12.9,32.1,45.1,31.1c2.7-0.1,5.5-0.4,8.5-0.9c0.1,7.5,0.3,15.1,0.4,22.6
	c-0.9,5-2.4,9.9-4.8,14.2c-2.4,4.3-5.9,7.9-10.3,9.9c-4.3,2.1-9.3,2.7-14.3,2.3c-4.9-0.4-9.8-1.8-14.4-3.8c-2.3-1-4.4-2.2-6.5-3.6
	c-2.1-1.4-4.1-3-6.2-4.6c-4.1-3.2-8.3-6.5-12.7-9.6c-8.8-6.1-18.7-11.1-29.4-13.4c-5.3-1.2-10.8-1.8-16.2-1.9c-1.4,0-2.8,0-4.1,0
	l-2,0.1l-0.5,0l-0.3,0l-0.3,0l-1.1,0.1c-2.8,0.2-5.6,0.9-8.3,1.6c-10.8,3.2-20,10.3-26.9,18.8c-3.5,4.3-6.4,8.9-8.7,13.9
	c-2.3,5-4.1,10.2-5,15.6c-1,5.4-1.2,11-0.4,16.5c0.1,1.4,0.5,2.7,0.8,4.1c0.4,1.3,0.7,2.8,1.2,4c0.9,2.6,2.1,5.1,3.4,7.5
	c5.5,9.6,14.6,16.8,24.8,20.4c10.2,3.7,21.5,3.9,31.9,0.7c5.1-1.5,10.2-4,14.5-7.3c4.3-3.4,7.9-7.6,10.6-12.4
	c5.5-9.5,7.2-21.3,4.1-32.2c-1.5-5.5-4.6-10.7-8.8-14.7c-4.2-4.1-9.7-6.9-15.6-8.1c-5.9-1.1-12.1-0.6-17.9,2
	c-5.8,2.7-10.5,7.7-12.8,13.8c-2.3,6.1-2.2,12.9,0.3,19c2.6,6.4,8.5,11.1,15.1,12.8c1.7,0.4,3.3,0.6,5,0.7c0.9,0,1.7,0,2.5-0.1
	c0.8,0,1.8-0.2,2.7-0.4c1.1-0.2,1.5-0.4,2.2-0.6l0.2-0.1l0.1,0c0.5-0.2,0.2-0.1,0.4-0.1l0.6-0.3c0.4-0.2,0.8-0.3,1.2-0.6
	c1.6-0.8,3.1-1.9,4.3-3.2c2.5-2.6,4-6,4.2-9.4c0.1-1.7-0.1-3.4-0.6-4.9c-0.3-0.8-0.6-1.5-1-2.2c-0.4-0.8-0.9-1.2-1.4-1.8l-1.7,0.5
	c-0.9,5.5-3.4,8.6-6.2,10.5c-0.7,0.5-1.4,0.9-2.2,1.2c-0.2,0.1-0.4,0.1-0.6,0.2l-0.2,0.1l-0.2,0.1c-0.6,0.2-1.4,0.5-1.6,0.4
	c-0.3,0.1-0.7,0.2-1.2,0.2c-0.5,0.1-0.9,0.1-1.4,0.1c-0.9,0-1.8-0.1-2.7-0.3c-3.6-0.9-6.7-3.4-8.2-6.8c-1.6-3.5-1.9-7.9-0.6-11.7
	c1.3-3.8,4-7.2,7.6-9.2c3.7-1.9,8.4-2.8,12.8-2.2c4.5,0.5,8.8,2.4,12.4,5.4c3.6,3,6.4,7,8,11.5c1.6,4.6,2.3,9.6,1.9,14.5
	c-0.4,4.9-1.8,9.8-4.1,14.3c-4.6,8.9-12.9,15.9-22.8,18.7c-4.8,1.5-10,2.2-15.1,2.1c-5.1-0.1-10.1-1.2-14.9-2.9
	c-9.5-3.6-17.6-10.6-22.3-19.5c-1.2-2.2-2.2-4.5-2.9-6.9c-0.5-1.3-0.6-2.4-0.9-3.6c-0.2-1.2-0.5-2.4-0.6-3.7
	c-0.5-4.9-0.2-10,0.9-14.9c2.1-9.8,6.8-19,13.1-26.8c3.2-3.9,6.8-7.3,10.9-10.2c4-2.9,8.5-5.2,13.1-6.7c2.3-0.7,4.7-1.2,7.1-1.4
	l0.9-0.1l0.2,0c0,0,0.1,0,0.2,0l0.5,0l2-0.1c1.3-0.1,2.5,0,3.8-0.1c5.1,0,10.1,0.6,15,1.6c9.9,2.1,19.2,6.5,27.6,12.3
	c4.3,2.9,8.4,6.1,12.6,9.3c2.1,1.6,4.3,3.2,6.5,4.7c2.3,1.5,4.8,2.9,7.3,3.9c5.1,2.1,10.5,3.5,16,3.8c5.5,0.3,11.3-0.4,16.4-3
	c0.8-0.4,4.4-2,5.5-2.9c1.6-0.9,3.1-1.8,4.5-2.9c2.8-2.2,5.3-4.8,7.2-7.8c1.9-3,2.9-6,3.7-9.4c0.9-3.7,0.8-7.4,0.8-10.9
	c0-1.8-0.1-3.5-0.1-5.2l-0.2-5.2l-0.3-8.2c7.1-2.2,14.5-6.2,19.4-13.2C243.4,190.8,244.1,181.1,244,176.9L244,176.9z M153.6,171.9
	l-0.6-18.3c0,0,6.8-3.3,7.1,5.1C160.4,167.1,153.6,171.9,153.6,171.9z"/>
<path id="XMLID_321_" fill="#FFFFFF" d="M232.1,158c-2-1.7-4.4-2.7-7.1-3.2l-4.1,30c0.1,4.7-2.5,6.2-2.5,6.2l0.1,3.8l12.5-3.3
	l-1.3-2.3c-1.7,0.1-1.4-3.6-1.4-3.6L232.1,158z"/>
<path id="XMLID_318_" fill="#FFFFFF" d="M259.7,180.6c-1.6,0-1.5-2-1.5-2l-5.6-21.1l2.5-4.8l-4.4-2.2l-6.3-23.8
	c-0.1-3.5,0.7-4,0.7-4L245,120l-18.6,4.9l-0.2,3.4c2.4-0.1,2.3,1.7,2.3,1.7l-2.4,17.6c2.7,0.6,5.1,1.5,7.2,2.7l1-7.3l2.7,10.1
	c6.7,6.3,8.4,16,8.9,21.3l0,0.2c0,0.1,0.1,0.8,0.1,1.9l0.1,2.2l-0.1,0c-0.1,2.4-0.4,5.7-1.5,9.4l16.9-4.4L259.7,180.6z"/>
<path id="XMLID_311_" fill="#FFFFFF" d="M336.5,242.8l-5.6-21l2.6-5.1l-4.6-2.4l-6.2-23.5c-0.1-3.5,0.7-4,0.7-4l-0.1-2.6l-18.6,4.9
	l-0.3,2.7c2.4-0.1,2.3,3.1,2.3,3.1l-3.8,27.5l-4.2,3.5l3.2,3.8l-0.5,3.7c2.4,1.8,4.7,4.4,6.4,8l1.5-11.1l8.8-2.3l4.5,16.9
	c0.1,4.8-2.4,5.2-2.4,5.2l0.6,2.7l18.7-4.9l-1.6-3.1C336.5,244.8,336.5,242.8,336.5,242.8z M310.2,224.5l2.4-17.3l4.2,15.6
	L310.2,224.5z"/>
<path id="XMLID_306_" fill="#FFFFFF" d="M282.8,230.2c0,0,12-5.3,11.5-20.5c-0.5-15.2-18.7-13.3-18.7-13.3l-19,5.1l-3.7,1l3.1,3.1
	c4.5-0.1,4.3,1.2,4.3,1.2l0.8,26.2l-4.2,4.4l4.4,4.2l0.1,3.2c7-2.6,12.7-1,12.7-1l-0.1-3.9c3.7-2.5,5.5-2.8,8-3.1
	c3.1-0.2,19.3,1,21.4,15.3c1.3,9.2-2.6,17.2-9.8,25.2c1.6-0.1,6.7-1.7,6.7-1.7c7.4-8.4,9.3-11,8.9-23.3
	C308.6,228.4,282.8,230.2,282.8,230.2z M273.6,226.7l-0.6-18.9c0,0,11.2-6.1,11.5,3.2S273.6,226.7,273.6,226.7z"/>
<path id="XMLID_304_" fill="#FFFFFF" d="M424.7,185.4c-5.9,0.9-9.7,4.4-9.5,10.9c0.2,6.5,3.7,8,6.8,8c3.1-0.1,5.5-2.3,5.4-5.8
	c-0.1-3.5-1.4-3.5-1.4-3.5l-0.8,0.3c0.1,2.5-0.7,4.7-3.3,4.8c-2.6,0.1-4.6-2-4.8-4.1c-0.2-1.5,0-8.3,7.6-8.6
	c7.6-0.2,15,4.1,15.5,22.3c0.6,18.2-24.5,24.3-43.7,24.1c-0.7,0-1.4,0-2.1,0c-0.1-3.8-0.5-15.8-0.9-28.2l3.6-3.7l-3.8-3.5
	c-0.4-13.2-0.8-25.2-0.8-26.2c-0.1-2.4,2.8-3,2.8-3l-0.1-2.9l-20.8,5.5l1.7,3.2c3.1-3.3,4.4,2.7,4.4,2.7s0.4,11.7,0.7,24.2l-4.4,4.6
	l4.7,4.3c0.3,10.1,0.6,19,0.6,20.6c0.1,1.9-0.9,3-2,3.6c-12.3,1.4-21.8,3.8-21.8,3.8s-0.3-11-0.7-23.3l3.8-4l-4.1-3.7
	c-0.4-12.9-0.8-25.1-0.8-26.2c-0.1-2.4,2.8-3,2.8-3l-0.1-2.9l-20.8,5.5l1.7,3.2c3.1-3.3,4.4,2.7,4.4,2.7s0.4,12.1,0.8,24.8l-3.8,4
	l4,3.7c0.3,10.3,0.6,19.6,0.6,21.2c0.1,3.9-4.3,4.4-4.3,4.4l2.4,3.2c0,0,27.6-11,50-10.6c26.8,0.6,53.7-6.2,53-28.7
	C446.9,186.1,427.3,185,424.7,185.4z"/>
<path id="XMLID_302_" fill="#FFFFFF" d="M379.2,113.4c1.8-0.6,3.5-0.8,5-0.7c0.9,0,1.8,0.2,2.6,0.3l1.4-10.5l3.3,12.4
	c0.1,0.1,0.2,0.2,0.4,0.3c1,0.6,1.4,1.1,1.9,1.6c0.9,1,1.4,1.9,1.8,2.7c0.8,1.5,0.9,2.8,0.8,2.7l-2.5,1.6l4.5,16.6
	c0.1,4.8-2.4,5.2-2.4,5.2l0.6,2.7l18.7-4.9l-1.6-3.1c-1.6,0-1.5-2-1.5-2l-5.6-21.2l2.8-5.4l-4.9-2.5l-6.1-22.9c-0.1-3.5,0.7-4,0.7-4
	l-0.1-2.6l-18.6,4.9l-0.3,2.7c2.4-0.1,2.3,3.1,2.3,3.1L379.2,113.4z"/>
<path id="XMLID_300_" fill="#FFFFFF" d="M365.1,53.1c-2.1-3.4-5.3-5.7-8.5-7c-1.6-0.6-3.3-1-4.8-1.1c-1.6-0.1-3.1,0.1-4.5,0.5
	c-2.8,0.8-4.8,2.4-6.1,3.9c-1.4,1.6-2.1,3.1-2.4,4.1c-0.4,1-0.5,1.6-0.5,1.6l1.6,0.3c0,0,0.1-0.5,0.3-1.5c0.3-0.9,0.8-2.3,1.9-3.8
	c1.1-1.5,3-2.9,5.5-3.7c1.2-0.4,2.7-0.6,4.1-0.5c1.5,0.1,3,0.5,4.5,1.1c1.5,0.6,3,1.5,4.3,2.6c1.3,1.1,2.5,2.5,3.5,4.1
	c2,3.1,2.9,7.2,2.2,11.1c-0.6,4-2.5,7.9-5.3,11.1c-1.4,1.6-3.1,2.9-4.8,4.1c-1.8,1.1-3.8,2-5.8,2.7c-2.1,0.6-4.2,1.1-6.3,1.2
	c-1.1,0.1-2.1,0.1-3.1,0.1c-1.1-0.1-2.3-0.1-3.2-0.3c-4.2-0.5-8.2-2-11.6-4c-3.4-2.1-6.3-4.7-8.3-7.7c-2-3-3.1-6.2-3.8-9.3
	c-0.4-3.1-0.5-6-0.1-8.5c0.2-1.3,0.3-2.5,0.6-3.5c0.3-1.1,0.5-2,0.8-2.9c0.5-1.8,1.2-3.2,1.5-4.2c0.3-0.7,0.4-1.1,0.5-1.3l-5.7,2.7
	c-0.1,0.5-0.3,0.9-0.4,1.5c-0.2,1-0.5,2.2-0.8,3.4c-0.3,1.2-0.3,2.6-0.5,4c-0.3,2.9-0.1,6.2,0.5,9.7c0.9,3.5,2.3,7.1,4.7,10.5
	c2.4,3.3,5.7,6.2,9.5,8.4c3.8,2.2,8.2,3.6,12.8,4c1.3,0.2,2.2,0.1,3.4,0.2c1.2-0.1,2.4,0,3.5-0.2c2.3-0.2,4.6-0.8,6.8-1.5
	c2.2-0.8,4.3-1.8,6.2-3.1c1.9-1.3,3.7-2.8,5.1-4.6c2.9-3.5,4.8-7.8,5.3-12.1C368.4,60.8,367.3,56.4,365.1,53.1z"/>
<circle id="XMLID_297_" fill="#FFFFFF" cx="340.9" cy="55.6" r="2.6"/>
<circle id="XMLID_296_" fill="#FFFFFF" cx="372" cy="58" r="1"/>
<circle id="XMLID_295_" fill="#FFFFFF" cx="354.1" cy="67.7" r="2"/>
<path id="XMLID_293_" fill="#FFFFFF" d="M314.3,45.9c0,0-0.5,1.6-1.3,4.5c-0.4,1.4-0.5,3-0.8,5c0,1,0,2,0,3.1
	c-0.1,1.1,0.1,2.2,0.3,3.4c0.1,0.6,0.2,1.2,0.3,1.8c0.2,0.6,0.4,1.2,0.6,1.8c0.2,0.6,0.4,1.2,0.6,1.9c0.3,0.6,0.6,1.2,0.9,1.8
	c0.3,0.6,0.6,1.3,1,1.9c0.4,0.6,0.8,1.2,1.3,1.8c0.8,1.3,1.9,2.3,2.9,3.4c1,1.1,2.4,2,3.6,3c1.3,0.8,2.7,1.8,4.1,2.5
	c1.5,0.7,2.9,1.5,4.5,2l2.3,0.8l2.4,0.6c3.2,0.8,6.6,1,9.9,1.1c1.6-0.1,3.3-0.2,4.8-0.4c1.7-0.3,3.1-0.7,4.6-1.2
	c2.9-1.1,5.5-2.7,7.7-4.5c2.2-1.9,3.9-4,5.1-6.2c1.3-2.1,2.1-4.4,2.7-6.3c0.5-2,0.7-3.8,0.8-5.2c0-0.7,0-1.4,0-2
	c0-0.6-0.1-1.1-0.1-1.5c-0.1-0.8-0.1-1.2-0.1-1.2l0.5-0.1c0,0,0,0.4,0.1,1.2c0,0.4,0.1,0.9,0.2,1.5c0,0.6,0,1.3,0,2
	c0,1.5-0.2,3.4-0.7,5.4c-0.6,2-1.2,4.4-2.6,6.6c-1.3,2.3-3,4.6-5.2,6.6c-2.2,2.1-4.9,3.8-8,5c-1.6,0.6-3.2,1.1-4.8,1.4
	c-1.7,0.3-3.4,0.4-5.1,0.6c-3.4,0.1-7,0-10.4-0.8l-2.6-0.5l-2.5-0.8c-1.7-0.5-3.2-1.3-4.8-2c-1.6-0.7-3-1.7-4.5-2.6
	c-1.3-1.1-2.8-2-4-3.2c-1.2-1.2-2.4-2.3-3.3-3.6c-0.5-0.6-1-1.3-1.5-1.9c-0.4-0.7-0.8-1.4-1.2-2c-0.4-0.7-0.8-1.3-1.1-2
	c-0.3-0.7-0.5-1.4-0.8-2.1c-0.2-0.7-0.5-1.4-0.7-2c-0.1-0.7-0.3-1.4-0.4-2c-0.3-1.3-0.5-2.6-0.5-3.8c0-1.2-0.1-2.4-0.1-3.5
	c0.3-2.2,0.4-4.2,0.8-5.7c0.8-2.9,1.2-4.5,1.2-4.5L314.3,45.9z"/>
<path id="XMLID_292_" fill="#FFFFFF" d="M358.2,78.7c0,0,0.2-0.1,0.5-0.4c0.3-0.2,0.7-0.6,1.2-1.1c0.9-1,2.1-2.8,2.6-5.1
	c0.3-1.2,0.3-2.5,0-3.8c-0.3-1.3-1-2.7-1.9-3.8c-1-1.1-2.3-2-3.8-2.4c-1.5-0.5-3.2-0.5-4.6,0.1c-1.5,0.6-2.7,1.7-3.4,3.1
	c-0.7,1.4-0.9,3.1-0.3,4.4c0.5,1.4,1.7,2.4,3,2.9c1.3,0.5,2.7,0.3,3.6-0.4c1-0.7,1.5-1.7,1.6-2.7c0.1-1-0.3-1.8-0.7-2.2
	c-0.5-0.5-1-0.7-1.3-0.8c-0.4-0.1-0.6-0.1-0.6-0.1l0-0.5c0,0,0.2,0,0.7,0.1c0.4,0.1,1,0.3,1.6,0.9c0.6,0.6,1.1,1.5,0.9,2.7
	c-0.1,1.1-0.7,2.4-1.8,3.2c-1.1,0.8-2.8,1-4.2,0.5c-1.5-0.5-2.8-1.7-3.5-3.3c-0.7-1.6-0.5-3.5,0.3-5.1c0.8-1.6,2.1-3,3.8-3.7
	c1.7-0.7,3.6-0.7,5.3-0.2c1.7,0.5,3.2,1.5,4.4,2.7c1.1,1.3,1.9,2.8,2.3,4.3c0.4,1.6,0.3,3,0,4.3c-0.5,2.7-1.8,4.6-2.8,5.8
	c-0.5,0.6-1,1-1.3,1.3c-0.3,0.3-0.5,0.4-0.5,0.4L358.2,78.7z"/>
<path id="XMLID_291_" fill="#FFFFFF" d="M188.6,124.8c0,0,0.6-0.5,1.9-1.4c1.2-0.9,3-2.2,5.3-3.9c2.3-1.6,5.1-3.6,8.3-5.9
	c3.2-2.2,6.8-4.8,10.8-7.5c8-5.5,17.3-11.7,27.4-18.3c10.1-6.6,20.9-13.6,31.7-20.5c10.8-6.9,21.7-13.7,32-20.1
	c5.1-3.2,10.1-6.2,14.8-9.1c1.2-0.7,2.4-1.4,3.5-2.1c1.2-0.7,2.5-1.5,3.7-1.9c2.5-1,4.9-1.8,7.3-2.5c4.7-1.3,9.2-2,13.2-2.4
	c4-0.3,7.5-0.2,10.3,0.2c2.8,0.4,5,1.1,6.4,1.7c0.7,0.3,1.2,0.6,1.6,0.8c0.3,0.2,0.5,0.3,0.5,0.3l-0.2,0.4c0,0-0.7-0.4-2.1-0.9
	c-1.4-0.4-3.5-0.9-6.3-1c-2.8-0.1-6.1,0.1-9.9,0.7c-3.8,0.6-8.1,1.5-12.6,3c-2.2,0.7-4.5,1.6-6.8,2.7c-1.2,0.5-2.2,1.1-3.3,1.8
	c-1.1,0.7-2.3,1.4-3.5,2.1c-4.7,2.9-9.6,6.1-14.7,9.3c-10.2,6.4-21.1,13.3-31.9,20.1c-10.9,6.8-21.8,13.7-32,20.1
	c-10.2,6.4-19.8,12.3-28,17.4c-8.2,5.1-15,9.3-19.8,12.3c-4.8,3-7.5,4.7-7.5,4.7L188.6,124.8z"/>
<g id="XMLID_283_">
	<path fill="#FFFFFF" d="M170.5,79.7c0.3-0.1,0.2-0.3,0.3-0.5c0-0.2,0.1-0.4,0.2-0.6c0.2-0.4,0.4-0.8,0.6-1.2c0.4-0.7,1-1.4,1.6-2
		c1.3-1.2,2.9-2.1,4.6-2.5c3.5-0.8,7.3,0.5,10,3c2.7,2.5,4.2,6.3,3.7,10.1c-0.5,3.6-2.5,7-5.4,9.2c-2.9,2.2-6.6,3.2-10.1,2.7
		c-1.7-0.2-3.5-0.9-4.9-1.6c-1.6-0.8-2.9-1.8-4.2-3c-1.2-1.2-2.2-2.5-3-4c-0.8-1.5-1.4-3-1.8-4.6c-0.7-3.2-0.6-6.6,0.3-9.7
		c0.9-3,2.5-6,4.7-8.3c2.1-2.4,4.8-4.3,7.7-5.7c2.9-1.3,6.1-2,9.4-2c3.2,0,6.4,0.8,9.4,2.2c3,1.3,5.7,3.2,7.9,5.5l0.4,0.4
		c0.2,0.2,0.3,0.3,0.4,0.5l0.7,0.9c0.5,0.7,1,1.4,1.4,2.2c0.8,1.5,1.4,3,1.8,4.6c0.8,3.2,1,6.4,0.8,9.7c-0.2,3.2-0.9,6.4-2.2,9.3
		l0,0.1l-1.4-1c4.6-2.9,8.9-6.1,13.2-9.4l13-9.7l25.8-19.5l13-9.7l6.5-4.8l3.3-2.4l1.6-1.2l0.8-0.6l0.7-0.6l1.6-1.3l1.2-1.3
		c0.4-0.4,0.8-0.9,1.2-1.4c0.4-0.5,0.8-1,1-1.5c1.3-2,2.2-4.3,2.4-6.6c0.2-2.3-0.3-4.7-1.7-6.6c-1.4-1.9-3.8-3.2-6.5-3.6
		c2.6-0.7,5.9-0.1,8.2,2c2.3,2,3.5,5.2,3.5,8.3c0,3.1-1,6-2.6,8.6c-0.4,0.7-0.8,1.2-1.3,1.8c-0.5,0.6-0.9,1.2-1.4,1.7l-1.6,1.6
		l-1.6,1.3c-0.3,0.2-0.4,0.4-0.9,0.7L282,40l-1.6,1.2l-3.3,2.4l-6.6,4.7l-13.3,9.3l-26.6,18.4l-13.2,9.3c-4.4,3.1-8.9,6.1-13,9.6
		l-1.8,1.5l0.4-2.5l0-0.1c0.4-3,1-6,1.2-9c0.2-3,0.1-6-0.6-8.8c-0.3-1.4-0.8-2.8-1.5-4.1c-0.3-0.7-0.7-1.2-1-1.8l-0.7-0.9l-0.3-0.4
		l-0.4-0.4c-2-2.2-4.4-4-7.1-5.3c-2.7-1.3-5.6-2.1-8.6-2.3c-3-0.1-6,0.4-8.7,1.6c-2.7,1.2-5.2,3-7.2,5.3c-2,2.3-3.5,4.9-4.3,7.8
		c-0.8,2.9-0.7,5.9,0.1,8.7c0.5,1.4,1.1,2.7,1.9,3.9c0.8,1.2,1.8,2.3,2.8,3.2c1.1,0.9,2.3,1.7,3.5,2.2c1.5,0.6,2.7,0.9,4,1
		c2.7,0.2,5.3-0.7,7.3-2.4c2-1.7,3.4-4.1,3.7-6.6c0.4-2.5-0.5-5-2.2-7c-0.8-1-1.9-1.8-3.1-2.3c-1.3-0.6-2.5-0.8-3.8-0.7
		c-1.3,0.1-2.6,0.6-3.7,1.5c-0.6,0.4-1,0.9-1.4,1.5c-0.2,0.3-0.4,0.6-0.5,0.9c-0.1,0.1-0.2,0.3-0.2,0.5c0,0.2-0.2,0.3-0.1,0.6
		L170.5,79.7z"/>
</g>
<g id="XMLID_274_">
	<path fill="#FFFFFF" d="M388.2,299.6c2.4,1.7,4.4,0.9,5.2,0c0.1-0.1,0.3-0.2,0.4-0.3c0-0.1,0.1-0.1,0.1-0.2
		c0.1-0.1,0.3-0.3,0.4-0.5c0.3-0.3,0.4-0.7,0.6-1c0.3-0.7,0.5-1.5,0.5-2.3c0-0.4-0.1-0.8-0.3-1.2l-0.1-0.3l0,0l0,0
		c0,0.1-0.1-0.2,0.1,0.1l-0.1-0.1l-0.1-0.2c-0.2-0.3-0.4-0.7-0.5-0.8c-0.4-0.6-1.3-1.5-2.1-2c-1.7-1.1-3.8-1.5-5.8-1l-0.7,0.2
		l-0.4,0.1l-0.2,0.1l-0.1,0c0.1,0-0.2,0.1,0.1-0.1l0,0l-0.1,0c-0.6,0.3-1.4,0.7-1.7,1c-0.9,0.5-1.8,1.4-2.6,2.3
		c-0.8,0.9-1.4,1.9-1.9,3c-0.5,1.1-0.8,2.3-1,3.5c-0.2,1.2-0.1,2.5,0.1,3.7c0.2,1.2,0.6,2.4,1.2,3.5c0.7,1.4,1.3,2.3,2.1,3.4
		c0.4,0.5,0.8,1.1,1.3,1.5c0.5,0.5,0.9,1,1.5,1.4c2.1,1.7,4.5,3,7.1,3.8c2.6,0.8,5.5,0.9,8.2,0.5c1.4-0.2,2.7-0.6,4-1.1
		c0.6-0.3,1.3-0.5,1.9-0.9l1.9-1.1c2.4-1.5,4.6-3.3,6.5-5.4c1.8-2.2,3.4-4.6,4.6-7.2c1.1-2.6,1.9-5.4,2.3-8.2
		c0.3-2.8,0.2-5.7-0.2-8.5c-0.5-2.8-1.5-5.5-2.7-8.1l0-0.1l0-0.1c-0.9-2.4-2.4-4.7-4.2-6.8c-0.9-1-1.8-2-2.9-2.9
		c-0.5-0.4-1-0.9-1.5-1.3l-1.7-1.2c-2.2-1.6-4.6-2.9-7.1-4c-1.2-0.6-2.6-1-3.8-1.5c-1.3-0.5-2.6-0.8-3.9-1.2
		c-2.6-0.8-5.4-1.1-8.1-1.5c-1.4-0.2-2.8-0.2-4.1-0.3c-1.4-0.1-2.7-0.3-4.1-0.2l-4.1,0c-0.7,0-1.5,0-2,0l-2.1,0.2
		c-2.8,0.3-5.6,0.5-8.2,1.1l-4,0.8l-3.9,1.3c-2.6,0.7-5.1,2-7.6,3c-1.3,0.5-2.4,1.3-3.6,1.9c-1.2,0.7-2.4,1.2-3.6,2
		c-2.3,1.5-4.6,3-6.7,4.7c-2.2,1.6-4.2,3.5-6.3,5.3c-2,1.9-3.9,3.8-5.7,5.9c-1.8,2-3.6,4.2-5.2,6.4c-1.6,2.2-3.2,4.5-4.5,6.7
		l-0.1,0.1l-0.1,0.1l-4.8,6.5l-2.4,3.2l-0.6,0.8l-0.3,0.4l-0.1,0.1l-0.2,0.3l-0.2,0.2l-1.3,1.5c-3.7,4.1-7.8,8-12.2,11.3
		c-8.9,6.8-19.5,11.4-30.7,12.8l-2.1,0.3l-2.1,0.1l-2.1,0.1l-2.1,0l-1.1,0l-0.5,0l-0.3,0l-0.1,0l-0.1,0l-0.2,0l-2-0.2
		c-1.3-0.1-2.6-0.2-4.1-0.5c-2.9-0.5-5.7-1.3-8.4-2.2l-4-1.6l-3.8-2c-4.9-2.9-9.4-6.7-13-11.1c-3.6-4.4-6.4-9.5-8.3-14.9
		c-1.8-5.4-2.7-11.2-2.5-16.9l0-0.5l0-0.3l0-0.3l0-0.1l0.1-1l0.2-2c0.3-1.5,0.5-3,1.1-4.4c0.8-2.8,2.1-5.4,3.7-7.9
		c1.6-2.4,3.5-4.7,5.6-6.6c2.2-1.9,4.5-3.6,7.2-4.8c2.6-1.3,5.3-2.2,8.1-2.7c2.8-0.6,5.6-0.7,8.6-0.5c5.7,0.5,11.3,3.5,14.9,8
		c3.6,4.5,5.3,10.5,4.4,16.1c-1,5.9-5.9,10.6-11.7,11.4c-1.4,0.2-2.9,0.3-4.3,0c-1.5-0.3-2.8-0.9-4-1.9c-2.3-1.8-3.7-4.8-3.6-7.8
		l1.8,0.1c-0.1,2.4,0.9,4.9,2.9,6.4c0.9,0.8,2.1,1.3,3.2,1.5c1.2,0.2,2.5,0.2,3.7,0c2.5-0.5,4.8-1.6,6.6-3.4
		c1.8-1.7,2.9-4.2,3.3-6.5c0.6-5.1-1.1-10.3-4.3-14.1c-3.3-3.8-8.1-6.2-13.1-6.3c-5-0.1-10.1,1-14.5,3.5c-2.2,1.2-4.2,2.8-6,4.5
		c-1.8,1.8-3.3,3.7-4.6,5.9c-1.2,2.2-2.3,4.4-2.8,6.8c-0.4,1.2-0.5,2.3-0.7,3.5l-0.2,2l-0.1,1l0,0.8c-0.1,5.1,0.8,10.1,2.5,14.9
		c3.3,9.5,10.1,17.8,18.8,23c4.3,2.6,9.3,4.3,14,5.2c1.1,0.3,2.5,0.4,3.9,0.5l2,0.2l1.8,0l1.9,0l1.9-0.1l1.9-0.1l1.9-0.2
		c10.2-1.2,20-5.3,28.4-11.4c4.2-3.1,8.1-6.6,11.7-10.4l1.4-1.5l0.2-0.2c0.1-0.2-0.1,0.2-0.1,0.1l0,0l0.1-0.1l0.3-0.4l0.6-0.8
		l2.5-3.2l5-6.4l-0.2,0.2c1.6-2.6,3.2-4.8,5-7.1c1.8-2.3,3.6-4.4,5.6-6.5c1.9-2.1,4-4.1,6.1-6c2.2-1.8,4.3-3.8,6.7-5.4
		c2.3-1.8,4.7-3.3,7.1-4.8c1.2-0.8,2.5-1.4,3.8-2.1c1.3-0.6,2.5-1.4,3.8-1.9c2.7-1.1,5.3-2.3,8-3l4.1-1.2l4.3-0.8
		c2.9-0.7,5.6-0.8,8.4-1l2.1-0.2c0.9,0,1.5,0,2.2,0l4.3,0.1c1.4,0,2.8,0.2,4.3,0.3c1.4,0.1,2.8,0.2,4.2,0.4c2.8,0.5,5.6,0.9,8.4,1.7
		c1.4,0.3,2.8,0.7,4.1,1.2c1.3,0.5,2.7,0.9,4,1.6c2.6,1.2,5.2,2.6,7.5,4.3l1.7,1.3c0.6,0.5,1.1,1,1.6,1.4c1.1,0.9,2,2,3,3.1
		c1.9,2.3,3.5,4.6,4.5,7.5l-0.1-0.2c1.3,2.7,2.3,5.6,2.9,8.7c0.5,3,0.6,6.1,0.2,9.1c-0.4,3-1.2,6-2.5,8.8c-1.2,2.8-2.9,5.4-4.9,7.7
		c-2,2.3-4.3,4.3-6.9,6l-1.9,1.1c-0.7,0.4-1.4,0.7-2.1,1c-1.4,0.6-2.9,1.1-4.4,1.4c-3.1,0.7-6.3,0.6-9.4,0c-3.1-0.6-6.1-1.9-8.7-3.8
		c-0.7-0.4-1.3-1-1.9-1.5c-0.6-0.5-1.2-1.1-1.7-1.7c-1.1-1.1-2.2-2.7-2.9-3.9c-0.9-1.5-1.6-3-2-4.7c-0.5-1.7-0.6-3.4-0.6-5.1
		c0-1.7,0.4-3.5,0.9-5.1c0.6-1.7,1.4-3.2,2.4-4.7c1-1.5,2.2-2.7,3.8-3.8c0.8-0.7,1.4-0.9,2-1.3l0.1,0l0.2-0.1l0.2-0.1l0.3-0.2
		l0.6-0.3c0.4-0.2,0.9-0.3,1.4-0.5c3.7-1.1,7.8-0.6,11.2,1.4c1.7,1,3.1,2.3,4.3,4c0.4,0.5,0.5,0.8,0.7,1.1l0.1,0.2l0.1,0.1l0.1,0.2
		l0,0.1l0.3,0.7c0.4,1,0.7,2,0.8,3.1c0.2,2.1-0.2,4.3-1.2,6.2c-0.5,0.9-1.2,1.8-2,2.5c-0.4,0.4-0.8,0.7-1.3,1
		c-0.3,0.2-0.5,0.3-0.8,0.5c-0.2,0.1-0.4,0.2-0.5,0.2c-2.1,1-4.6,1-6.5,0c-1.9-0.9-3.3-2.8-3.4-4.6L388.2,299.6z"/>
</g>
<g id="XMLID_411_">
	<g>
		<path fill="#FFFFFF" d="M61.1,127.4c0,0,2.2-2.1,1.2-10.1c-0.5-4.3-2.7-7.9-6.9-6.6c-2.9,0.9-6.9,3.1-6.3,11.5
			c0.4,5.1,2.2,8.3,4.3,8.5c0,0-3.2,3.5-2.4,11.9s5.1,10.6,9.1,9.8c4.2-0.8,6.7-6.4,6-14.4C65.3,129.3,61.1,127.4,61.1,127.4z
			 M55.4,114.4c1.4-0.5,2.3,2.9,2.6,5.3c0.2,2.4,0.5,6.4-1.4,7.1s-2.5-5.7-2.5-5.7C53.8,119.1,54,115,55.4,114.4z M59.6,147.7
			c-0.6,0.2-3.2,1.6-4-7.1c-0.8-8.7,2.3-9.3,2.3-9.3c1.8-0.8,2.9,2.1,3.5,7.9S60.2,147.4,59.6,147.7z"/>
	</g>
</g>
</svg>
