<?xml version="1.0" encoding="UTF-8" standalone="no"?>
<svg width="511px" height="401px" viewBox="0 0 511 401" version="1.1" xmlns="http://www.w3.org/2000/svg" xmlns:xlink="http://www.w3.org/1999/xlink">
    <!-- Generator: Sketch 3.8 (29681) - http://www.bohemiancoding.com/sketch -->
    <title>Artboard</title>
    <desc>Created with Sketch.</desc>
    <defs></defs>
    <g id="Page-1" stroke="none" stroke-width="1" fill="none" fill-rule="evenodd">
        <g id="Artboard">
            <g id="Group">
                <path id="Shape" fill="#000000"></path>
                <path id="Shape" fill="#000000"></path>
                <path id="Shape" fill="#000000"></path>
                <path d="M207.859207,375.890004 C207.558615,375.589412 207.258023,375.439117 206.957431,375.138525 C206.65684,375.138525 206.356248,375.138525 206.055656,374.988229 C206.65684,375.288821 207.107727,375.439117 207.558615,375.589412 C207.558615,375.739708 207.708911,375.890004 207.859207,375.890004" id="Shape" fill="#000000"></path>
                <path d="M416.620189,135.566887 L416.169301,136.017774 C416.019005,136.16807 415.718413,136.318366 415.417822,136.618958 C414.816638,137.220141 414.215455,137.821325 413.764567,138.422509 C412.712496,139.775172 411.961016,141.428426 411.510129,143.231977 C411.359833,144.133752 411.209537,145.185823 411.209537,146.087599 L411.209537,146.237894 L411.209537,146.237894 L411.209537,146.38819 L411.209537,146.989374 L411.209537,148.041445 C411.359833,148.492333 411.209537,148.792925 411.359833,149.394108 C411.81072,151.648546 412.712496,154.203576 414.215455,156.60831 C414.816638,157.810678 415.718413,158.862749 416.469893,160.065116 L420.828473,134.36452 C419.325515,134.514816 417.822556,134.815407 416.92078,135.416591 C416.770485,135.416591 416.620189,135.416591 416.620189,135.566887" id="Shape" fill="#FFFFFF"></path>
                <path d="M372.733791,290.97283 C363.415446,292.626085 319.979936,311.563366 319.979936,311.563366 C309.759816,314.869876 301.042654,316.072243 294.129044,316.072243 C265.42253,316.072243 269.931406,286.914841 280.75271,284.359811 C288.117208,282.706557 290.521943,290.071055 290.521943,290.071055 C293.678156,287.516025 291.574014,273.839099 279.400047,274.139691 C261.815429,274.590579 262.416612,291.574014 262.416612,291.574014 C262.416612,324.789404 294.730227,320.731415 294.730227,320.731415 C303.74798,319.979936 310.661591,319.228456 325.540883,313.216621 C337.71485,308.557449 372.733791,290.97283 372.733791,290.97283" id="Shape" fill="#FFFFFF"></path>
                <g opacity="0" transform="translate(0.000000, 114.224871)" id="Shape" fill="#FFFFFF">
                    <path d="M21.1917196,36.071012 C20.4402401,37.423675 18.9372813,40.4295926 18.1858019,41.7822556 C17.8852101,42.2331432 17.5846184,42.533735 16.9834348,42.6840309 L8.1159777,44.7881732 C8.1159777,44.7881732 11.7230789,37.2733791 15.0295883,29.7585849 L18.6366895,28.405922 L17.2840266,24.3479331 C18.6366895,21.0414237 19.8390566,18.035506 20.2899443,16.2319554 C22.0934949,9.76923242 18.4863937,-0.751479417 9.61893653,0.751479417 C4.35858062,1.65325472 2.55503002,8.1159777 2.55503002,8.1159777 L2.55503002,3.75739708 L0,4.65917238 L1.05207118,18.3360978 L3.00591767,17.1337307 C3.00591767,11.7230789 6.3124271,9.16804888 9.31834477,9.16804888 C13.8272213,9.16804888 14.127813,12.925446 13.8272213,15.9313636 C13.8272213,16.9834348 12.4745583,20.7408319 10.6710077,25.2497084 L6.91361063,26.7526672 L8.41656947,31.1112479 C5.26035592,38.7763379 1.8035506,46.7420197 1.35266295,47.4934991 C0.45088765,48.8461621 0.9017753,50.6497127 0.9017753,50.6497127 L19.8390566,46.2911321 L23.2958619,36.2213079 C23.2958619,36.2213079 21.4923113,35.4698285 21.1917196,36.071012"></path>
                </g>
                <g opacity="0" transform="translate(21.041424, 106.710077)" id="Shape" fill="#FFFFFF">
                    <path d="M4.20828473,6.16213122 L0.9017753,19.2378731 L3.45680532,18.035506 C4.5088765,11.8733748 15.0295883,8.41656947 15.0295883,8.41656947 C15.0295883,8.41656947 13.5266295,16.6828431 12.0236707,25.5503002 L8.26627358,28.1053302 L10.9715995,32.163319 C9.76923242,39.2272256 8.86745712,45.3893568 8.86745712,46.2911321 C8.86745712,48.5455703 3.90769297,49.5976415 3.90769297,49.5976415 L2.55503002,53.3550386 L20.1396484,49.2970497 L18.7869854,46.8923156 C15.9313636,46.8923156 15.1798842,45.5396527 15.1798842,45.5396527 C15.1798842,45.5396527 16.2319554,38.0248585 17.4343225,29.7585849 L20.590536,27.2035549 L18.1858019,24.1976372 C19.388169,16.5325472 20.590536,9.46864065 21.1917196,8.26627358 C22.3940866,5.71124357 26.7526672,4.35858062 26.7526672,4.35858062 L27.9550343,0.45088765 C27.5041467,0.601183533 5.11006003,5.86153945 4.20828473,6.16213122"></path>
                </g>
                <g opacity="0" transform="translate(55.609477, 103.704160)" id="Shape" fill="#FFFFFF">
                    <path d="M0,1.65325472 L4.95976415,0.751479417 L4.95976415,8.86745712 C4.95976415,8.86745712 6.3124271,6.91361063 8.1159777,6.91361063 C9.9195283,6.91361063 12.0236707,7.81538593 12.0236707,12.925446 L12.0236707,19.0875772 C12.0236707,19.0875772 12.1739666,20.1396484 12.7751501,20.1396484 L13.3763336,21.3420154 L9.017753,22.9952702 L8.86745712,21.3420154 C8.86745712,21.3420154 9.46864065,20.7408319 9.46864065,19.9893525 L9.46864065,11.2721913 C9.46864065,11.2721913 9.31834477,9.46864065 7.96568182,9.61893653 C6.91361063,9.76923242 4.95976415,9.61893653 4.95976415,15.6307719 L4.95976415,21.1917196 C4.95976415,21.1917196 5.11006003,22.3940866 6.01183533,22.3940866 L6.61301887,23.5964537 L1.50295883,25.8508919 L1.65325472,24.0473413 C1.65325472,24.0473413 2.7053259,23.5964537 2.7053259,22.6946784 L2.7053259,3.6071012 C2.7053259,3.6071012 1.8035506,2.55503002 1.05207118,3.30650943 L0,1.65325472 L0,1.65325472 Z"></path>
                </g>
                <g opacity="0" transform="translate(49.597642, 105.207118)" id="Shape" fill="#FFFFFF">
                    <path d="M2.7053259,1.05207118 L0.300591767,1.8035506 L0.300591767,23.8970455 C0.300591767,23.8970455 0.601183533,26.9029631 2.40473413,26.9029631 C4.20828473,26.9029631 6.3124271,24.1976372 6.3124271,24.1976372 L6.3124271,21.7929031 C6.3124271,21.7929031 4.5088765,23.7467496 3.75739708,23.8970455 C3.45680532,24.0473413 3.00591767,23.7467496 3.00591767,22.6946784 C2.85562178,21.4923113 2.7053259,1.05207118 2.7053259,1.05207118"></path>
                </g>
                <g opacity="0" transform="translate(46.591724, 114.224871)" id="Shape" fill="#FFFFFF">
                    <polygon points="1.20236707 3.45680532 1.20236707 5.86153945 8.26627358 3.00591767 8.26627358 0.601183533"></polygon>
                </g>
                <path d="M197.639087,363.716038 C197.338495,363.716038 197.188199,363.565742 196.887607,363.565742 C189.222517,361.611895 178.551509,359.658049 167.880502,360.409528 C165.175176,360.559824 162.620146,361.010712 160.065116,361.461599 C157.510086,362.062783 154.955056,362.663967 152.700617,363.565742 C151.49825,364.016629 150.446179,364.467517 149.394108,365.068701 C148.792925,365.369292 148.342037,365.519588 147.740853,365.82018 C147.289966,366.120772 146.688782,366.421364 146.237894,366.721955 C145.185823,367.323139 144.284048,367.924322 143.532569,368.525506 C142.630793,369.12669 141.879314,369.727873 141.127834,370.329057 C139.624876,371.531424 138.422509,372.884087 137.220141,374.086454 C136.16807,375.288821 135.266295,376.340892 134.665111,377.242667 C133.312449,379.196514 132.711265,380.248585 132.711265,380.248585 C132.711265,380.248585 133.462744,379.196514 134.965703,377.392963 C135.717183,376.491188 136.618958,375.589412 137.821325,374.387045 C139.023692,373.334974 140.226059,372.132607 141.879314,371.080536 C142.630793,370.479352 143.532569,369.878169 144.434344,369.427281 C145.336119,368.826098 146.237894,368.37521 147.289966,367.924322 C147.740853,367.623731 148.342037,367.473435 148.792925,367.172843 C149.243812,367.022547 149.844996,366.721955 150.446179,366.571659 C151.49825,366.120772 152.700617,365.82018 153.752689,365.369292 C156.007127,364.617813 158.411861,364.166925 160.966891,363.866334 C163.521921,363.565742 165.926655,363.415446 168.481685,363.415446 C178.701805,363.415446 188.771629,365.970476 195.985832,368.37521 C199.592933,369.577577 202.598851,370.779944 204.552697,371.68172 C204.853289,371.832015 205.153881,371.982311 205.454473,372.132607 C205.755064,372.132607 206.055656,372.132607 206.356248,372.282903 C202.899443,369.577577 200.043821,366.872251 197.639087,363.716038" id="Shape" fill="#FFFFFF"></path>
                <path d="M217.628439,379.647401 C215.824888,378.445034 214.171634,377.242667 212.368083,375.890004 C212.217787,375.890004 212.067491,375.739708 211.917196,375.589412 C211.616604,375.439117 211.01542,375.138525 210.414237,374.988229 C203.500626,374.387045 195.68524,374.387045 188.02015,375.439117 C185.014232,375.890004 181.858019,376.491188 179.002397,377.242667 C176.146775,378.144443 173.291154,379.046218 170.585828,380.248585 C169.233165,380.849768 168.030798,381.450952 166.828431,382.202431 C165.626063,382.803615 164.423696,383.555094 163.371625,384.306574 C162.319554,385.058053 161.267483,385.809533 160.215412,386.561012 C159.313636,387.312491 158.261565,388.063971 157.510086,388.965746 C155.856831,390.468705 154.504168,392.12196 153.301801,393.474623 C152.099434,394.977581 151.197659,396.330244 150.446179,397.382316 C149.093516,399.636754 148.342037,400.989417 148.342037,400.989417 C148.342037,400.989417 149.243812,399.78705 150.746771,397.532611 C151.648546,396.48054 152.550322,395.278173 153.752689,393.92551 C155.105352,392.572847 156.458015,391.069888 158.261565,389.717226 C159.16334,388.965746 160.065116,388.364563 161.117187,387.613083 C162.018962,386.861604 163.221329,386.26042 164.273401,385.659237 C165.325472,385.058053 166.527839,384.45687 167.730206,383.855686 C168.932573,383.254503 170.285236,382.803615 171.487603,382.202431 C174.042633,381.15036 176.898255,380.398881 179.753876,379.797697 C182.609498,379.196514 185.615416,378.745626 188.471038,378.59533 C200.344413,377.693555 212.217787,379.647401 220.784653,381.751544 C221.686428,381.90184 222.437907,382.202431 223.189387,382.352727 L222.137316,381.90184 L217.628439,379.647401 L217.628439,379.647401 Z" id="Shape" fill="#FFFFFF"></path>
                <path d="M184.713641,351.091184 C183.060386,350.49 181.256835,349.888816 179.302989,349.437929 C177.349142,348.836745 175.395296,348.385858 173.291154,347.93497 C171.187011,347.484082 168.932573,347.183491 166.678135,346.882899 C164.423696,346.732603 162.169258,346.432011 159.764524,346.432011 L156.307719,346.281715 C155.105352,346.281715 154.05328,346.432011 152.850913,346.432011 C150.596475,346.432011 148.342037,346.882899 146.237894,347.033195 C144.133752,347.183491 142.02961,347.784674 140.226059,348.085266 C139.324284,348.235562 138.272213,348.385858 137.520733,348.686449 C136.618958,348.987041 135.717183,349.287633 134.965703,349.437929 C133.312449,349.888816 131.80949,350.339704 130.607123,350.790592 C129.25446,351.241479 128.202388,351.692367 127.300613,352.143255 C125.497063,352.894734 124.444991,353.345622 124.444991,353.345622 C124.444991,353.345622 125.497063,353.04503 127.450909,352.443846 C128.352684,352.143255 129.555051,351.842663 130.907714,351.391775 C132.260377,350.940888 133.763336,350.790592 135.416591,350.339704 C136.16807,350.189408 137.069846,350.039112 137.971621,349.738521 C138.873396,349.588225 139.775172,349.437929 140.827243,349.287633 C142.781089,348.987041 144.734936,348.686449 146.839078,348.686449 C148.94322,348.536153 151.047363,348.385858 153.301801,348.536153 C154.353872,348.536153 155.556239,348.536153 156.60831,348.686449 L159.91482,348.987041 C162.169258,349.137337 164.273401,349.588225 166.377543,350.039112 C168.481685,350.49 170.585828,350.940888 172.539674,351.542071 C174.493521,352.143255 176.447367,352.744438 178.250918,353.345622 C180.054468,353.946805 181.707723,354.698285 183.210682,355.299468 C184.713641,356.050948 186.066304,356.652131 187.268671,357.253315 C188.471038,357.854498 189.523109,358.455682 190.424884,358.906569 C191.32666,359.357457 192.228435,359.808345 192.679322,360.108937 C192.829618,360.108937 192.829618,360.259232 192.979914,360.259232 C191.32666,357.854498 189.973997,355.149172 188.621334,352.594142 C187.418967,352.143255 186.066304,351.692367 184.713641,351.091184" id="Shape" fill="#FFFFFF"></path>
                <path d="M183.811865,341.171655 C182.609498,340.720768 181.256835,340.26988 179.753876,339.818992 C174.794112,338.015442 168.181093,335.610708 161.568075,332.905382 C154.955056,330.200056 148.492333,327.344434 143.983456,324.789404 C141.729018,323.436741 139.925467,322.234374 138.7231,321.182303 C138.121917,320.731415 137.821325,320.130232 137.671029,319.82964 L137.370437,319.228456 L137.370437,319.228456 C137.370437,319.228456 137.520733,319.378752 137.520733,319.82964 C137.671029,320.280527 137.971621,320.731415 138.572804,321.332599 C139.624876,322.534966 141.27813,324.037925 143.532569,325.540883 C147.891149,328.697097 154.203576,332.153902 160.516003,335.460412 C172.088786,341.472247 184.112457,346.882899 185.916008,347.634378 C185.615416,346.582307 185.164528,345.680532 184.863937,344.628461 C184.262753,343.426093 183.962161,342.223726 183.811865,341.171655" id="Shape" fill="#FFFFFF"></path>
                <path d="M182.308907,332.003606 C179.603581,329.899464 176.297071,327.194138 173.140858,324.488812 C171.187011,322.835557 169.383461,321.182303 167.730206,319.529048 C166.978726,318.627273 166.076951,317.875793 165.475768,317.124314 C164.874584,316.372834 164.123105,315.621355 163.521921,314.71958 C163.071033,313.9681 162.46985,313.216621 162.169258,312.615437 C161.868666,312.014254 161.417779,311.41307 161.267483,310.811887 C160.966891,309.759816 160.816595,309.158632 160.816595,309.158632 C160.816595,309.158632 160.966891,309.759816 161.117187,310.962183 C161.267483,311.563366 161.568075,312.16455 161.71837,312.916029 C162.018962,313.667509 162.46985,314.418988 162.920738,315.320763 C163.371625,316.222539 163.972809,316.974018 164.573992,318.026089 C165.175176,318.927864 165.926655,319.82964 166.678135,320.731415 C168.181093,322.534966 169.834348,324.488812 171.637899,326.292363 C175.094704,330.04976 179.002397,333.356269 181.858019,335.911299 C182.158611,336.061595 182.308907,336.362187 182.609498,336.512483 C182.308907,334.859228 182.308907,333.506565 182.308907,332.003606" id="Shape" fill="#FFFFFF"></path>
                <path d="M179.002397,319.378752 C178.250918,318.176385 177.80003,316.974018 177.349142,315.771651 C176.898255,314.569284 176.747959,313.366917 176.597663,312.465141 L176.597663,311.112479 C176.597663,310.661591 176.597663,310.360999 176.747959,310.060407 C176.898255,309.459224 176.898255,309.158632 176.898255,309.158632 C176.898255,309.158632 176.747959,309.459224 176.597663,310.060407 C176.597663,310.360999 176.447367,310.661591 176.297071,311.112479 C176.297071,311.563366 176.146775,312.014254 176.146775,312.615437 C176.146775,313.667509 176.146775,314.869876 176.447367,316.222539 C176.747959,317.575202 177.198846,318.927864 177.80003,320.130232 C178.852101,322.534966 180.204764,324.488812 181.557427,326.142067 C181.707723,325.240292 182.008315,324.338516 182.308907,323.587037 C181.106539,322.234374 179.904172,320.881711 179.002397,319.378752" id="Shape" fill="#FFFFFF"></path>
                <path d="M428.643859,133.312449 C428.493563,133.162153 426.389421,130.907714 421.429657,131.508898 C420.22729,131.659194 418.874627,131.959786 417.521964,132.410673 C416.770485,132.711265 416.169301,132.861561 415.417822,133.312449 L414.966934,133.61304 L414.966934,133.61304 C414.816638,133.763336 415.11723,133.61304 414.966934,133.61304 L414.816638,133.763336 L414.516046,133.913632 C414.36575,134.063928 414.215455,134.063928 414.065159,134.214224 C413.914863,134.214224 413.764567,134.514816 413.614271,134.514816 C411.059241,136.618958 408.654507,140.526651 408.353915,145.035527 L408.353915,145.937303 L408.353915,146.087599 L408.353915,146.237894 C408.353915,146.237894 408.353915,146.538486 408.353915,146.237894 L408.353915,146.839078 C408.353915,147.590557 408.353915,148.342037 408.504211,148.792925 C408.654507,149.844996 408.955099,151.347955 409.25569,152.550322 C410.00717,155.105352 411.359833,157.810678 413.013087,160.365708 C413.914863,161.568075 414.816638,162.770442 415.868709,163.822513 C416.92078,164.874584 418.273443,165.926655 419.325515,166.527839 C421.129065,167.429614 422.181136,167.880502 423.984687,168.331389 C425.637942,168.782277 427.441492,169.082869 429.245043,169.233165 C436.609541,169.834348 444.875815,168.631981 453.292384,166.678135 C454.344455,166.377543 455.396527,166.076951 456.448598,165.926655 C457.500669,165.626063 458.703036,165.325472 459.604811,164.874584 C461.558658,164.273401 463.6628,163.371625 465.766943,162.46985 C469.824931,160.516003 473.88292,158.261565 477.940909,155.556239 C481.848602,152.850913 485.605999,149.6947 489.062804,146.237894 C490.716059,144.434344 492.369314,142.630793 493.721977,140.526651 C494.473456,139.47458 495.224936,138.422509 495.826119,137.370437 C496.427303,136.318366 497.028486,135.266295 497.62967,134.063928 C502.288842,125.046175 504.693576,114.375167 504.843872,103.403568 C504.994168,92.4319683 502.890026,81.159777 498.832037,70.4887693 C494.623752,59.8177616 488.461621,49.7479374 479.74446,41.7822556 C477.640317,39.8284091 475.235583,38.0248585 472.981145,36.3716038 C471.628482,35.4698285 470.426115,34.5680532 469.073452,33.8165738 C467.720789,33.0650943 466.518422,32.3136149 465.316055,31.5621355 C460.055699,28.5562178 454.494751,26.1514837 448.783508,24.0473413 C437.210725,19.6887607 425.036758,16.9834348 412.411904,15.7810678 C399.78705,14.5787007 387.0119,14.5787007 374.387045,16.2319554 C368.074618,16.9834348 361.762191,18.1858019 355.60006,19.9893525 C352.594142,20.8911278 349.588225,21.943199 346.582307,22.9952702 C343.726685,24.1976372 340.720768,25.7005961 337.71485,26.9029631 C314.418988,38.1751544 291.874605,51.551488 270.081702,65.0781175 C259.260399,71.9917281 248.439095,78.7550429 237.768087,85.5183576 C227.09708,92.2816724 216.576368,99.0449871 206.205952,105.50771 C185.46512,118.583452 165.175176,130.907714 145.035527,141.27813 C134.965703,146.38819 124.895879,151.047363 114.675759,154.05328 C113.473392,154.504168 112.120729,154.80476 110.768066,155.105352 L108.81422,155.556239 C108.06274,155.706535 107.461557,155.856831 106.860373,155.856831 C104.155047,156.307719 101.449721,156.307719 98.7443954,156.007127 C93.3337436,155.405943 88.3739794,153.452097 84.1656947,150.295883 C79.9574099,147.13967 76.9514923,142.931385 75.1479417,138.272213 C73.3443911,133.61304 73.1940952,128.50298 74.3964623,123.843808 C75.5988293,119.184635 78.1538593,115.126647 81.4603688,111.970433 C84.7668782,108.81422 89.1254588,106.860373 93.4840394,106.559781 C97.8426201,106.25919 102.201201,107.762148 105.50771,110.166882 C108.81422,112.571617 111.068658,116.178718 112.120729,119.936115 C113.1728,123.843808 112.271025,128.052093 110.467474,131.05801 C108.663924,134.214224 105.958598,136.91955 102.501792,138.121917 C99.0449871,139.324284 95.28759,138.7231 92.4319683,137.220141 C89.4260506,135.566887 87.6225,132.861561 86.5704288,130.005939 C86.1195412,128.50298 85.9692453,126.849726 86.269837,125.346767 C86.4201329,124.595287 86.5704288,123.994104 86.8710206,123.242624 L87.0213165,122.942033 L87.1716123,122.491145 L87.3219082,122.190553 L87.6225,121.58937 C88.9751629,119.334931 90.7787135,117.531381 93.0331518,116.930197 C95.28759,116.178718 97.3917324,116.629605 98.8946912,117.381085 C100.39765,118.132564 101.299425,119.334931 101.900609,120.236707 C102.95268,122.190553 102.501792,123.242624 102.652088,123.242624 L100.547946,123.843808 C100.547946,123.843808 100.39765,123.693512 100.097058,123.543216 C99.7964665,123.242624 99.4958748,123.092328 98.8946912,122.791737 C97.8426201,122.190553 96.3396612,122.040257 95.1372942,122.791737 C94.5361106,123.092328 93.6343353,123.693512 93.0331518,124.745583 L92.73256,125.346767 L92.5822641,125.647358 C92.73256,125.346767 92.5822641,125.647358 92.5822641,125.497063 L92.5822641,125.497063 L92.5822641,125.647358 C92.4319683,125.94795 92.4319683,126.248542 92.2816724,126.398838 C92.1313765,127.000021 92.1313765,127.450909 92.2816724,128.202388 C92.5822641,129.555051 93.6343353,131.05801 95.1372942,131.959786 C96.640253,133.011857 98.5940995,133.462744 100.698242,132.861561 C102.652088,132.410673 104.756231,130.757419 106.25919,128.653276 C106.409485,128.50298 106.710077,128.052093 106.860373,127.751501 C107.010669,127.450909 107.160965,127.150317 107.311261,126.849726 C107.611852,126.248542 107.912444,125.647358 108.06274,124.895879 C108.363332,123.543216 108.513628,122.190553 108.213036,120.687594 C107.611852,117.831973 105.808302,114.826055 103.253272,112.872208 C100.698242,110.768066 97.0911406,109.715995 93.6343353,109.866291 C90.0272341,110.016587 86.4201329,111.669841 83.714807,114.224871 C80.8591852,116.930197 78.604747,120.537298 77.5526758,124.444991 C76.5006046,128.50298 76.6509005,132.861561 78.1538593,137.069846 C79.6568182,141.127834 82.51244,145.035527 86.1195412,147.740853 C89.7266424,150.596475 94.3858147,152.400026 99.195283,153.001209 C101.600017,153.301801 104.004751,153.151505 106.559781,152.850913 C107.160965,152.700617 107.912444,152.700617 108.363332,152.550322 L110.166882,152.099434 C111.36925,151.798842 112.721913,151.49825 113.92428,151.047363 C123.843808,148.041445 133.913632,143.682864 143.83316,138.422509 C163.672217,128.202388 183.962161,115.72783 204.552697,102.652088 C214.923113,96.0390695 225.293529,89.2757547 235.964537,82.51244 C246.485249,75.5988293 257.306552,68.6852187 268.127856,61.7716081 C289.920759,47.9443868 312.014254,33.9668696 335.610708,21.943199 C338.616625,20.4402401 341.321951,19.0875772 344.628461,17.7349142 C347.784674,16.3822513 350.940888,15.1798842 354.097101,14.2781089 C360.559824,12.3242624 367.022547,10.9715995 373.635566,9.9195283 C386.711308,7.96568182 400.087641,7.81538593 413.163383,9.017753 C426.239125,10.2201201 439.164571,12.925446 451.188242,17.2840266 C457.200077,19.5384648 463.061617,22.2437907 468.77286,25.4000043 C470.125523,26.1514837 471.628482,27.053259 472.981145,27.9550343 C474.333808,28.8568096 475.536175,29.7585849 476.888838,30.5100643 C479.594164,32.4639108 482.149194,34.4177573 484.403632,36.6721955 C493.721977,45.5396527 500.1847,56.661548 504.242689,68.0840352 C508.300677,79.5065223 510.104228,91.3798971 509.803636,102.95268 C509.503045,114.525463 506.948015,125.797654 501.837955,135.416591 C501.236771,136.618958 500.485292,137.821325 499.884108,139.023692 C499.132629,140.226059 498.381149,141.27813 497.62967,142.330202 C496.126711,144.58464 494.32316,146.688782 492.51961,148.642629 C488.912509,152.550322 485.004816,155.856831 480.946827,158.862749 C476.888838,161.868666 472.680553,164.423696 468.321973,166.527839 C466.21783,167.57991 463.963392,168.631981 461.708954,169.533756 C460.506587,169.984644 459.454515,170.285236 458.402444,170.736123 C457.200077,171.187011 456.148006,171.487603 455.095935,171.788195 C446.378774,174.343225 437.661612,175.996479 429.094747,175.545592 C426.990605,175.395296 424.886462,175.245 422.632024,174.643816 C420.678177,174.192929 417.972852,173.291154 416.620189,172.539674 C414.36575,171.337307 412.712496,170.13494 411.209537,168.782277 C409.706578,167.429614 408.353915,165.926655 407.151548,164.273401 C404.746814,161.117187 403.243855,157.810678 402.191784,154.353872 C401.740896,152.550322 401.290009,151.047363 401.139713,149.093516 C400.989417,148.041445 400.989417,147.440262 400.989417,146.688782 L400.989417,146.087599 L400.989417,145.336119 L400.989417,143.983456 C401.5906,137.069846 404.89711,131.508898 409.105394,128.052093 C409.405986,127.751501 409.556282,127.601205 410.00717,127.450909 C410.307762,127.300613 410.758649,127.000021 410.908945,126.849726 L411.209537,126.69943 L411.359833,126.549134 L411.660424,126.398838 L411.81072,126.398838 L412.712496,125.94795 C413.914863,125.497063 415.11723,125.046175 416.169301,124.895879 C418.423739,124.444991 420.527882,124.444991 422.331432,124.895879 C424.134983,125.196471 425.788238,125.94795 426.990605,126.69943 C428.192972,127.601205 429.094747,128.50298 429.69593,129.25446 C430.297114,130.156235 430.597706,130.907714 430.597706,131.208306 C430.748002,131.659194 430.748002,131.80949 430.748002,131.80949 L428.643859,133.312449 L428.643859,133.312449 Z" id="Shape" fill="#FFFFFF"></path>
                <path d="M278.047384,130.156235 L278.047384,157.810678 L273.388212,162.46985 L278.047384,167.129022 L278.047384,191.476955 C278.047384,191.476955 278.648568,195.68524 276.394129,195.68524 L275.342058,200.194117 L294.27934,195.835536 L296.08289,191.32666 L292.926677,188.771629 L292.926677,161.568075 L295.030819,161.868666 L304.49946,187.118375 C304.49946,187.118375 304.349164,190.424884 302.545613,190.424884 L301.794134,194.182281 L324.037925,189.072221 L322.835557,185.615416 C322.835557,185.615416 319.07816,185.765712 317.124314,180.805948 C315.170467,175.846184 310.210703,155.856831 310.210703,155.856831 L301.643838,155.706535 C301.643838,155.706535 316.823722,151.798842 316.823722,127.150317 C316.823722,121.58937 313.066325,113.473392 297.585849,116.028422 L273.989395,121.439074 L272.486437,125.94795 C272.787028,125.797654 278.047384,124.595287 278.047384,130.156235 L278.047384,130.156235 Z M292.926677,129.104164 C296.684074,127.450909 302.094726,127.000021 302.094726,134.063928 C302.094726,145.185823 292.926677,149.6947 292.926677,149.6947 L292.926677,129.104164 L292.926677,129.104164 Z" id="Shape" fill="#FFFFFF"></path>
                <path d="M364.317221,110.61777 L372.132607,107.762148 L372.132607,135.115999 L367.172843,140.075763 L372.132607,145.035527 L372.132607,168.631981 C372.132607,168.631981 373.184678,173.742041 367.172843,173.742041 L366.120772,179.453285 L395.278173,172.840266 L393.474623,168.631981 C393.474623,168.631981 387.0119,168.631981 387.0119,163.972809 C387.0119,162.169258 386.861604,151.347955 386.711308,139.324284 L391.069888,134.965703 L386.561012,130.456827 C386.410716,119.785819 386.26042,109.565699 386.26042,104.455639 L393.324327,102.802384 C400.839121,101.299425 407.903027,111.970433 407.903027,111.970433 L410.307762,109.715995 L401.740896,92.2816724 L354.247397,103.102976 L351.091184,121.889961 L354.848581,121.889961 C356.952723,115.276943 364.317221,110.61777 364.317221,110.61777" id="Shape" fill="#FFFFFF"></path>
                <path d="M330.801239,116.779901 L330.801239,145.937303 L326.142067,150.596475 L330.801239,155.255648 L330.801239,174.944408 C330.801239,174.944408 330.350352,183.511274 327.945617,183.511274 L327.043842,188.471038 L352.594142,182.609498 L351.091184,179.002397 C351.091184,179.002397 346.582307,178.701805 346.582307,171.337307 L346.582307,149.394108 L350.640296,145.336119 L346.582307,141.27813 L346.582307,112.872208 C346.582307,112.872208 346.281715,109.265107 349.588225,109.265107 L347.93497,104.455639 L325.841475,109.565699 L325.089996,114.525463 C325.089996,114.375167 330.801239,113.623688 330.801239,116.779901" id="Shape" fill="#FFFFFF"></path>
                <path d="M3.00591767,285.261587 L6.46272298,291.273422 C10.6710077,278.798864 19.388169,269.029631 19.388169,269.029631 L17.7349142,267.97756 C15.480476,268.729039 15.0295883,264.821346 15.0295883,264.821346 L15.0295883,229.952702 L19.388169,225.594121 L15.0295883,221.385836 L15.0295883,205.003585 L31.5621355,243.479331 L48.5455703,193.430802 L48.5455703,215.524297 L44.7881732,219.281694 L48.5455703,223.039091 L48.5455703,238.519567 C48.5455703,244.531402 46.2911321,244.531402 46.2911321,244.531402 L46.5917238,247.53732 C56.2106604,242.126668 67.6331475,243.479331 67.6331475,243.479331 C67.6331475,243.479331 67.4828516,241.67578 65.8295969,240.924301 C64.1763422,240.172822 64.1763422,236.866312 64.1763422,236.866312 L64.1763422,218.079327 L68.3846269,213.871042 L64.1763422,209.813053 L64.1763422,177.198846 C64.1763422,173.140858 67.6331475,172.539674 67.6331475,172.539674 L67.4828516,168.631981 L47.643795,173.140858 L33.0650943,209.662757 C33.0650943,209.662757 23.5964537,186.817783 22.3940866,183.511274 C22.0934949,182.759794 23.2958619,182.158611 23.2958619,182.158611 L22.0934949,179.002397 L2.40473413,183.511274 L3.30650943,186.517191 C6.3124271,186.517191 5.56094768,191.176364 5.56094768,191.176364 L5.56094768,224.842641 L0.9017753,229.501814 L5.56094768,234.160986 L5.56094768,264.220163 C5.56094768,280.151527 3.00591767,285.261587 3.00591767,285.261587" id="Shape" fill="#FFFFFF"></path>
                <path d="M82.2118482,242.276964 C81.0094811,241.525485 81.3100729,238.218975 81.3100729,238.218975 L85.2177659,215.223705 L95.7384777,212.818971 L100.547946,232.808323 C100.547946,238.369271 97.5420283,238.820159 97.5420283,238.820159 L98.1432118,241.976372 L120.387003,236.866312 L118.583452,233.108915 C116.779901,233.108915 116.779901,230.704181 116.779901,230.704181 L111.068658,205.90536 L114.375167,200.043821 L108.964515,197.037903 L102.501792,169.233165 C102.501792,165.02488 103.403568,164.573992 103.403568,164.573992 L103.403568,161.417779 L81.3100729,166.527839 L80.8591852,169.684052 C83.714807,169.684052 83.4142153,173.441449 83.4142153,173.441449 L78.0035635,205.604768 L72.8935034,209.512461 L76.5006046,214.171634 L72.7432075,236.866312 C72.7432075,238.820159 72.2923199,240.323117 71.6911364,241.525485 L74.2461664,241.525485 C76.9514923,241.67578 79.6568182,241.976372 82.2118482,242.276964 L82.2118482,242.276964 Z M89.8769382,188.170446 L94.2355189,206.65684 L86.4201329,208.46039 L89.8769382,188.170446 L89.8769382,188.170446 Z" id="Shape" fill="#FFFFFF"></path>
                <path d="M252.64738,192.529027 L252.64738,192.078139 L252.64738,189.973997 L252.64738,189.673405 C252.046196,178.100622 247.387024,158.411861 224.241458,158.411861 C199.142045,158.411861 200.344413,178.100622 200.344413,178.100622 L200.344413,178.100622 C200.194117,181.707723 200.945596,184.713641 201.997667,186.066304 C203.500626,188.471038 206.205952,190.124292 209.362166,190.124292 C214.171634,190.124292 217.929031,186.216599 217.929031,181.557427 C217.929031,176.747959 214.021338,172.990562 209.362166,172.990562 C206.807135,172.990562 204.552697,174.192929 202.899443,175.996479 C203.049738,175.245 203.200034,174.493521 203.500626,173.892337 C205.304177,169.082869 210.564533,163.371625 225.293529,163.071033 C235.062762,162.920738 242.276964,167.279318 246.78584,176.297071 C250.09235,183.060386 250.543238,190.124292 250.543238,190.124292 C250.543238,190.274588 251.595309,206.055656 241.224893,217.327847 C236.114833,222.888795 229.050926,226.3456 220.183469,227.848559 L220.183469,212.217787 C220.333765,197.338495 220.333765,180.204764 220.333765,171.637899 C220.333765,170.886419 221.686428,169.233165 221.686428,169.233165 L220.333765,166.978726 L211.917196,169.834348 L211.917196,171.637899 C216.275776,172.840266 219.43199,176.747959 219.43199,181.557427 C219.43199,186.216599 216.275776,190.274588 211.917196,191.476955 L211.917196,192.829618 C211.917196,192.829618 213.420154,204.702993 202.598851,204.702993 C191.777547,204.702993 194.182281,182.609498 194.182281,171.187011 C194.182281,159.764524 200.645004,144.734936 205.755064,144.734936 C209.963349,144.734936 211.466308,154.353872 211.466308,154.353872 L214.021338,153.001209 L214.021338,135.416591 L210.263941,136.318366 C210.263941,138.572804 208.911278,139.925467 208.911278,139.925467 C208.911278,139.925467 204.402401,138.121917 202.448555,138.121917 C200.494708,138.121917 176.297071,137.671029 176.297071,176.898255 C176.297071,179.152693 176.297071,181.256835 176.447367,183.360978 L172.539674,187.268671 L177.499438,192.228435 C181.707723,216.87696 196.43672,218.530214 201.697075,217.778735 C205.755064,217.177551 209.061574,213.720746 210.714828,211.7669 C210.564533,217.628439 210.564533,223.489979 210.414237,229.351518 L209.512461,229.351518 C165.926655,229.351518 164.423696,189.222517 164.423696,187.569262 L164.423696,186.517191 L156.908902,186.667487 C165.926655,179.302989 170.285236,172.088786 170.285236,164.724288 C170.285236,159.91482 168.782277,156.157423 165.626063,153.452097 C159.463932,148.041445 149.243812,149.093516 148.792925,149.243812 L123.39292,155.105352 L121.739666,160.516003 L123.092328,160.516003 C123.543216,160.516003 127.601205,160.816595 127.601205,164.874584 L127.601205,194.783465 L123.242624,199.142045 L127.601205,203.500626 L127.601205,224.241458 C127.601205,224.241458 126.549134,228.750334 124.1444,228.750334 L123.242624,228.750334 L121.739666,236.866312 L154.353872,229.351518 L151.047363,222.137316 L150.145587,222.287611 C150.145587,222.287611 149.093516,222.437907 148.342037,221.836724 C147.590557,221.23554 147.13967,219.882877 147.13967,217.929031 L147.13967,198.24027 L148.342037,197.789382 C150.446179,204.252105 162.319554,235.964537 200.194117,235.964537 C203.35033,235.964537 206.65684,235.663945 210.263941,235.213057 C210.113645,244.080515 210.113645,252.947972 209.963349,261.815429 C208.760982,267.676968 206.807135,273.237916 203.801218,278.347976 C200.7953,283.30774 196.587015,287.365729 191.32666,289.620167 C186.216599,291.874605 180.204764,292.475789 174.493521,291.72431 C168.782277,291.123126 162.920738,289.319575 157.660382,286.764545 C154.955056,285.411882 152.550322,284.05922 150.145587,282.255669 C147.740853,280.452118 145.336119,278.498272 143.081681,276.544425 C138.422509,272.636732 133.61304,268.578744 128.50298,264.821346 C118.433156,257.306552 106.860373,251.144421 94.3858147,247.988208 C88.2236835,246.334953 81.7609605,245.433178 75.4485334,245.132586 C73.7952787,245.132586 72.142024,244.98229 70.6390652,244.98229 L68.3846269,244.98229 L67.7834434,244.98229 L67.4828516,244.98229 L67.1822599,244.98229 L65.9798928,245.132586 C62.6733834,245.282882 59.3668739,245.884065 56.2106604,246.78584 C43.4355103,250.242646 32.3136149,258.058032 23.8970455,267.827264 C19.6887607,272.636732 16.0816595,278.047384 13.2260377,283.908924 C10.370416,289.620167 8.1159777,295.782298 6.76331475,302.094726 C5.4106518,308.407153 4.95976415,315.020172 5.71124357,321.482894 C5.86153945,323.136149 6.16213122,324.639108 6.46272298,326.292363 C6.91361063,327.945617 7.2142024,329.598872 7.66509005,331.101831 C8.56686535,334.258045 9.9195283,337.113666 11.4224871,339.969288 C17.5846184,351.391775 27.9550343,360.259232 39.8284091,364.768109 C51.7017839,369.427281 65.0781175,370.028465 77.252084,366.721955 C83.2639194,365.068701 89.4260506,362.363375 94.5361106,358.605978 C99.7964665,354.848581 104.155047,349.888816 107.461557,344.478165 C114.224871,333.506565 116.629605,319.679344 113.473392,306.753898 C111.820137,300.291175 108.513628,293.978748 103.70416,289.16928 C98.8946912,284.209515 92.5822641,280.602414 85.6686535,279.099455 C78.7550429,277.596497 71.3905446,277.897088 64.476934,280.75271 C57.5633233,283.758628 51.8520798,289.469871 48.996458,296.533778 C46.1408362,303.597684 45.9905403,311.713662 48.6958662,318.927864 C51.551488,326.592955 58.3148027,332.304198 65.9798928,334.40834 C67.9337393,334.859228 69.8875858,335.310116 71.8414322,335.310116 L74.8473499,335.310116 C75.7491252,335.310116 76.9514923,335.15982 78.0035635,334.859228 C79.2059305,334.708932 79.8071141,334.40834 80.5585935,334.258045 L80.8591852,334.258045 L81.0094811,334.258045 C81.6106647,334.107749 81.3100729,334.107749 81.4603688,334.107749 L82.2118482,333.807157 C82.6627358,333.656861 83.2639194,333.506565 83.714807,333.205973 C85.6686535,332.304198 87.3219082,331.101831 88.9751629,329.598872 C91.9810806,326.592955 93.9349271,322.685262 94.2355189,318.777569 C94.3858147,316.823722 94.2355189,314.869876 93.7846312,312.916029 C93.4840394,312.014254 93.1834477,311.112479 92.73256,310.210703 C92.2816724,309.308928 91.6804888,308.707744 91.2296012,308.106561 L89.1254588,308.707744 C87.9230918,315.170467 84.7668782,318.627273 81.4603688,320.881711 C80.5585935,321.332599 79.8071141,321.783486 78.9053388,322.234374 C78.7550429,322.38467 78.4544511,322.38467 78.1538593,322.534966 L77.8532676,322.685262 L77.5526758,322.835557 C76.8011964,322.985853 75.8994211,323.286445 75.5988293,323.286445 C75.1479417,323.286445 74.8473499,323.436741 74.2461664,323.436741 L72.5929117,323.436741 C71.5408405,323.436741 70.4887693,323.136149 69.4366981,322.985853 C65.2284134,321.783486 61.6213122,318.777569 59.9680575,314.71958 C58.1645069,310.511295 58.014211,305.401235 59.6674657,300.892358 C61.3207204,296.383482 64.6272298,292.626085 68.9858105,290.371647 C73.3443911,288.267504 78.9053388,287.365729 84.1656947,288.267504 C89.4260506,289.018984 94.5361106,291.423718 98.5940995,295.030819 C102.652088,298.63792 105.808302,303.447388 107.611852,308.85804 C109.415403,314.268692 110.016587,320.130232 109.415403,325.991771 C108.81422,331.85331 107.010669,337.414258 104.155047,342.674614 C98.4438036,353.04503 88.3739794,360.860416 76.8011964,363.866334 C71.0899528,365.519588 65.0781175,366.120772 59.0662822,365.82018 C53.0544468,365.519588 47.1929074,364.166925 41.6319597,361.912487 C30.6603602,357.253315 21.3420154,348.836745 16.2319554,338.165738 C14.8792925,335.460412 13.8272213,332.755086 13.0757419,329.899464 C12.6248542,328.396505 12.4745583,327.043842 12.1739666,325.691179 C12.0236707,324.18822 11.7230789,322.835557 11.7230789,321.332599 C11.2721913,315.471059 11.8733748,309.60952 13.2260377,303.898276 C16.0816595,292.475789 21.7929031,281.804781 29.608289,272.937324 C33.515982,268.428448 37.8745626,264.520755 42.6840309,261.364541 C47.4934991,258.058032 52.7538551,255.653298 58.3148027,254.000043 C61.1704245,253.248563 63.8757504,252.64738 66.7313722,252.497084 L67.7834434,252.346788 L68.0840352,252.346788 L68.234331,252.346788 L68.8355146,252.346788 L71.0899528,252.346788 L75.5988293,252.346788 C81.6106647,252.64738 87.4722041,253.398859 93.1834477,254.751522 C104.756231,257.607144 115.427238,263.168092 125.196471,270.231998 C130.156235,273.688804 134.815407,277.596497 139.624876,281.50419 C142.02961,283.458036 144.58464,285.411882 147.13967,287.215433 C149.6947,289.018984 152.700617,290.822534 155.556239,292.024901 C161.417779,294.730227 167.730206,296.533778 174.192929,297.134961 C180.655652,297.736145 187.418967,296.984665 193.581098,294.129044 C194.633169,293.678156 198.841454,291.874605 200.043821,290.97283 C201.847371,290.071055 203.650922,289.018984 205.454473,287.666321 C208.760982,285.261587 211.7669,282.255669 214.171634,278.798864 C216.576368,275.342058 217.778735,271.885253 218.830806,267.827264 C220.033173,263.618979 220.033173,259.110103 220.183469,255.052114 L220.183469,248.889983 L220.183469,242.878147 L220.183469,233.259211 C228.600039,230.854477 237.467496,226.495896 243.479331,218.530214 C251.445013,209.362166 252.64738,197.939678 252.64738,192.979914 L252.64738,192.979914 L252.64738,192.529027 Z M146.538486,183.511274 L146.538486,162.018962 C146.538486,162.018962 154.654464,158.411861 154.654464,168.331389 C154.654464,178.250918 146.538486,183.511274 146.538486,183.511274 L146.538486,183.511274 Z" id="Shape" fill="#FFFFFF"></path>
                <path d="M239.271046,169.984644 C236.866312,167.880502 234.160986,166.678135 231.004773,165.926655 L225.143233,201.095892 C225.143233,206.506544 221.98702,208.310094 221.98702,208.310094 L221.98702,212.818971 L236.716016,209.512461 L235.363353,206.807135 C233.409507,206.807135 233.860394,202.598851 233.860394,202.598851 L239.271046,169.984644 L239.271046,169.984644 Z" id="Shape" fill="#FFFFFF"></path>
                <path d="M270.833182,197.488791 C269.029631,197.488791 269.029631,195.084057 269.029631,195.084057 L263.168092,170.13494 L266.324305,164.573992 L261.364541,161.71837 L254.751522,133.61304 C254.751522,129.404756 255.653298,128.953868 255.653298,128.953868 L255.653298,125.797654 L233.559803,130.907714 L233.108915,134.965703 C235.964537,134.965703 235.663945,137.069846 235.663945,137.069846 L232.20714,157.660382 C235.363353,158.411861 238.218975,159.614228 240.473413,161.117187 L241.976372,152.550322 L244.831994,164.573992 C252.497084,172.239082 254.150339,183.661569 254.450931,189.973997 L254.450931,190.274588 L254.450931,192.529027 L254.450931,195.084057 L254.300635,195.084057 C254.150339,197.939678 253.549155,201.847371 252.196492,206.055656 L272.185845,201.54678 L270.833182,197.488791 L270.833182,197.488791 Z" id="Shape" fill="#FFFFFF"></path>
                <path d="M358.906569,273.388212 L353.195326,248.589391 L356.501835,242.727852 L351.091184,239.721934 L344.628461,211.917196 C344.628461,207.708911 345.530236,207.258023 345.530236,207.258023 L345.530236,204.10181 L323.436741,209.21187 L322.985853,212.368083 C325.841475,212.368083 325.540883,216.12548 325.540883,216.12548 L320.130232,248.288799 L315.020172,252.196492 L318.627273,256.855665 L317.875793,261.214245 C320.581119,263.468684 323.286445,266.624897 325.089996,270.833182 L327.344434,257.75744 L337.865146,255.352706 L342.674614,275.342058 C342.674614,280.903006 339.668696,281.353894 339.668696,281.353894 L340.26988,284.510107 L362.513671,279.400047 L360.71012,275.64265 C358.756274,275.792946 358.906569,273.388212 358.906569,273.388212 L358.906569,273.388212 Z M328.697097,250.843829 L332.153902,230.704181 L336.512483,249.190575 L328.697097,250.843829 L328.697097,250.843829 Z" id="Shape" fill="#FFFFFF"></path>
                <path d="M296.233186,256.555073 C296.233186,256.555073 310.511295,250.693533 310.511295,232.958619 C310.511295,215.073409 289.018984,216.726664 289.018984,216.726664 L266.474601,222.137316 L262.116021,223.189387 L265.723122,226.946784 C271.133774,226.946784 270.682886,228.600039 270.682886,228.600039 L270.682886,259.410695 L265.572826,264.520755 L270.682886,269.630815 L270.682886,273.388212 C279.099455,270.53259 285.712474,272.636732 285.712474,272.636732 L285.712474,267.97756 C290.221351,265.272234 292.325493,264.971642 295.181115,264.520755 C298.938512,264.370459 317.875793,266.324305 319.679344,283.30774 C320.881711,294.129044 316.072243,303.447388 307.204786,312.615437 C309.158632,312.615437 315.170467,310.811887 315.170467,310.811887 C324.18822,301.19295 326.442659,298.187033 326.442659,283.758628 C326.592955,255.503002 296.233186,256.555073 296.233186,256.555073 M285.562178,252.196492 L285.562178,229.952702 C285.562178,229.952702 298.938512,223.189387 298.938512,234.01069 C298.938512,244.831994 285.562178,252.196492 285.562178,252.196492" id="Shape" fill="#FFFFFF"></path>
                <path d="M464.714871,209.21187 C457.801261,210.113645 453.142088,214.021338 453.142088,221.686428 C453.142088,229.351518 457.200077,231.305364 460.807178,231.305364 C464.564575,231.305364 467.420197,228.750334 467.420197,224.692346 C467.420197,220.634357 465.917238,220.484061 465.917238,220.484061 L465.015463,220.784653 C465.015463,223.640274 463.963392,226.3456 460.957474,226.3456 C457.951557,226.3456 455.697118,223.79057 455.396527,221.385836 C455.246231,219.582286 455.697118,211.616604 464.714871,211.616604 C473.582328,211.616604 482.149194,216.87696 482.149194,238.369271 C482.149194,259.861582 452.390609,266.023714 429.996522,265.121938 L427.441492,265.121938 L427.441492,231.906548 L431.800073,227.698263 L427.441492,223.489979 L427.441492,192.679322 C427.441492,189.823701 430.898298,189.222517 430.898298,189.222517 L430.898298,185.765712 L406.249773,191.476955 L408.203619,195.234352 C411.961016,191.476955 413.313679,198.540862 413.313679,198.540862 L413.313679,226.946784 L408.053323,232.20714 L413.313679,237.467496 L413.313679,261.665133 C413.313679,263.919571 412.111312,265.121938 410.908945,265.873418 C396.48054,267.075785 385.208349,269.630815 385.208349,269.630815 L385.208349,242.276964 L389.867521,237.768087 L385.208349,233.259211 L385.208349,201.697075 C385.208349,198.841454 388.665154,198.24027 388.665154,198.24027 L388.665154,194.783465 L364.016629,200.494708 L365.970476,204.252105 C369.727873,200.494708 371.080536,207.558615 371.080536,207.558615 L371.080536,236.716016 L366.421364,241.224893 L371.080536,245.733769 L371.080536,270.682886 C371.080536,275.342058 365.82018,275.64265 365.82018,275.64265 L368.525506,279.550343 C368.525506,279.550343 401.440304,267.526672 427.742084,268.879335 C459.30422,270.53259 491.166947,263.618979 491.166947,237.016608 C491.166947,210.414237 467.720789,208.760982 464.714871,209.21187" id="Shape" fill="#FFFFFF"></path>
                <path d="M413.764567,122.791737 C415.868709,122.190553 417.972852,122.040257 419.776402,122.190553 C420.828473,122.340849 421.880545,122.491145 422.78232,122.641441 L424.886462,110.317178 L428.343268,125.046175 C428.493563,125.196471 428.643859,125.196471 428.794155,125.346767 C429.996522,126.098246 430.44741,126.69943 430.898298,127.300613 C431.950369,128.50298 432.551552,129.555051 432.852144,130.456827 C433.753919,132.260377 433.753919,133.763336 433.753919,133.61304 L430.748002,135.416591 L435.407174,155.105352 C435.407174,160.666299 432.401256,161.117187 432.401256,161.117187 L433.00244,164.273401 L455.246231,159.16334 L453.44268,155.405943 C451.639129,155.405943 451.639129,153.001209 451.639129,153.001209 L445.77759,127.901797 L449.234395,121.58937 L443.523152,118.433156 L437.210725,91.3798971 C437.210725,87.1716123 438.1125,86.7207247 438.1125,86.7207247 L438.1125,83.5645111 L416.019005,88.6745712 L415.568117,91.8307847 C418.423739,91.8307847 418.123147,95.5881818 418.123147,95.5881818 L413.764567,122.791737 L413.764567,122.791737 Z" id="Shape" fill="#FFFFFF"></path>
                <path d="M399.336162,51.551488 C396.931428,47.4934991 393.324327,44.6378774 389.717226,42.9846226 C387.913675,42.2331432 385.959828,41.6319597 384.156278,41.4816638 C382.202431,41.3313679 380.549177,41.4816638 378.895922,41.9325515 C375.589412,42.8343268 373.184678,44.6378774 371.531424,46.2911321 C369.878169,48.0946827 368.976394,49.8982333 368.525506,51.1006003 C368.074618,52.3029674 367.924322,53.0544468 367.924322,53.0544468 L369.878169,53.5053345 C369.878169,53.5053345 370.028465,52.9041509 370.329057,51.8520798 C370.629648,50.8000086 371.381128,49.1467539 372.733791,47.4934991 C374.086454,45.8402444 376.340892,44.1869897 379.34681,43.2852144 C380.849768,42.8343268 382.503023,42.6840309 384.156278,42.8343268 C385.959828,42.9846226 387.613083,43.5858062 389.416634,44.3372856 C391.220184,45.088765 392.873439,46.1408362 394.376398,47.4934991 C395.879357,48.8461621 397.23202,50.4994168 398.284091,52.4532633 C400.538529,56.2106604 401.440304,61.0201286 400.538529,65.679301 C399.636754,70.3384734 397.382316,74.8473499 393.92551,78.4544511 C392.272256,80.2580017 390.168113,81.7609605 388.063971,83.1136235 C385.809533,84.3159906 383.555094,85.3680617 381.15036,86.1195412 C378.745626,86.7207247 376.190596,87.3219082 373.785862,87.3219082 C372.583495,87.4722041 371.381128,87.3219082 370.028465,87.3219082 C368.826098,87.1716123 367.323139,87.1716123 366.271068,86.8710206 C361.461599,86.1195412 356.802427,84.3159906 352.894734,81.7609605 C348.987041,79.2059305 345.680532,76.049717 343.426093,72.4426158 C341.171655,68.8355146 339.969288,64.9278216 339.368105,61.3207204 C338.917217,57.7136192 339.067513,54.2568139 339.5184,51.2508962 C339.818992,49.7479374 339.969288,48.3952744 340.420176,47.1929074 C340.720768,45.9905403 341.171655,44.7881732 341.472247,43.8863979 C342.073431,41.7822556 342.975206,40.1290009 343.426093,39.0769297 C343.726685,38.3254503 344.027277,37.7242667 344.027277,37.5739708 L337.263962,40.5798885 C337.113666,41.181072 336.96337,41.6319597 336.662779,42.3834391 C336.362187,43.5858062 336.061595,44.9384691 335.610708,46.2911321 C335.15982,47.7940909 335.15982,49.2970497 334.859228,50.9503045 C334.40834,54.2568139 334.558636,58.1645069 335.15982,62.3727916 C336.061595,66.4307804 337.564554,70.7893611 340.26988,74.8473499 C342.975206,78.9053388 346.732603,82.3621441 351.091184,85.06747 C355.449764,87.7727959 360.559824,89.5763465 365.970476,90.3278259 C367.473435,90.6284177 368.675802,90.4781218 369.878169,90.6284177 C371.230832,90.6284177 372.733791,90.6284177 373.936158,90.4781218 C376.641484,90.3278259 379.34681,89.7266424 381.90184,88.9751629 C384.45687,88.0733876 387.0119,87.0213165 389.266338,85.5183576 C391.520776,84.0153988 393.624918,82.3621441 395.428469,80.2580017 C399.03557,76.2000129 401.290009,71.2402487 402.191784,66.2804846 C402.943263,60.569241 401.891192,55.459181 399.336162,51.551488" id="Shape" fill="#FFFFFF"></path>
                <path d="M371.230832,50.4994168 C372.884087,50.6497127 374.086454,52.3029674 373.936158,53.9562221 C373.785862,55.6094768 372.132607,56.8118439 370.479352,56.661548 C368.826098,56.5112521 367.623731,54.8579974 367.774027,53.2047427 C367.924322,51.551488 369.427281,50.3491209 371.230832,50.4994168" id="Shape" fill="#FFFFFF"></path>
                <path d="M407.45214,56.2106604 C408.053323,56.3609563 408.654507,56.9621398 408.504211,57.5633233 C408.353915,58.1645069 407.752732,58.7656904 407.151548,58.6153945 C406.550364,58.4650986 405.949181,57.8639151 406.099477,57.2627316 C406.249773,56.5112521 406.850956,56.0603645 407.45214,56.2106604" id="Shape" fill="#FFFFFF"></path>
                <path d="M386.110124,65.8295969 C387.312491,65.9798928 388.214267,67.1822599 388.063971,68.3846269 C387.913675,69.586994 386.711308,70.4887693 385.508941,70.3384734 C384.306574,70.1881775 383.404798,68.9858105 383.555094,67.7834434 C383.70539,66.5810763 384.907757,65.679301 386.110124,65.8295969" id="Shape" fill="#FFFFFF"></path>
                <path d="M339.969288,41.0307762 C339.969288,41.0307762 339.368105,42.9846226 338.316033,46.2911321 C337.865146,47.9443868 337.71485,49.8982333 337.113666,52.1526715 C336.96337,53.3550386 337.113666,54.5574057 336.96337,55.7597727 C336.813075,57.1124357 337.113666,58.4650986 337.263962,59.8177616 C337.414258,60.569241 337.414258,61.1704245 337.564554,61.9219039 C337.71485,62.6733834 338.015442,63.4248628 338.165738,64.0260463 C338.316033,64.7775257 338.616625,65.5290051 338.766921,66.2804846 C339.067513,67.031964 339.368105,67.7834434 339.818992,68.5349228 C340.119584,69.2864022 340.420176,70.0378816 340.871063,70.7893611 C341.321951,71.5408405 341.772839,72.142024 342.223726,72.8935034 C343.125502,74.3964623 344.327869,75.5988293 345.530236,76.9514923 C346.732603,78.3041552 348.235562,79.3562264 349.588225,80.7088894 C351.091184,81.7609605 352.594142,82.9633276 354.397693,83.8651029 C356.050948,84.7668782 357.704202,85.6686535 359.658049,86.4201329 L362.363375,87.4722041 L365.218997,88.2236835 C368.976394,89.2757547 372.884087,89.7266424 376.79178,89.8769382 C378.745626,89.7266424 380.699473,89.7266424 382.503023,89.5763465 C384.45687,89.2757547 386.26042,88.8248671 387.913675,88.3739794 C391.37048,87.1716123 394.526694,85.5183576 397.081724,83.2639194 C399.636754,81.159777 401.740896,78.604747 403.394151,76.2000129 C405.047406,73.7952787 405.949181,71.0899528 406.70066,68.8355146 C407.301844,66.5810763 407.752732,64.476934 407.752732,62.6733834 C407.752732,61.7716081 407.903027,61.0201286 407.903027,60.4189451 C407.903027,59.8177616 407.903027,59.216578 407.752732,58.7656904 C407.752732,57.8639151 407.602436,57.4130274 407.602436,57.4130274 L408.203619,57.2627316 C408.203619,57.2627316 408.203619,57.7136192 408.353915,58.7656904 C408.353915,59.216578 408.504211,59.8177616 408.504211,60.569241 L408.504211,62.9739751 C408.353915,64.7775257 408.203619,66.8816681 407.602436,69.2864022 C406.850956,71.6911364 405.949181,74.3964623 404.295926,76.9514923 C402.642671,79.6568182 400.688825,82.2118482 397.983499,84.6165823 C395.278173,87.0213165 392.12196,88.9751629 388.364563,90.17753 C386.561012,90.7787135 384.607165,91.3798971 382.653319,91.6804888 C380.699473,91.9810806 378.59533,92.1313765 376.641484,92.2816724 C372.583495,92.2816724 368.525506,91.9810806 364.467517,90.9290094 L361.461599,90.17753 L358.605978,89.1254588 C356.652131,88.5242753 354.848581,87.4722041 353.04503,86.7207247 C351.241479,85.8189494 349.588225,84.6165823 347.93497,83.5645111 C346.432011,82.2118482 344.778756,81.159777 343.426093,79.6568182 C342.073431,78.1538593 340.720768,76.9514923 339.668696,75.2982376 C339.067513,74.5467581 338.616625,73.7952787 338.015442,73.0437993 C337.564554,72.2923199 337.113666,71.3905446 336.662779,70.6390652 C336.211891,69.8875858 335.761003,68.9858105 335.460412,68.234331 C335.15982,67.3325557 334.859228,66.5810763 334.708932,65.679301 C334.40834,64.9278216 334.107749,64.0260463 333.957453,63.2745669 C333.807157,62.5230875 333.656861,61.6213122 333.506565,60.8698328 C333.205973,59.3668739 332.905382,57.7136192 333.055678,56.3609563 L333.055678,52.3029674 C333.506565,49.7479374 333.656861,47.3432033 334.107749,45.6899485 C335.15982,42.3834391 335.610708,40.4295926 335.610708,40.4295926 L339.969288,41.0307762 L339.969288,41.0307762 Z" id="Shape" fill="#FFFFFF"></path>
                <path d="M390.318409,81.3100729 C390.318409,81.3100729 390.468705,81.159777 390.919593,80.8591852 C391.220184,80.5585935 391.821368,80.2580017 392.272256,79.6568182 C393.474623,78.4544511 394.827286,76.5006046 395.428469,73.6449828 C395.729061,72.2923199 395.879357,70.6390652 395.578765,69.1361063 C395.278173,67.4828516 394.526694,65.9798928 393.474623,64.6272298 C392.272256,63.2745669 390.769297,62.2224957 389.116042,61.6213122 C387.312491,61.0201286 385.358645,60.8698328 383.70539,61.6213122 C381.90184,62.2224957 380.398881,63.5751587 379.647401,65.2284134 C378.745626,66.8816681 378.445034,68.8355146 379.046218,70.4887693 C379.647401,72.142024 380.849768,73.494687 382.352727,73.9455746 C383.855686,74.5467581 385.508941,74.3964623 386.711308,73.6449828 C387.913675,72.8935034 388.514858,71.6911364 388.665154,70.4887693 C388.81545,69.4366981 388.364563,68.3846269 387.913675,67.7834434 C387.312491,67.1822599 386.711308,66.8816681 386.410716,66.7313722 C385.959828,66.5810763 385.809533,66.5810763 385.809533,66.5810763 L385.809533,65.9798928 C385.809533,65.9798928 386.110124,65.9798928 386.561012,66.1301887 C387.0119,66.2804846 387.763379,66.5810763 388.364563,67.3325557 C388.965746,68.0840352 389.56693,69.1361063 389.416634,70.4887693 C389.266338,71.8414322 388.514858,73.1940952 387.162196,74.0958705 C385.809533,74.9976458 383.855686,75.1479417 382.202431,74.5467581 C380.398881,73.9455746 378.895922,72.4426158 378.294738,70.6390652 C377.543259,68.6852187 377.843851,66.4307804 378.745626,64.6272298 C379.647401,62.8236792 381.300656,61.1704245 383.404798,60.4189451 C385.358645,59.6674657 387.763379,59.6674657 389.717226,60.4189451 C391.671072,61.0201286 393.474623,62.2224957 394.827286,63.7254545 C396.179949,65.2284134 396.931428,67.031964 397.382316,68.8355146 C397.682907,70.6390652 397.682907,72.4426158 397.23202,73.9455746 C396.48054,77.1017882 394.977581,79.3562264 393.775214,80.7088894 C393.174031,81.4603688 392.572847,81.9112564 392.12196,82.2118482 C391.821368,82.51244 391.520776,82.6627358 391.520776,82.6627358 L390.318409,81.3100729 L390.318409,81.3100729 Z" id="Shape" fill="#FFFFFF"></path>
                <path d="M189.372813,129.404756 C189.372813,129.404756 190.124292,128.803572 191.627251,127.901797 C193.13021,126.849726 195.234352,125.346767 197.939678,123.543216 C200.645004,121.739666 204.10181,119.485227 207.859207,116.930197 C211.7669,114.375167 215.975184,111.519545 220.784653,108.513628 C230.253293,102.351497 241.525485,95.4378859 253.549155,87.9230918 C265.572826,80.5585935 278.498272,72.5929117 291.574014,64.9278216 C304.49946,57.1124357 317.575202,49.5976415 329.899464,42.3834391 C336.061595,38.9266338 342.073431,35.4698285 347.634378,32.163319 C348.987041,31.4118396 350.49,30.5100643 351.842663,29.7585849 C353.345622,29.0071055 354.848581,28.1053302 356.201244,27.6544425 C359.207161,26.4520755 362.062783,25.7005961 364.918405,25.0994125 C370.479352,23.7467496 375.739708,22.9952702 380.398881,22.6946784 C385.058053,22.3940866 389.116042,22.6946784 392.572847,23.2958619 C395.879357,23.8970455 398.434387,24.6485249 400.087641,25.5503002 C400.839121,26.0011878 401.440304,26.3017796 401.891192,26.6023714 C402.34208,26.9029631 402.492376,27.053259 402.492376,27.053259 L402.191784,27.5041467 C402.191784,27.5041467 401.440304,27.053259 399.78705,26.4520755 C398.133795,25.8508919 395.729061,25.2497084 392.422551,24.9491166 C389.116042,24.6485249 385.208349,24.7988208 380.699473,25.4000043 C376.190596,25.8508919 371.230832,26.9029631 365.82018,28.405922 C363.114854,29.1574014 360.409528,30.2094726 357.704202,31.2615437 C356.201244,31.8627273 354.998876,32.4639108 353.796509,33.2153902 C352.443846,33.9668696 351.091184,34.8686449 349.588225,35.6201244 C344.027277,38.9266338 338.165738,42.3834391 332.003606,45.9905403 C319.82964,53.2047427 306.753898,60.8698328 293.828452,68.5349228 C280.75271,76.2000129 267.676968,83.8651029 255.503002,90.9290094 C243.178739,97.9929159 231.756252,104.605935 221.98702,110.317178 C212.217787,116.028422 203.951514,120.687594 198.24027,123.994104 C192.529027,127.300613 189.222517,129.25446 189.222517,129.25446 L189.372813,129.404756 L189.372813,129.404756 Z" id="Shape" fill="#FFFFFF"></path>
                <path d="M169.684052,75.7491252 C169.984644,75.5988293 169.984644,75.2982376 169.984644,75.1479417 C169.984644,74.9976458 170.13494,74.697054 170.285236,74.3964623 C170.435532,73.9455746 170.736123,73.494687 171.036715,73.0437993 C171.637899,72.142024 172.239082,71.3905446 172.990562,70.6390652 C174.493521,69.2864022 176.447367,68.3846269 178.551509,67.9337393 C182.759794,67.031964 187.118375,68.8355146 190.124292,71.8414322 C193.280506,74.8473499 194.783465,79.3562264 194.031985,83.8651029 C193.280506,88.0733876 190.875772,91.9810806 187.418967,94.3858147 C183.962161,96.9408448 179.603581,97.8426201 175.395296,97.0911406 C173.441449,96.7905489 171.337307,95.8887736 169.684052,95.1372942 C167.730206,94.085223 166.377543,92.8828559 164.874584,91.530193 C163.521921,90.0272341 162.319554,88.5242753 161.417779,86.7207247 C160.516003,84.9171741 159.91482,83.1136235 159.463932,81.159777 C158.712453,77.4023799 159.013045,73.494687 160.215412,69.8875858 C161.417779,66.4307804 163.371625,62.9739751 165.926655,60.2686492 C168.481685,57.5633233 171.637899,55.3088851 175.245,53.9562221 C178.701805,52.4532633 182.609498,51.8520798 186.366895,52.0023756 C190.124292,52.1526715 193.88169,53.2047427 197.338495,54.8579974 C200.7953,56.5112521 203.801218,58.7656904 206.506544,61.6213122 L206.957431,62.2224957 C207.258023,62.5230875 207.258023,62.6733834 207.408319,62.8236792 L208.310094,63.8757504 C208.911278,64.7775257 209.362166,65.5290051 209.813053,66.4307804 C210.714828,68.234331 211.316012,70.0378816 211.7669,71.8414322 C212.668675,75.5988293 212.668675,79.5065223 212.368083,83.2639194 C212.067491,87.0213165 211.165716,90.7787135 209.512461,94.085223 L209.512461,94.2355189 L207.859207,93.0331518 C213.420154,89.8769382 218.530214,86.1195412 223.640274,82.51244 L239.271046,71.5408405 L270.382294,49.5976415 L286.013066,38.626042 L293.828452,33.2153902 L297.736145,30.5100643 L299.689991,29.1574014 L300.742063,28.5562178 L301.643838,27.9550343 L303.597684,26.4520755 L305.100643,24.9491166 C305.551531,24.498229 306.002419,23.8970455 306.453306,23.2958619 C306.904194,22.6946784 307.355081,22.2437907 307.655673,21.6426072 C309.308928,19.2378731 310.360999,16.6828431 310.661591,13.9775172 C310.962183,11.2721913 310.511295,8.41656947 309.008336,6.16213122 C307.505377,3.90769297 304.649756,2.25443825 301.493542,1.65325472 C304.649756,1.05207118 308.407153,1.8035506 310.962183,4.35858062 C313.667509,6.91361063 314.869876,10.6710077 314.71958,14.2781089 C314.71958,17.8852101 313.216621,21.3420154 311.41307,24.1976372 C310.962183,24.9491166 310.360999,25.5503002 309.910111,26.3017796 C309.308928,26.9029631 308.85804,27.6544425 308.106561,28.2556261 L306.152714,30.0591767 L304.198868,31.5621355 C303.898276,31.8627273 303.74798,32.0130232 303.146797,32.3136149 L302.094726,32.9147985 L300.140879,34.2674614 L296.233186,36.9727873 L288.4178,42.2331432 L272.486437,52.6035592 L240.623709,73.3443911 L224.692346,83.714807 C219.43199,87.1716123 214.021338,90.6284177 209.061574,94.5361106 L206.957431,96.1893653 L207.558615,93.3337436 L207.558615,93.1834477 C208.159798,89.5763465 208.911278,86.1195412 209.21187,82.6627358 C209.662757,79.2059305 209.512461,75.5988293 208.911278,72.2923199 C208.610686,70.6390652 208.009503,68.9858105 207.258023,67.4828516 C206.957431,66.7313722 206.506544,65.9798928 206.055656,65.3787093 L205.304177,64.3266381 L205.003585,63.8757504 L204.552697,63.4248628 C202.298259,60.7195369 199.592933,58.6153945 196.43672,56.9621398 C193.280506,55.3088851 189.973997,54.2568139 186.517191,53.9562221 C183.060386,53.6556304 179.453285,54.106518 176.146775,55.6094768 C172.840266,56.9621398 169.984644,58.9159863 167.429614,61.4710163 C165.02488,64.0260463 163.221329,67.031964 162.169258,70.4887693 C161.117187,73.7952787 161.117187,77.4023799 161.868666,80.7088894 C162.319554,82.3621441 163.071033,84.0153988 163.972809,85.3680617 C164.874584,86.8710206 165.926655,88.0733876 167.279318,89.2757547 C168.481685,90.3278259 169.984644,91.3798971 171.337307,91.9810806 C172.990562,92.73256 174.493521,93.1834477 175.996479,93.3337436 C179.152693,93.6343353 182.308907,92.5822641 184.713641,90.7787135 C187.118375,88.9751629 188.771629,86.1195412 189.372813,83.2639194 C189.823701,80.4082976 188.921925,77.4023799 187.118375,74.9976458 C186.216599,73.7952787 184.863937,72.8935034 183.511274,72.142024 C182.008315,71.3905446 180.655652,71.0899528 179.002397,71.2402487 C177.499438,71.3905446 175.846184,71.8414322 174.643816,72.8935034 C174.042633,73.3443911 173.441449,73.9455746 172.840266,74.5467581 C172.539674,74.8473499 172.389378,75.1479417 172.239082,75.5988293 C172.088786,75.7491252 172.088786,75.8994211 171.938491,76.2000129 C171.938491,76.3503087 171.637899,76.6509005 171.788195,76.9514923 L169.684052,75.7491252 L169.684052,75.7491252 Z" id="Shape" fill="#FFFFFF"></path>
                <path d="M417.67226,342.073431 C420.377586,344.177573 422.78232,343.275798 423.834391,342.223726 C423.984687,342.073431 424.285279,341.923135 424.285279,341.923135 L424.435575,341.772839 C424.58587,341.622543 424.736166,341.472247 424.886462,341.171655 C425.187054,340.871063 425.487646,340.420176 425.637942,339.969288 C426.088829,339.067513 426.239125,338.165738 426.239125,337.263962 C426.239125,336.813075 426.088829,336.362187 425.938533,335.911299 L425.788238,335.610708 L425.788238,335.610708 L425.788238,335.610708 C425.788238,335.761003 425.637942,335.460412 425.938533,335.761003 L425.938533,335.610708 L425.788238,335.310116 C425.637942,334.859228 425.33735,334.558636 425.187054,334.40834 C424.736166,333.656861 423.684095,332.60479 422.78232,332.003606 C420.828473,330.650943 418.273443,330.04976 416.019005,330.650943 L415.11723,330.951535 L414.666342,331.101831 L414.516046,331.252127 L414.36575,331.252127 C414.36575,331.252127 414.215455,331.402423 414.516046,331.101831 L414.516046,331.101831 L414.516046,331.101831 C413.764567,331.552719 412.862792,331.85331 412.411904,332.153902 C411.359833,332.755086 410.157466,333.656861 409.25569,334.708932 C408.353915,335.761003 407.602436,336.96337 407.001252,338.165738 C406.400069,339.368105 405.949181,340.871063 405.798885,342.223726 C405.498293,343.576389 405.498293,345.079348 405.798885,346.582307 C405.949181,348.085266 406.400069,349.437929 407.001252,350.790592 C407.752732,352.443846 408.504211,353.646214 409.405986,354.848581 C409.856874,355.449764 410.307762,356.050948 410.908945,356.652131 C411.359833,357.253315 411.961016,357.854498 412.5622,358.305386 C414.966934,360.409528 417.67226,362.062783 420.828473,362.964558 C423.834391,364.016629 427.1409,364.166925 430.44741,363.866334 C432.100665,363.716038 433.603623,363.26515 435.256878,362.814262 C436.008358,362.513671 436.910133,362.213079 437.511316,361.912487 L439.765755,360.71012 C442.621376,359.056865 445.326702,357.103019 447.581141,354.547989 C449.835579,351.992959 451.789425,349.287633 453.142088,346.281715 C454.494751,343.275798 455.546822,339.969288 456.148006,336.662779 C456.598894,333.356269 456.598894,330.04976 456.148006,326.592955 C455.697118,323.286445 454.645047,320.130232 453.292384,316.974018 L453.292384,316.974018 L453.292384,316.823722 C452.390609,313.9681 450.587058,311.112479 448.633212,308.707744 C447.581141,307.505377 446.529069,306.30301 445.326702,305.250939 C444.725519,304.649756 444.124335,304.198868 443.523152,303.597684 L441.569305,302.094726 C439.014275,300.140879 436.158653,298.487624 433.303032,297.134961 C431.950369,296.383482 430.297114,295.932594 428.794155,295.331411 C427.291196,294.730227 425.788238,294.27934 424.134983,293.828452 C421.129065,292.776381 417.822556,292.325493 414.666342,291.72431 C413.013087,291.423718 411.510129,291.423718 409.856874,291.123126 C408.203619,290.97283 406.70066,290.672238 405.047406,290.672238 L400.237937,290.521943 L397.833203,290.521943 L395.428469,290.672238 C392.12196,290.822534 388.81545,290.97283 385.659237,291.72431 L381.000064,292.626085 L376.340892,293.978748 C373.184678,294.730227 370.329057,296.08289 367.323139,297.285257 C365.82018,297.886441 364.467517,298.63792 362.964558,299.3894 C361.611895,300.140879 360.108937,300.742063 358.756274,301.643838 C356.050948,303.297093 353.195326,304.950347 350.640296,306.904194 C347.93497,308.707744 345.530236,310.811887 343.125502,312.916029 C340.720768,315.170467 338.316033,317.27461 336.211891,319.679344 C333.957453,322.084078 331.85331,324.488812 329.899464,327.043842 C327.945617,329.598872 325.991771,332.153902 324.338516,334.859228 L324.18822,335.009524 L324.037925,335.15982 L318.176385,342.674614 L315.170467,346.432011 L314.418988,347.333786 L314.118396,347.784674 L313.9681,347.93497 L313.667509,348.235562 L313.517213,348.385858 L311.863958,350.189408 C307.355081,354.848581 302.395317,359.207161 297.134961,363.114854 C286.463954,370.779944 273.688804,375.890004 260.462766,377.092371 L258.058032,377.392963 L255.503002,377.543259 L252.947972,377.543259 L250.392942,377.392963 L249.190575,377.392963 L248.589391,377.392963 L248.288799,377.392963 L248.138503,377.392963 L247.988208,377.392963 L247.687616,377.392963 L245.282882,377.092371 C243.629627,376.942075 242.126668,376.79178 240.473413,376.340892 C237.016608,375.739708 233.860394,374.687637 230.704181,373.48527 L226.045009,371.381128 L221.686428,368.826098 C215.975184,365.218997 210.865124,360.559824 206.807135,355.299468 C202.749147,349.888816 199.592933,343.876981 197.639087,337.414258 C195.68524,330.951535 194.933761,324.18822 195.384648,317.424906 L195.384648,316.823722 L195.384648,316.52313 L195.384648,316.222539 L195.384648,316.072243 L195.534944,314.869876 L195.835536,312.465141 C196.286424,310.811887 196.587015,308.85804 197.188199,307.355081 C198.24027,304.048572 199.893525,301.042654 201.697075,298.187033 C203.650922,295.331411 205.90536,292.776381 208.610686,290.672238 C211.316012,288.568096 214.021338,286.61425 217.177551,285.261587 C220.333765,283.908924 223.489979,282.856852 226.796488,282.405965 C230.102997,281.804781 233.409507,281.804781 236.866312,282.105373 C243.629627,282.856852 250.09235,286.61425 254.150339,292.024901 C258.208328,297.435553 260.011878,304.49946 258.659215,311.112479 C257.156256,318.026089 251.294717,323.286445 244.531402,324.037925 C242.878147,324.18822 241.074597,324.18822 239.421342,323.887629 C237.617792,323.436741 236.114833,322.685262 234.76217,321.482894 C232.056844,319.228456 230.553885,315.771651 230.854477,312.16455 L232.958619,312.314846 C232.658027,315.170467 233.860394,318.026089 236.114833,319.979936 C237.166904,320.881711 238.519567,321.63319 239.87223,321.933782 C241.375189,322.234374 242.727852,322.234374 244.23081,322.084078 C247.086432,321.63319 249.942054,320.280527 252.046196,318.326681 C254.150339,316.372834 255.653298,313.517213 256.104185,310.811887 C257.005961,304.950347 255.20241,298.63792 251.445013,294.129044 C247.687616,289.469871 242.126668,286.61425 236.265129,286.163362 C230.403589,285.86277 224.241458,287.065137 219.131398,289.770463 C216.426072,291.123126 214.171634,292.926677 211.917196,294.730227 C209.813053,296.684074 207.859207,298.938512 206.356248,301.493542 C204.853289,304.048572 203.500626,306.603602 202.749147,309.459224 C202.298259,310.811887 202.147963,312.16455 201.847371,313.517213 L201.54678,315.921947 L201.396484,317.124314 L201.396484,318.026089 C201.095892,324.037925 201.997667,330.04976 203.801218,335.610708 C207.408319,346.882899 215.073409,356.952723 224.992937,363.26515 C229.952702,366.421364 235.663945,368.675802 241.375189,369.878169 C242.727852,370.329057 244.381106,370.479352 245.884065,370.629648 L248.288799,370.93024 L250.392942,371.080536 L252.64738,371.230832 L254.901818,371.230832 L257.156256,371.230832 L259.410695,371.080536 C271.434365,370.028465 283.157444,365.519588 293.227268,358.605978 C298.337328,355.149172 302.996501,351.241479 307.355081,346.732603 L309.008336,345.079348 L309.158632,344.929052 C309.308928,344.778756 309.008336,345.079348 309.008336,345.079348 L309.008336,345.079348 L309.158632,344.929052 L309.60952,344.478165 L310.360999,343.576389 L313.366917,339.969288 L319.378752,332.60479 L319.228456,332.905382 C321.182303,329.899464 323.136149,327.344434 325.390587,324.639108 C327.49473,322.084078 329.749168,319.529048 332.153902,317.124314 C334.558636,314.71958 336.96337,312.465141 339.5184,310.210703 C342.223726,308.106561 344.778756,306.002419 347.484082,304.048572 C350.189408,302.094726 353.195326,300.441471 356.050948,298.63792 C357.403611,297.736145 359.056865,297.134961 360.559824,296.383482 C362.062783,295.632003 363.565742,294.880523 365.218997,294.27934 C368.37521,293.076973 371.531424,291.72431 374.837933,290.97283 L379.797697,289.620167 L384.907757,288.868688 C388.364563,288.117208 391.520776,288.117208 394.827286,287.966912 L397.23202,287.816617 C398.284091,287.816617 398.885274,287.816617 399.78705,287.966912 L404.746814,288.267504 C406.400069,288.267504 408.053323,288.568096 409.706578,288.718392 C411.359833,288.868688 413.013087,289.018984 414.666342,289.319575 C417.972852,290.071055 421.279361,290.521943 424.435575,291.574014 C426.088829,292.024901 427.591788,292.475789 429.245043,293.227268 C430.748002,293.828452 432.401256,294.429635 433.904215,295.181115 C436.910133,296.684074 439.916051,298.337328 442.621376,300.441471 L444.575223,301.94443 C445.176406,302.545613 445.77759,303.146797 446.378774,303.74798 C447.581141,304.950347 448.783508,306.30301 449.835579,307.505377 C451.939721,310.210703 453.743272,313.066325 454.945639,316.52313 L454.945639,316.372834 C456.448598,319.679344 457.500669,323.136149 457.951557,326.592955 C458.402444,330.200056 458.402444,333.807157 457.951557,337.263962 C457.350373,340.871063 456.298302,344.177573 454.795343,347.484082 C453.292384,350.640296 451.188242,353.646214 448.783508,356.351539 C446.378774,359.056865 443.523152,361.311304 440.366938,363.114854 L438.1125,364.317221 C437.210725,364.768109 436.459245,365.068701 435.55747,365.519588 C433.904215,366.271068 432.100665,366.721955 430.297114,367.022547 C426.690013,367.623731 422.932616,367.473435 419.325515,366.721955 C415.718413,365.82018 412.261608,364.317221 409.25569,362.062783 C408.504211,361.461599 407.752732,360.860416 407.151548,360.259232 C406.400069,359.658049 405.798885,358.906569 405.197702,358.15509 C403.995334,356.802427 402.642671,354.848581 401.891192,353.495918 C400.839121,351.692367 400.087641,349.888816 399.636754,347.93497 C399.185866,345.981123 399.03557,343.876981 399.185866,341.923135 C399.336162,339.818992 399.78705,337.865146 400.538529,335.911299 C401.290009,333.957453 402.191784,332.153902 403.544447,330.500647 C404.89711,328.847393 406.249773,327.49473 408.053323,326.142067 C409.105394,325.390587 409.706578,325.089996 410.458057,324.639108 L410.458057,324.639108 L410.758649,324.488812 L410.908945,324.338516 L411.359833,324.18822 L412.111312,323.887629 C412.5622,323.737333 413.163383,323.587037 413.764567,323.436741 C418.123147,322.234374 423.082912,322.985853 426.840309,325.390587 C428.794155,326.74325 430.297114,328.095913 431.800073,330.350352 C432.250961,330.951535 432.401256,331.252127 432.551552,331.703015 L432.701848,332.003606 L432.852144,332.153902 L433.00244,332.454494 L433.00244,332.60479 L433.303032,333.506565 C433.753919,334.708932 434.054511,335.911299 434.054511,337.263962 C434.204807,339.818992 433.603623,342.374022 432.401256,344.478165 C431.800073,345.530236 430.898298,346.582307 429.996522,347.333786 C429.545635,347.784674 429.094747,348.085266 428.493563,348.536153 C428.192972,348.686449 427.89238,348.836745 427.591788,348.987041 C427.291196,349.137337 427.1409,349.137337 426.990605,349.287633 C424.435575,350.339704 421.579953,350.339704 419.325515,349.137337 C417.071076,347.93497 415.568117,345.680532 415.417822,343.576389 L417.67226,342.073431 L417.67226,342.073431 Z" id="Shape" fill="#FFFFFF"></path>
            </g>
        </g>
    </g>
</svg>